<?xml version="1.0" encoding="utf-8"?>
<!-- Generator: Adobe Illustrator 18.0.0, SVG Export Plug-In . SVG Version: 6.00 Build 0)  -->
<!DOCTYPE svg PUBLIC "-//W3C//DTD SVG 1.1//EN" "http://www.w3.org/Graphics/SVG/1.1/DTD/svg11.dtd">
<svg version="1.1" id="Layer_1" xmlns="http://www.w3.org/2000/svg" xmlns:xlink="http://www.w3.org/1999/xlink" x="0px" y="0px"
	 viewBox="0 0 80 60" enable-background="new 0 0 80 60" xml:space="preserve">
<g>
	<g>
		<g>
			<path fill="none" stroke="#7961AA" stroke-width="1.0432" stroke-linecap="round" stroke-linejoin="round" d="M15.2,46.8V24.5
				c0-1,0.8-1.7,1.7-1.7h3.5c1,0,1.7,0.8,1.7,1.7v22.3"/>
		</g>
		<g>
			<path fill="none" stroke="#7961AA" stroke-width="1.0432" stroke-linecap="round" stroke-linejoin="round" d="M27.1,46.8v-13
				c0-1,0.8-1.7,1.7-1.7h11.2c1,0,1.7,0.8,1.7,1.7v13"/>
		</g>
		<g>
			<path fill="none" stroke="#7961AA" stroke-width="1.0432" stroke-linecap="round" stroke-linejoin="round" d="M33.8,32V16.5
				c0-1,0.7-1.4,1.6-1.1l7.3,3.1c0.9,0.4,1.6,1.5,1.6,2.4V27"/>
		</g>
		<g>
			<path fill="none" stroke="#7961AA" stroke-width="1.0432" stroke-linecap="round" stroke-linejoin="round" d="M37,32v-3.3
				c0-1,0.8-1.7,1.7-1.7H46c1,0,1.7,0.8,1.7,1.7v9.5"/>
		</g>
		<g>
			<path fill="none" stroke="#7961AA" stroke-width="1.0432" stroke-linecap="round" stroke-linejoin="round" d="M20.3,22.8V10.7
				c0-1,0.8-1.7,1.7-1.7h6.3c1,0,1.7,0.8,1.7,1.7V32"/>
		</g>
	</g>
	<g>
		<path fill="none" stroke="#7961AA" stroke-width="1.0432" stroke-linecap="round" stroke-linejoin="round" d="M50.2,50.8
			c0,0,0-0.1,0,1.9c0,4.4,4.4,4.4,4.4,4.4h1.5"/>
		
			<line fill="none" stroke="#7961AA" stroke-width="1.0432" stroke-linecap="round" stroke-linejoin="round" x1="57.6" y1="56.4" x2="57.6" y2="57.7"/>
		
			<line fill="none" stroke="#7961AA" stroke-width="1.0432" stroke-linecap="round" stroke-linejoin="round" x1="59.1" y1="56" x2="59.1" y2="58.1"/>
		<polygon fill="none" stroke="#7961AA" stroke-width="1.0432" stroke-linecap="round" stroke-linejoin="round" points="65.8,54.8 
			65.8,59.3 71.8,59.3 71.8,58.2 77.7,58.2 77.7,57.3 77.7,55.8 71.8,55.8 71.8,54.8 		"/>
		
			<circle fill="none" stroke="#7961AA" stroke-width="1.0432" stroke-linecap="round" stroke-linejoin="round" cx="29.9" cy="29.7" r="29"/>
		
			<line fill="none" stroke="#7961AA" stroke-width="1.0432" stroke-linecap="round" stroke-linejoin="round" x1="77.9" y1="57" x2="79.1" y2="57"/>
		<polygon fill="none" stroke="#7961AA" stroke-width="1.0432" stroke-linecap="round" stroke-linejoin="round" points="60.8,55.8 
			65.7,55.3 65.7,58.8 60.8,58.2 		"/>
	</g>
</g>
</svg>
