<?xml version="1.0" encoding="utf-8"?>
<!-- Generator: Adobe Illustrator 18.0.0, SVG Export Plug-In . SVG Version: 6.00 Build 0)  -->
<!DOCTYPE svg PUBLIC "-//W3C//DTD SVG 1.1//EN" "http://www.w3.org/Graphics/SVG/1.1/DTD/svg11.dtd">
<svg version="1.1" id="Layer_1" xmlns="http://www.w3.org/2000/svg" xmlns:xlink="http://www.w3.org/1999/xlink" x="0px" y="0px"
	 viewBox="0 0 123.7 128.7" enable-background="new 0 0 123.7 128.7" xml:space="preserve">
<g>
	<path fill="none" stroke="#424243" stroke-width="2" stroke-miterlimit="10" d="M26.2,98.8c-1.6,0-3-1.3-3-3s1.3-3,3-3s3,1.3,3,3
		S27.8,98.8,26.2,98.8z"/>
	<path fill="none" stroke="#424243" stroke-width="2" stroke-linecap="round" stroke-linejoin="round" stroke-miterlimit="10" d="
		M31.4,110.9H20.7c-5.1,0-9.3-4.1-9.3-9.3V58.3c0-5.1,4.1-9.3,9.3-9.3h10.8c5.1,0,9.3,4.1,9.3,9.3v43.4
		C40.7,106.8,36.6,110.9,31.4,110.9z"/>
	<path fill="none" stroke="#424243" stroke-width="2" stroke-linecap="round" stroke-linejoin="round" stroke-miterlimit="10" d="
		M86.5,64.6h15.4c3.7,0,6.7-3,6.7-6.7v-2.6c0-3.7-3-6.7-6.7-6.7H77h-1.6c0,0,15.3-27.3-9-30.3c0,0-4.2,15.5-7.9,21.2
		c0,0-6.5,10.6-17.4,13.9"/>
	<path fill="none" stroke="#424243" stroke-width="2" stroke-linecap="round" stroke-linejoin="round" stroke-miterlimit="10" d="
		M103.7,64.6h5.1c3.7,0,6.7,3,6.7,6.7v1.5c0,3.7-3,6.7-6.7,6.7H86.3"/>
	<path fill="none" stroke="#424243" stroke-width="2" stroke-linecap="round" stroke-linejoin="round" stroke-miterlimit="10" d="
		M86.9,95.5h11c3.7,0,6.7,2.8,6.7,6.3v2.4c0,3.5-3,6.3-6.7,6.3l-41.4,0.1c-7.5-0.1-16.1-5.1-16.1-5.1"/>
	<path fill="none" stroke="#424243" stroke-width="2" stroke-linecap="round" stroke-linejoin="round" stroke-miterlimit="10" d="
		M103.6,79.6c3.7,0,6.7,3,6.7,6.7v2.6c0,3.7-3,6.7-6.7,6.7h-4.7"/>
	
		<line fill="none" stroke="#424243" stroke-width="2" stroke-linecap="round" stroke-linejoin="round" stroke-miterlimit="10" x1="20.2" y1="49.7" x2="20.2" y2="76.8"/>
</g>
</svg>
