<?xml version="1.0" encoding="utf-8"?>
<!-- Generator: Adobe Illustrator 18.0.0, SVG Export Plug-In . SVG Version: 6.00 Build 0)  -->
<!DOCTYPE svg PUBLIC "-//W3C//DTD SVG 1.1//EN" "http://www.w3.org/Graphics/SVG/1.1/DTD/svg11.dtd">
<svg version="1.1" id="Layer_1" xmlns="http://www.w3.org/2000/svg" xmlns:xlink="http://www.w3.org/1999/xlink" x="0px" y="0px"
	 viewBox="0 0 80 60" enable-background="new 0 0 80 60" xml:space="preserve">
<g>
	<g>
		
			<line fill="none" stroke="#7961AA" stroke-width="1.0432" stroke-linecap="round" stroke-linejoin="round" x1="17.1" y1="21.8" x2="17.1" y2="9.5"/>
		
			<line fill="none" stroke="#7961AA" stroke-width="1.0432" stroke-linecap="round" stroke-linejoin="round" x1="17.1" y1="48.8" x2="17.1" y2="34.1"/>
		<g>
			<path fill="none" stroke="#7961AA" stroke-width="1.0432" stroke-linecap="round" stroke-linejoin="round" d="M20.2,32.4
				c0,1-0.8,1.7-1.7,1.7h-4.2c-1,0-1.7-0.8-1.7-1.7v-8.9c0-1,0.8-1.7,1.7-1.7h4.2c1,0,1.7,0.8,1.7,1.7V32.4z"/>
		</g>
		
			<line fill="none" stroke="#7961AA" stroke-width="1.0432" stroke-linecap="round" stroke-linejoin="round" x1="14.7" y1="32.6" x2="14.7" y2="23.9"/>
		
			<line fill="none" stroke="#7961AA" stroke-width="1.0432" stroke-linecap="round" stroke-linejoin="round" x1="30.5" y1="29.4" x2="30.5" y2="23.9"/>
		
			<line fill="none" stroke="#7961AA" stroke-width="1.0432" stroke-linecap="round" stroke-linejoin="round" x1="30.5" y1="14" x2="30.5" y2="9.5"/>
		
			<line fill="none" stroke="#7961AA" stroke-width="1.0432" stroke-linecap="round" stroke-linejoin="round" x1="43.4" y1="29.4" x2="43.4" y2="26.4"/>
		
			<line fill="none" stroke="#7961AA" stroke-width="1.0432" stroke-linecap="round" stroke-linejoin="round" x1="43.4" y1="17.2" x2="43.4" y2="9.5"/>
		<g>
			<path fill="none" stroke="#7961AA" stroke-width="1.0432" stroke-linecap="round" stroke-linejoin="round" d="M33.6,21.9
				c0,0.8-0.7,1.5-1.5,1.5h-4.7c-0.8,0-1.5-0.7-1.5-1.5v-6.2c0-0.8,0.7-1.5,1.5-1.5h4.7c0.8,0,1.5,0.7,1.5,1.5V21.9z"/>
		</g>
		
			<line fill="none" stroke="#7961AA" stroke-width="1.0432" stroke-linecap="round" stroke-linejoin="round" x1="28.1" y1="21.5" x2="28.1" y2="16"/>
		<g>
			<path fill="none" stroke="#7961AA" stroke-width="1.0432" stroke-linecap="round" stroke-linejoin="round" d="M46.8,24.9
				c0,0.8-0.7,1.5-1.5,1.5h-4.7c-0.8,0-1.5-0.7-1.5-1.5v-6.2c0-0.8,0.7-1.5,1.5-1.5h4.7c0.8,0,1.5,0.7,1.5,1.5V24.9z"/>
		</g>
		
			<line fill="none" stroke="#7961AA" stroke-width="1.0432" stroke-linecap="round" stroke-linejoin="round" x1="41.3" y1="24.4" x2="41.3" y2="19.1"/>
		<g>
			<path fill="none" stroke="#7961AA" stroke-width="1.0432" stroke-linecap="round" stroke-linejoin="round" d="M40.9,41.4
				c0,1-0.8,1.7-1.7,1.7H27.7c-1,0-1.7-0.8-1.7-1.7v-7.5c0-1,0.8-1.7,1.7-1.7h11.5c1,0,1.7,0.8,1.7,1.7V41.4z"/>
		</g>
		<path fill="none" stroke="#7961AA" stroke-width="1.0432" stroke-linecap="round" stroke-linejoin="round" d="M42.3,47.2
			c0-1-0.9-1.9-1.9-1.9l-13.9,0c-1,0-1.9,0.9-1.9,1.9l0,1.2h17.7L42.3,47.2z"/>
	</g>
	<g>
		<path fill="none" stroke="#7961AA" stroke-width="1.0432" stroke-linecap="round" stroke-linejoin="round" d="M50.2,50.8
			c0,0,0-0.1,0,1.9c0,4.4,4.4,4.4,4.4,4.4h1.5"/>
		
			<line fill="none" stroke="#7961AA" stroke-width="1.0432" stroke-linecap="round" stroke-linejoin="round" x1="57.6" y1="56.4" x2="57.6" y2="57.7"/>
		
			<line fill="none" stroke="#7961AA" stroke-width="1.0432" stroke-linecap="round" stroke-linejoin="round" x1="59.1" y1="56" x2="59.1" y2="58.1"/>
		<polygon fill="none" stroke="#7961AA" stroke-width="1.0432" stroke-linecap="round" stroke-linejoin="round" points="65.8,54.8 
			65.8,59.3 71.8,59.3 71.8,58.2 77.7,58.2 77.7,57.3 77.7,55.8 71.8,55.8 71.8,54.8 		"/>
		
			<circle fill="none" stroke="#7961AA" stroke-width="1.0432" stroke-linecap="round" stroke-linejoin="round" cx="29.9" cy="29.7" r="29"/>
		
			<line fill="none" stroke="#7961AA" stroke-width="1.0432" stroke-linecap="round" stroke-linejoin="round" x1="77.9" y1="57" x2="79.1" y2="57"/>
		<polygon fill="none" stroke="#7961AA" stroke-width="1.0432" stroke-linecap="round" stroke-linejoin="round" points="60.8,55.8 
			65.7,55.3 65.7,58.8 60.8,58.2 		"/>
	</g>
</g>
</svg>
