<?xml version="1.0" encoding="utf-8"?>
<!-- Generator: Adobe Illustrator 18.0.0, SVG Export Plug-In . SVG Version: 6.00 Build 0)  -->
<!DOCTYPE svg PUBLIC "-//W3C//DTD SVG 1.1//EN" "http://www.w3.org/Graphics/SVG/1.1/DTD/svg11.dtd">
<svg version="1.1" id="Layer_1" xmlns="http://www.w3.org/2000/svg" xmlns:xlink="http://www.w3.org/1999/xlink" x="0px" y="0px"
	 viewBox="0 0 123.7 128.7" enable-background="new 0 0 123.7 128.7" xml:space="preserve">
<g>
	<path fill="none" stroke="#424243" stroke-width="2" stroke-miterlimit="10" d="M29.2,81.7l-6.9,6.9l15.3,15.3l6.9-6.9
		C38.5,92.9,33.3,87.7,29.2,81.7z"/>
	<path fill="none" stroke="#424243" stroke-width="2" stroke-miterlimit="10" d="M7.5,103.4c-2,2-3.2,4.8-3.2,7.7
		c0,2.9,1.1,5.6,3.2,7.7c2.1,2.1,4.9,3.2,7.7,3.2s5.5-1.1,7.7-3.2l9.7-9.7L17.3,93.6L7.5,103.4z"/>
	<path fill="none" stroke="#424243" stroke-width="2" stroke-miterlimit="10" d="M74.1,7.4c-24.4,0-44.2,19.8-44.2,44.2
		s19.8,44.2,44.2,44.2s44.2-19.8,44.2-44.2S98.5,7.4,74.1,7.4z"/>
	<path fill="none" stroke="#424243" stroke-width="2" stroke-miterlimit="10" d="M58.6,42.2c0-9,7.3-16.3,16.3-16.3
		s16.3,7.3,16.3,16.3c0,6.4-3.7,12-9.1,14.6c-2.2,1.1-7.1,3-7.1,10"/>
	<circle fill="none" stroke="#424243" stroke-width="2" stroke-miterlimit="10" cx="75.1" cy="76.6" r="2.8"/>
</g>
</svg>
