<?xml version="1.0" encoding="utf-8"?>
<!-- Generator: Adobe Illustrator 18.0.0, SVG Export Plug-In . SVG Version: 6.00 Build 0)  -->
<!DOCTYPE svg PUBLIC "-//W3C//DTD SVG 1.1//EN" "http://www.w3.org/Graphics/SVG/1.1/DTD/svg11.dtd">
<svg version="1.1" id="Layer_1" xmlns="http://www.w3.org/2000/svg" xmlns:xlink="http://www.w3.org/1999/xlink" x="0px" y="0px"
	 viewBox="0 0 180 130" enable-background="new 0 0 180 130" xml:space="preserve">
<g>
	
		<circle fill="none" stroke="#FFFFFF" stroke-width="2.2289" stroke-linecap="round" stroke-linejoin="round" cx="69.3" cy="64.5" r="63.3"/>
	<path fill="none" stroke="#FFFFFF" stroke-width="2.2289" stroke-linecap="round" stroke-linejoin="round" d="M56.6,117.3"/>
	<g>
		<path fill="none" stroke="#FFFFFF" stroke-width="2.2289" stroke-linecap="round" stroke-linejoin="round" d="M114.2,109.7
			c0,0,0-0.3,0,4.1c0,9.4,9.4,9.4,9.4,9.4h3.2"/>
		
			<line fill="none" stroke="#FFFFFF" stroke-width="2.2289" stroke-linecap="round" stroke-linejoin="round" x1="130" y1="121.6" x2="130" y2="124.5"/>
		
			<line fill="none" stroke="#FFFFFF" stroke-width="2.2289" stroke-linecap="round" stroke-linejoin="round" x1="133.3" y1="120.9" x2="133.3" y2="125.2"/>
		<polygon fill="none" stroke="#FFFFFF" stroke-width="2.2289" stroke-linecap="round" stroke-linejoin="round" points="
			147.6,118.2 147.6,127.8 160.4,127.8 160.4,125.6 173.1,125.6 173.1,123.6 173.1,120.3 160.4,120.3 160.4,118.2 		"/>
		
			<line fill="none" stroke="#FFFFFF" stroke-width="2.2289" stroke-linecap="round" stroke-linejoin="round" x1="173.5" y1="123" x2="175.9" y2="123"/>
		<polygon fill="none" stroke="#FFFFFF" stroke-width="2.2289" stroke-linecap="round" stroke-linejoin="round" points="
			136.9,120.4 147.3,119.3 147.3,126.8 136.9,125.5 		"/>
	</g>
	<g>
		<path fill="none" stroke="#FFFFFF" stroke-width="2.2289" stroke-linecap="round" stroke-linejoin="round" d="M42.2,60
			c-11,4.1-16.9-7.4-16.9-7.4l70.4-30.3c0,0,4.7,11.4-4.9,16.2C87.3,40.2,55.3,55.2,42.2,60z"/>
		<path fill="none" stroke="#FFFFFF" stroke-width="2.2289" stroke-linecap="round" stroke-linejoin="round" d="M100.1,32.3
			l5.6,13.1c0.8,1.9-0.1,4.1-1.9,4.9L44.9,75.6c-1.9,0.8-4.1-0.1-4.9-1.9l-3.8-8.8c0,0,4.5,0.4,8.4-1.1c3.9-1.5,37.3-16.1,50.2-22.5
			C97.4,40,100.4,37,100.1,32.3z"/>
		<path fill="none" stroke="#FFFFFF" stroke-width="2.2289" stroke-linecap="round" stroke-linejoin="round" d="M112.9,94.5h-6.6
			c-0.2,0-0.3-0.1-0.3-0.3V75.8c0-0.2,0.1-0.3,0.3-0.3h6.6c0.2,0,0.3,0.1,0.3,0.3v18.4C113.2,94.4,113.1,94.5,112.9,94.5z"/>
		<path fill="none" stroke="#FFFFFF" stroke-width="2.2289" stroke-linecap="round" stroke-linejoin="round" d="M25.2,59.3
			c0,0,3,3.2,6.9,4.5l5.2,11.5l-4,1.8L25.2,59.3z"/>
		<polygon fill="none" stroke="#FFFFFF" stroke-width="2.2289" stroke-linecap="round" stroke-linejoin="round" points="29.6,76.4 
			25.7,78.2 20.3,66.2 24.3,64.4 		"/>
		<path fill="none" stroke="#FFFFFF" stroke-width="2.2289" stroke-linecap="round" stroke-linejoin="round" d="M84.8,76.3
			c-1.9-3.1-3.7-7.7-0.4-10c0.3-0.2,1.3-0.5,1.3-0.5c0.4-0.1,0.5-0.6,0.4-0.9L84.8,62l-17.1,7.2l1.5,3.6c1.2-0.7,2.7-0.9,4.1-0.4
			c1.7,0.6,3.8,2.3,4.9,6.7c0,0.1,0.1,0.2,0.1,0.4C79.8,77.6,82.1,76.4,84.8,76.3z"/>
		<path fill="none" stroke="#FFFFFF" stroke-width="2.2289" stroke-linecap="round" stroke-linejoin="round" d="M103,82.6
			c0-0.7-0.6-1.2-1.2-1.2h-8.7c0.6,1.2,0.9,2.5,0.9,3.9c0,1.4-0.3,2.8-0.9,4h8.7c0.7,0,1.2-0.6,1.2-1.2V82.6z"/>
		<g>
			<path fill="#FFFFFF" d="M85.2,80.4L85.2,80.4c1.2,0,2.3,0.4,3.5,1.2c1.3,1.9,1.6,3.9,0.7,5.6c-0.8,1.6-2.4,2.5-4.2,2.5
				c-1.2,0-2.3-0.4-3.5-1.2c-1.3-1.9-1.6-3.9-0.7-5.6C81.8,81.4,83.4,80.4,85.2,80.4 M85.2,78.1c-5.4,0-9.3,6.1-5.3,11.7
				c0.1,0.2,0.3,0.3,0.4,0.4c1.6,1.2,3.3,1.7,4.8,1.7c5.4,0,9.3-6.1,5.3-11.7c-0.1-0.2-0.3-0.3-0.4-0.4
				C88.3,78.7,86.7,78.1,85.2,78.1L85.2,78.1z"/>
		</g>
	</g>
</g>
</svg>
