<?xml version="1.0" encoding="utf-8"?>
<!-- Generator: Adobe Illustrator 18.0.0, SVG Export Plug-In . SVG Version: 6.00 Build 0)  -->
<!DOCTYPE svg PUBLIC "-//W3C//DTD SVG 1.1//EN" "http://www.w3.org/Graphics/SVG/1.1/DTD/svg11.dtd">
<svg version="1.1" id="Layer_1" xmlns="http://www.w3.org/2000/svg" xmlns:xlink="http://www.w3.org/1999/xlink" x="0px" y="0px"
	 viewBox="0 0 180 130" enable-background="new 0 0 180 130" xml:space="preserve">
<g>
	
		<circle fill="none" stroke="#FFFFFF" stroke-width="2.2289" stroke-linecap="round" stroke-linejoin="round" cx="69.3" cy="64.5" r="63.3"/>
	<path fill="none" stroke="#FFFFFF" stroke-width="2.2289" stroke-linecap="round" stroke-linejoin="round" d="M56.6,117.3"/>
	<g>
		<path fill="none" stroke="#FFFFFF" stroke-width="2.2289" stroke-linecap="round" stroke-linejoin="round" d="M114.2,109.7
			c0,0,0-0.3,0,4.1c0,9.4,9.4,9.4,9.4,9.4h3.2"/>
		
			<line fill="none" stroke="#FFFFFF" stroke-width="2.2289" stroke-linecap="round" stroke-linejoin="round" x1="129.9" y1="121.6" x2="129.9" y2="124.5"/>
		
			<line fill="none" stroke="#FFFFFF" stroke-width="2.2289" stroke-linecap="round" stroke-linejoin="round" x1="133.3" y1="120.9" x2="133.3" y2="125.2"/>
		<polygon fill="none" stroke="#FFFFFF" stroke-width="2.2289" stroke-linecap="round" stroke-linejoin="round" points="
			147.6,118.2 147.6,127.8 160.4,127.8 160.4,125.6 173.1,125.6 173.1,123.6 173.1,120.3 160.4,120.3 160.4,118.2 		"/>
		
			<line fill="none" stroke="#FFFFFF" stroke-width="2.2289" stroke-linecap="round" stroke-linejoin="round" x1="173.5" y1="123" x2="175.9" y2="123"/>
		<polygon fill="none" stroke="#FFFFFF" stroke-width="2.2289" stroke-linecap="round" stroke-linejoin="round" points="
			136.9,120.4 147.3,119.3 147.3,126.8 136.9,125.5 		"/>
	</g>
	<g>
		<path fill="none" stroke="#FFFFFF" stroke-width="2.2289" stroke-linecap="round" stroke-linejoin="round" d="M69.3,98.7
			c8.3,0,15.6,4.7,19.2,11.5H89l-19.8-50l-19.8,50H50C53.7,103.4,60.9,98.7,69.3,98.7z"/>
		<g>
			<path fill="none" stroke="#FFFFFF" stroke-width="2.2289" stroke-linecap="round" stroke-linejoin="round" d="M69.5,57.1"/>
			<path fill="none" stroke="#FFFFFF" stroke-width="2.2289" stroke-linecap="round" stroke-linejoin="round" d="M101.6,89.2
				c8.1-8.2,13.1-19.4,13.1-31.9c0-12.5-5.1-23.9-13.3-32.1"/>
			<path fill="none" stroke="#FFFFFF" stroke-width="2.2289" stroke-linecap="round" stroke-linejoin="round" d="M68.8,57.1"/>
			<path fill="none" stroke="#FFFFFF" stroke-width="2.2289" stroke-linecap="round" stroke-linejoin="round" d="M37,25.3
				c-8.1,8.2-13.2,19.5-13.2,32c0,12.4,4.9,23.6,13,31.7"/>
		</g>
		<g>
			<path fill="none" stroke="#FFFFFF" stroke-width="2.2289" stroke-linecap="round" stroke-linejoin="round" d="M68.8,57.1"/>
			<path fill="none" stroke="#FFFFFF" stroke-width="2.2289" stroke-linecap="round" stroke-linejoin="round" d="M43.3,31.6
				c-6.5,6.6-10.6,15.7-10.6,25.7c0,9.9,4,18.9,10.4,25.5"/>
			<path fill="none" stroke="#FFFFFF" stroke-width="2.2289" stroke-linecap="round" stroke-linejoin="round" d="M69.5,57.1"/>
			<path fill="none" stroke="#FFFFFF" stroke-width="2.2289" stroke-linecap="round" stroke-linejoin="round" d="M95.3,82.9
				c6.5-6.6,10.5-15.6,10.5-25.6c0-10.1-4.1-19.2-10.7-25.8"/>
		</g>
		<g>
			<path fill="none" stroke="#FFFFFF" stroke-width="2.2289" stroke-linecap="round" stroke-linejoin="round" d="M68.8,57.1"/>
			<path fill="none" stroke="#FFFFFF" stroke-width="2.2289" stroke-linecap="round" stroke-linejoin="round" d="M69.5,57.1"/>
		</g>
		<g>
			<path fill="none" stroke="#FFFFFF" stroke-width="2.2289" stroke-linecap="round" stroke-linejoin="round" d="M68.8,57.1"/>
			<path fill="none" stroke="#FFFFFF" stroke-width="2.2289" stroke-linecap="round" stroke-linejoin="round" d="M69.5,57.1"/>
		</g>
		
			<circle fill="none" stroke="#FFFFFF" stroke-width="2.2289" stroke-linecap="round" stroke-linejoin="round" cx="69.5" cy="57.1" r="9.3"/>
		
			<circle fill="none" stroke="#FFFFFF" stroke-width="2.2289" stroke-linecap="round" stroke-linejoin="round" cx="69.5" cy="57.1" r="15.1"/>
		<path fill="none" stroke="#FFFFFF" stroke-width="2.2289" stroke-linecap="round" stroke-linejoin="round" d="M93.4,57.1
			C93.4,70.3,82.7,81,69.5,81c-13.2,0-23.9-10.7-23.9-23.9c0-13.2,10.7-23.9,23.9-23.9C82.7,33.2,93.4,43.9,93.4,57.1z"/>
	</g>
</g>
</svg>
