<?xml version="1.0" encoding="utf-8"?>
<!-- Generator: Adobe Illustrator 18.0.0, SVG Export Plug-In . SVG Version: 6.00 Build 0)  -->
<!DOCTYPE svg PUBLIC "-//W3C//DTD SVG 1.1//EN" "http://www.w3.org/Graphics/SVG/1.1/DTD/svg11.dtd">
<svg version="1.1" id="Layer_1" xmlns="http://www.w3.org/2000/svg" xmlns:xlink="http://www.w3.org/1999/xlink" x="0px" y="0px"
	 viewBox="0 0 180 130" enable-background="new 0 0 180 130" xml:space="preserve">
<g>
	<g>
		<g>
			<g>
				<rect x="50.7" y="47" fill="none" stroke="#FFFFFF" stroke-width="2.2289" stroke-linecap="round" width="18.2" height="12.5"/>
				<line fill="none" stroke="#FFFFFF" stroke-width="2.2289" stroke-linecap="round" x1="76.6" y1="49" x2="87.6" y2="49"/>
				<line fill="none" stroke="#FFFFFF" stroke-width="2.2289" stroke-linecap="round" x1="76.6" y1="57.9" x2="87.6" y2="57.9"/>
				<line fill="none" stroke="#FFFFFF" stroke-width="2.2289" stroke-linecap="round" x1="50.6" y1="66" x2="87.6" y2="66"/>
				<line fill="none" stroke="#FFFFFF" stroke-width="2.2289" stroke-linecap="round" x1="50.6" y1="74.7" x2="72.7" y2="74.7"/>
				<line fill="none" stroke="#FFFFFF" stroke-width="2.2289" stroke-linecap="round" x1="50.6" y1="83" x2="72.7" y2="83"/>
			</g>
			<g>
				<path fill="none" stroke="#FFFFFF" stroke-width="2.2289" stroke-linecap="round" d="M93.4,89.7c3.4-3.4,6.2-10.1,6.2-14.9V33.1
					c0-4.8-3.9-8.7-8.7-8.7H47.7c-4.8,0-8.7,3.9-8.7,8.7v62.7c0,4.8,3.9,8.7,8.7,8.7h22c4.8,0,11.5-2.8,14.9-6.2L93.4,89.7z"/>
			</g>
			<g>
				<path fill="none" stroke="#FFFFFF" stroke-width="2.2289" stroke-linecap="round" d="M86.6,97c3.5-3.3,7.9-8.6,9.7-11.9
					c1.8-3.3-0.6-5.3-5.3-4.6l-3,0.5c-4.7,0.8-8.6,5.4-8.6,10.2V95c0,4.8,2.9,6.1,6.4,2.8L86.6,97z"/>
			</g>
		</g>
	</g>
	<circle fill="none" stroke="#FFFFFF" stroke-width="2.2289" stroke-linecap="round" cx="69.3" cy="64.5" r="63.3"/>
	<path fill="none" stroke="#FFFFFF" stroke-width="2.2289" stroke-linecap="round" d="M56.6,117.3"/>
	<g>
		<path fill="none" stroke="#FFFFFF" stroke-width="2.2289" stroke-linecap="round" d="M114.2,109.7c0,0,0-0.3,0,4.1
			c0,9.4,9.4,9.4,9.4,9.4h3.2"/>
		<line fill="none" stroke="#FFFFFF" stroke-width="2.2289" stroke-linecap="round" x1="130" y1="121.6" x2="130" y2="124.5"/>
		<line fill="none" stroke="#FFFFFF" stroke-width="2.2289" stroke-linecap="round" x1="133.3" y1="120.9" x2="133.3" y2="125.2"/>
		<polygon fill="none" stroke="#FFFFFF" stroke-width="2.2289" stroke-linecap="round" points="147.6,118.2 147.6,127.8 
			160.5,127.8 160.5,125.6 173.1,125.6 173.1,123.6 173.1,120.3 160.5,120.3 160.5,118.2 		"/>
		<line fill="none" stroke="#FFFFFF" stroke-width="2.2289" stroke-linecap="round" x1="173.5" y1="123" x2="176" y2="123"/>
		<polygon fill="none" stroke="#FFFFFF" stroke-width="2.2289" stroke-linecap="round" points="136.9,120.4 147.3,119.3 
			147.3,126.8 136.9,125.5 		"/>
	</g>
</g>
</svg>
