<?xml version="1.0" encoding="utf-8"?>
<!-- Generator: Adobe Illustrator 18.0.0, SVG Export Plug-In . SVG Version: 6.00 Build 0)  -->
<!DOCTYPE svg PUBLIC "-//W3C//DTD SVG 1.1//EN" "http://www.w3.org/Graphics/SVG/1.1/DTD/svg11.dtd">
<svg version="1.1" id="Layer_1" xmlns="http://www.w3.org/2000/svg" xmlns:xlink="http://www.w3.org/1999/xlink" x="0px" y="0px"
	 viewBox="0 0 18 18" enable-background="new 0 0 18 18" xml:space="preserve">
<g>
	<circle fill="none" stroke="#414142" stroke-width="0.68" stroke-linecap="round" cx="9" cy="9" r="8.2"/>
	<g>
		<g>
			<g>
				<g>
					<g>
						<path fill="#414142" d="M10.4,8.5L10.4,8.5H9.1H6.9v1.2H9c-0.3,0.9-1.1,1.5-2.1,1.5c-1.2,0-2.2-1-2.2-2.3c0-1.2,1-2.3,2.2-2.3
							c0.5,0,1,0.2,1.4,0.5h0.1l0.9-0.9C8.7,5.7,7.8,5.4,6.9,5.4C4.9,5.4,3.3,7,3.3,9c0,2,1.6,3.6,3.5,3.6c0.3,0,0.5,0,0.8-0.1
							c0.5-0.1,1-0.3,1.4-0.7c0.4-0.3,0.7-0.7,1-1.2c0.1-0.2,0.2-0.5,0.3-0.7c0.1-0.3,0.1-0.6,0.1-1C10.4,8.8,10.4,8.7,10.4,8.5z"/>
						<rect x="12.6" y="7.4" fill="#414142" width="1" height="3.1"/>
						<rect x="11.5" y="8.5" fill="#414142" width="3.1" height="1"/>
					</g>
				</g>
			</g>
		</g>
	</g>
</g>
</svg>
