<?xml version="1.0" encoding="utf-8"?>
<!-- Generator: Adobe Illustrator 18.0.0, SVG Export Plug-In . SVG Version: 6.00 Build 0)  -->
<!DOCTYPE svg PUBLIC "-//W3C//DTD SVG 1.1//EN" "http://www.w3.org/Graphics/SVG/1.1/DTD/svg11.dtd">
<svg version="1.1" id="Layer_1" xmlns="http://www.w3.org/2000/svg" xmlns:xlink="http://www.w3.org/1999/xlink" x="0px" y="0px"
	 viewBox="0 0 18 18" enable-background="new 0 0 18 18" xml:space="preserve">
<g>
	<circle fill="none" stroke="#414142" stroke-width="0.68" stroke-linecap="round" cx="9" cy="9" r="8.2"/>
	<g>
		<path fill="#414142" d="M11.6,13.5H6.4c-1.1,0-1.9-0.8-1.9-1.9V6.4c0-1,0.9-1.9,1.9-1.9h5.1c1.1,0,1.9,0.8,1.9,1.9v5.3
			C13.5,12.7,12.6,13.5,11.6,13.5 M6.4,5.2c-0.6,0-1.2,0.5-1.2,1.1v5.3c0,0.6,0.5,1.1,1.2,1.1h5.1c0.6,0,1.2-0.5,1.2-1.1V6.4
			c0-0.6-0.5-1.1-1.2-1.1H6.4z"/>
		<path fill="#414142" d="M9,11.4c-1.3,0-2.4-1.1-2.4-2.4c0-1.3,1.1-2.4,2.4-2.4c1.3,0,2.4,1.1,2.4,2.4C11.4,10.3,10.3,11.4,9,11.4
			 M9,7.4C8.1,7.4,7.4,8.1,7.4,9c0,0.9,0.7,1.6,1.6,1.6c0.9,0,1.6-0.7,1.6-1.6C10.6,8.1,9.9,7.4,9,7.4z"/>
		<path fill="#414142" d="M12.1,6.5c0,0.3-0.2,0.6-0.5,0.6c-0.3,0-0.6-0.2-0.6-0.6C11,6.2,11.2,6,11.5,6C11.8,6,12.1,6.2,12.1,6.5"
			/>
	</g>
</g>
</svg>
