<?xml version="1.0" encoding="utf-8"?>
<!-- Generator: Adobe Illustrator 18.0.0, SVG Export Plug-In . SVG Version: 6.00 Build 0)  -->
<!DOCTYPE svg PUBLIC "-//W3C//DTD SVG 1.1//EN" "http://www.w3.org/Graphics/SVG/1.1/DTD/svg11.dtd">
<svg version="1.1" id="Layer_1" xmlns="http://www.w3.org/2000/svg" xmlns:xlink="http://www.w3.org/1999/xlink" x="0px" y="0px"
	 viewBox="0 0 18 18" enable-background="new 0 0 18 18" xml:space="preserve">
<g>
	<circle fill="none" stroke="#414142" stroke-width="0.68" stroke-linecap="round" cx="9" cy="9" r="8.2"/>
	<g>
		<polygon fill="#414142" points="5,8.9 5,12.8 6.9,12.8 6.9,8.6 6.9,7.5 5,7.5 		"/>
		<circle fill="#414142" cx="5.9" cy="5.8" r="0.9"/>
		<path fill="#414142" d="M13,9.1c-0.1-1-0.6-1.6-1.9-1.6c-0.8,0-1.3,0.3-1.6,0.7h0V7.5H7.9v1v4.3h1.6v-2.6c0-0.7,0.1-1.4,1-1.4
			c0.8,0,0.9,0.8,0.9,1.4v2.6H13V9.9C13,9.6,13,9.4,13,9.1z"/>
	</g>
</g>
</svg>
