<?xml version="1.0" encoding="utf-8"?>
<!-- Generator: Adobe Illustrator 18.0.0, SVG Export Plug-In . SVG Version: 6.00 Build 0)  -->
<!DOCTYPE svg PUBLIC "-//W3C//DTD SVG 1.1//EN" "http://www.w3.org/Graphics/SVG/1.1/DTD/svg11.dtd">
<svg version="1.1" id="Layer_1" xmlns="http://www.w3.org/2000/svg" xmlns:xlink="http://www.w3.org/1999/xlink" x="0px" y="0px"
	 viewBox="0 0 18 18" enable-background="new 0 0 18 18" xml:space="preserve">
<g>
	<circle fill="none" stroke="#414142" stroke-width="0.68" stroke-linecap="round" cx="9" cy="9" r="8.2"/>
	<path fill-rule="evenodd" clip-rule="evenodd" fill="#414142" d="M10.6,8.9L8,10.3l0-2.2V7.4l1.2,0.7L10.6,8.9z M13.8,6.9
		c0,0-0.1-0.7-0.4-1c-0.4-0.4-0.8-0.4-1-0.4C11.1,5.4,9,5.4,9,5.4h0c0,0-2.1,0-3.5,0.1c-0.2,0-0.6,0-1,0.4c-0.3,0.3-0.4,1-0.4,1
		S4.1,7.8,4.1,8.6v0.1v0.7c0,0.8,0.1,1.7,0.1,1.7s0.1,0.7,0.4,1c0.4,0.4,0.9,0.4,1.1,0.4C6.4,12.6,9,12.6,9,12.6s2.1,0,3.5-0.1
		c0.2,0,0.6,0,1-0.4c0.3-0.3,0.4-1,0.4-1s0.1-0.8,0.1-1.7V8.8V8.6C13.9,7.8,13.8,6.9,13.8,6.9L13.8,6.9z"/>
</g>
</svg>
