<?xml version="1.0" encoding="utf-8"?>
<!-- Generator: Adobe Illustrator 18.0.0, SVG Export Plug-In . SVG Version: 6.00 Build 0)  -->
<!DOCTYPE svg PUBLIC "-//W3C//DTD SVG 1.1//EN" "http://www.w3.org/Graphics/SVG/1.1/DTD/svg11.dtd">
<svg version="1.1" id="Layer_1" xmlns="http://www.w3.org/2000/svg" xmlns:xlink="http://www.w3.org/1999/xlink" x="0px" y="0px"
	 viewBox="0 0 200 120" enable-background="new 0 0 200 120" xml:space="preserve">
<g>
	<g>
		<path fill="#FFFFFF" d="M184.1,82H15.6c-5,0-9.1-4.1-9.1-9.1V46.5c0-5,4.1-9.1,9.1-9.1h168.5c5,0,9.1,4.1,9.1,9.1v26.4
			C193.2,77.9,189.1,82,184.1,82z"/>
	</g>
</g>
<g>
	<path fill="#6C54A3" d="M47.2,68.7c-3.5,0-5.8-2-6.6-5l2.1-0.4c0.6,2.3,2.2,3.5,4.5,3.5c2.4,0,3.8-1.3,3.8-3.2
		c0-1.8-1.1-2.9-3.5-3.4L46,60c-3.4-0.6-4.9-2.2-4.9-5c0-2.5,1.8-4.8,5.5-4.8c3.2,0,5.4,1.8,6,4.7l-2,0.4c-0.5-1.8-1.7-3.3-4-3.3
		s-3.5,1.5-3.5,3c0,1.6,0.9,2.7,3.2,3.2l1.5,0.3c3.5,0.6,5.2,2.3,5.2,5.2C53,66.5,51,68.7,47.2,68.7z"/>
	<path fill="#6C54A3" d="M55.9,50.2h1.9v2.4h-1.9V50.2z M55.9,55.7h1.9v12.7h-1.9V55.7z"/>
	<path fill="#6C54A3" d="M69.2,67c-0.7,1-2,1.7-3.6,1.7c-3,0-4.6-2.3-4.6-5.4v-2.6c0-3.1,1.6-5.4,4.6-5.4c1.6,0,2.9,0.7,3.6,1.7
		v-1.4h1.9v13c0,3.4-1.6,5.6-4.9,5.6c-2.3,0-4-1.2-4.7-3.3l1.9-0.5c0.5,1.3,1.5,2,2.8,2c1.9,0,3-1.4,3-4V67z M62.9,63
		c0,2.6,1,4,3.3,4c1.5,0,2.5-0.8,3.1-2.1V59c-0.6-1.2-1.6-2.1-3.1-2.1c-2.2,0-3.3,1.4-3.3,4V63z"/>
	<path fill="#6C54A3" d="M82.6,68.4V61c0-2.6-0.8-3.9-2.9-3.9c-1.4,0-2.7,0.9-3.4,2.3v9h-1.9V55.7h1.9v1.6c0.8-1.2,2.2-1.9,3.9-1.9
		c2.8,0,4.4,2,4.4,5.3v7.8L82.6,68.4L82.6,68.4z"/>
	<path fill="#6C54A3" d="M102.5,68.4V61c0-2.6-0.8-3.9-2.9-3.9c-1.4,0-2.7,0.9-3.4,2.3v9h-1.9V55.7h1.9v1.6c0.8-1.2,2.2-1.9,3.9-1.9
		c1.8,0,3.1,0.8,3.7,2.3c1.1-1.5,2.6-2.3,4.5-2.3c2.8,0,4.4,2,4.4,5.3v7.8h-1.9v-7.4c0-2.6-0.8-4-2.9-4c-1.5,0-2.6,0.9-3.5,2.5
		c0,0.4,0.1,0.7,0.1,1.1v7.8L102.5,68.4L102.5,68.4z"/>
	<path fill="#6C54A3" d="M115.5,63.3v-2.6c0-2.9,2.1-5.4,5.3-5.4s5.3,2.5,5.3,5.4v2h-8.6V63c0,2.5,1.5,4,3.4,4
		c1.5,0,2.6-0.8,3.1-2.2l2,0.3c-0.7,2.2-2.5,3.5-5,3.5C117.6,68.7,115.5,66.2,115.5,63.3z M117.4,61.1h6.7V61c0-2.5-1.5-4-3.4-4
		S117.4,58.5,117.4,61.1L117.4,61.1z"/>
	<path fill="#6C54A3" d="M137.3,55.7V63c0,2.6,0.8,3.9,2.9,3.9c1.4,0,2.7-0.9,3.4-2.3v-9h1.9v12.7h-1.8v-1.6
		c-0.8,1.2-2.2,1.9-3.9,1.9c-2.8,0-4.4-2-4.4-5.3v-7.8L137.3,55.7L137.3,55.7z"/>
	<path fill="#6C54A3" d="M150.7,74h-1.9V55.7h1.9V57c0.7-1,2-1.7,3.6-1.7c3,0,4.6,2.3,4.6,5.4v2.6c0,3.1-1.6,5.4-4.6,5.4
		c-1.6,0-2.9-0.7-3.6-1.7V74z M157.1,61c0-2.6-1-4-3.3-4c-1.5,0-2.5,0.8-3.1,2.1v5.7c0.6,1.2,1.6,2.1,3.1,2.1c2.2,0,3.3-1.4,3.3-4
		V61z"/>
</g>
</svg>
