<?xml version="1.0" encoding="utf-8"?>
<!-- Generator: Adobe Illustrator 18.0.0, SVG Export Plug-In . SVG Version: 6.00 Build 0)  -->
<!DOCTYPE svg PUBLIC "-//W3C//DTD SVG 1.1//EN" "http://www.w3.org/Graphics/SVG/1.1/DTD/svg11.dtd">
<svg version="1.1" id="Layer_1" xmlns="http://www.w3.org/2000/svg" xmlns:xlink="http://www.w3.org/1999/xlink" x="0px" y="0px"
	 viewBox="0 0 141.7 141.7" enable-background="new 0 0 141.7 141.7" xml:space="preserve">
<g>
	<g>
		<circle fill="#6C54A2" cx="70.4" cy="71.2" r="51"/>
	</g>
	<path fill="#FFFFFF" d="M86.6,54.6c-3.2,0-5.7,2.6-5.7,5.7c0,3.2,2.6,5.7,5.7,5.7c3.2,0,5.7-2.6,5.7-5.7
		C92.3,57.2,89.7,54.6,86.6,54.6z M54.2,54.6c-3.2,0-5.7,2.6-5.7,5.7c0,3.2,2.6,5.7,5.7,5.7c3.1,0,5.7-2.6,5.7-5.7
		C59.9,57.2,57.3,54.6,54.2,54.6z M70.4,43.2c-4.7,0-8.5,3.8-8.5,8.5c0,4.7,3.8,8.5,8.5,8.5c4.7,0,8.5-3.8,8.5-8.5
		C78.8,47,75,43.2,70.4,43.2z M95.7,93.9h-10V75.6c0-2.5-0.7-4.8-1.7-6.9c0.8-0.2,1.7-0.4,2.6-0.4c5,0,9.2,4.1,9.2,9.1V93.9z
		 M55,75.6v18.3H45V77.4c0-5,4.1-9.1,9.2-9.1c0.9,0,1.7,0.2,2.6,0.4C55.7,70.8,55,73.1,55,75.6z M57.1,99.2h26.5V75.6
		c0-7.3-6-13.3-13.3-13.3c-7.3,0-13.3,6-13.3,13.3V99.2z"/>
</g>
</svg>
