<?xml version="1.0" encoding="utf-8"?>
<!-- Generator: Adobe Illustrator 18.0.0, SVG Export Plug-In . SVG Version: 6.00 Build 0)  -->
<!DOCTYPE svg PUBLIC "-//W3C//DTD SVG 1.1//EN" "http://www.w3.org/Graphics/SVG/1.1/DTD/svg11.dtd">
<svg version="1.1" id="Layer_1" xmlns="http://www.w3.org/2000/svg" xmlns:xlink="http://www.w3.org/1999/xlink" x="0px" y="0px"
	 viewBox="0 0 141.7 141.7" enable-background="new 0 0 141.7 141.7" xml:space="preserve">
<g>
	<g>
		<circle fill="#6C54A2" cx="70.1" cy="71.2" r="51"/>
	</g>
	<path fill="#FFFFFF" d="M92,48.9H48.3c-2.1,0-3.8,1.7-3.8,3.8v29.2c0,2.1,1.7,3.8,3.8,3.8h17.1v3.5H50.1c-1.1,0-2.1,0.9-2.1,2.1
		c0,1.1,0.9,2.1,2.1,2.1h40.6c1.1,0,2.1-0.9,2.1-2.1c0-1.1-0.9-2.1-2.1-2.1H76.8v-3.5H92c2.1,0,3.8-1.7,3.8-3.8V52.7
		C95.8,50.6,94.1,48.9,92,48.9z M91.2,77.1c0,1.8-1.5,3.3-3.3,3.3H52.4c-1.8,0-3.3-1.5-3.3-3.3V57.6c0-1.8,1.5-3.3,3.3-3.3h35.5
		c1.8,0,3.3,1.5,3.3,3.3V77.1z"/>
</g>
</svg>
