<?xml version="1.0" encoding="utf-8"?>
<!-- Generator: Adobe Illustrator 18.0.0, SVG Export Plug-In . SVG Version: 6.00 Build 0)  -->
<!DOCTYPE svg PUBLIC "-//W3C//DTD SVG 1.1//EN" "http://www.w3.org/Graphics/SVG/1.1/DTD/svg11.dtd">
<svg version="1.1" id="Layer_1" xmlns="http://www.w3.org/2000/svg" xmlns:xlink="http://www.w3.org/1999/xlink" x="0px" y="0px"
	 viewBox="0 0 217 63.3" enable-background="new 0 0 217 63.3" xml:space="preserve">
<g>
	<g opacity="0.7">
		<g>
			<path fill="#6C54A3" d="M201.8,56.4H16.5c-5.5,0-10-4.5-10-10v-29c0-5.5,4.5-10,10-10h185.3c5.5,0,10,4.5,10,10v29
				C211.8,52,207.3,56.4,201.8,56.4z"/>
		</g>
	</g>
	<g>
		<path fill="#FFFFFF" d="M47,42.2c-4,0-6.8-2.3-7.8-5.9l2.4-0.5c0.8,2.6,2.6,4.2,5.3,4.2c2.8,0,4.5-1.5,4.5-3.8
			c0-2.2-1.3-3.4-4.2-3.9L45.6,32c-4-0.8-5.8-2.5-5.8-5.8c0-2.8,2.1-5.7,6.5-5.7c3.8,0,6.4,2.2,7.1,5.5L51,26.5
			c-0.5-2.2-2-3.8-4.7-3.8c-2.7,0-4.1,1.7-4.1,3.6c0,2,1.1,3.2,3.8,3.7l1.8,0.3c4.1,0.8,6.1,2.7,6.1,6.1
			C53.9,39.6,51.6,42.2,47,42.2z"/>
		<path fill="#FFFFFF" d="M57.4,20.5h2.2v2.8h-2.2V20.5z M57.4,26.8h2.2v15h-2.2V26.8z"/>
		<path fill="#FFFFFF" d="M73.1,40.2c-0.8,1.2-2.3,2-4.3,2c-3.5,0-5.5-2.7-5.5-6.3v-3.1c0-3.6,1.9-6.3,5.5-6.3c2,0,3.5,0.8,4.3,2
			v-1.6h2.2v15.4c0,3.9-2,6.6-5.8,6.6c-2.6,0-4.7-1.4-5.5-3.8l2.2-0.5c0.6,1.5,1.7,2.4,3.3,2.4c2.2,0,3.5-1.6,3.5-4.7V40.2z
			 M65.6,35.5c0,3.1,1.2,4.7,3.8,4.7c1.7,0,2.9-1,3.7-2.4v-6.8c-0.7-1.4-2-2.4-3.7-2.4c-2.6,0-3.8,1.6-3.8,4.7V35.5z"/>
		<path fill="#FFFFFF" d="M88.9,41.8v-8.7c0-3.1-0.9-4.7-3.5-4.7c-1.6,0-3.2,1-4,2.7v10.6h-2.2v-15h2.2v1.9c1-1.4,2.5-2.3,4.6-2.3
			c3.3,0,5.1,2.3,5.1,6.2v9.2H88.9z"/>
		<path fill="#FFFFFF" d="M112.4,41.8v-8.7c0-3.1-0.9-4.7-3.5-4.7c-1.6,0-3.2,1-4,2.7v10.6h-2.2v-15h2.2v1.9c1-1.4,2.5-2.3,4.6-2.3
			c2.1,0,3.7,1,4.4,2.7c1.3-1.7,3.1-2.7,5.3-2.7c3.3,0,5.1,2.3,5.1,6.2v9.2h-2.2v-8.7c0-3.1-0.9-4.7-3.5-4.7c-1.7,0-3.1,1-4.1,2.9
			c0,0.4,0.1,0.8,0.1,1.3v9.2H112.4z"/>
		<path fill="#FFFFFF" d="M127.6,35.9v-3.1c0-3.4,2.5-6.3,6.2-6.3s6.2,2.9,6.2,6.3v2.4h-10.2v0.3c0,3,1.7,4.7,4,4.7
			c1.8,0,3.1-0.9,3.6-2.5l2.3,0.4c-0.8,2.5-2.9,4.2-5.9,4.2C130.1,42.2,127.6,39.4,127.6,35.9z M129.8,33.4h7.9v-0.2
			c0-3-1.7-4.7-4-4.7s-4,1.7-4,4.7V33.4z"/>
		<path fill="#FFFFFF" d="M153.3,26.8v8.7c0,3.1,0.9,4.7,3.5,4.7c1.7,0,3.2-1,4-2.7V26.8h2.2v15h-2.2v-1.9c-1,1.4-2.5,2.3-4.6,2.3
			c-3.3,0-5.1-2.3-5.1-6.2v-9.2H153.3z"/>
		<path fill="#FFFFFF" d="M169.1,48.4h-2.2V26.8h2.2v1.6c0.8-1.2,2.3-2,4.3-2c3.5,0,5.5,2.7,5.5,6.3v3.1c0,3.6-1.9,6.3-5.5,6.3
			c-2,0-3.5-0.8-4.3-2V48.4z M176.6,33.2c0-3.1-1.2-4.7-3.8-4.7c-1.7,0-2.9,1-3.7,2.4v6.8c0.7,1.4,2,2.4,3.7,2.4
			c2.6,0,3.8-1.6,3.8-4.7V33.2z"/>
	</g>
</g>
</svg>
