<?xml version="1.0" encoding="utf-8"?>
<!-- Generator: Adobe Illustrator 18.0.0, SVG Export Plug-In . SVG Version: 6.00 Build 0)  -->
<!DOCTYPE svg PUBLIC "-//W3C//DTD SVG 1.1//EN" "http://www.w3.org/Graphics/SVG/1.1/DTD/svg11.dtd">
<svg version="1.1" id="Layer_1" xmlns="http://www.w3.org/2000/svg" xmlns:xlink="http://www.w3.org/1999/xlink" x="0px" y="0px"
	 viewBox="0 0 141.7 141.7" enable-background="new 0 0 141.7 141.7" xml:space="preserve">
<rect x="70.1" y="72.3" fill="#E07E72" width="0" height="0"/>
<path fill="#B0B0B0" d="M126.8,67.4c-2.2-29.5-26.7-52.7-56.7-52.7c-30,0-54.6,23.2-56.7,52.7c-0.1,1.4-0.2,2.8-0.2,4.3
	c0,31.5,25.5,57,57,57c31.5,0,57-25.5,57-57C127.1,70.2,126.9,68.8,126.8,67.4z M70.1,116.6c-24.8,0-44.9-20.1-44.9-44.9
	c0-1.7,0.1-3.3,0.3-4.9c2.4-22.5,21.5-40,44.6-40c23.1,0,42.1,17.5,44.6,40h0c0.2,1.6,0.3,3.2,0.3,4.9
	C115,96.5,94.9,116.6,70.1,116.6z"/>
<path fill="#FFFFFF" d="M70.1,119.2c-26.2,0-47.5-21.3-47.5-47.5c0-1.8,0.1-3.5,0.3-5.2c2.6-23.8,22.7-42.3,47.2-42.3
	c24.5,0,44.6,18.5,47.2,42.3h0c0.2,1.7,0.3,3.4,0.3,5.2C117.6,97.9,96.3,119.2,70.1,119.2z"/>
<g>
	<path fill="#7A62AA" d="M31.6,69.7l1.8-1c0.5,0.9,1.3,1.7,2.8,1.9v-3.7c-2.7-0.7-3.9-1.9-3.9-3.7c0-1.8,1.4-3.3,3.9-3.4v-2.5h1.3
		v2.6c1.7,0.2,2.9,1.2,3.5,2.1l-1.6,1.2c-0.3-0.6-0.9-1.2-1.9-1.4V65c2.8,0.7,4.2,1.9,4.2,3.9c0,2.2-1.4,3.5-4.2,3.7v2.6h-1.3v-2.6
		C33.6,72.3,32.2,71,31.6,69.7z M34.5,63c0,0.8,0.4,1.2,1.6,1.6v-3C35,61.7,34.5,62.2,34.5,63z M39.4,69.1c0-0.8-0.4-1.4-1.9-1.8
		v3.4C38.9,70.5,39.4,69.9,39.4,69.1z"/>
	<path fill="#7A62AA" d="M43.6,86.2v-4.5h5.7V62.5l-5.7,2.3v-4.8l6.4-3h4.3v24.7h5.6v4.5H43.6z"/>
	<path fill="#7A62AA" d="M77.6,70.4l-7.7,15.8h-5.4L69.9,75c-0.2,0-0.5,0.1-0.8,0.1c-5.6,0-9.5-4-9.5-9.2c0-5.2,3.8-9.3,9.5-9.3
		c5.7,0,9.5,4.2,9.5,9.3C78.6,67.5,78.2,69,77.6,70.4z M64.7,65.9c0,3,1.7,5,4.5,5c2.7,0,4.5-2,4.5-5c0-3-1.7-5-4.5-5
		C66.4,60.9,64.7,62.9,64.7,65.9z"/>
	<path fill="#7A62AA" d="M83.7,72.4h-3.3v-3.2h3.3V72.4z"/>
	<path fill="#7A62AA" d="M95.3,63.1l-4.5,9.2h-3.2l3.2-6.5c-0.1,0-0.3,0-0.5,0c-3.3,0-5.5-2.3-5.5-5.4c0-3,2.2-5.4,5.5-5.4
		c3.3,0,5.5,2.4,5.5,5.4C95.9,61.5,95.7,62.4,95.3,63.1z M87.8,60.5c0,1.8,1,2.9,2.6,2.9c1.6,0,2.6-1.1,2.6-2.9c0-1.8-1-2.9-2.6-2.9
		C88.8,57.6,87.8,58.8,87.8,60.5z"/>
	<path fill="#7A62AA" d="M100.7,66.8v0.1c0,2,0.8,3.2,2.4,3.2c1.6,0,2.4-1.1,2.4-3.3c0-2.4-1-3.3-2.4-3.3c-0.8,0-1.4,0.4-1.8,0.9
		h-2.9v-9h9.1V58h-6.2v3.8c0.5-0.5,1.3-0.8,2.3-0.8c2.7,0,4.8,1.9,4.8,5.9c0,3.6-1.9,5.8-5.4,5.8c-3.5,0-5.4-2.3-5.4-5.6L100.7,66.8
		z"/>
</g>
</svg>
