<?xml version="1.0" encoding="utf-8"?>
<!-- Generator: Adobe Illustrator 18.0.0, SVG Export Plug-In . SVG Version: 6.00 Build 0)  -->
<!DOCTYPE svg PUBLIC "-//W3C//DTD SVG 1.1//EN" "http://www.w3.org/Graphics/SVG/1.1/DTD/svg11.dtd">
<svg version="1.1" id="Layer_1" xmlns="http://www.w3.org/2000/svg" xmlns:xlink="http://www.w3.org/1999/xlink" x="0px" y="0px"
	 viewBox="0 0 157.5 116.5" enable-background="new 0 0 157.5 116.5" xml:space="preserve">
<g>
	<path fill="#7961AA" d="M115.7,57.8h-1c0,14.9-6,28.4-15.8,38.2c-9.8,9.8-23.3,15.8-38.2,15.8c-14.9,0-28.4-6-38.2-15.8
		C12.7,86.2,6.6,72.7,6.6,57.8c0-14.9,6-28.4,15.8-38.2C32.2,9.8,45.7,3.8,60.7,3.8c14.9,0,28.4,6,38.2,15.8
		c9.8,9.8,15.8,23.3,15.8,38.2L115.7,57.8h1c0-30.9-25.1-56-56-56c-30.9,0-56,25.1-56,56c0,30.9,25.1,56,56,56c30.9,0,56-25.1,56-56
		H115.7z"/>
	<path fill="#7961AA" d="M100.6,97.1L100.6,97.1L100.6,97.1c0-0.3-0.1-0.5-0.3-0.7c-0.2-0.2-0.4-0.3-0.7-0.3c-0.3,0-0.5,0.1-0.7,0.3
		c-0.2,0.2-0.3,0.4-0.3,0.7c0,0,0,0.2,0,3.6c0,2.2,0.6,4,1.4,5.3c1.3,2,3.3,2.9,4.8,3.4c1.6,0.5,2.8,0.5,2.9,0.5h2.8
		c0.5,0,1-0.4,1-1c0-0.5-0.4-1-1-1l-2.8,0l0,0c-0.2,0-2.1-0.1-3.8-1c-0.9-0.5-1.7-1.1-2.3-2.1c-0.6-1-1.1-2.3-1.1-4.1
		C100.6,97.3,100.6,97.1,100.6,97.1c0-0.3-0.1-0.5-0.3-0.7c-0.2-0.2-0.4-0.3-0.7-0.3c-0.3,0-0.5,0.1-0.7,0.3
		c-0.2,0.2-0.3,0.4-0.3,0.7v0c0,0.5,0.4,1,1,1C100.2,98.1,100.6,97.6,100.6,97.1L100.6,97.1z"/>
	<path fill="#7961AA" d="M112.4,107.4v2.5c0,0.5,0.4,1,1,1c0.5,0,1-0.4,1-1v-2.5c0-0.5-0.4-1-1-1
		C112.8,106.5,112.4,106.9,112.4,107.4"/>
	<path fill="#7961AA" d="M115.3,106.8v3.8c0,0.5,0.4,1,1,1c0.5,0,1-0.4,1-1v-3.8c0-0.5-0.4-1-1-1
		C115.7,105.8,115.3,106.3,115.3,106.8"/>
	<polygon fill="#7961AA" points="128.7,104.4 127.7,104.4 127.7,113.8 140.8,113.8 140.8,111.8 151.8,111.8 151.8,109.2 
		151.8,105.4 140.8,105.4 140.8,104.4 140.8,103.5 127.7,103.5 127.7,104.4 128.7,104.4 128.7,105.4 138.9,105.4 138.9,106.3 
		138.9,107.3 149.8,107.3 149.8,109.2 149.8,109.9 138.9,109.9 138.9,111.8 129.7,111.8 129.7,104.4 128.7,104.4 128.7,105.4 	"/>
	<path fill="#7961AA" d="M151.2,109.6h2.1c0.5,0,1-0.4,1-1c0-0.5-0.4-1-1-1h-2.1c-0.5,0-1,0.4-1,1
		C150.2,109.2,150.6,109.6,151.2,109.6"/>
	<polygon fill="#7961AA" points="119.4,106.4 119.5,107.3 127.5,106.5 127.5,110.9 120.3,110 120.3,106.4 119.4,106.4 119.5,107.3 
		119.4,106.4 118.4,106.4 118.4,111.7 129.4,113.1 129.4,104.3 118.4,105.5 118.4,106.4 	"/>
	<path fill="#7961AA" d="M44.7,29.4C50.7,23,59.3,19,68.8,19c9.1,0,17.3,3.7,23.3,9.7c6,6,9.7,14.2,9.7,23.3
		c0,9.1-3.7,17.3-9.7,23.3c-6,6-14.2,9.7-23.3,9.7c-5.4,0-10.5-1.3-14.9-3.6c-0.5-0.2-1.1-0.1-1.3,0.4c-0.2,0.5-0.1,1.1,0.4,1.3
		c4.7,2.4,10.1,3.8,15.8,3.8c19.3,0,34.9-15.6,34.9-34.9c0-19.3-15.6-34.9-34.9-34.9c-10.1,0-19.1,4.3-25.5,11.1
		c-0.4,0.4-0.3,1,0,1.4C43.7,29.8,44.3,29.8,44.7,29.4L44.7,29.4z"/>
	<path fill="#7961AA" d="M82.5,56.4C82,64.6,80.2,71.8,77.6,77c-1.3,2.6-2.7,4.6-4.3,5.9c-1.5,1.3-3.1,2-4.7,2
		c-1.1,0-2.2-0.3-3.2-0.9c-1.1-0.6-2.1-1.5-3.1-2.8c-0.3-0.4-0.9-0.5-1.4-0.1c-0.4,0.3-0.5,0.9-0.1,1.4c1.1,1.4,2.3,2.5,3.6,3.2
		c1.3,0.8,2.7,1.2,4.2,1.2c2.2,0,4.2-0.9,6-2.5c2.7-2.4,4.9-6.2,6.6-10.9c1.7-4.8,2.8-10.5,3.2-16.8c0-0.5-0.4-1-0.9-1
		C83,55.5,82.5,55.9,82.5,56.4L82.5,56.4z"/>
	<path fill="#7961AA" d="M58.5,29.4c1.3-3.3,3-6,4.7-7.8c1.8-1.8,3.6-2.7,5.4-2.7c1.6,0,3.2,0.7,4.8,2.1c2.3,2.1,4.5,5.7,6.1,10.3
		c1.6,4.6,2.7,10.3,3,16.5c0,0.5,0.5,0.9,1,0.9c0.5,0,0.9-0.5,0.9-1c-0.4-8.5-2.2-16-4.9-21.6c-1.4-2.8-3-5-4.8-6.6
		c-1.8-1.6-3.9-2.6-6-2.6c-2.5,0-4.8,1.2-6.8,3.3c-2,2-3.7,4.9-5.1,8.4c-0.2,0.5,0,1.1,0.5,1.3C57.7,30.1,58.3,29.9,58.5,29.4
		L58.5,29.4z"/>
	<path fill="#7961AA" d="M67.8,18v67.9c0,0.5,0.4,1,1,1c0.5,0,1-0.4,1-1V18c0-0.5-0.4-1-1-1C68.3,17,67.8,17.5,67.8,18"/>
	<path fill="#7961AA" d="M80.7,51H62.2c-0.5,0-1,0.4-1,1c0,0.5,0.4,1,1,1h18.5c0.5,0,1-0.4,1-1C81.7,51.4,81.3,51,80.7,51"/>
	<path fill="#7961AA" d="M102.7,51h-12c-0.5,0-1,0.4-1,1c0,0.5,0.4,1,1,1h12c0.5,0,1-0.4,1-1C103.7,51.4,103.3,51,102.7,51"/>
	<path fill="#7961AA" d="M62.2,38.3c2.1,0.3,4.4,0.5,6.6,0.5c9.8,0,18.7-3.2,25.4-8.3c0.4-0.3,0.5-0.9,0.2-1.4
		c-0.3-0.4-0.9-0.5-1.4-0.2c-6.4,4.9-14.9,7.9-24.3,7.9c-2.2,0-4.3-0.2-6.3-0.5c-0.5-0.1-1,0.3-1.1,0.8
		C61.3,37.7,61.6,38.2,62.2,38.3L62.2,38.3z"/>
	<path fill="#7961AA" d="M94.3,73.6c-6.8-5.2-15.7-8.4-25.5-8.4c-3,0-5.9,0.3-8.7,0.8c-0.5,0.1-0.9,0.6-0.8,1.1
		c0.1,0.5,0.6,0.9,1.1,0.8c2.7-0.5,5.4-0.8,8.3-0.8c9.4,0,18,3,24.4,8c0.4,0.3,1,0.2,1.4-0.2C94.8,74.5,94.8,73.9,94.3,73.6
		L94.3,73.6z"/>
	<path fill="#7961AA" d="M90.4,51.9h-1c0,1.9-1.5,3.4-3.4,3.4c-1.9,0-3.4-1.5-3.4-3.4c0-1.9,1.5-3.4,3.4-3.4c1.9,0,3.4,1.5,3.4,3.4
		H90.4h1c0-2.9-2.4-5.3-5.3-5.3c-2.9,0-5.3,2.4-5.3,5.3c0,2.9,2.4,5.3,5.3,5.3c2.9,0,5.3-2.4,5.3-5.3H90.4z"/>
	<path fill="#7961AA" d="M56.5,55.6h-1c0,0.7-0.6,1.3-1.3,1.3c-0.7,0-1.3-0.6-1.3-1.3c0-0.7,0.6-1.3,1.3-1.3c0.7,0,1.3,0.6,1.3,1.3
		H56.5h1c0-1.8-1.4-3.2-3.2-3.2c-1.8,0-3.2,1.4-3.2,3.2c0,1.8,1.4,3.2,3.2,3.2c1.8,0,3.2-1.4,3.2-3.2H56.5z"/>
	<path fill="#7961AA" d="M56.5,75.2h-1c0,0.7-0.6,1.3-1.3,1.3c-0.7,0-1.3-0.6-1.3-1.3c0-0.7,0.6-1.3,1.3-1.3c0.7,0,1.3,0.6,1.3,1.3
		H56.5h1c0-1.8-1.4-3.2-3.2-3.2c-1.8,0-3.2,1.4-3.2,3.2c0,1.8,1.4,3.2,3.2,3.2c1.8,0,3.2-1.4,3.2-3.2H56.5z"/>
	<path fill="#7961AA" d="M56.5,36.8h-1c0,0.7-0.6,1.3-1.3,1.3c-0.7,0-1.3-0.6-1.3-1.3c0-0.7,0.6-1.3,1.3-1.3c0.7,0,1.3,0.6,1.3,1.3
		H56.5h1c0-1.8-1.4-3.2-3.2-3.2c-1.8,0-3.2,1.4-3.2,3.2c0,1.8,1.4,3.2,3.2,3.2c1.8,0,3.2-1.4,3.2-3.2H56.5z"/>
	<path fill="#7961AA" d="M61.5,44.4v-1H21.8v0.2h0.2c0-0.1-0.1-0.2-0.2-0.2v0.2h0.2V29.9h-0.2l0,0.2c0.1,0,0.2-0.1,0.2-0.2h-0.2
		l0,0.2h39.6v-0.2l-0.2,0c0,0.1,0.1,0.2,0.2,0.2v-0.2l-0.2,0v13.8h0.2v-0.2c-0.1,0-0.2,0.1-0.2,0.2h0.2v-0.2V44.4v1
		c0.9,0,1.7-0.8,1.7-1.7V29.9c0-0.9-0.8-1.7-1.7-1.7H21.8c-0.9,0-1.7,0.8-1.7,1.7v13.8c0,0.9,0.8,1.7,1.7,1.7h39.6V44.4z"/>
	<path fill="#7961AA" d="M61.5,63.2v-1H21.8v0.2h0.2c0-0.1-0.1-0.2-0.2-0.2v0.2h0.2V48.6h-0.2l0,0.2c0.1,0,0.2-0.1,0.2-0.2h-0.2
		l0,0.2h39.6v-0.2h-0.2c0,0.1,0.1,0.2,0.2,0.2v-0.2h-0.2v13.8h0.2v-0.2c-0.1,0-0.2,0.1-0.2,0.2h0.2v-0.2V63.2v1
		c0.9,0,1.7-0.8,1.7-1.7V48.6c0-0.9-0.8-1.7-1.7-1.7H21.8c-0.9,0-1.7,0.8-1.7,1.7v13.8c0,0.9,0.8,1.7,1.7,1.7h39.6V63.2z"/>
	<path fill="#7961AA" d="M61.5,82.1v-1H21.8v0.2h0.2c0-0.1-0.1-0.2-0.2-0.2v0.2h0.2V67.6h-0.2l0,0.2c0.1,0,0.2-0.1,0.2-0.2h-0.2
		l0,0.2h39.6v-0.2h-0.2c0,0.1,0.1,0.2,0.2,0.2v-0.2h-0.2v13.8h0.2v-0.2c-0.1,0-0.2,0.1-0.2,0.2h0.2v-0.2V82.1v1
		c0.9,0,1.7-0.8,1.7-1.7V67.6c0-0.9-0.8-1.7-1.7-1.7H21.8c-0.9,0-1.7,0.8-1.7,1.7v13.8c0,0.9,0.8,1.7,1.7,1.7h39.6V82.1z"/>
	<path fill="#7961AA" d="M40.9,44.4v2.8c0,0.5,0.4,1,1,1c0.5,0,1-0.4,1-1v-2.8c0-0.5-0.4-1-1-1C41.3,43.5,40.9,43.9,40.9,44.4"/>
	<path fill="#7961AA" d="M40.9,63.2v2.8c0,0.5,0.4,1,1,1c0.5,0,1-0.4,1-1v-2.8c0-0.5-0.4-1-1-1C41.3,62.3,40.9,62.7,40.9,63.2"/>
	<path fill="#7961AA" d="M40.9,82.7v2.8c0,0.5,0.4,1,1,1c0.5,0,1-0.4,1-1v-2.8c0-0.5-0.4-1-1-1C41.3,81.7,40.9,82.2,40.9,82.7"/>
	<path fill="#7961AA" d="M49,92.9v-1H34.6v0.5h0.5c0-0.3-0.2-0.5-0.5-0.5v0.5h0.5v-6.1h-0.5l0,0.5c0.3,0,0.5-0.2,0.5-0.5h-0.5l0,0.5
		H49v-0.5h-0.5c0,0.3,0.2,0.5,0.5,0.5v-0.5h-0.5v6.1H49l0-0.5c-0.3,0-0.5,0.2-0.5,0.5H49l0-0.5V92.9v1c0.8,0,1.4-0.6,1.4-1.4v-6.1
		c0-0.8-0.6-1.4-1.4-1.4H34.6c-0.8,0-1.4,0.6-1.4,1.4v6.1c0,0.8,0.6,1.4,1.4,1.4H49V92.9z"/>
	<path fill="#7961AA" d="M38.6,37.9v-1h-13v0.7l0.7,0c0-0.4-0.3-0.7-0.7-0.7v0.7l0.7,0v-2.7h-0.7l0,0.7c0.4,0,0.7-0.3,0.7-0.7h-0.7
		l0,0.7h13v-0.7h-0.7c0,0.4,0.3,0.7,0.7,0.7v-0.7h-0.7v2.7h0.7l0-0.7c-0.4,0-0.7,0.3-0.7,0.7h0.7l0-0.7V37.9v1
		c0.7,0,1.3-0.6,1.3-1.3v-2.7c0-0.7-0.6-1.3-1.3-1.3h-13c-0.7,0-1.3,0.6-1.3,1.3v2.7c0,0.7,0.6,1.3,1.3,1.3h13V37.9z"/>
	<path fill="#7961AA" d="M38.6,57.3v-1h-13V57l0.7,0c0-0.4-0.3-0.7-0.7-0.7V57l0.7,0v-2.7h-0.7l0,0.7c0.4,0,0.7-0.3,0.7-0.7h-0.7
		l0,0.7h13v-0.7l-0.7,0c0,0.4,0.3,0.7,0.7,0.7v-0.7l-0.7,0V57h0.7l0-0.7c-0.4,0-0.7,0.3-0.7,0.7h0.7l0-0.7V57.3v1
		c0.7,0,1.3-0.6,1.3-1.3v-2.7c0-0.7-0.6-1.3-1.3-1.3h-13c-0.7,0-1.3,0.6-1.3,1.3V57c0,0.7,0.6,1.3,1.3,1.3h13V57.3z"/>
	<path fill="#7961AA" d="M38.6,76.1v-1h-13v0.7l0.7,0c0-0.4-0.3-0.7-0.7-0.7v0.7l0.7,0v-2.7h-0.7l0,0.7c0.4,0,0.7-0.3,0.7-0.7h-0.7
		l0,0.7h13v-0.7h-0.7c0,0.4,0.3,0.7,0.7,0.7v-0.7h-0.7v2.7h0.7l0-0.7c-0.4,0-0.7,0.3-0.7,0.7h0.7l0-0.7V76.1v1
		c0.7,0,1.3-0.6,1.3-1.3v-2.7c0-0.7-0.6-1.3-1.3-1.3h-13c-0.7,0-1.3,0.6-1.3,1.3v2.7c0,0.7,0.6,1.3,1.3,1.3h13V76.1z"/>
	<path fill="#7961AA" d="M82.4,54.2c-4,2.6-9.1,4.2-14.7,4.2c-4.1,0-7.9-0.8-11.2-2.3c-0.5-0.2-1.1,0-1.3,0.5
		c-0.2,0.5,0,1.1,0.5,1.3c3.6,1.6,7.7,2.5,12,2.5c5.9,0,11.4-1.7,15.7-4.5c0.4-0.3,0.6-0.9,0.3-1.3C83.4,54,82.8,53.9,82.4,54.2
		L82.4,54.2z"/>
</g>
</svg>
