<?xml version="1.0" encoding="utf-8"?>
<!-- Generator: Adobe Illustrator 18.0.0, SVG Export Plug-In . SVG Version: 6.00 Build 0)  -->
<!DOCTYPE svg PUBLIC "-//W3C//DTD SVG 1.1//EN" "http://www.w3.org/Graphics/SVG/1.1/DTD/svg11.dtd">
<svg version="1.1" id="Layer_1" xmlns="http://www.w3.org/2000/svg" xmlns:xlink="http://www.w3.org/1999/xlink" x="0px" y="0px"
	 viewBox="0 0 141.7 141.7" enable-background="new 0 0 141.7 141.7" xml:space="preserve">
<path fill="#7961AA" d="M127.7,67.4c-2.2-29.5-26.7-52.7-56.7-52.7c-30,0-54.6,23.2-56.7,52.7c-0.1,1.4-0.2,2.8-0.2,4.3
	c0,31.5,25.5,57,57,57c31.5,0,57-25.5,57-57C127.9,70.2,127.8,68.8,127.7,67.4z M70.9,116.6C46.1,116.6,26,96.5,26,71.7
	c0-1.7,0.1-3.3,0.3-4.9c2.4-22.5,21.5-40,44.6-40c23.1,0,42.1,17.5,44.6,40h0c0.2,1.6,0.3,3.2,0.3,4.9
	C115.8,96.5,95.7,116.6,70.9,116.6z"/>
<path fill="#FFFFFF" d="M70.9,119.2c-26.2,0-47.5-21.3-47.5-47.5c0-1.8,0.1-3.5,0.3-5.2c2.6-23.8,22.7-42.3,47.2-42.3
	c24.5,0,44.6,18.5,47.2,42.3h0c0.2,1.7,0.3,3.4,0.3,5.2C118.4,97.9,97.1,119.2,70.9,119.2z"/>
<g>
	<path fill="#7961AA" d="M38.2,72.6v1.9h-2.4v-2c-2.5-0.5-4.4-2.2-5-5l3.2-0.5c0.3,1.2,1,2.1,1.9,2.5v-4.6c-3-0.6-4.6-2.2-4.6-4.9
		c0-2.4,1.6-4.5,4.6-4.9v-1.9h2.4v2c2.4,0.4,4.1,2.1,4.6,4.6l-3.1,0.5c-0.2-1-0.7-1.7-1.5-2.1v4.3c3.5,0.6,5,2.4,5,5
		C43.2,70.3,41.3,72.3,38.2,72.6z M35.8,62v-3.9c-0.9,0.3-1.4,1.1-1.4,1.9C34.4,61,34.9,61.6,35.8,62z M38.2,65.4v4.3
		c1.2-0.3,1.8-1.1,1.8-2.1C40,66.6,39.4,65.8,38.2,65.4z"/>
	<path fill="#7961AA" d="M45.4,77.4c0-3.2,1.6-5.9,4.2-7.2c-1.8-1.2-3.2-3.3-3.2-5.7c0-4.4,3.4-7.8,8.4-7.8c5,0,8.4,3.5,8.4,7.8
		c0,2.5-1.3,4.6-3.2,5.7c2.6,1.2,4.2,4,4.2,7.2c0,5.2-3.8,9.4-9.5,9.4S45.4,82.6,45.4,77.4z M50.5,77.4c0,3.1,1.7,5,4.5,5
		s4.5-2,4.5-5c0-3.1-1.7-5.1-4.5-5.1S50.5,74.3,50.5,77.4z M51.4,64.5c0,2.1,1.4,3.6,3.5,3.6c2.1,0,3.5-1.5,3.5-3.6
		c0-2.1-1.4-3.6-3.5-3.6C52.8,60.9,51.4,62.5,51.4,64.5z"/>
	<path fill="#7961AA" d="M83.3,70.4l-7.7,15.8h-5.4L75.6,75c-0.2,0-0.5,0.1-0.8,0.1c-5.6,0-9.5-4-9.5-9.2c0-5.2,3.8-9.3,9.5-9.3
		c5.7,0,9.5,4.2,9.5,9.3C84.3,67.5,83.9,69,83.3,70.4z M70.4,65.9c0,3,1.7,5,4.5,5c2.7,0,4.5-2,4.5-5c0-3-1.7-5-4.5-5
		C72.1,60.9,70.4,62.9,70.4,65.9z"/>
	<path fill="#7961AA" d="M88.6,72.4h-3.3v-3.2h3.3V72.4z"/>
	<path fill="#7961AA" d="M98.7,63.1l-4.5,9.2h-3.2l3.2-6.5c-0.1,0-0.3,0-0.5,0c-3.3,0-5.5-2.3-5.5-5.4c0-3,2.2-5.4,5.5-5.4
		c3.3,0,5.5,2.4,5.5,5.4C99.3,61.5,99.1,62.4,98.7,63.1z M91.2,60.5c0,1.8,1,2.9,2.6,2.9c1.6,0,2.6-1.1,2.6-2.9c0-1.8-1-2.9-2.6-2.9
		C92.2,57.6,91.2,58.8,91.2,60.5z"/>
	<path fill="#7961AA" d="M103.6,66.8v0.1c0,2,0.8,3.2,2.4,3.2c1.6,0,2.4-1.1,2.4-3.3c0-2.4-1-3.3-2.4-3.3c-0.8,0-1.4,0.4-1.8,0.9
		h-2.9v-9h9.1V58h-6.2v3.8c0.5-0.5,1.3-0.8,2.3-0.8c2.7,0,4.8,1.9,4.8,5.9c0,3.6-1.9,5.8-5.4,5.8c-3.5,0-5.4-2.3-5.4-5.6L103.6,66.8
		z"/>
</g>
</svg>
