<?xml version="1.0" encoding="utf-8"?>
<!-- Generator: Adobe Illustrator 18.0.0, SVG Export Plug-In . SVG Version: 6.00 Build 0)  -->
<!DOCTYPE svg PUBLIC "-//W3C//DTD SVG 1.1//EN" "http://www.w3.org/Graphics/SVG/1.1/DTD/svg11.dtd">
<svg version="1.1" id="Layer_1" xmlns="http://www.w3.org/2000/svg" xmlns:xlink="http://www.w3.org/1999/xlink" x="0px" y="0px"
	 viewBox="0 0 141.7 141.7" enable-background="new 0 0 141.7 141.7" xml:space="preserve">
<g>
	<path fill="#58595B" d="M126.7,67.4C124.6,38,100,14.7,70,14.7c-30,0-54.6,23.2-56.7,52.7c-0.1,1.4-0.2,2.8-0.2,4.3
		c0,31.5,25.5,57,57,57c31.5,0,57-25.5,57-57C127,70.2,126.9,68.8,126.7,67.4z M70,116.6c-24.8,0-44.9-20.1-44.9-44.9
		c0-1.7,0.1-3.3,0.3-4.9c2.4-22.5,21.5-40,44.6-40c23.1,0,42.1,17.5,44.6,40h0c0.2,1.6,0.3,3.2,0.3,4.9
		C114.9,96.5,94.8,116.6,70,116.6z"/>
	<path fill="#FFFFFF" d="M70,119.2c-26.2,0-47.5-21.3-47.5-47.5c0-1.8,0.1-3.5,0.3-5.2C25.4,42.7,45.5,24.2,70,24.2
		c24.5,0,44.6,18.5,47.2,42.3h0c0.2,1.7,0.3,3.4,0.3,5.2C117.5,97.9,96.2,119.2,70,119.2z"/>
	<path fill="#7961AA" d="M37.1,72.6v1.9h-2.4v-2c-2.5-0.5-4.4-2.2-5-5l3.2-0.5c0.3,1.2,1,2.1,1.9,2.5v-4.6c-3-0.6-4.6-2.2-4.6-4.9
		c0-2.4,1.6-4.5,4.6-4.9v-1.9h2.4v2c2.4,0.4,4.1,2.1,4.6,4.6l-3.1,0.5c-0.2-1-0.7-1.7-1.5-2.1v4.3c3.5,0.6,5,2.4,5,5
		C42.1,70.3,40.2,72.3,37.1,72.6z M34.7,62v-3.9c-0.9,0.3-1.4,1.1-1.4,1.9C33.3,61,33.8,61.6,34.7,62z M37.1,65.4v4.3
		c1.2-0.3,1.8-1.1,1.8-2.1C38.9,66.6,38.4,65.8,37.1,65.4z"/>
	<path fill="#7961AA" d="M50.2,72.2l-2.5-2.7l6.7-7.9H44v-4.4h16.5v4.1l-5.9,7.1c4.5,0.2,7.1,3.6,7.1,8.8c0,5.5-3.2,9.7-9.2,9.7
		c-6.1,0-9.3-4.1-9.3-9.6V77l5.1-0.3V77c0,3.6,1.7,5.3,4.2,5.3c2.4,0,4.1-1.7,4.1-5.3c0-3.6-1.6-5.3-4.2-5.3
		C51.5,71.7,50.9,71.9,50.2,72.2z"/>
	<path fill="#7961AA" d="M80.7,70.4L73,86.2h-5.4L73.1,75c-0.2,0-0.5,0.1-0.8,0.1c-5.6,0-9.5-4-9.5-9.2c0-5.2,3.8-9.3,9.5-9.3
		c5.7,0,9.5,4.2,9.5,9.3C81.8,67.5,81.4,69,80.7,70.4z M67.8,65.9c0,3,1.7,5,4.5,5c2.7,0,4.5-2,4.5-5c0-3-1.7-5-4.5-5
		C69.5,60.9,67.8,62.9,67.8,65.9z"/>
	<rect x="83.6" y="69.2" fill="#7961AA" width="3.3" height="3.2"/>
	<path fill="#7961AA" d="M98,63.1l-4.5,9.2h-3.2l3.2-6.5c-0.1,0-0.3,0-0.5,0c-3.3,0-5.5-2.3-5.5-5.4c0-3,2.2-5.4,5.5-5.4
		c3.3,0,5.5,2.4,5.5,5.4C98.6,61.5,98.4,62.4,98,63.1z M90.5,60.5c0,1.8,1,2.9,2.6,2.9c1.6,0,2.6-1.1,2.6-2.9c0-1.8-1-2.9-2.6-2.9
		C91.5,57.6,90.5,58.8,90.5,60.5z"/>
	<path fill="#7961AA" d="M102.9,66.8v0.1c0,2,0.8,3.2,2.4,3.2c1.6,0,2.4-1.1,2.4-3.3c0-2.4-1-3.3-2.4-3.3c-0.8,0-1.4,0.4-1.8,0.9
		h-2.9v-9h9.1V58h-6.2v3.8c0.5-0.5,1.3-0.8,2.3-0.8c2.7,0,4.8,1.9,4.8,5.9c0,3.6-1.9,5.8-5.4,5.8c-3.5,0-5.4-2.3-5.4-5.6L102.9,66.8
		z"/>
</g>
</svg>
