<?xml version="1.0" encoding="utf-8"?>
<!-- Generator: Adobe Illustrator 18.0.0, SVG Export Plug-In . SVG Version: 6.00 Build 0)  -->
<!DOCTYPE svg PUBLIC "-//W3C//DTD SVG 1.1//EN" "http://www.w3.org/Graphics/SVG/1.1/DTD/svg11.dtd">
<svg version="1.1" id="Layer_1" xmlns="http://www.w3.org/2000/svg" xmlns:xlink="http://www.w3.org/1999/xlink" x="0px" y="0px"
	 viewBox="0 0 174.4 96.6" enable-background="new 0 0 174.4 96.6" xml:space="preserve">
<g>
	<g>
		<circle fill="#929497" cx="82.5" cy="46" r="16.2"/>
		<path fill="#929497" d="M82.5,26.8c3.7,0,7.1,1.3,9.9,3.4c-0.1-5.3-4.5-9.6-9.9-9.6c-5.4,0-9.7,4.3-9.9,9.6
			C75.3,28,78.8,26.8,82.5,26.8z"/>
		
			<polyline fill="none" stroke="#929497" stroke-width="1.1091" stroke-linecap="round" stroke-linejoin="round" stroke-miterlimit="10" points="
			68.6,37.7 64.5,34.3 57.1,38.5 		"/>
		
			<polyline fill="none" stroke="#929497" stroke-width="1.1091" stroke-linecap="round" stroke-linejoin="round" stroke-miterlimit="10" points="
			68.6,49.3 61.2,46.5 55.7,50.6 		"/>
		
			<polyline fill="none" stroke="#929497" stroke-width="1.1091" stroke-linecap="round" stroke-linejoin="round" stroke-miterlimit="10" points="
			69.2,52.4 68,59.8 57.6,63.9 		"/>
		
			<polyline fill="none" stroke="#929497" stroke-width="1.1091" stroke-linecap="round" stroke-linejoin="round" stroke-miterlimit="10" points="
			96.3,37.7 100.5,34.3 107.9,38.5 		"/>
		
			<polyline fill="none" stroke="#929497" stroke-width="1.1091" stroke-linecap="round" stroke-linejoin="round" stroke-miterlimit="10" points="
			96.3,49.3 103.7,46.5 109.3,50.6 		"/>
		
			<polyline fill="none" stroke="#929497" stroke-width="1.1091" stroke-linecap="round" stroke-linejoin="round" stroke-miterlimit="10" points="
			95.8,52.4 97,59.8 107.3,63.9 		"/>
	</g>
	<g>
		<line fill="none" stroke="#FFFFFF" stroke-width="2.4123" stroke-miterlimit="10" x1="63.4" y1="71.7" x2="107" y2="18.4"/>
		<line fill="none" stroke="#A6A8AC" stroke-width="1.2062" stroke-miterlimit="10" x1="63.4" y1="71.7" x2="107" y2="18.4"/>
	</g>
</g>
</svg>
