<?xml version="1.0" encoding="utf-8"?>
<!-- Generator: Adobe Illustrator 18.0.0, SVG Export Plug-In . SVG Version: 6.00 Build 0)  -->
<!DOCTYPE svg PUBLIC "-//W3C//DTD SVG 1.1//EN" "http://www.w3.org/Graphics/SVG/1.1/DTD/svg11.dtd">
<svg version="1.1" id="Layer_1" xmlns="http://www.w3.org/2000/svg" xmlns:xlink="http://www.w3.org/1999/xlink" x="0px" y="0px"
	 viewBox="0 0 174.4 96.6" enable-background="new 0 0 174.4 96.6" xml:space="preserve">
<g>
	<path fill="#929497" d="M89.8,62.1c-5.3,0-10.5,0.1-15.8,0c-4.4-0.1-6.9-2.9-7.3-7c-0.2-2.4,0.2-4.6,2.2-6.2c1.4-1.2,3-1.7,4.8-1.9
		c0.7-0.1,0.8-0.4,0.9-0.9c0.6-3,1.8-5.6,4.5-7.3c3.9-2.3,9.7-2.1,13,2.2c0.6,0.8,1.1,0.8,1.9,0.5c3.2-1.2,6.2-0.7,8.8,1.6
		c1.7,1.5,2.5,3.4,2.5,5.7c0,0.6,0.2,0.9,0.8,1.1c2.9,0.8,4.5,3,4.6,6c0,1.5-0.2,2.9-1.1,4.1c-1,1.5-2.3,2.2-4.1,2.2
		C100.3,62.1,95.1,62.1,89.8,62.1C89.8,62.1,89.8,62.1,89.8,62.1z"/>
	<path fill="#929497" d="M97.4,38.9c-1.4,0.3-2.7,0.5-4.1,0.8c-0.9-1.3-2.2-2.4-3.8-3.1c-5.8-2.8-14.4-0.3-16.5,7.9
		c-0.2,0.6-0.4,0.9-1.1,1.1c-3.7,1-6.4,3.1-7.2,7c-0.4,2.2-0.1,4.3,0.9,6.3c0.1,0.2,0.2,0.5,0.4,0.8c-0.3,0-0.5,0.1-0.7,0.1
		c-1.4,0-2.7,0-4.1,0c-3.9,0.1-7.3-3.4-7.6-6.7c-0.3-3,0.5-5.6,3.1-7.4c0.9-0.6,1.9-1,2.9-1.2c0.7-0.2,0.8-0.5,0.8-1.1
		c-0.1-2.8,0.9-5.3,2.9-7.3c2.7-2.7,6.8-3.4,10.3-1.8c0.7,0.3,0.9,0.2,1.3-0.4c1.8-2.9,4.4-4.7,7.8-5.4c5.4-1.1,11.6,2.2,13.6,7.4
		C96.8,36.8,97.1,37.9,97.4,38.9z"/>
</g>
</svg>
