<?xml version="1.0" encoding="utf-8"?>
<!-- Generator: Adobe Illustrator 18.0.0, SVG Export Plug-In . SVG Version: 6.00 Build 0)  -->
<!DOCTYPE svg PUBLIC "-//W3C//DTD SVG 1.1//EN" "http://www.w3.org/Graphics/SVG/1.1/DTD/svg11.dtd">
<svg version="1.1" id="Layer_1" xmlns="http://www.w3.org/2000/svg" xmlns:xlink="http://www.w3.org/1999/xlink" x="0px" y="0px"
	 viewBox="0 0 174.4 96.6" enable-background="new 0 0 174.4 96.6" xml:space="preserve">
<g>
	<path fill="#929497" d="M65.8,75.4c-0.3,0-0.6,0.3-0.6,0.6v2.5c0,0.3,0.3,0.6,0.6,0.6h29.8c0.3,0,0.6-0.3,0.6-0.6V76
		c0-0.3-0.3-0.6-0.6-0.6H89c-0.3,0-0.6-0.3-0.6-0.6v-2.1c0-0.3-0.3-0.6-0.6-0.6H75.6c-0.3,0-0.6,0.3-0.6,0.6v2.1
		c0,0.3-0.3,0.6-0.6,0.6H65.8L65.8,75.4z M65.8,75.4"/>
	<path fill="#929497" d="M51.1,18c-2.2,0-3.9,1.8-3.9,3.9v43.2c0,2.2,1.8,3.9,3.9,3.9h43.4c0,0,1.6,0,1.6-2v-4.8c0-2-1.6-2-1.6-2
		H50.2V21.9c0-0.5,0.4-1,1-1h62.2c0.5,0,1,0.4,1,1v10.2c0,1.4-0.2,1.6,0.6,1.6h1.6c0.9,0,0.8-0.2,0.8-1.5V21.9
		c0-2.2-1.8-3.9-3.9-3.9H51.1L51.1,18z M82.2,65.7c-1,0-1.8-0.8-1.8-1.8c0-1,0.8-1.8,1.8-1.8c1,0,1.8,0.8,1.8,1.8
		C84,64.9,83.2,65.7,82.2,65.7L82.2,65.7z M82.2,65.7"/>
	<path fill="#6C54A3" d="M102.1,37.2c-1.4,0-2.5,1.1-2.5,2.5v37c0,1.4,1.1,2.5,2.5,2.5h22.5c1.4,0,2.5-1.1,2.5-2.5v-37
		c0-1.4-1.1-2.5-2.5-2.5H102.1L102.1,37.2z M116.2,39.8c0.3,0,0.5,0.2,0.5,0.5c0,0.3-0.2,0.5-0.5,0.5h-5.6c-0.3,0-0.5-0.2-0.5-0.5
		c0-0.3,0.2-0.5,0.5-0.5H116.2L116.2,39.8z M113.4,77.5c-0.7,0-1.3-0.6-1.3-1.3c0-0.7,0.6-1.3,1.3-1.3c0.7,0,1.3,0.6,1.3,1.3
		C114.7,76.9,114.2,77.5,113.4,77.5L113.4,77.5z M101.8,42.9c0-0.3,0.3-0.6,0.6-0.6h22c0.3,0,0.6,0.3,0.6,0.6v30.7
		c0,0.3-0.3,0.6-0.6,0.6h-22c-0.3,0-0.6-0.3-0.6-0.6V42.9z M101.8,73.6"/>
</g>
</svg>
