<?xml version="1.0" encoding="utf-8"?>
<!-- Generator: Adobe Illustrator 18.0.0, SVG Export Plug-In . SVG Version: 6.00 Build 0)  -->
<!DOCTYPE svg PUBLIC "-//W3C//DTD SVG 1.1//EN" "http://www.w3.org/Graphics/SVG/1.1/DTD/svg11.dtd">
<svg version="1.1" id="Layer_1" xmlns="http://www.w3.org/2000/svg" xmlns:xlink="http://www.w3.org/1999/xlink" x="0px" y="0px"
	 viewBox="0 0 174.4 96.6" enable-background="new 0 0 174.4 96.6" xml:space="preserve">
<g>
	<path fill-rule="evenodd" clip-rule="evenodd" fill="#929497" d="M100.3,65.4l-4.1-7c-0.6-1-2.9-1.9-5-1.9H67.7
		c-2.2,0-4.5,0.8-5,1.9l-3.9,7c-0.7,1,0.8,1.9,2.9,1.9h35.7C99.7,67.3,100.9,66.5,100.3,65.4L100.3,65.4z"/>
	<path fill-rule="evenodd" clip-rule="evenodd" fill="#929497" d="M67.1,24.9L67.1,24.9h23.8v26.4H67.1V24.9z M64.9,55.4L64.9,55.4
		h28c1.2,0,2.1-0.9,2.1-2.1V22.8c0-1.2-0.9-2.1-2.1-2.1h-28c-1.1,0-2.1,0.9-2.1,2.1v30.5C62.9,54.5,63.8,55.4,64.9,55.4L64.9,55.4z"
		/>
	<g>
		<circle fill-rule="evenodd" clip-rule="evenodd" fill="#FFFFFF" cx="91.7" cy="54.5" r="14.9"/>
		<g>
			<path fill-rule="evenodd" clip-rule="evenodd" fill="#929497" d="M102.2,44.1c-0.2-0.2-0.3-0.3-0.6-0.3c-0.3,0-0.5,0.1-0.7,0.3
				l-1.8,1.8c-1-0.9-2.2-1.6-3.5-2.1c-1.3-0.5-2.6-0.8-4-0.8c-2.5,0-4.7,0.8-6.7,2.3c-1.9,1.5-3.2,3.6-3.8,6v0.2
				c0,0.1,0.1,0.2,0.2,0.3c0.1,0,0.2,0.1,0.3,0.1h2.8c0.2,0,0.3-0.1,0.3-0.3c0.4-0.8,0.7-1.4,0.8-1.6c0.7-1.1,1.5-1.9,2.6-2.5
				c1.1-0.6,2.3-0.8,3.5-0.8c1.9,0,3.5,0.6,4.9,2l-1.9,1.8c-0.3,0.2-0.3,0.3-0.3,0.6c0,0.3,0.1,0.5,0.3,0.7c0.1,0.2,0.3,0.3,0.5,0.3
				h6.3c0.2,0,0.4-0.1,0.6-0.3c0.2-0.2,0.2-0.3,0.2-0.7v-6.2C102.4,44.5,102.4,44.3,102.2,44.1L102.2,44.1z M101.7,55.4L101.7,55.4
				H99c-0.2,0-0.3,0.2-0.4,0.3c-0.3,1-0.6,1.5-0.8,1.6c-0.6,1.1-1.4,1.9-2.5,2.5c-1.1,0.6-2.3,0.9-3.5,0.9c-0.8,0-1.8-0.2-2.5-0.5
				c-0.8-0.3-1.6-0.8-2.3-1.4l1.9-1.9c0.2-0.3,0.3-0.4,0.3-0.7c0-0.2-0.1-0.4-0.3-0.7c-0.1-0.1-0.3-0.3-0.6-0.3h-6.3
				c-0.2,0-0.4,0.2-0.7,0.3c-0.2,0.3-0.3,0.4-0.3,0.7v6.3c0,0.3,0.1,0.5,0.3,0.7c0.3,0.1,0.4,0.3,0.7,0.3c0.3,0,0.4-0.2,0.7-0.3
				l1.7-1.9c1.1,0.9,2.2,1.7,3.5,2.2c1.3,0.5,2.6,0.8,4,0.8c2.5,0,4.7-0.8,6.6-2.4c1.9-1.5,3.2-3.5,3.8-6c0-0.1,0-0.1,0-0.1
				c0-0.2,0-0.3-0.2-0.3C101.8,55.5,101.8,55.4,101.7,55.4L101.7,55.4z"/>
		</g>
	</g>
</g>
</svg>
