<?xml version="1.0" encoding="utf-8"?>
<!-- Generator: Adobe Illustrator 18.0.0, SVG Export Plug-In . SVG Version: 6.00 Build 0)  -->
<!DOCTYPE svg PUBLIC "-//W3C//DTD SVG 1.1//EN" "http://www.w3.org/Graphics/SVG/1.1/DTD/svg11.dtd">
<svg version="1.1" id="Layer_1" xmlns="http://www.w3.org/2000/svg" xmlns:xlink="http://www.w3.org/1999/xlink" x="0px" y="0px"
	 viewBox="0 0 841.9 595.3" enable-background="new 0 0 841.9 595.3" xml:space="preserve">
<g>
	<polygon fill="#919395" points="409.4,429.8 409.4,429.8 423.4,411.4 423.4,411.4 433.3,398.4 433.3,398.4 438.6,391.4 
		543.8,253.6 423.4,272.8 423.4,272.8 418.4,273.6 408.4,275.2 409.4,272.4 409.4,272.4 423.4,235 423.4,235 428.6,221 433.3,208.3 
		433.3,208.3 453.4,154.4 453.4,154.4 457.3,143.9 464.4,124.9 464.4,124.9 468.3,114.6 483.7,73.3 447.4,126.8 447.4,126.8 
		439.5,138.4 439.5,138.4 409.7,182.2 409.4,182.7 409.4,182.7 385.6,217.8 383.6,220.8 383.6,220.8 329.9,299.8 329.9,299.8 
		325.1,306.9 289,360.1 316.7,356.5 316.7,356.5 325.3,355.3 404.4,344.9 387.9,385.4 387.9,385.4 383.2,397.1 365.6,440.5 
		365.6,440.5 362.4,448.3 348.6,482.4 348.6,482.4 344.8,491.6 325.1,540.4 356,499.8 356,499.8 365.1,487.9 365.1,487.9 	"/>
	<path fill="#919395" d="M563.8,168.5c0,0-0.1-0.1-0.1-0.1c-21.3-22.6-47.7-40.3-77.4-51.2l-4.9,13.1c24.6,9.1,46.9,23.1,65.5,41
		c-16.1,10.2-33.1,18.4-50.9,24.5c-6.7-14.1-14.8-27.5-24-40.2l-6,16c6.1,9.1,11.6,18.6,16.4,28.5c-9.6,2.7-19.5,4.8-29.4,6.3
		l-5.5,14.7c13.8-1.7,27.4-4.3,40.7-8.1c4.1,9.7,7.4,19.7,10.2,29.9l13.9-2.2c-2.9-10.9-6.4-21.6-10.7-32
		c19.3-6.8,37.8-15.8,55.1-27.1c28.4,31.7,46.2,73,47.8,118.4h-73.7L505.5,333c-2.3,21.3-7.2,42-14.8,61.6c-8.9-2.7-18-4.8-27.3-6.5
		l-9.5,12.4c10.6,1.6,21.1,3.9,31.3,7c-14.2,31.5-35.2,59.8-62,83.1v-49.9l-14,18.3v31.6c-4.9-4.3-9.5-8.7-14-13.3l-8.5,11.2
		c1.6,1.6,3.2,3.3,4.9,4.9c-2.6-0.3-5.1-0.9-7.7-1.3l-9.5,12.5c11.3,2.4,22.9,3.9,34.8,4.3l3.9,0.1c1,0,2,0,3.1,0s2,0,3.1-0.1
		l3.9-0.1h0c57.1-1.9,108.3-27.7,143.9-67.5c0.1-0.1,0.2-0.2,0.3-0.3c0.1,0,0.1-0.1,0.1-0.2c31.7-35.7,51-82.7,51-134.1
		C618.7,253.3,597.8,204.7,563.8,168.5z M441,493.5c24.7-23.5,44.1-51.2,57.7-81.6c18.4,6.6,35.9,15.4,52.5,26.4
		C522.3,467.8,483.9,487.9,441,493.5z M560.6,427.9c-17.8-12-36.7-21.6-56.6-28.8c10.3-26.9,16-55.7,16.8-85.2h83.8
		C603,357.1,586.7,396.8,560.6,427.9z"/>
	<path fill="#919395" d="M332.3,475.3c-18.9-9.5-36-22-50.6-36.9c16.5-11,34.1-19.8,52.4-26.4c3.9,8.8,8.5,17.4,13.4,25.8l6.7-16.5
		c-2.4-4.5-4.7-9-6.8-13.6c4.5-1.3,9.1-2.5,13.7-3.6l6.3-15.5c-8.6,1.6-17.1,3.6-25.5,6.1c-2.8-7.4-5.2-14.9-7.3-22.6l-13.9,1.8
		c2.3,8.5,4.9,17,8,25.2c-19.9,7.2-38.8,16.8-56.6,28.8c-26.1-31.1-42.4-70.7-44-114h70.7l9.5-14h-80.2
		c1.7-45.4,19.4-86.7,47.8-118.4c17.4,11.3,35.8,20.3,55.1,27.1c-11.1,26.9-17.5,55.9-18.9,85.7l16.4-24.1c3-19.8,8.3-39,15.9-57.2
		c6.5,1.9,13.1,3.4,19.7,4.8l8.6-12.6c-7.6-1.4-15.1-3-22.4-5c14.1-29,34.1-55.2,59.1-77V151l14-20.6V123c1.1,0.9,2.1,1.9,3.1,2.9
		L440,106c-5.5-0.6-11-1.1-16.6-1.3l-4-0.1c-1,0-2-0.1-3.1-0.1s-2,0-3.1,0.1l-3.9,0.1c-55.2,1.9-104.9,26-140.3,63.7
		c0,0-0.1,0.1-0.1,0.1c0,0,0,0,0,0c-34,36.2-54.9,84.9-54.9,138.4c0,51.4,19.3,98.4,51,134.1c0.1,0.1,0.1,0.1,0.1,0.2
		c0.1,0.2,0.3,0.2,0.4,0.4c17.2,19.2,38,35.1,61.4,46.7L332.3,475.3z M391.8,120.1c-23,21.9-41.6,47.5-55,75.6
		c-17.8-6.1-34.8-14.3-50.9-24.5C314.2,143.9,351,125.5,391.8,120.1z"/>
</g>
</svg>
