<?xml version="1.0" encoding="utf-8"?>
<!-- Generator: Adobe Illustrator 18.0.0, SVG Export Plug-In . SVG Version: 6.00 Build 0)  -->
<!DOCTYPE svg PUBLIC "-//W3C//DTD SVG 1.1//EN" "http://www.w3.org/Graphics/SVG/1.1/DTD/svg11.dtd">
<svg version="1.1" id="Layer_1" xmlns="http://www.w3.org/2000/svg" xmlns:xlink="http://www.w3.org/1999/xlink" x="0px" y="0px"
	 viewBox="0 0 841.9 595.3" enable-background="new 0 0 841.9 595.3" xml:space="preserve">
<g>
	<path fill="#919395" d="M304.1,241.9V147c0-3.9-3.1-7-7-7c-3.9,0-7,3.1-7,7v94.8c0,3.9,3.1,7,7,7
		C301,248.9,304.1,245.7,304.1,241.9"/>
	<path fill="#919395" d="M304.1,450V336.5c0-3.9-3.1-7-7-7c-3.9,0-7,3.1-7,7V450c0,3.9,3.1,7,7,7C301,457,304.1,453.8,304.1,450"/>
	<path fill="#919395" d="M321,323.1h-7c0,0.9-0.2,1.7-0.5,2.5c-0.5,1.1-1.3,2.1-2.4,2.8c-1,0.7-2.2,1.1-3.6,1.1h-32.8
		c-0.9,0-1.7-0.2-2.5-0.5c-1.1-0.5-2.1-1.3-2.8-2.4c-0.7-1-1.1-2.2-1.1-3.6v-68.4c0-0.9,0.2-1.7,0.5-2.5c0.5-1.1,1.3-2.1,2.4-2.8
		c1-0.7,2.2-1.1,3.6-1.1h32.8c0.9,0,1.7,0.2,2.5,0.5c1.1,0.5,2.1,1.3,2.8,2.4c0.7,1,1.1,2.2,1.1,3.6v68.4H321h7v-68.4
		c0-2.8-0.6-5.5-1.6-7.9c-1.6-3.7-4.1-6.8-7.4-9c-3.2-2.2-7.2-3.5-11.4-3.5h-32.8c-2.8,0-5.5,0.6-7.9,1.6c-3.7,1.6-6.8,4.1-9,7.4
		c-2.2,3.2-3.5,7.2-3.5,11.4v68.4c0,2.8,0.6,5.5,1.6,7.9c1.6,3.7,4.1,6.8,7.4,9c3.2,2.2,7.2,3.5,11.4,3.5h32.8
		c2.8,0,5.5-0.6,7.9-1.6c3.7-1.6,6.8-4.1,9-7.4c2.2-3.2,3.5-7.2,3.5-11.4H321z"/>
	<path fill="#919395" d="M289.9,314.8v-52c0-3.9-3.1-7-7-7c-3.9,0-7,3.1-7,7v52c0,3.9,3.1,7,7,7
		C286.7,321.8,289.9,318.6,289.9,314.8"/>
	<path fill="#919395" d="M407.2,300.1v-42.4c0-3.9-3.1-7-7-7c-3.9,0-7,3.1-7,7v42.4c0,3.9,3.1,7,7,7
		C404.1,307.1,407.2,304,407.2,300.1"/>
	<path fill="#919395" d="M407.2,181.8V147c0-3.9-3.1-7-7-7c-3.9,0-7,3.1-7,7v34.8c0,3.9,3.1,7,7,7
		C404.1,188.8,407.2,185.7,407.2,181.8"/>
	<path fill="#919395" d="M507.2,300.1v-23.3c0-3.9-3.1-7-7-7c-3.9,0-7,3.1-7,7v23.3c0,3.9,3.1,7,7,7
		C504,307.1,507.2,304,507.2,300.1"/>
	<path fill="#919395" d="M507.2,205.8V147c0-3.9-3.1-7-7-7c-3.9,0-7,3.1-7,7v58.7c0,3.9,3.1,7,7,7
		C504,212.8,507.2,209.7,507.2,205.8"/>
	<path fill="#919395" d="M424.1,242.1h-7c0,0.6-0.1,1.2-0.4,1.8c-0.3,0.8-0.9,1.5-1.7,2c-0.7,0.5-1.6,0.8-2.5,0.8h-36.4
		c-0.6,0-1.2-0.1-1.8-0.4c-0.8-0.3-1.5-0.9-2-1.7c-0.5-0.7-0.8-1.6-0.8-2.5v-47.8c0-0.6,0.1-1.2,0.4-1.8c0.3-0.8,0.9-1.5,1.7-2
		c0.7-0.5,1.6-0.8,2.5-0.8h36.4c0.6,0,1.2,0.1,1.8,0.4c0.8,0.3,1.5,0.9,2,1.7c0.5,0.7,0.8,1.6,0.8,2.5v47.8H424.1h7v-47.8
		c0-2.5-0.5-5-1.5-7.2c-1.4-3.3-3.8-6.2-6.7-8.2c-3-2-6.6-3.2-10.4-3.2h-36.4c-2.5,0-5,0.5-7.2,1.5c-3.3,1.4-6.2,3.8-8.2,6.7
		c-2,3-3.2,6.6-3.2,10.4v47.8c0,2.5,0.5,5,1.5,7.2c1.4,3.3,3.8,6.2,6.7,8.2c3,2,6.6,3.2,10.4,3.2h36.4c2.5,0,5-0.5,7.2-1.5
		c3.3-1.4,6.2-3.8,8.2-6.7c2-3,3.2-6.6,3.2-10.4H424.1z"/>
	<path fill="#919395" d="M393,235v-34.4c0-3.9-3.1-7-7-7c-3.9,0-7,3.1-7,7V235c0,3.9,3.1,7,7,7C389.9,242,393,238.9,393,235"/>
	<path fill="#919395" d="M526,265.2h-7c0,0.6-0.1,1.2-0.4,1.8c-0.3,0.8-0.9,1.5-1.7,2c-0.7,0.5-1.6,0.8-2.5,0.8H478
		c-0.6,0-1.2-0.1-1.8-0.4c-0.8-0.3-1.5-0.9-2-1.7c-0.5-0.7-0.8-1.6-0.8-2.5v-47.8c0-0.6,0.1-1.2,0.4-1.8c0.3-0.8,0.9-1.5,1.7-2
		c0.7-0.5,1.6-0.8,2.5-0.8h36.4c0.6,0,1.2,0.1,1.8,0.4c0.8,0.3,1.5,0.9,2,1.7c0.5,0.7,0.8,1.6,0.8,2.5v47.8H526h7v-47.8
		c0-2.5-0.5-5-1.5-7.2c-1.4-3.3-3.8-6.2-6.7-8.2c-3-2-6.6-3.2-10.4-3.2H478c-2.5,0-5,0.5-7.2,1.5c-3.3,1.4-6.2,3.8-8.2,6.7
		c-2,3-3.2,6.6-3.2,10.4v47.8c0,2.5,0.5,5,1.5,7.2c1.4,3.3,3.8,6.2,6.7,8.2c3,2,6.6,3.2,10.4,3.2h36.4c2.5,0,5-0.5,7.2-1.5
		c3.3-1.4,6.2-3.8,8.2-6.7c2-3,3.2-6.6,3.2-10.4H526z"/>
	<path fill="#919395" d="M494.9,256.7v-29.9c0-3.9-3.1-7-7-7c-3.9,0-7,3.1-7,7v29.9c0,3.9,3.1,7,7,7
		C491.7,263.7,494.9,260.5,494.9,256.7"/>
	<path fill="#919395" d="M481,392.5h-7c0,0.9-0.2,1.7-0.5,2.5c-0.5,1.1-1.3,2.1-2.4,2.8c-1,0.7-2.2,1.1-3.6,1.1h-88.8
		c-0.9,0-1.7-0.2-2.5-0.5c-1.1-0.5-2.1-1.3-2.8-2.4c-0.7-1-1.1-2.2-1.1-3.6v-57.9c0-0.9,0.2-1.7,0.5-2.5c0.5-1.1,1.3-2.1,2.4-2.8
		c1-0.7,2.2-1.1,3.6-1.1h88.8c0.9,0,1.7,0.2,2.5,0.5c1.1,0.5,2.1,1.3,2.8,2.4c0.7,1,1.1,2.2,1.1,3.6v57.9H481h7v-57.9
		c0-2.8-0.6-5.5-1.6-7.9c-1.6-3.7-4.1-6.8-7.4-9c-3.2-2.2-7.2-3.5-11.4-3.5h-88.8c-2.8,0-5.5,0.6-7.9,1.6c-3.7,1.6-6.8,4.1-9,7.4
		c-2.2,3.2-3.5,7.2-3.5,11.4v57.9c0,2.8,0.6,5.5,1.6,7.9c1.6,3.7,4.1,6.8,7.4,9c3.2,2.2,7.2,3.5,11.4,3.5h88.8
		c2.8,0,5.5-0.6,7.9-1.6c3.7-1.6,6.8-4.1,9-7.4c2.2-3.2,3.5-7.2,3.5-11.4H481z"/>
	<path fill="#919395" d="M491.4,437.5l7,0c0-3-0.6-5.8-1.7-8.4c-1.7-3.9-4.4-7.1-7.8-9.5c-3.4-2.3-7.6-3.7-12-3.7v2.5l0-2.5l0,0v2.5
		l0-2.5l-0.1,0l0.1,7l0-7l-107.3,0.1c-3,0-5.8,0.6-8.4,1.7c-3.9,1.7-7.1,4.4-9.5,7.8c-2.3,3.4-3.7,7.6-3.7,12h5.3l-5.3,0v0h5.3
		l-5.3,0l0,0.1l7-0.1l-7,0l0,16h150.4l0-16.1L491.4,437.5l-7,0l0,2.1H362l0-2.1l0,0l-6.6,0.1l6.6,0l0-0.1l-6.6,0.1l6.6,0h-5.3l5.3,0
		v0h-5.3l5.3,0v0c0-1,0.2-2,0.6-2.9c0.6-1.3,1.5-2.5,2.8-3.4c1.2-0.8,2.6-1.3,4.2-1.3l107.3-0.1l0,0l-0.1-6.4l0,6.4l0.1,0l-0.1-6.4
		l0,6.4l0-0.3v0.3h0l0-0.3v0.3c1,0,2,0.2,2.9,0.6c1.3,0.6,2.5,1.5,3.4,2.8c0.8,1.2,1.3,2.6,1.3,4.2L491.4,437.5z"/>
	<path fill="#919395" d="M619.5,302.7h-7c0,59.8-24.2,113.9-63.4,153.1c-39.2,39.2-93.3,63.4-153.1,63.4
		c-59.8,0-113.9-24.2-153.1-63.4c-39.2-39.2-63.4-93.3-63.4-153.1c0-59.8,24.2-113.9,63.4-153.1c39.2-39.2,93.3-63.4,153.1-63.4
		c59.8,0,113.9,24.2,153.1,63.4c39.2,39.2,63.4,93.3,63.4,153.1H619.5h7c0-63.6-25.8-121.3-67.5-163C517.3,98,459.6,72.2,396,72.2
		c-63.6,0-121.3,25.8-163,67.5c-41.7,41.7-67.5,99.4-67.5,163c0,63.6,25.8,121.3,67.5,163c41.7,41.7,99.4,67.5,163,67.5
		c63.6,0,121.3-25.8,163-67.5c41.7-41.7,67.5-99.4,67.5-163H619.5z"/>
</g>
</svg>
