<?xml version="1.0" encoding="utf-8"?>
<!-- Generator: Adobe Illustrator 18.0.0, SVG Export Plug-In . SVG Version: 6.00 Build 0)  -->
<!DOCTYPE svg PUBLIC "-//W3C//DTD SVG 1.1//EN" "http://www.w3.org/Graphics/SVG/1.1/DTD/svg11.dtd">
<svg version="1.1" id="Layer_1" xmlns="http://www.w3.org/2000/svg" xmlns:xlink="http://www.w3.org/1999/xlink" x="0px" y="0px"
	 viewBox="31 39 121 63" enable-background="new 31 39 121 63" xml:space="preserve">
<g>
	<g>
		<g>
			<g>
				<g>
					<g>
						<g enable-background="new    ">
							<path fill="#595A5C" d="M97.9,82.5v0.9l-4.3,2.1v-0.9l3.4-1.6l-3.4-1.6v-0.9L97.9,82.5z"/>
							<path fill="#595A5C" d="M105.9,85c0,1.8-0.7,2.8-2.1,2.8c-1.3,0-2.1-1-2.1-2.8v-0.4l1-0.1V85c0,1.4,0.4,1.9,1.1,1.9
								c0.7,0,1.1-0.5,1.1-1.9V84c0-1.6-0.4-2.1-1-2.1c-0.5,0-0.7,0.3-0.9,0.8h-1v-5.2h3.5v0.9h-2.5v3.2c0.2-0.3,0.6-0.6,1.1-0.6
								c1.1,0,1.7,1,1.7,2.9L105.9,85L105.9,85z"/>
							<path fill="#595A5C" d="M107,85v-4.9c0-1.8,0.7-2.8,2.1-2.8s2.1,1,2.1,2.8V85c0,1.8-0.7,2.8-2.1,2.8S107,86.8,107,85z
								 M110.2,85v-4.8c0-1.4-0.4-1.9-1.1-1.9s-1.1,0.5-1.1,1.9V85c0,1.4,0.4,1.9,1.1,1.9S110.2,86.4,110.2,85z"/>
						</g>
						<g enable-background="new    ">
							<path fill="#595A5C" d="M115,85.8l-1.8-3.3v5.2h-0.8v-6.7h0.7l2.2,4.1l2.2-4.1h0.7v6.7h-0.8v-5.2l-1.8,3.3L115,85.8L115,85.8
								z"/>
							<path fill="#595A5C" d="M123.4,85.7c0,1.2-0.6,2-1.7,2c-0.6,0-1.1-0.3-1.4-0.6v0.5h-0.7v-6.8h0.7v2.6
								c0.3-0.4,0.7-0.6,1.4-0.6c1.1,0,1.7,0.9,1.7,2V85.7z M122.7,84.9c0-1-0.4-1.5-1.2-1.5c-0.5,0-0.9,0.3-1.2,0.8v2.2
								c0.2,0.5,0.6,0.8,1.2,0.8c0.8,0,1.2-0.5,1.2-1.5V84.9z"/>
							<path fill="#595A5C" d="M125.2,89.7h-0.7v-6.9h0.7v0.5c0.3-0.4,0.7-0.6,1.4-0.6c1.1,0,1.7,0.9,1.7,2v1c0,1.2-0.6,2-1.7,2
								c-0.6,0-1.1-0.3-1.4-0.6V89.7z M127.6,84.9c0-1-0.4-1.5-1.2-1.5c-0.5,0-0.9,0.3-1.2,0.8v2.2c0.2,0.5,0.6,0.8,1.2,0.8
								c0.8,0,1.2-0.5,1.2-1.5V84.9z"/>
							<path fill="#595A5C" d="M131,82.7c1,0,1.6,0.5,1.9,1.3l-0.7,0.1c-0.1-0.5-0.5-0.8-1.1-0.8S130,83.6,130,84
								c0,0.4,0.3,0.7,1,0.8l0.5,0.1c1.1,0.2,1.5,0.6,1.5,1.4c0,0.8-0.6,1.4-1.7,1.4c-1,0-1.7-0.5-2-1.5l0.7-0.1
								c0.2,0.6,0.7,0.9,1.3,0.9c0.6,0,1-0.3,1-0.8c0-0.5-0.3-0.7-1-0.8l-0.5-0.1c-1.1-0.2-1.5-0.7-1.5-1.4
								C129.3,83.2,130,82.7,131,82.7z"/>
						</g>
					</g>
				</g>
			</g>
		</g>
	</g>
	<g>
		<g>
			<g>
				<path fill="#A6A8AC" d="M52.1,91.5c-0.2,0-0.4-0.1-0.5-0.2c-0.2-0.3-0.2-0.7,0.2-0.9l6.3-4.8c0.1-0.1,0.2-0.2,0.4-0.2
					c0.2,0,0.4,0.1,0.5,0.2c0.2,0.3,0.2,0.7-0.2,0.9l-6.3,4.8C52.3,91.5,52.2,91.5,52.1,91.5z"/>
				<path fill="#A6A8AC" d="M58.3,85.7c0.2,0,0.2,0.1,0.4,0.2c0.2,0.2,0.1,0.5-0.1,0.6l-6.3,4.8c-0.1,0.1-0.2,0.1-0.3,0.1
					c-0.2,0-0.2-0.1-0.4-0.2c-0.2-0.2-0.1-0.5,0.1-0.6l6.3-4.8C58.2,85.7,58.3,85.7,58.3,85.7 M58.3,85.3L58.3,85.3
					c-0.2,0-0.4,0.1-0.5,0.2l-6.3,4.8c-0.2,0.2-0.3,0.3-0.3,0.5s0,0.5,0.2,0.6c0.2,0.2,0.4,0.3,0.7,0.3c0.2,0,0.4-0.1,0.5-0.2
					l6.3-4.8c0.4-0.3,0.5-0.8,0.2-1.1C58.9,85.4,58.6,85.3,58.3,85.3L58.3,85.3z"/>
			</g>
		</g>
		<g>
			<g>
				<path fill="#A6A8AC" d="M59.2,94.3c-0.2,0-0.4-0.1-0.5-0.2c-0.2-0.3-0.2-0.7,0.2-0.9l6.3-4.8c0.1-0.1,0.2-0.2,0.4-0.2
					c0.2,0,0.4,0.1,0.5,0.2c0.2,0.3,0.2,0.7-0.2,0.9l-6.3,4.8C59.4,94.3,59.4,94.3,59.2,94.3z"/>
				<path fill="#A6A8AC" d="M65.4,88.5c0.2,0,0.2,0.1,0.4,0.2c0.2,0.2,0.1,0.5-0.1,0.6L59.5,94c-0.1,0.1-0.2,0.1-0.3,0.1
					s-0.2-0.1-0.4-0.2c-0.2-0.2-0.1-0.5,0.1-0.6l6.3-4.8C65.3,88.6,65.4,88.5,65.4,88.5 M65.4,88.1c-0.2,0-0.4,0.1-0.5,0.2L58.6,93
					c-0.4,0.3-0.5,0.8-0.2,1.1c0.2,0.2,0.4,0.3,0.7,0.3c0.2,0,0.4-0.1,0.5-0.2l6.3-4.8c0.2-0.2,0.3-0.3,0.3-0.5s0-0.5-0.2-0.6
					C66,88.3,65.7,88.1,65.4,88.1L65.4,88.1z"/>
			</g>
		</g>
		<g>
			<g>
				<path fill="#A6A8AC" d="M104.9,50.9l-3.2,2.4c0-0.2,0-0.2-0.1-0.4c-0.1-0.1-0.2-0.2-0.4-0.2c-0.1,0-0.2,0-0.3,0.1l-5.5,4.2
					l-3.1-4L104.9,50.9 M104.8,50.5l-12.5,2.2l-0.6,0.1l0.4,0.5l3.1,4l0.2,0.3l0.3-0.2l5.5-4.2c0,0,0,0,0.1,0c0,0,0,0,0.1,0
					c0,0,0,0,0,0.1l-0.2,1.1l0.8-0.7l3.2-2.4L104.8,50.5L104.8,50.5z"/>
			</g>
			<g>
				<path fill="#FFFFFF" d="M70.1,79l3.5-2.7c0.1-0.1,0.1-0.1,0.1-0.2c0-0.1,0-0.2-0.1-0.2l-0.2-0.2l10.8-8.2l0.2,0.2
					c0.1,0.1,0.2,0.1,0.2,0.1c0.1,0,0.1,0,0.2-0.1c0.1-0.1,0.2-0.2,0.1-0.4l-1.4-1.9c-0.2,0-0.2,0-0.3,0c-0.1,0-0.1,0-0.2,0.1
					L68.3,76.8l-2.8-3.7l26-19.9l3.5,4.6v0.1c0,0.1,0,0.1,0.1,0.2c0.1,0.1,0.1,0.1,0.2,0.1h0.1l3.9,5.1L73.2,83.1L70.1,79z"/>
				<path fill="#A6A8AC" d="M91.6,53.4l3.3,4.4c0,0.1,0,0.2,0.1,0.3c0.1,0.1,0.2,0.2,0.2,0.2l3.8,4.9l-11.4,8.6l-14.4,11l-1.5-2
					l-1.4-1.7l3.3-2.5c0.2-0.2,0.2-0.5,0.1-0.6l10.5-8c0.1,0.1,0.2,0.2,0.4,0.2c0.1,0,0.2,0,0.3-0.1c0.2-0.2,0.2-0.5,0.1-0.6l-1.4-2
					c-0.1-0.1-0.2-0.2-0.4-0.2c-0.1,0-0.2,0-0.3,0.1l-14.4,11L67.3,75l-1.5-2l14.5-11L91.6,53.4 M91.6,52.9l-0.3,0.2L80,61.7
					l-14.5,11L65.2,73l0.2,0.3l1.5,2l1.1,1.4l0.2,0.3l0.3-0.2l14.5-11c0,0,0,0,0.1,0c0,0,0,0,0.1,0l1.4,1.9v0.1c0,0,0,0-0.1,0
					c0,0,0,0-0.1,0l-0.2-0.3l-0.3,0.2l-10.5,8l-0.3,0.2l0.2,0.3v0.1L70,78.7L69.8,79l0.2,0.3l1.4,1.7l1.5,2l0.2,0.3l0.3-0.2l14.5-11
					l11.4-8.6l0.3-0.2l-0.2-0.3l-3.8-4.9l-0.1-0.1h-0.2v-0.2l-0.2-0.2l-3.3-4.4L91.6,52.9L91.6,52.9z"/>
			</g>
			<g>
				
					<rect x="64.9" y="81" transform="matrix(-0.7944 0.6074 -0.6074 -0.7944 171.6713 105.9923)" fill="#FFFFFF" width="6.1" height="2.1"/>
				<path fill="#A6A8AC" d="M69.6,79.6l1.1,1.4l-4.5,3.5l-1.1-1.4L69.6,79.6 M69.7,79l-0.3,0.2l-4.5,3.5L64.6,83l0.2,0.3l1.1,1.4
					l0.2,0.3l0.3-0.2l4.5-3.5l0.3-0.2L71,80.8L70,79.3L69.7,79L69.7,79z"/>
			</g>
			<g>
				
					<rect x="62" y="77.3" transform="matrix(-0.7944 0.6073 -0.6073 -0.7944 164.108 100.8236)" fill="#FFFFFF" width="6.1" height="1.7"/>
				<path fill="#A6A8AC" d="M66.9,75.9l0.8,1.1l-4.5,3.5l-0.8-1.1L66.9,75.9 M67,75.4l-0.3,0.2l-4.5,3.5l-0.3,0.2l0.2,0.3l0.8,1.1
					l0.2,0.3l0.3-0.2l4.5-3.5l0.3-0.2L68,76.8l-0.8-1.1L67,75.4L67,75.4z"/>
			</g>
			<g>
				<path fill="#FFFFFF" d="M69.5,91.2l3.8-7.7l14-10.7L86.3,75l-6.1,4.6c-0.1,0.1-0.1,0.1-0.1,0.2c0,0.1,0,0.2,0.1,0.2
					c0.1,0.1,0.2,0.1,0.2,0.1s0.1,0,0.2-0.1l5.4-4.1l-0.9,2.1l-6.5,5c-0.1,0.1-0.1,0.1-0.1,0.2c0,0.1,0,0.2,0.1,0.2
					c0.1,0.1,0.2,0.1,0.2,0.1c0.1,0,0.1,0,0.2-0.1l5.8-4.5l-0.6,1.5l-14.4,11L69.5,91.2L69.5,91.2z"/>
				<path fill="#A6A8AC" d="M86.9,73.4L86.3,75l-6,4.6c-0.2,0.2-0.2,0.5-0.1,0.6c0.1,0.1,0.2,0.2,0.4,0.2c0.1,0,0.2,0,0.3-0.1
					l4.8-3.7L85,78l-6.4,4.9c-0.2,0.2-0.2,0.5-0.1,0.6c0.1,0.1,0.2,0.2,0.4,0.2c0.1,0,0.2,0,0.3-0.1l5.2-4l-0.3,0.8l-14.4,11
					l3.8-7.6L86.9,73.4 M87.8,72.3l-1.1,0.8L73.3,83.4l-0.1,0.1l-0.1,0.1l-3.8,7.6l0.6,0.5l14.3-11l0.1-0.1l0.1-0.1l0.3-0.8l0.5-1.3
					l-1.1,0.8l-5.2,4c0,0,0,0-0.1,0c0,0,0,0-0.1,0v-0.1l6.4-4.9l0.1-0.1l0.1-0.1l0.6-1.4l0.6-1.4l-1.1,0.8L80.5,80c0,0,0,0-0.1,0
					c0,0,0,0-0.1,0v-0.1l6-4.6l0.1-0.1l0.1-0.1l0.6-1.5L87.8,72.3L87.8,72.3z"/>
			</g>
			<g>
				<path fill="#FFFFFF" d="M61.1,82.9L83,66.2l1.4,1.8l-10.7,8.2L73.5,76c-0.1-0.1-0.2-0.1-0.2-0.1c-0.1,0-0.1,0-0.2,0.1l-10.9,8.3
					L61.1,82.9z"/>
				<path fill="#A6A8AC" d="M83,66.4l1.1,1.5l-10.4,8c-0.1-0.1-0.2-0.2-0.4-0.2c-0.1,0-0.2,0-0.3,0.1l-10.7,8.2l-0.9-1.2L83,66.4
					 M83.1,65.9l-0.3,0.2L61.1,82.6l-0.3,0.2l0.2,0.3l0.9,1.2l0.2,0.3l0.3-0.2l10.8-8.2c0,0,0,0,0.1,0c0,0,0,0,0.1,0l0.2,0.3
					l0.3-0.2l10.5-8l0.3-0.2l-0.2-0.3l-1.1-1.5L83.1,65.9L83.1,65.9z"/>
			</g>
			<g>
				<path fill="#A6A8AC" stroke="#A6A8AC" stroke-width="0.5" d="M84.7,80.9l3.6-8.5l11.6-8.9l0,0c0.1-0.1,0.2-0.2,0.2-0.2l6-12.8
					c0.1-0.2,0.1-0.3-0.1-0.5c-0.1-0.2-0.2-0.2-0.5-0.2l-14,2.4l0,0h-0.1l0,0c0,0-0.1,0-0.1,0.1l0,0l-11.6,8.9l-9.4,0.8
					c-0.1,0-0.2,0-0.2,0.1L54.3,74.3c-0.2,0.2-0.2,0.3-0.2,0.5c0,0,0,0.1,0.1,0.1c0.1,0.2,0.2,0.2,0.4,0.2l10.4-1.7l1.4,1.8L61.5,79
					c-0.2,0.2-0.2,0.5-0.1,0.6l1.1,1.4l-2,1.5c-0.2,0.2-0.2,0.5-0.1,0.6l1.4,1.9c0.2,0.2,0.5,0.2,0.6,0.1l2-1.5l1.4,1.7
					c0.2,0.2,0.5,0.2,0.6,0.1l4.8-3.7l1.4,1.8L68,92.6c-0.1,0.2-0.1,0.3,0.1,0.5l0.1,0.1c0.2,0.2,0.4,0.2,0.5,0L84.6,81
					C84.7,81,84.7,80.9,84.7,80.9z M65,72.6L56.2,74l14.4-11l4.6-0.4l-5.1,3.9c-0.2,0.2-0.2,0.5-0.1,0.6c0.2,0.2,0.5,0.2,0.6,0.1
					l6.1-4.7c0,0,0.1,0,0.1-0.1l1.6-0.2L65,72.6z M104.9,50.9l-5.4,11.4L96,57.8l5.5-4.2c0.1-0.1,0.2-0.2,0.2-0.2
					c0-0.2,0-0.2-0.1-0.4c-0.2-0.2-0.5-0.2-0.6-0.1l-5.5,4.2l-3.1-4L104.9,50.9z M63.2,80.5l-0.8-1.1l4.5-3.5l0.8,1.1L63.2,80.5z
					 M66.2,84.4L65.1,83l4.5-3.5l1.1,1.4L66.2,84.4z M93,55.3l1.9,2.5c0,0.1,0,0.2,0.1,0.3c0.1,0.1,0.2,0.2,0.2,0.2l3.8,4.9
					l-11.4,8.6l-14.4,11l-1.5-2l-1.4-1.7l3.3-2.5c0.2-0.2,0.2-0.5,0.1-0.6l0,0c-0.2-0.2-0.5-0.2-0.6-0.1l-10.8,8.2l-0.9-1.2
					l21.6-16.5l1.1,1.5l0,0c0.2,0.2,0.5,0.2,0.6,0.1c0.2-0.2,0.2-0.5,0.1-0.6l-1.3-1.9c-0.2-0.2-0.5-0.2-0.6-0.1l-14.5,11L67.3,75
					l-1.5-2l14.5-11l11.4-8.6L93,55.3 M69.7,91.4l3.8-7.6l13.4-10.3L86.3,75l-6,4.6C80,79.7,80,80,80.2,80.2
					c0.2,0.2,0.5,0.2,0.6,0.1l4.8-3.7L85,78l-6.4,4.9c-0.2,0.2-0.2,0.5-0.1,0.6c0.2,0.2,0.5,0.2,0.6,0.1l5.2-4L84,80.3L69.7,91.4z"
					/>
			</g>
		</g>
	</g>
</g>
</svg>
