<?xml version="1.0" encoding="utf-8"?>
<!-- Generator: Adobe Illustrator 18.0.0, SVG Export Plug-In . SVG Version: 6.00 Build 0)  -->
<!DOCTYPE svg PUBLIC "-//W3C//DTD SVG 1.1//EN" "http://www.w3.org/Graphics/SVG/1.1/DTD/svg11.dtd">
<svg version="1.1" id="Layer_1" xmlns="http://www.w3.org/2000/svg" xmlns:xlink="http://www.w3.org/1999/xlink" x="0px" y="0px"
	 viewBox="0 0 841.9 595.3" enable-background="new 0 0 841.9 595.3" xml:space="preserve">
<g>
	<path fill="#919395" d="M339.3,423.6l-5-5c-2.7,2.7-6.1,4-9.6,4c-3.5,0-6.9-1.3-9.6-4c-2.7-2.7-4-6.1-4-9.6c0-3.5,1.3-6.9,4-9.6
		l22-22c2.7-2.7,6.1-4,9.6-4c3.5,0,6.9,1.3,9.6,4c2.7,2.7,4,6.1,4,9.6c0,3.5-1.3,6.9-4,9.6l-22,22L339.3,423.6l5,5l22-22
		c5.4-5.4,8.1-12.5,8.1-19.6c0-7.1-2.7-14.2-8.1-19.6c-5.4-5.4-12.5-8.1-19.6-8.1c-7.1,0-14.2,2.7-19.6,8.1l-22,22
		c-5.4,5.4-8.1,12.5-8.1,19.6c0,7.1,2.7,14.2,8.1,19.6c5.4,5.4,12.5,8.1,19.6,8.1c7.1,0,14.2-2.7,19.6-8.1L339.3,423.6z"/>
	<path fill="#919395" d="M409,484.5l-5-5c-2.7,2.7-6.1,4-9.6,4c-3.5,0-6.9-1.3-9.6-4c-2.7-2.7-4-6.1-4-9.6c0-3.5,1.3-6.9,4-9.6
		l14.5-14.5c2.7-2.7,6.1-4,9.6-4c3.5,0,6.9,1.3,9.6,4c2.7,2.7,4,6.1,4,9.6c0,3.5-1.3,6.9-4,9.6L404,479.5L409,484.5l5,5l14.5-14.5
		c5.4-5.4,8.1-12.5,8.1-19.6c0-7.1-2.7-14.2-8.1-19.6c-5.4-5.4-12.5-8.1-19.6-8.1c-7.1,0-14.2,2.7-19.6,8.1l-14.5,14.5
		c-5.4,5.4-8.1,12.5-8.1,19.6c0,7.1,2.7,14.2,8.1,19.6c5.4,5.4,12.5,8.1,19.6,8.1c7.1,0,14.2-2.7,19.6-8.1L409,484.5z"/>
	<path fill="#919395" d="M305.9,396.2l-5-5c-2.7,2.7-6.1,4-9.6,4c-3.5,0-6.9-1.3-9.6-4c-2.7-2.7-4-6.1-4-9.6c0-3.5,1.3-6.9,4-9.6
		l5.6-5.6c2.7-2.7,6.1-4,9.6-4c3.5,0,6.9,1.3,9.6,4c2.7,2.7,4,6.1,4,9.6c0,3.5-1.3,6.9-4,9.6l-5.6,5.6L305.9,396.2l5,5l5.6-5.6
		c5.4-5.4,8.1-12.5,8.1-19.6c0-7.1-2.7-14.2-8.1-19.6c-5.4-5.4-12.5-8.1-19.6-8.1c-7.1,0-14.2,2.7-19.6,8.1l-5.6,5.6
		c-5.4,5.4-8.1,12.5-8.1,19.6c0,7.1,2.7,14.2,8.1,19.6c5.4,5.4,12.5,8.1,19.5,8.1c7.1,0,14.2-2.7,19.6-8.1L305.9,396.2z"/>
	<path fill="#919395" d="M340.1,282.4c-2.4,1.6-5,2.4-7.7,2.4c-4.3,0-8.5-2-11.1-5.8c-1.6-2.4-2.4-5-2.4-7.7c0-4.3,2-8.5,5.8-11.1
		l-4-5.8l3.1,6.4l87.3-42c3.5-1.7,5-5.9,3.3-9.4c-1.7-3.5-5.9-5-9.4-3.3l-87.3,42l-1,0.6c-7.7,5.4-11.9,14-11.9,22.8
		c0,5.4,1.6,11,4.9,15.7c5.3,7.7,14,11.9,22.7,11.9c5.4,0,11-1.6,15.7-4.9c3.2-2.2,4-6.6,1.8-9.8C347.7,281,343.4,280.2,340.1,282.4
		L340.1,282.4z"/>
	<path fill="#919395" d="M372.7,457l-5-5c-2.7,2.7-6.1,4-9.6,4c-3.5,0-6.9-1.3-9.6-4c-2.7-2.7-4-6.1-4-9.6c0-3.5,1.3-6.9,4-9.6
		l32.1-32.1c2.7-2.7,6.1-4,9.6-4c3.5,0,6.9,1.3,9.6,4c2.7,2.7,4,6.1,4,9.6c0,3.5-1.3,6.9-4,9.6L367.7,452L372.7,457l5,5l32.1-32.1
		c5.4-5.4,8.1-12.5,8.1-19.6c0-7.1-2.7-14.2-8.1-19.6c-5.4-5.4-12.5-8.1-19.6-8.1c-7.1,0-14.2,2.7-19.6,8.1l-32.1,32.1
		c-5.4,5.4-8.1,12.5-8.1,19.6c0,7.1,2.7,14.2,8.1,19.6c5.4,5.4,12.5,8.1,19.6,8.1c7.1,0,14.2-2.7,19.5-8.1L372.7,457z"/>
	<path fill="#919395" d="M495.8,333.2l43.1,43.1c2.7,2.7,4,6.1,4,9.6c0,3.5-1.3,6.9-4,9.6c-2.7,2.7-6.1,4-9.6,4
		c-3.5,0-6.9-1.3-9.6-4l-38.2-38.2c-2.8-2.8-7.2-2.8-10,0c-2.8,2.8-2.8,7.2,0,10l38.2,38.2c5.4,5.4,12.5,8.1,19.5,8.1
		c7.1,0,14.2-2.7,19.6-8.1c5.4-5.4,8.1-12.5,8.1-19.5c0-7.1-2.7-14.2-8.1-19.6l-43.1-43.1c-2.8-2.8-7.2-2.8-10,0
		C493,326,493,330.5,495.8,333.2L495.8,333.2z"/>
	<path fill="#919395" d="M484.3,263.3l92.5,92.5c2.7,2.7,4,6.1,4,9.6c0,3.5-1.3,6.9-4,9.6c-2.7,2.7-6.1,4-9.6,4
		c-3.5,0-6.9-1.3-9.6-4l-51.1-51.1c-2.8-2.8-7.2-2.8-10,0c-2.8,2.8-2.8,7.2,0,10l51.1,51.1c5.4,5.4,12.5,8.1,19.5,8.1
		c7.1,0,14.2-2.7,19.6-8.1c5.4-5.4,8.1-12.5,8.1-19.6c0-7.1-2.7-14.2-8.1-19.6l-92.5-92.5c-2.8-2.8-7.2-2.8-10,0
		C481.5,256.1,481.5,260.5,484.3,263.3L484.3,263.3z"/>
	<path fill="#919395" d="M471.6,367.7l31.5,31.5c2.7,2.7,4,6.1,4,9.6c0,3.5-1.3,6.9-4,9.6c-2.7,2.7-6.1,4-9.6,4
		c-3.5,0-6.9-1.3-9.6-4c-2.8-2.8-7.2-2.8-10,0c-2.8,2.8-2.8,7.2,0,10c5.4,5.4,12.5,8.1,19.6,8.1c7.1,0,14.2-2.7,19.6-8.1
		c5.4-5.4,8.1-12.5,8.1-19.5c0-7.1-2.7-14.2-8.1-19.6l-31.5-31.5c-2.8-2.8-7.2-2.8-10,0C468.9,360.4,468.9,364.9,471.6,367.7
		L471.6,367.7z"/>
	<path fill="#919395" d="M452.2,406.3l22.7,22.7c2.7,2.7,4,6.1,4,9.6c0,3.5-1.3,6.9-4,9.6c-2.7,2.7-6.1,4-9.6,4
		c-3.5,0-6.9-1.3-9.6-4c-2.8-2.8-7.2-2.8-10,0c-2.8,2.8-2.8,7.2,0,10c5.4,5.4,12.5,8.1,19.6,8.1c7.1,0,14.2-2.7,19.6-8.1
		c5.4-5.4,8.1-12.5,8.1-19.6c0-7.1-2.7-14.2-8.1-19.6l-22.7-22.7c-2.8-2.8-7.2-2.8-10,0C449.4,399.1,449.4,403.6,452.2,406.3
		L452.2,406.3z"/>
	<path fill="#919395" d="M269.3,358.3L189.1,298c-3.1-2.3-7.5-1.7-9.9,1.4c-2.3,3.1-1.7,7.5,1.4,9.9l80.2,60.3
		c3.1,2.3,7.5,1.7,9.9-1.4C273,365.1,272.4,360.7,269.3,358.3"/>
	<path fill="#919395" d="M190,157.8l94.5,63.8c0.9,0.6,1.9,1,3,1.1l78.9,10.9c3.9,0.5,7.4-2.2,8-6c0.5-3.9-2.2-7.4-6-8L291,209
		l-93.1-62.9c-3.2-2.2-7.6-1.3-9.8,1.9C185.9,151.3,186.8,155.6,190,157.8L190,157.8z"/>
	<path fill="#919395" d="M582.5,351.5l35.1-35.4l42.6-42.9c2.7-2.8,2.7-7.2,0-10c-2.8-2.7-7.2-2.7-10,0l-42.6,42.9l-35.1,35.4
		c-2.7,2.8-2.7,7.2,0,10C575.3,354.3,579.7,354.2,582.5,351.5L582.5,351.5z"/>
	<path fill="#919395" d="M598,170.4l-63.3,43.1l-42-20.9c-1.3-0.7-2.8-0.9-4.3-0.6l-81.6,13.3c-3.8,0.6-6.5,4.3-5.8,8.1
		c0.6,3.8,4.3,6.5,8.1,5.8l79.4-13l43.6,21.7c2.3,1.1,5,0.9,7.1-0.5l66.8-45.4c3.2-2.2,4.1-6.6,1.9-9.8
		C605.7,169,601.3,168.2,598,170.4L598,170.4z"/>
</g>
</svg>
