<?xml version="1.0" encoding="utf-8"?>
<!-- Generator: Adobe Illustrator 18.0.0, SVG Export Plug-In . SVG Version: 6.00 Build 0)  -->
<!DOCTYPE svg PUBLIC "-//W3C//DTD SVG 1.1//EN" "http://www.w3.org/Graphics/SVG/1.1/DTD/svg11.dtd">
<svg version="1.1" id="Layer_1" xmlns="http://www.w3.org/2000/svg" xmlns:xlink="http://www.w3.org/1999/xlink" x="0px" y="0px"
	 viewBox="0 0 163.3 129.2" enable-background="new 0 0 163.3 129.2" xml:space="preserve">
<g>
	<path fill="#7961AA" d="M116.8,64.2h-1c0,14.9-6,28.4-15.8,38.2c-9.8,9.8-23.3,15.8-38.2,15.8c-14.9,0-28.4-6-38.2-15.8
		C13.8,92.6,7.8,79.1,7.8,64.2c0-14.9,6-28.4,15.8-38.2c9.8-9.8,23.3-15.8,38.2-15.8c14.9,0,28.4,6,38.2,15.8
		c9.8,9.8,15.8,23.3,15.8,38.2H116.8h1c0-30.9-25.1-56-56-56c-30.9,0-56,25.1-56,56c0,30.9,25.1,56,56,56c30.9,0,56-25.1,56-56
		H116.8z"/>
	<path fill="#7961AA" d="M101.8,103.5L101.8,103.5c0-0.3-0.1-0.5-0.3-0.7c-0.2-0.2-0.4-0.3-0.7-0.3c-0.3,0-0.5,0.1-0.7,0.3
		c-0.2,0.2-0.3,0.4-0.3,0.7c0,0,0,0.2,0,3.6c0,2.2,0.6,4,1.4,5.3c1.3,2,3.3,2.9,4.8,3.4c1.6,0.5,2.8,0.5,2.9,0.5h2.8
		c0.5,0,1-0.4,1-1c0-0.5-0.4-1-1-1l-2.8,0l0,0c-0.2,0-2.1-0.1-3.8-1c-0.9-0.5-1.7-1.1-2.3-2.1c-0.6-1-1.1-2.3-1.1-4.1
		C101.8,103.7,101.8,103.5,101.8,103.5c0-0.3-0.1-0.5-0.3-0.7c-0.2-0.2-0.4-0.3-0.7-0.3c-0.3,0-0.5,0.1-0.7,0.3
		c-0.2,0.2-0.3,0.4-0.3,0.7v0c0,0.5,0.4,1,1,1C101.3,104.5,101.8,104,101.8,103.5L101.8,103.5z"/>
	<path fill="#7961AA" d="M113.5,113.8v2.5c0,0.5,0.4,1,1,1c0.5,0,1-0.4,1-1v-2.5c0-0.5-0.4-1-1-1C114,112.8,113.5,113.3,113.5,113.8
		"/>
	<path fill="#7961AA" d="M116.4,113.2v3.8c0,0.5,0.4,1,1,1c0.5,0,1-0.4,1-1v-3.8c0-0.5-0.4-1-1-1
		C116.9,112.2,116.4,112.7,116.4,113.2"/>
	<polygon fill="#7961AA" points="129.8,110.8 128.9,110.8 128.9,120.1 141.9,120.1 141.9,118.2 152.9,118.2 152.9,115.5 
		152.9,111.7 141.9,111.7 141.9,110.8 141.9,109.9 128.9,109.9 128.9,110.8 129.8,110.8 129.8,111.8 140,111.8 140,112.7 140,113.7 
		151,113.7 151,115.5 151,116.3 140,116.3 140,118.2 130.8,118.2 130.8,110.8 129.8,110.8 129.8,111.8 	"/>
	<path fill="#7961AA" d="M152.3,116h2.1c0.5,0,1-0.4,1-1c0-0.5-0.4-1-1-1h-2.1c-0.5,0-1,0.4-1,1C151.3,115.5,151.8,116,152.3,116"/>
	<polygon fill="#7961AA" points="120.5,112.7 120.6,113.7 128.6,112.9 128.6,117.3 121.5,116.4 121.5,112.7 120.5,112.7 
		120.6,113.7 120.5,112.7 119.5,112.7 119.5,118.1 130.6,119.5 130.6,110.7 119.5,111.9 119.5,112.7 	"/>
	<path fill="#7961AA" d="M93.9,42.6h-1c0,1-0.8,1.8-1.9,1.9H33c-1,0-1.8-0.8-1.9-1.9V31.1c0-1,0.8-1.8,1.9-1.9h58.1
		c1,0,1.8,0.8,1.9,1.9v11.5H93.9h1V31.1c0-2.1-1.7-3.8-3.8-3.8H33c-2.1,0-3.8,1.7-3.8,3.8v11.5c0,2.1,1.7,3.8,3.8,3.8h58.1
		c2.1,0,3.8-1.7,3.8-3.8H93.9z"/>
	<path fill="#7961AA" d="M71.4,34.2h-1c0,0.3-0.3,0.6-0.6,0.6c-0.3,0-0.6-0.3-0.6-0.6c0-0.3,0.3-0.6,0.6-0.6c0.3,0,0.6,0.3,0.6,0.6
		H71.4h1c0-1.4-1.1-2.5-2.5-2.5c-1.4,0-2.5,1.1-2.5,2.5c0,1.4,1.1,2.5,2.5,2.5c1.4,0,2.5-1.1,2.5-2.5H71.4z"/>
	<path fill="#7961AA" d="M71.4,39.5h-1c0,0.3-0.3,0.6-0.6,0.6c-0.3,0-0.6-0.3-0.6-0.6c0-0.3,0.3-0.6,0.6-0.6c0.3,0,0.6,0.3,0.6,0.6
		H71.4h1c0-1.4-1.1-2.5-2.5-2.5c-1.4,0-2.5,1.1-2.5,2.5c0,1.4,1.1,2.5,2.5,2.5c1.4,0,2.5-1.1,2.5-2.5H71.4z"/>
	<path fill="#7961AA" d="M34.8,35.2h26.7c0.5,0,1-0.4,1-1c0-0.5-0.4-1-1-1H34.8c-0.5,0-1,0.4-1,1C33.9,34.7,34.3,35.2,34.8,35.2"/>
	<path fill="#7961AA" d="M34.8,40.4h26.7c0.5,0,1-0.4,1-1c0-0.5-0.4-1-1-1H34.8c-0.5,0-1,0.4-1,1C33.9,40,34.3,40.4,34.8,40.4"/>
	<path fill="#7961AA" d="M77.1,35.2h12.1c0.5,0,1-0.4,1-1c0-0.5-0.4-1-1-1H77.1c-0.5,0-1,0.4-1,1C76.2,34.7,76.6,35.2,77.1,35.2"/>
	<path fill="#7961AA" d="M77.1,40.4h12.1c0.5,0,1-0.4,1-1c0-0.5-0.4-1-1-1H77.1c-0.5,0-1,0.4-1,1C76.2,40,76.6,40.4,77.1,40.4"/>
	<path fill="#7961AA" d="M93.9,63.9h-1c0,1-0.8,1.8-1.9,1.9H33c-1,0-1.8-0.8-1.9-1.9V52.4c0-1,0.8-1.8,1.9-1.9h58.1
		c1,0,1.8,0.8,1.9,1.9v11.5H93.9h1V52.4c0-2.1-1.7-3.8-3.8-3.8H33c-2.1,0-3.8,1.7-3.8,3.8v11.5c0,2.1,1.7,3.8,3.8,3.8h58.1
		c2.1,0,3.8-1.7,3.8-3.8H93.9z"/>
	<path fill="#7961AA" d="M71.4,55.5h-1c0,0.3-0.3,0.6-0.6,0.6c-0.3,0-0.6-0.3-0.6-0.6c0-0.3,0.3-0.6,0.6-0.6c0.3,0,0.6,0.3,0.6,0.6
		H71.4h1c0-1.4-1.1-2.5-2.5-2.5c-1.4,0-2.5,1.1-2.5,2.5c0,1.4,1.1,2.5,2.5,2.5c1.4,0,2.5-1.1,2.5-2.5H71.4z"/>
	<path fill="#7961AA" d="M71.4,60.8h-1c0,0.3-0.3,0.6-0.6,0.6c-0.3,0-0.6-0.3-0.6-0.6c0-0.3,0.3-0.6,0.6-0.6c0.3,0,0.6,0.3,0.6,0.6
		H71.4h1c0-1.4-1.1-2.5-2.5-2.5c-1.4,0-2.5,1.1-2.5,2.5c0,1.4,1.1,2.5,2.5,2.5c1.4,0,2.5-1.1,2.5-2.5H71.4z"/>
	<path fill="#7961AA" d="M34.8,56.5h26.7c0.5,0,1-0.4,1-1c0-0.5-0.4-1-1-1H34.8c-0.5,0-1,0.4-1,1C33.9,56.1,34.3,56.5,34.8,56.5"/>
	<path fill="#7961AA" d="M34.8,61.8h26.7c0.5,0,1-0.4,1-1c0-0.5-0.4-1-1-1H34.8c-0.5,0-1,0.4-1,1C33.9,61.4,34.3,61.8,34.8,61.8"/>
	<path fill="#7961AA" d="M77.1,56.5h12.1c0.5,0,1-0.4,1-1c0-0.5-0.4-1-1-1H77.1c-0.5,0-1,0.4-1,1C76.2,56.1,76.6,56.5,77.1,56.5"/>
	<path fill="#7961AA" d="M77.1,61.8h12.1c0.5,0,1-0.4,1-1c0-0.5-0.4-1-1-1H77.1c-0.5,0-1,0.4-1,1C76.2,61.4,76.6,61.8,77.1,61.8"/>
	<path fill="#7961AA" d="M93.9,85.3h-1c0,1-0.8,1.8-1.9,1.9H33c-1,0-1.8-0.8-1.9-1.9V73.8c0-1,0.8-1.8,1.9-1.9h58.1
		c1,0,1.8,0.8,1.9,1.9v11.5H93.9h1V73.8c0-2.1-1.7-3.8-3.8-3.8H33c-2.1,0-3.8,1.7-3.8,3.8v11.5c0,2.1,1.7,3.8,3.8,3.8h58.1
		c2.1,0,3.8-1.7,3.8-3.8H93.9z"/>
	<path fill="#7961AA" d="M71.4,76.9h-1c0,0.3-0.3,0.6-0.6,0.6c-0.3,0-0.6-0.3-0.6-0.6c0-0.3,0.3-0.6,0.6-0.6c0.3,0,0.6,0.3,0.6,0.6
		H71.4h1c0-1.4-1.1-2.5-2.5-2.5c-1.4,0-2.5,1.1-2.5,2.5c0,1.4,1.1,2.5,2.5,2.5c1.4,0,2.5-1.1,2.5-2.5H71.4z"/>
	<path fill="#7961AA" d="M71.4,82.2h-1c0,0.3-0.3,0.6-0.6,0.6c-0.3,0-0.6-0.3-0.6-0.6c0-0.3,0.3-0.6,0.6-0.6c0.3,0,0.6,0.3,0.6,0.6
		H71.4h1c0-1.4-1.1-2.5-2.5-2.5c-1.4,0-2.5,1.1-2.5,2.5c0,1.4,1.1,2.5,2.5,2.5c1.4,0,2.5-1.1,2.5-2.5H71.4z"/>
	<path fill="#7961AA" d="M34.8,77.9h26.7c0.5,0,1-0.4,1-1c0-0.5-0.4-1-1-1H34.8c-0.5,0-1,0.4-1,1C33.9,77.4,34.3,77.9,34.8,77.9"/>
	<path fill="#7961AA" d="M34.8,83.2h26.7c0.5,0,1-0.4,1-1c0-0.5-0.4-1-1-1H34.8c-0.5,0-1,0.4-1,1C33.9,82.7,34.3,83.2,34.8,83.2"/>
	<path fill="#7961AA" d="M77.1,77.9h12.1c0.5,0,1-0.4,1-1c0-0.5-0.4-1-1-1H77.1c-0.5,0-1,0.4-1,1C76.2,77.4,76.6,77.9,77.1,77.9"/>
	<path fill="#7961AA" d="M77.1,83.2h12.1c0.5,0,1-0.4,1-1c0-0.5-0.4-1-1-1H77.1c-0.5,0-1,0.4-1,1C76.2,82.7,76.6,83.2,77.1,83.2"/>
	<path fill="#7961AA" d="M66.7,102.9h12.7c0.5,0,1-0.4,1-1c0-0.5-0.4-1-1-1H66.7c-0.5,0-1,0.4-1,1C65.7,102.5,66.2,102.9,66.7,102.9
		"/>
	<path fill="#7961AA" d="M45.8,102.9h12.5c0.5,0,1-0.4,1-1c0-0.5-0.4-1-1-1H45.8c-0.5,0-1,0.4-1,1C44.8,102.5,45.2,102.9,45.8,102.9
		"/>
	<path fill="#7961AA" d="M63.6,98.1v-9.6c0-0.5-0.4-1-1-1c-0.5,0-1,0.4-1,1v9.6c0,0.5,0.4,1,1,1C63.1,99,63.6,98.6,63.6,98.1"/>
	<polygon fill="#7961AA" points="66.5,105.9 66.5,104.9 59.6,104.9 59.6,99 65.6,99 65.6,105.9 66.5,105.9 66.5,104.9 66.5,105.9 
		67.5,105.9 67.5,97 57.7,97 57.7,106.8 67.5,106.8 67.5,105.9 	"/>
</g>
</svg>
