<?xml version="1.0" encoding="utf-8"?>
<!-- Generator: Adobe Illustrator 18.0.0, SVG Export Plug-In . SVG Version: 6.00 Build 0)  -->
<!DOCTYPE svg PUBLIC "-//W3C//DTD SVG 1.1//EN" "http://www.w3.org/Graphics/SVG/1.1/DTD/svg11.dtd">
<svg version="1.1" id="Layer_1" xmlns="http://www.w3.org/2000/svg" xmlns:xlink="http://www.w3.org/1999/xlink" x="0px" y="0px"
	 viewBox="0 0 141.7 141.7" enable-background="new 0 0 141.7 141.7" xml:space="preserve">
<g>
	<circle fill="#FFFFFF" cx="70.5" cy="71.8" r="61.7"/>
	<path fill="#7B7B7B" d="M132.1,71.8l-0.2,0c0,33.9-27.5,61.4-61.4,61.4l0,0h0c-33.9,0-61.4-27.5-61.4-61.4l0,0l0,0
		c0-33.9,27.5-61.4,61.4-61.4l0,0l0,0c33.9,0,61.4,27.5,61.4,61.4l0,0v0L132.1,71.8l0.2,0l0,0c0-34.2-27.7-61.9-61.9-61.9l0,0l0,0
		C36.3,9.9,8.6,37.6,8.6,71.7v0l0,0c0,34.2,27.7,61.9,61.9,61.9h0l0,0c34.2,0,61.9-27.7,61.9-61.9v0v0L132.1,71.8z"/>
	<path fill="#7B7B7B" d="M104.1,68.8c-0.2-0.1-0.4-0.2-0.6-0.1c0,0-22,7.5-22.6,7.7c-0.5,0.2-0.8-0.3-0.8-0.3l-6.9-8.6
		c-0.2-0.2-0.5-0.3-0.7-0.2C72.2,67.4,72,67.7,72,68l0,31c0,0.2,0.1,0.4,0.3,0.5c0.1,0.1,0.2,0.1,0.4,0.1l0.2,0L104,86.8
		c0.2-0.1,0.4-0.3,0.4-0.6l0-16.9C104.4,69.1,104.3,68.9,104.1,68.8z"/>
	<path fill="#7B7B7B" d="M111.4,61.8l-5.9-7.9c-0.1-0.1-0.2-0.2-0.3-0.2l-34.5-9.7c-0.1,0-0.3,0-0.4,0l-34.5,9.7
		c-0.1,0-0.3,0.1-0.3,0.2l-5.9,7.9c-0.1,0.2-0.2,0.4-0.1,0.6c0.1,0.2,0.2,0.4,0.4,0.4L59,72.7l0.2,0c0.2,0,0.4-0.1,0.5-0.2l8.2-10.1
		l2.4,0.7c0.1,0,0.2,0,0.3,0v0l0,0l2.4-0.7l8.2,10.1c0.1,0.2,0.3,0.2,0.5,0.2l0.2,0l29.1-9.9c0.2-0.1,0.3-0.2,0.4-0.4
		C111.6,62.2,111.5,62,111.4,61.8z M70.5,60.4l-24.7-6.8l24.7-6.9l24.7,6.9L70.5,60.4z"/>
	<path fill="#7B7B7B" d="M68.5,67.3c-0.3-0.1-0.5,0-0.7,0.2l-6.9,8.5c0,0-0.3,0.4-0.8,0.3c-0.6-0.2-22.6-7.7-22.6-7.7
		c-0.2-0.1-0.4,0-0.6,0.1c-0.2,0.1-0.3,0.3-0.3,0.5l0,16.9c0,0.3,0.2,0.5,0.4,0.6L68,99.6l0.2,0c0.1,0,0.3,0,0.4-0.1
		c0.2-0.1,0.3-0.3,0.3-0.5l0-31C68.9,67.7,68.7,67.4,68.5,67.3z"/>
</g>
</svg>
