<?xml version="1.0" encoding="utf-8"?>
<!-- Generator: Adobe Illustrator 18.0.0, SVG Export Plug-In . SVG Version: 6.00 Build 0)  -->
<!DOCTYPE svg PUBLIC "-//W3C//DTD SVG 1.1//EN" "http://www.w3.org/Graphics/SVG/1.1/DTD/svg11.dtd">
<svg version="1.1" id="Layer_1" xmlns="http://www.w3.org/2000/svg" xmlns:xlink="http://www.w3.org/1999/xlink" x="0px" y="0px"
	 viewBox="0 0 242.9 119.5" enable-background="new 0 0 242.9 119.5" xml:space="preserve">
<g>
	<path fill="#6C54A3" d="M4.5,96.2l9.8-14.7L5.2,67.8h4.9L17,78.3l6.9-10.5h4.9l-9.1,13.7l9.8,14.7h-4.9L17,84.7L9.4,96.2H4.5z"/>
	<path fill="#6C54A3" d="M48.1,72.4v0.5c0,8.6,3.6,13.5,10.3,13.5c6.9,0,10.4-4.8,10.4-14.2c0-10.2-4.2-14.2-10.5-14.2
		c-3.2,0-6,1.7-7.6,4H38.4V23.3h39.3v11H51.2v16.4c2.3-2.3,5.7-3.6,9.8-3.6c11.8,0,20.6,8.3,20.6,25.3c0,15.4-8.2,25.1-23.2,25.1
		c-14.9,0-23.1-9.8-23.1-24.3L48.1,72.4z"/>
	<path fill="#6C54A3" d="M137.7,72.3c0,15.9-9.2,25.2-23.1,25.2s-23.1-9.3-23.1-25.2v-25c0-15.9,9.2-25.2,23.1-25.2
		s23.1,9.3,23.1,25.2V72.3z M124.8,48.5c0-11.7-4.7-15.1-10.3-15.1c-5.6,0-10.3,3.4-10.3,15.1V71c0,11.7,4.7,15.1,10.3,15.1
		c5.6,0,10.3-3.4,10.3-15.1V48.5z"/>
	<path fill="#6C54A3" d="M193.9,72.3c0,15.9-9.2,25.2-23.1,25.2s-23.1-9.3-23.1-25.2v-25c0-15.9,9.2-25.2,23.1-25.2
		s23.1,9.3,23.1,25.2V72.3z M181.1,48.5c0-11.7-4.7-15.1-10.3-15.1c-5.6,0-10.3,3.4-10.3,15.1V71c0,11.7,4.7,15.1,10.3,15.1
		c5.6,0,10.3-3.4,10.3-15.1V48.5z"/>
	<path fill="#6C54A3" d="M214.1,45.8c0,4.6-2.1,7.7-6.6,7.7s-6.6-3.1-6.6-7.7v-6.1c0-4.6,2.1-7.7,6.6-7.7s6.6,3.1,6.6,7.7V45.8z
		 M208.8,39.9c0-2-0.4-2.7-1.3-2.7s-1.3,0.7-1.3,2.7v5.9c0,2,0.4,2.7,1.3,2.7s1.3-0.7,1.3-2.7V39.9z M213.7,72.6h-5.1l12.2-39.8h5.1
		L213.7,72.6z M220.4,59.5c0-4.6,2.1-7.7,6.6-7.7s6.6,3.1,6.6,7.7v6.1c0,4.6-2.1,7.7-6.6,7.7s-6.6-3.1-6.6-7.7V59.5z M225.8,65.5
		c0,2,0.4,2.7,1.3,2.7s1.3-0.7,1.3-2.7v-5.9c0-2-0.4-2.7-1.3-2.7s-1.3,0.7-1.3,2.7V65.5z"/>
</g>
</svg>
