<?xml version="1.0" encoding="utf-8"?>
<!-- Generator: Adobe Illustrator 18.0.0, SVG Export Plug-In . SVG Version: 6.00 Build 0)  -->
<!DOCTYPE svg PUBLIC "-//W3C//DTD SVG 1.1//EN" "http://www.w3.org/Graphics/SVG/1.1/DTD/svg11.dtd">
<svg version="1.1" id="Layer_1" xmlns="http://www.w3.org/2000/svg" xmlns:xlink="http://www.w3.org/1999/xlink" x="0px" y="0px"
	 viewBox="0 0 483.5 301" enable-background="new 0 0 483.5 301" xml:space="preserve">
<circle opacity="0.3" fill="#D2D3D4" cx="62.4" cy="79.4" r="56.1"/>
<circle fill="#D2D3D4" cx="62.4" cy="79.4" r="48"/>
<g>
	<path fill="#3A3B3B" d="M132,75.1c-3-0.3-5-2.2-5.8-5.1l2.1-0.4c0.5,2,1.8,3.3,3.7,3.6v-6.9l-0.2-0.1c-3.5-0.7-5-2.2-5-5.1
		c0-2.4,1.7-4.8,5.3-5v-2h1.6v2.1c2.6,0.4,4.3,2.2,4.9,4.7l-2.1,0.4c-0.4-1.5-1.3-2.7-2.8-3.2v6.5c3.6,0.7,5.3,2.4,5.3,5.3
		c0,2.7-1.8,4.9-5.3,5.1v2H132V75.1z M132,64.5v-6.3c-2.1,0.1-3.2,1.5-3.2,3.1C128.8,62.9,129.7,64,132,64.5z M133.6,66.7v6.6
		c2.1-0.2,3.3-1.5,3.3-3.3S135.9,67.2,133.6,66.7z"/>
	<path fill="#3A3B3B" d="M142.5,58.4h19.4v4l-10,27.4H146l9.8-26.7h-13.3V58.4z"/>
	<path fill="#3A3B3B" d="M172.1,79.5v0.2c0,3.7,1.6,5.8,4.4,5.8c3,0,4.5-2.1,4.5-6.1c0-4.4-1.8-6.1-4.5-6.1c-1.4,0-2.6,0.7-3.3,1.7
		h-5.3V58.4h16.9v4.8h-11.4v7c1-1,2.5-1.6,4.2-1.6c5.1,0,8.9,3.6,8.9,10.9c0,6.6-3.5,10.8-10,10.8c-6.4,0-10-4.2-10-10.4L172.1,79.5
		z"/>
	<path fill="#3A3B3B" d="M141.6,112h-1.6l6.4-18.1h1.6L141.6,112z"/>
	<path fill="#3A3B3B" d="M156,110.1v-6c0-2.1-0.6-3.2-2.4-3.2c-1.1,0-2.2,0.7-2.7,1.9v7.3h-1.5V99.8h1.5v1.3
		c0.7-0.9,1.8-1.6,3.2-1.6c1.5,0,2.5,0.7,3.1,1.9c0.9-1.2,2.1-1.9,3.7-1.9c2.3,0,3.5,1.6,3.5,4.2v6.3h-1.5v-6c0-2.1-0.6-3.2-2.4-3.2
		c-1.2,0-2.2,0.7-2.8,2c0,0.3,0.1,0.6,0.1,0.9v6.3H156z"/>
	<path fill="#3A3B3B" d="M166.5,103.9c0-2.4,1.7-4.3,4.3-4.3c2.6,0,4.3,2,4.3,4.3v2.1c0,2.4-1.7,4.3-4.3,4.3c-2.6,0-4.3-2-4.3-4.3
		V103.9z M173.5,104.2c0-2-1.2-3.2-2.7-3.2s-2.7,1.2-2.7,3.2v1.6c0,2,1.2,3.2,2.7,3.2s2.7-1.2,2.7-3.2V104.2z"/>
	<path fill="#3A3B3B" d="M184,110.1v-6c0-2.1-0.6-3.2-2.4-3.2c-1.1,0-2.2,0.7-2.7,1.9v7.3h-1.5V99.8h1.5v1.3
		c0.7-0.9,1.8-1.6,3.2-1.6c2.3,0,3.5,1.6,3.5,4.2v6.3H184z"/>
	<path fill="#3A3B3B" d="M193,99.8v1.4h-2.6v5.8c0,1.1,0.4,1.7,1.4,1.7h1.4v1.4h-1.4c-2,0-2.9-1.1-2.9-3v-6h-1.6v-1.4h1.6v-2.9h1.5
		v2.9H193z"/>
	<path fill="#3A3B3B" d="M201.8,110.1v-6c0-2.1-0.6-3.2-2.4-3.2c-1.1,0-2.2,0.7-2.7,1.9v7.3h-1.5V95.4h1.5v5.7
		c0.7-0.9,1.8-1.6,3.2-1.6c2.3,0,3.5,1.6,3.5,4.2v6.3H201.8z"/>
</g>
<g>
	<path fill="#6C54A3" d="M56.4,77.2v0.3c0,5.1,2.1,7.9,6,7.9c4,0,6.1-2.8,6.1-8.3c0-6-2.4-8.3-6.2-8.3c-1.9,0-3.5,1-4.5,2.3h-7.2
		V48.5h23v6.5H58.3v9.6c1.3-1.3,3.4-2.1,5.7-2.1c6.9,0,12.1,4.9,12.1,14.8c0,9-4.8,14.7-13.6,14.7c-8.7,0-13.5-5.7-13.5-14.2
		L56.4,77.2z"/>
	<path fill="#3A3B3B" d="M47.6,105.6l-3.6-6.5v10.1h-1.5V96h1.3l4.4,7.9l4.4-7.9h1.3v13.2h-1.5V99.1l-3.6,6.5H47.6z"/>
	<path fill="#3A3B3B" d="M64.1,105.5c0,2.3-1.2,4-3.4,4c-1.2,0-2.2-0.5-2.7-1.3v1h-1.4V95.8H58v5c0.5-0.8,1.5-1.3,2.7-1.3
		c2.2,0,3.4,1.7,3.4,4V105.5z M62.7,103.8c0-1.9-0.8-3-2.4-3c-1.1,0-1.8,0.6-2.3,1.5v4.3c0.5,0.9,1.2,1.5,2.3,1.5c1.6,0,2.4-1,2.4-3
		V103.8z"/>
	<path fill="#3A3B3B" d="M67.6,113.3h-1.4V99.8h1.4v1c0.5-0.8,1.5-1.3,2.7-1.3c2.2,0,3.4,1.7,3.4,4v2c0,2.3-1.2,4-3.4,4
		c-1.2,0-2.2-0.5-2.7-1.3V113.3z M72.3,103.8c0-1.9-0.8-3-2.4-3c-1.1,0-1.8,0.6-2.3,1.5v4.3c0.5,0.9,1.2,1.5,2.3,1.5
		c1.6,0,2.4-1,2.4-3V103.8z"/>
	<path fill="#3A3B3B" d="M78.9,99.6c1.9,0,3.2,1,3.7,2.6l-1.5,0.2c-0.2-1-1-1.6-2.2-1.6c-1.2,0-1.8,0.6-1.8,1.4
		c0,0.9,0.7,1.3,1.9,1.5l0.9,0.2c2.1,0.3,2.9,1.3,2.9,2.8c0,1.6-1.3,2.8-3.4,2.8c-2,0-3.4-1-4-2.8l1.4-0.3c0.4,1.2,1.4,1.8,2.5,1.8
		c1.2,0,2-0.6,2-1.5c0-0.9-0.7-1.4-1.9-1.5l-0.9-0.2c-2.2-0.4-2.9-1.3-2.9-2.7C75.7,100.6,77,99.6,78.9,99.6z"/>
</g>
<circle opacity="0.3" fill="#D2D3D4" cx="325.4" cy="79.4" r="56.1"/>
<circle fill="#D2D3D4" cx="325.4" cy="79.4" r="48"/>
<g>
	<path fill="#3A3B3B" d="M395,75.1c-3-0.3-5-2.2-5.8-5.1l2.1-0.4c0.5,2,1.8,3.3,3.7,3.6v-6.9l-0.2-0.1c-3.5-0.7-5-2.2-5-5.1
		c0-2.4,1.7-4.8,5.3-5v-2h1.6v2.1c2.6,0.4,4.3,2.2,4.9,4.7l-2.1,0.4c-0.4-1.5-1.3-2.7-2.8-3.2v6.5c3.6,0.7,5.3,2.4,5.3,5.3
		c0,2.7-1.8,4.9-5.3,5.1v2H395V75.1z M395,64.5v-6.3c-2.1,0.1-3.2,1.5-3.2,3.1C391.8,62.9,392.7,64,395,64.5z M396.6,66.7v6.6
		c2.1-0.2,3.3-1.5,3.3-3.3S398.9,67.2,396.6,66.7z"/>
	<path fill="#3A3B3B" d="M407.4,89.8V85h6.1V64.3l-6.1,2.5v-5.2l7-3.2h4.7V85h6v4.8H407.4z"/>
	<path fill="#3A3B3B" d="M450.1,83.5h-3.4v6.3h-5.5v-6.3h-12.4v-4.5l11.9-20.5h6v20.3h3.4V83.5z M441.3,78.7V67l-6.8,11.7H441.3z"/>
	<path fill="#3A3B3B" d="M473.7,79.5c0,6.9-3.9,10.9-10,10.9c-6,0-10-4-10-10.9V68.7c0-6.9,3.9-10.9,10-10.9c6,0,10,4,10,10.9V79.5z
		 M468.2,69.2c0-5-2-6.5-4.4-6.5s-4.4,1.5-4.4,6.5v9.7c0,5,2,6.5,4.4,6.5s4.4-1.5,4.4-6.5V69.2z"/>
	<path fill="#3A3B3B" d="M408.7,112h-1.6l6.4-18.1h1.6L408.7,112z"/>
	<path fill="#3A3B3B" d="M423.2,110.1v-6c0-2.1-0.6-3.2-2.4-3.2c-1.1,0-2.2,0.7-2.7,1.9v7.3h-1.5V99.8h1.5v1.3
		c0.7-0.9,1.8-1.6,3.2-1.6c1.5,0,2.5,0.7,3.1,1.9c0.9-1.2,2.1-1.9,3.7-1.9c2.3,0,3.5,1.6,3.5,4.2v6.3h-1.5v-6c0-2.1-0.6-3.2-2.4-3.2
		c-1.2,0-2.2,0.7-2.8,2c0,0.3,0.1,0.6,0.1,0.9v6.3H423.2z"/>
	<path fill="#3A3B3B" d="M433.6,103.9c0-2.4,1.7-4.3,4.3-4.3c2.6,0,4.3,2,4.3,4.3v2.1c0,2.4-1.7,4.3-4.3,4.3c-2.6,0-4.3-2-4.3-4.3
		V103.9z M440.6,104.2c0-2-1.2-3.2-2.7-3.2c-1.5,0-2.7,1.2-2.7,3.2v1.6c0,2,1.2,3.2,2.7,3.2c1.5,0,2.7-1.2,2.7-3.2V104.2z"/>
	<path fill="#3A3B3B" d="M451.2,110.1v-6c0-2.1-0.6-3.2-2.4-3.2c-1.1,0-2.2,0.7-2.7,1.9v7.3h-1.5V99.8h1.5v1.3
		c0.7-0.9,1.8-1.6,3.2-1.6c2.3,0,3.5,1.6,3.5,4.2v6.3H451.2z"/>
	<path fill="#3A3B3B" d="M460.1,99.8v1.4h-2.6v5.8c0,1.1,0.4,1.7,1.4,1.7h1.4v1.4h-1.4c-2,0-2.9-1.1-2.9-3v-6h-1.6v-1.4h1.6v-2.9
		h1.5v2.9H460.1z"/>
	<path fill="#3A3B3B" d="M469,110.1v-6c0-2.1-0.6-3.2-2.4-3.2c-1.1,0-2.2,0.7-2.7,1.9v7.3h-1.5V95.4h1.5v5.7
		c0.7-0.9,1.8-1.6,3.2-1.6c2.3,0,3.5,1.6,3.5,4.2v6.3H469z"/>
</g>
<g>
	<path fill="#6C54A3" d="M300.1,91.2v-6.5h8.3V56.5l-8.3,3.4v-7.1l9.5-4.3h6.3v36.2h8.2v6.5H300.1z"/>
	<path fill="#6C54A3" d="M353.6,77.1c0,9.3-5.4,14.8-13.5,14.8c-8.2,0-13.5-5.4-13.5-14.8V62.5c0-9.3,5.4-14.8,13.5-14.8
		c8.2,0,13.5,5.4,13.5,14.8V77.1z M346.1,63.2c0-6.8-2.7-8.8-6-8.8c-3.3,0-6,2-6,8.8v13.2c0,6.8,2.7,8.8,6,8.8c3.3,0,6-2,6-8.8V63.2
		z"/>
	<path fill="#3A3B3B" d="M310.7,105.6l-3.6-6.5v10.1h-1.5V96h1.3l4.4,7.9l4.4-7.9h1.3v13.2h-1.5V99.1l-3.6,6.5H310.7z"/>
	<path fill="#3A3B3B" d="M327.1,105.5c0,2.3-1.2,4-3.4,4c-1.2,0-2.2-0.5-2.7-1.3v1h-1.4V95.8h1.4v5c0.5-0.8,1.5-1.3,2.7-1.3
		c2.2,0,3.4,1.7,3.4,4V105.5z M325.7,103.8c0-1.9-0.8-3-2.4-3c-1.1,0-1.8,0.6-2.3,1.5v4.3c0.5,0.9,1.2,1.5,2.3,1.5
		c1.6,0,2.4-1,2.4-3V103.8z"/>
	<path fill="#3A3B3B" d="M330.6,113.3h-1.4V99.8h1.4v1c0.5-0.8,1.5-1.3,2.7-1.3c2.2,0,3.4,1.7,3.4,4v2c0,2.3-1.2,4-3.4,4
		c-1.2,0-2.2-0.5-2.7-1.3V113.3z M335.3,103.8c0-1.9-0.8-3-2.4-3c-1.1,0-1.8,0.6-2.3,1.5v4.3c0.5,0.9,1.2,1.5,2.3,1.5
		c1.6,0,2.4-1,2.4-3V103.8z"/>
	<path fill="#3A3B3B" d="M341.9,99.6c1.9,0,3.2,1,3.7,2.6l-1.5,0.2c-0.2-1-1-1.6-2.2-1.6c-1.2,0-1.8,0.6-1.8,1.4
		c0,0.9,0.7,1.3,1.9,1.5l0.9,0.2c2.1,0.3,2.9,1.3,2.9,2.8c0,1.6-1.3,2.8-3.4,2.8c-2,0-3.4-1-4-2.8l1.4-0.3c0.4,1.2,1.4,1.8,2.5,1.8
		c1.2,0,2-0.6,2-1.5c0-0.9-0.7-1.4-1.9-1.5l-0.9-0.2c-2.2-0.4-2.9-1.3-2.9-2.7C338.7,100.6,340,99.6,341.9,99.6z"/>
</g>
<circle opacity="0.3" fill="#D2D3D4" cx="62.4" cy="228.4" r="56.1"/>
<circle fill="#D2D3D4" cx="62.4" cy="228.4" r="48"/>
<g>
	<path fill="#3A3B3B" d="M132,224.1c-3-0.3-5-2.2-5.8-5.1l2.1-0.4c0.5,2,1.8,3.3,3.7,3.6v-6.9l-0.2-0.1c-3.5-0.7-5-2.2-5-5.1
		c0-2.4,1.7-4.8,5.3-5v-2h1.6v2.1c2.6,0.4,4.3,2.2,4.9,4.7l-2.1,0.4c-0.4-1.5-1.3-2.7-2.8-3.2v6.5c3.6,0.7,5.3,2.4,5.3,5.3
		c0,2.7-1.8,4.9-5.3,5.1v2H132V224.1z M132,213.5v-6.3c-2.1,0.1-3.2,1.5-3.2,3.1C128.8,212,129.7,213.1,132,213.5z M133.6,215.7v6.6
		c2.1-0.2,3.3-1.5,3.3-3.3S135.9,216.3,133.6,215.7z"/>
	<path fill="#3A3B3B" d="M158.9,223.8l-9,10.3H162v4.8h-19.5v-4l12.1-13.9c1.4-1.7,1.9-2.9,1.9-4.5c0-3.1-1.7-4.8-4.2-4.8
		c-2.5,0-4.2,1.7-4.2,4.8v1.1l-5.5-0.4v-0.8c0-5.4,3.6-9.5,9.7-9.5c5.9,0,9.7,4.1,9.7,9.5C162,219.6,160.8,221.5,158.9,223.8z"/>
	<path fill="#3A3B3B" d="M167.4,224.5l8.3-17.1h5.8l-5.9,12.1c0.2,0,0.6-0.1,0.9-0.1c6.1,0,10.2,4.3,10.2,10c0,5.6-4.1,10-10.2,10
		c-6.1,0-10.2-4.5-10.2-10C166.3,227.6,166.7,226,167.4,224.5z M181.3,229.3c0-3.3-1.8-5.4-4.8-5.4s-4.8,2.1-4.8,5.4
		c0,3.3,1.8,5.4,4.8,5.4S181.3,232.6,181.3,229.3z"/>
	<path fill="#3A3B3B" d="M210.7,228.5c0,6.9-3.9,10.9-10,10.9c-6,0-10-4-10-10.9v-10.8c0-6.9,3.9-10.9,10-10.9c6,0,10,4,10,10.9
		V228.5z M205.1,218.3c0-5-2-6.5-4.4-6.5s-4.4,1.5-4.4,6.5v9.7c0,5,2,6.5,4.4,6.5s4.4-1.5,4.4-6.5V218.3z"/>
	<path fill="#3A3B3B" d="M144.1,261.1h-1.6l6.4-18.1h1.6L144.1,261.1z"/>
	<path fill="#3A3B3B" d="M158.5,259.2v-6c0-2.1-0.6-3.2-2.4-3.2c-1.1,0-2.2,0.7-2.7,1.9v7.3h-1.5v-10.3h1.5v1.3
		c0.7-0.9,1.8-1.6,3.2-1.6c1.5,0,2.5,0.7,3.1,1.9c0.9-1.2,2.1-1.9,3.7-1.9c2.3,0,3.5,1.6,3.5,4.2v6.3h-1.5v-6c0-2.1-0.6-3.2-2.4-3.2
		c-1.2,0-2.2,0.7-2.8,2c0,0.3,0.1,0.6,0.1,0.9v6.3H158.5z"/>
	<path fill="#3A3B3B" d="M169,252.9c0-2.4,1.7-4.3,4.3-4.3c2.6,0,4.3,2,4.3,4.3v2.1c0,2.4-1.7,4.3-4.3,4.3c-2.6,0-4.3-2-4.3-4.3
		V252.9z M176,253.2c0-2-1.2-3.2-2.7-3.2s-2.7,1.2-2.7,3.2v1.6c0,2,1.2,3.2,2.7,3.2s2.7-1.2,2.7-3.2V253.2z"/>
	<path fill="#3A3B3B" d="M186.5,259.2v-6c0-2.1-0.6-3.2-2.4-3.2c-1.1,0-2.2,0.7-2.7,1.9v7.3h-1.5v-10.3h1.5v1.3
		c0.7-0.9,1.8-1.6,3.2-1.6c2.3,0,3.5,1.6,3.5,4.2v6.3H186.5z"/>
	<path fill="#3A3B3B" d="M195.5,248.9v1.4h-2.6v5.8c0,1.1,0.4,1.7,1.4,1.7h1.4v1.4h-1.4c-2,0-2.9-1.1-2.9-3v-6h-1.6v-1.4h1.6v-2.9
		h1.5v2.9H195.5z"/>
	<path fill="#3A3B3B" d="M204.3,259.2v-6c0-2.1-0.6-3.2-2.4-3.2c-1.1,0-2.2,0.7-2.7,1.9v7.3h-1.5v-14.7h1.5v5.7
		c0.7-0.9,1.8-1.6,3.2-1.6c2.3,0,3.5,1.6,3.5,4.2v6.3H204.3z"/>
</g>
<g>
	<path fill="#6C54A3" d="M56.2,219.8l-12.3,14h16.5v6.5H33.9v-5.4l16.4-18.9c2-2.3,2.6-4,2.6-6.1c0-4.3-2.4-6.5-5.7-6.5
		c-3.4,0-5.7,2.3-5.7,6.5v1.5l-7.5-0.5v-1c0-7.3,4.9-12.9,13.2-12.9c8.1,0,13.2,5.6,13.2,12.9C60.4,214.1,58.9,216.7,56.2,219.8z"/>
	<path fill="#6C54A3" d="M91.2,226.2c0,9.3-5.4,14.8-13.5,14.8c-8.2,0-13.5-5.4-13.5-14.8v-14.6c0-9.3,5.4-14.8,13.5-14.8
		c8.2,0,13.5,5.4,13.5,14.8V226.2z M83.7,212.3c0-6.8-2.7-8.8-6-8.8c-3.3,0-6,2-6,8.8v13.2c0,6.8,2.7,8.8,6,8.8c3.3,0,6-2,6-8.8
		V212.3z"/>
	<path fill="#3A3B3B" d="M47.6,254.7l-3.6-6.5v10.1h-1.5v-13.2h1.3l4.4,7.9l4.4-7.9H54v13.2h-1.5v-10.1l-3.6,6.5H47.6z"/>
	<path fill="#3A3B3B" d="M64.1,254.5c0,2.3-1.2,4-3.4,4c-1.2,0-2.2-0.5-2.7-1.3v1h-1.4v-13.4H58v5c0.5-0.8,1.5-1.3,2.7-1.3
		c2.2,0,3.4,1.7,3.4,4V254.5z M62.7,252.8c0-1.9-0.8-3-2.4-3c-1.1,0-1.8,0.6-2.3,1.5v4.3c0.5,0.9,1.2,1.5,2.3,1.5c1.6,0,2.4-1,2.4-3
		V252.8z"/>
	<path fill="#3A3B3B" d="M67.6,262.4h-1.4v-13.5h1.4v1c0.5-0.8,1.5-1.3,2.7-1.3c2.2,0,3.4,1.7,3.4,4v2c0,2.3-1.2,4-3.4,4
		c-1.2,0-2.2-0.5-2.7-1.3V262.4z M72.3,252.8c0-1.9-0.8-3-2.4-3c-1.1,0-1.8,0.6-2.3,1.5v4.3c0.5,0.9,1.2,1.5,2.3,1.5
		c1.6,0,2.4-1,2.4-3V252.8z"/>
	<path fill="#3A3B3B" d="M78.9,248.6c1.9,0,3.2,1,3.7,2.6l-1.5,0.2c-0.2-1-1-1.6-2.2-1.6c-1.2,0-1.8,0.6-1.8,1.4
		c0,0.9,0.7,1.3,1.9,1.5l0.9,0.2c2.1,0.3,2.9,1.3,2.9,2.8c0,1.6-1.3,2.8-3.4,2.8c-2,0-3.4-1-4-2.8l1.4-0.3c0.4,1.2,1.4,1.8,2.5,1.8
		c1.2,0,2-0.6,2-1.5c0-0.9-0.7-1.4-1.9-1.5l-0.9-0.2c-2.2-0.4-2.9-1.3-2.9-2.7C75.7,249.7,77,248.6,78.9,248.6z"/>
</g>
</svg>
