<?xml version="1.0" encoding="utf-8"?>
<!-- Generator: Adobe Illustrator 18.0.0, SVG Export Plug-In . SVG Version: 6.00 Build 0)  -->
<!DOCTYPE svg PUBLIC "-//W3C//DTD SVG 1.1//EN" "http://www.w3.org/Graphics/SVG/1.1/DTD/svg11.dtd">
<svg version="1.1" id="Layer_1" xmlns="http://www.w3.org/2000/svg" xmlns:xlink="http://www.w3.org/1999/xlink" x="0px" y="0px"
	 viewBox="0 0 141.7 141.7" enable-background="new 0 0 141.7 141.7" xml:space="preserve">
<g>
	<path fill="#BFBFBF" d="M70.9,6.1c35.7,0,64.7,29,64.7,64.7c0,35.7-29,64.7-64.7,64.7c-35.7,0-64.7-29-64.7-64.7
		C6.1,35.2,35.2,6.1,70.9,6.1 M70.9,5L70.9,5C34.5,5,5,34.5,5,70.9s29.5,65.9,65.9,65.9h0c36.4,0,65.9-29.5,65.9-65.9
		S107.3,5,70.9,5z"/>
	<path fill="#A0A0A0" d="M70.9,128.7L70.9,128.7c-32,0-57.9-25.9-57.9-57.9S38.9,13,70.9,13h0c32,0,57.9,25.9,57.9,57.9
		S102.8,128.7,70.9,128.7z"/>
	<polygon fill="#FFFFFF" points="38.9,66 38.9,61.3 44.9,61.3 44.9,41 38.9,43.5 38.9,38.4 45.7,35.2 50.3,35.2 50.3,61.3 
		56.2,61.3 56.2,66 	"/>
	<path fill="#FFFFFF" d="M79.2,55.9c0,6.7-3.9,10.6-9.7,10.6s-9.7-3.9-9.7-10.6V45.3c0-6.7,3.9-10.6,9.7-10.6s9.7,3.9,9.7,10.6V55.9
		z M73.8,45.9c0-4.9-2-6.4-4.3-6.4c-2.4,0-4.3,1.4-4.3,6.4v9.5c0,4.9,2,6.4,4.3,6.4c2.4,0,4.3-1.4,4.3-6.4V45.9z"/>
	<polygon fill="#FFFFFF" points="88.8,53.3 86.6,49.2 86.6,55.6 85.6,55.6 85.6,47.2 86.5,47.2 89.2,52.2 92,47.2 92.8,47.2 
		92.8,55.6 91.9,55.6 91.9,49.2 89.6,53.3 	"/>
	<path fill="#FFFFFF" d="M99.2,53.2c0,1.4-0.8,2.5-2.2,2.5c-0.8,0-1.4-0.3-1.7-0.8v0.7h-0.9v-8.5h0.9v3.2c0.3-0.5,0.9-0.8,1.7-0.8
		c1.4,0,2.2,1.1,2.2,2.5V53.2z M98.3,52.1c0-1.2-0.5-1.9-1.5-1.9c-0.7,0-1.2,0.4-1.5,1v2.7c0.3,0.6,0.8,1,1.5,1c1,0,1.5-0.6,1.5-1.9
		V52.1z"/>
	<path fill="#FFFFFF" d="M101.4,58.1h-0.9v-8.5h0.9v0.7c0.3-0.5,0.9-0.8,1.7-0.8c1.4,0,2.2,1.1,2.2,2.5v1.2c0,1.4-0.8,2.5-2.2,2.5
		c-0.8,0-1.4-0.3-1.7-0.8V58.1z M104.4,52.1c0-1.2-0.5-1.9-1.5-1.9c-0.7,0-1.2,0.4-1.5,1v2.7c0.3,0.6,0.8,1,1.5,1
		c1,0,1.5-0.6,1.5-1.9V52.1z"/>
	<path fill="#FFFFFF" d="M108.6,49.5c1.2,0,2,0.6,2.3,1.7l-0.9,0.2c-0.2-0.6-0.7-1-1.4-1c-0.7,0-1.2,0.4-1.2,0.9
		c0,0.5,0.4,0.8,1.2,1l0.6,0.1c1.3,0.2,1.8,0.8,1.8,1.7c0,1-0.8,1.8-2.1,1.8c-1.3,0-2.2-0.6-2.5-1.8l0.9-0.2
		c0.2,0.8,0.9,1.2,1.6,1.2c0.8,0,1.2-0.4,1.2-1c0-0.6-0.4-0.9-1.2-1l-0.6-0.1c-1.4-0.2-1.8-0.8-1.8-1.7
		C106.5,50.1,107.3,49.5,108.6,49.5z"/>
	<path fill="#FFFFFF" d="M49.6,97.4c-1.2-0.1-2-0.9-2.3-2l0.8-0.2c0.2,0.8,0.7,1.3,1.5,1.4v-2.7l-0.1,0c-1.4-0.3-2-0.9-2-2
		c0-1,0.7-1.9,2.1-2v-0.8h0.7v0.8c1,0.2,1.7,0.9,2,1.9L51.4,92c-0.2-0.6-0.5-1.1-1.1-1.3v2.6c1.4,0.3,2.1,0.9,2.1,2.1
		c0,1.1-0.7,1.9-2.1,2v0.8h-0.7V97.4z M49.6,93.2v-2.5c-0.8,0.1-1.3,0.6-1.3,1.2C48.4,92.6,48.7,93,49.6,93.2z M50.3,94.1v2.6
		c0.8-0.1,1.3-0.6,1.3-1.3C51.6,94.7,51.2,94.3,50.3,94.1z"/>
	<polygon fill="#FFFFFF" points="55.6,101.4 59.5,101.4 59.5,86.7 55.6,88.4 55.6,86.5 59.7,84.5 61.5,84.5 61.5,101.4 65.4,101.4 
		65.4,103.2 55.6,103.2 	"/>
	<polygon fill="#FFFFFF" points="68,101.4 71.9,101.4 71.9,86.7 68,88.4 68,86.5 72.1,84.5 73.9,84.5 73.9,101.4 77.8,101.4 
		77.8,103.2 68,103.2 	"/>
	<path fill="#FFFFFF" d="M79.5,97.8c0-2.1,1.1-4.1,3-4.9c-1.4-0.7-2.3-2.2-2.3-3.8c0-2.6,2.1-4.8,5-4.8s5,2.2,5,4.8
		c0,1.6-0.9,3.1-2.3,3.8c1.9,0.8,3,2.8,3,4.9c0,3.2-2.3,5.8-5.7,5.8S79.5,100.9,79.5,97.8z M81.5,97.8c0,2.2,1.5,4,3.7,4
		s3.7-1.8,3.7-4s-1.5-4-3.7-4S81.5,95.6,81.5,97.8z M88.2,89c0-1.7-1.3-3-3-3s-3,1.3-3,3s1.3,3,3,3S88.2,90.7,88.2,89z"/>
	<polygon fill="#FFFFFF" points="51.9,117.8 50.9,117.8 54.6,107.4 55.6,107.4 	"/>
	<path fill="#FFFFFF" d="M60.2,116.7v-3.4c0-1.2-0.4-1.8-1.4-1.8c-0.7,0-1.3,0.4-1.6,1.1v4.2h-0.9v-5.9h0.9v0.8
		c0.4-0.5,1-0.9,1.8-0.9c0.8,0,1.5,0.4,1.8,1.1c0.5-0.7,1.2-1.1,2.1-1.1c1.3,0,2,0.9,2,2.4v3.6H64v-3.4c0-1.2-0.4-1.9-1.4-1.9
		c-0.7,0-1.2,0.4-1.6,1.1c0,0.2,0,0.3,0,0.5v3.6H60.2z"/>
	<path fill="#FFFFFF" d="M66.2,113.1c0-1.4,1-2.5,2.5-2.5s2.5,1.1,2.5,2.5v1.2c0,1.4-1,2.5-2.5,2.5s-2.5-1.1-2.5-2.5V113.1z
		 M70.2,113.3c0-1.2-0.7-1.9-1.6-1.9s-1.6,0.7-1.6,1.9v0.9c0,1.2,0.7,1.9,1.6,1.9s1.6-0.7,1.6-1.9V113.3z"/>
	<path fill="#FFFFFF" d="M76.3,116.7v-3.4c0-1.2-0.4-1.8-1.4-1.8c-0.7,0-1.3,0.4-1.6,1.1v4.2h-0.9v-5.9h0.9v0.8
		c0.4-0.5,1-0.9,1.8-0.9c1.3,0,2,0.9,2,2.4v3.6H76.3z"/>
	<path fill="#FFFFFF" d="M81.5,110.8v0.8H80v3.4c0,0.6,0.2,1,0.8,1h0.8v0.8h-0.8c-1.2,0-1.7-0.6-1.7-1.7v-3.4h-0.9v-0.8h0.9v-1.7H80
		v1.7H81.5z"/>
	<path fill="#FFFFFF" d="M86.6,116.7v-3.4c0-1.2-0.4-1.8-1.4-1.8c-0.7,0-1.3,0.4-1.6,1.1v4.2h-0.9v-8.5h0.9v3.3
		c0.4-0.5,1-0.9,1.8-0.9c1.3,0,2,0.9,2,2.4v3.6H86.6z"/>
	<polyline fill="#FFFFFF" points="21.6,77.3 120.2,77.3 120.2,77 21.6,77 	"/>
</g>
</svg>
