<?xml version="1.0" encoding="utf-8"?>
<!-- Generator: Adobe Illustrator 18.0.0, SVG Export Plug-In . SVG Version: 6.00 Build 0)  -->
<!DOCTYPE svg PUBLIC "-//W3C//DTD SVG 1.1//EN" "http://www.w3.org/Graphics/SVG/1.1/DTD/svg11.dtd">
<svg version="1.1" id="Layer_1" xmlns="http://www.w3.org/2000/svg" xmlns:xlink="http://www.w3.org/1999/xlink" x="0px" y="0px"
	 viewBox="0 0 238 237" enable-background="new 0 0 238 237" xml:space="preserve">
<g>
	<g>
		<path fill="#C0BFBF" d="M119.1,7.6c29.1,0,56.5,11.3,77,31.9c20.6,20.6,31.9,47.9,31.9,77s-11.3,56.5-31.9,77
			c-20.6,20.6-47.9,31.9-77,31.9c-29.1,0-56.5-11.3-77-31.9c-20.6-20.6-31.9-47.9-31.9-77s11.3-56.5,31.9-77
			C62.6,18.9,90,7.6,119.1,7.6 M119.1,5.6L119.1,5.6C57.8,5.6,8.1,55.3,8.1,116.6s49.7,110.9,110.9,110.9h0
			c61.3,0,110.9-49.7,110.9-110.9S180.3,5.6,119.1,5.6L119.1,5.6z"/>
	</g>
</g>
<g>
	<g>
		<path fill="#A09F9F" d="M119.1,214L119.1,214c-53.8,0-97.4-43.6-97.4-97.4s43.6-97.4,97.4-97.4h0c53.8,0,97.4,43.6,97.4,97.4
			S172.8,214,119.1,214z"/>
	</g>
</g>
<g>
	<path fill="#6C54A3" d="M76.6,168.5l-3.5-3.9l9.5-11.3H67.8v-6.2h23.3v5.8l-8.4,10c6.4,0.4,10,5.1,10,12.4
		c0,7.8-4.5,13.7-13.1,13.7c-8.7,0-13.1-5.8-13.1-13.6v-0.1l7.3-0.5v0.5c0,5.1,2.4,7.5,5.9,7.5c3.4,0,5.8-2.4,5.8-7.5
		s-2.3-7.5-6-7.5C78.4,167.8,77.5,168,76.6,168.5z"/>
	<path fill="#6C54A3" d="M123.4,174.8c0,9-5.2,14.3-13.1,14.3c-7.9,0-13.1-5.2-13.1-14.3v-14.2c0-9,5.2-14.3,13.1-14.3
		c7.9,0,13.1,5.2,13.1,14.3V174.8z M116.1,161.3c0-6.6-2.7-8.5-5.8-8.5c-3.2,0-5.8,1.9-5.8,8.5v12.7c0,6.6,2.7,8.5,5.8,8.5
		c3.2,0,5.8-1.9,5.8-8.5V161.3z"/>
</g>
<g>
	<g>
		<path fill="#FFFFFF" d="M67.7,78c-3-0.3-5-2.2-5.8-5.1l2.1-0.4c0.6,2,1.8,3.3,3.7,3.6v-6.9l-0.2-0.1c-3.5-0.7-5.1-2.2-5.1-5.1
			c0-2.4,1.7-4.8,5.3-5v-2h1.7v2.1c2.6,0.4,4.4,2.2,4.9,4.7l-2.1,0.4c-0.4-1.5-1.3-2.8-2.8-3.2v6.5c3.6,0.7,5.4,2.4,5.4,5.3
			c0,2.8-1.8,4.9-5.4,5.1v2h-1.7V78z M67.7,67.3V61c-2.1,0.1-3.2,1.5-3.2,3.1C64.4,65.8,65.4,66.9,67.7,67.3z M69.3,69.6v6.6
			c2.1-0.2,3.3-1.5,3.3-3.3S71.6,70.1,69.3,69.6z"/>
		<path fill="#FFFFFF" d="M90.3,70.6l-3.9-4.3l10.6-12.6H80.4v-7h26.1v6.5L97,64.4c7.1,0.4,11.2,5.7,11.2,13.9
			c0,8.8-5,15.3-14.6,15.3c-9.7,0-14.7-6.5-14.7-15.2v-0.1l8.1-0.5v0.5c0,5.7,2.7,8.4,6.6,8.4c3.8,0,6.5-2.6,6.5-8.4
			c0-5.7-2.6-8.4-6.7-8.4C92.2,69.9,91.3,70.1,90.3,70.6z"/>
		<path fill="#FFFFFF" d="M123.2,70.6l-3.9-4.3l10.6-12.6h-16.5v-7h26.1v6.5L130,64.4c7.1,0.4,11.2,5.7,11.2,13.9
			c0,8.8-5,15.3-14.6,15.3c-9.7,0-14.7-6.5-14.7-15.2v-0.1l8.1-0.5v0.5c0,5.7,2.7,8.4,6.6,8.4c3.8,0,6.5-2.6,6.5-8.4
			c0-5.7-2.6-8.4-6.7-8.4C125.2,69.9,124.2,70.1,123.2,70.6z"/>
		<path fill="#FFFFFF" d="M144.6,78.8c0-5,2.6-9.4,6.6-11.4c-2.9-1.8-5-5.2-5-9.1c0-6.9,5.4-12.4,13.4-12.4s13.4,5.5,13.4,12.4
			c0,3.9-2.1,7.2-5,9.1c4.1,2,6.6,6.4,6.6,11.4c0,8.3-6,14.8-15,14.8C150.6,93.6,144.6,87,144.6,78.8z M152.5,78.8c0,4.9,2.8,8,7,8
			c4.3,0,7-3.1,7-8c0-4.9-2.8-8-7-8C155.3,70.7,152.5,73.9,152.5,78.8z M154,58.5c0,3.3,2.2,5.7,5.6,5.7s5.6-2.4,5.6-5.7
			c0-3.3-2.2-5.7-5.6-5.7S154,55.2,154,58.5z"/>
		<path fill="#FFFFFF" d="M81.2,122.2h-2l7.9-22.3h2L81.2,122.2z"/>
		<path fill="#FFFFFF" d="M99,119.8v-7.4c0-2.6-0.8-3.9-3-3.9c-1.4,0-2.7,0.9-3.4,2.3v9h-1.9v-12.7h1.9v1.6c0.8-1.2,2.2-1.9,3.9-1.9
			c1.8,0,3.1,0.8,3.8,2.3c1.1-1.5,2.6-2.3,4.5-2.3c2.8,0,4.3,2,4.3,5.2v7.8h-1.9v-7.4c0-2.6-0.8-4-3-4c-1.5,0-2.7,0.9-3.5,2.4
			c0,0.4,0.1,0.7,0.1,1.1v7.8H99z"/>
		<path fill="#FFFFFF" d="M111.9,112.1c0-2.9,2.1-5.3,5.3-5.3c3.2,0,5.3,2.4,5.3,5.3v2.6c0,2.9-2.1,5.3-5.3,5.3
			c-3.2,0-5.3-2.4-5.3-5.3V112.1z M120.5,112.5c0-2.5-1.5-4-3.4-4s-3.4,1.5-3.4,4v1.9c0,2.5,1.5,4,3.4,4s3.4-1.5,3.4-4V112.5z"/>
		<path fill="#FFFFFF" d="M133.5,119.8v-7.4c0-2.6-0.8-3.9-3-3.9c-1.4,0-2.7,0.9-3.4,2.3v9h-1.9v-12.7h1.9v1.6
			c0.8-1.2,2.2-1.9,3.9-1.9c2.8,0,4.3,2,4.3,5.2v7.8H133.5z"/>
		<path fill="#FFFFFF" d="M144.6,107.1v1.7h-3.2v7.2c0,1.3,0.5,2.1,1.7,2.1h1.7v1.7h-1.7c-2.5,0-3.6-1.3-3.6-3.7v-7.4h-2v-1.7h2
			v-3.6h1.9v3.6H144.6z"/>
		<path fill="#FFFFFF" d="M155.5,119.8v-7.4c0-2.6-0.8-3.9-3-3.9c-1.4,0-2.7,0.9-3.4,2.3v9h-1.9v-18.1h1.9v7
			c0.8-1.2,2.2-1.9,3.9-1.9c2.8,0,4.3,2,4.3,5.2v7.8H155.5z"/>
	</g>
</g>
<line fill="none" stroke="#FFFFFF" stroke-width="0.5" stroke-miterlimit="10" x1="36.1" y1="131.6" x2="202.1" y2="131.6"/>
<g>
	<path fill="#6C54A3" d="M138.5,174.3v-6.7c0-2.4-0.7-3.6-2.7-3.6c-1.3,0-2.5,0.8-3.1,2.1v8.2H131v-11.5h1.7v1.5
		c0.7-1.1,2-1.7,3.5-1.7c1.6,0,2.8,0.8,3.4,2.1c1-1.3,2.3-2.1,4.1-2.1c2.5,0,3.9,1.8,3.9,4.7v7h-1.7v-6.7c0-2.4-0.7-3.6-2.7-3.6
		c-1.3,0-2.4,0.8-3.2,2.2c0,0.3,0.1,0.6,0.1,1v7H138.5z"/>
	<path fill="#6C54A3" d="M159.7,169.8c0,2.8-1.5,4.8-4.2,4.8c-1.5,0-2.6-0.6-3.3-1.5v1.3h-1.7v-16.4h1.7v6.1
		c0.6-0.9,1.8-1.5,3.3-1.5c2.7,0,4.2,2,4.2,4.8V169.8z M158,167.7c0-2.4-0.9-3.6-2.9-3.6c-1.3,0-2.3,0.8-2.8,1.9v5.2
		c0.6,1.1,1.5,1.9,2.8,1.9c2,0,2.9-1.2,2.9-3.6V167.7z"/>
	<path fill="#6C54A3" d="M164,179.3h-1.7v-16.5h1.7v1.3c0.6-0.9,1.8-1.5,3.3-1.5c2.7,0,4.2,2,4.2,4.8v2.4c0,2.8-1.5,4.8-4.2,4.8
		c-1.5,0-2.6-0.6-3.3-1.5V179.3z M169.7,167.7c0-2.4-0.9-3.6-2.9-3.6c-1.3,0-2.3,0.8-2.8,1.9v5.2c0.6,1.1,1.5,1.9,2.8,1.9
		c2,0,2.9-1.2,2.9-3.6V167.7z"/>
	<path fill="#6C54A3" d="M177.8,162.5c2.3,0,3.9,1.2,4.5,3.2l-1.8,0.3c-0.3-1.2-1.3-2-2.7-2c-1.4,0-2.2,0.7-2.2,1.7
		c0,1.1,0.8,1.6,2.3,1.8l1.1,0.2c2.6,0.4,3.5,1.6,3.5,3.4c0,2-1.6,3.4-4.1,3.4c-2.4,0-4.2-1.2-4.8-3.5l1.7-0.3
		c0.5,1.5,1.7,2.3,3.1,2.3c1.5,0,2.4-0.8,2.4-1.9c0-1.1-0.8-1.7-2.3-1.9l-1.1-0.2c-2.7-0.4-3.5-1.6-3.5-3.4
		C173.9,163.8,175.5,162.5,177.8,162.5z"/>
</g>
</svg>
