<?xml version="1.0" encoding="utf-8"?>
<!-- Generator: Adobe Illustrator 18.0.0, SVG Export Plug-In . SVG Version: 6.00 Build 0)  -->
<!DOCTYPE svg PUBLIC "-//W3C//DTD SVG 1.1//EN" "http://www.w3.org/Graphics/SVG/1.1/DTD/svg11.dtd">
<svg version="1.1" id="Layer_1" xmlns="http://www.w3.org/2000/svg" xmlns:xlink="http://www.w3.org/1999/xlink" x="0px" y="0px"
	 viewBox="0 0 238 237" enable-background="new 0 0 238 237" xml:space="preserve">
<g>
	<g>
		<path fill="#C0BFBF" d="M119.4,9.6c29.1,0,56.5,11.3,77,31.9c20.6,20.6,31.9,47.9,31.9,77c0,29.1-11.3,56.5-31.9,77
			s-47.9,31.9-77,31.9c-29.1,0-56.5-11.3-77-31.9c-20.6-20.6-31.9-47.9-31.9-77s11.3-56.5,31.9-77C63,20.9,90.3,9.6,119.4,9.6
			 M119.4,7.6L119.4,7.6C58.2,7.6,8.5,57.3,8.5,118.6s49.7,110.9,110.9,110.9h0c61.3,0,110.9-49.7,110.9-110.9S180.7,7.6,119.4,7.6
			L119.4,7.6z"/>
	</g>
</g>
<g>
	<g>
		<path fill="#A09F9F" d="M119.4,216L119.4,216c-53.8,0-97.4-43.6-97.4-97.4s43.6-97.4,97.4-97.4h0c53.8,0,97.4,43.6,97.4,97.4
			S173.2,216,119.4,216z"/>
	</g>
</g>
<g>
	<path fill="#6C54A3" d="M66.3,190.3v-7h8.8v-30l-8.8,3.6v-7.5l10.1-4.6h6.8v38.5h8.7v7H66.3z"/>
	<path fill="#6C54A3" d="M124.6,175.4c0,9.9-5.7,15.7-14.4,15.7s-14.4-5.8-14.4-15.7v-15.6c0-9.9,5.7-15.7,14.4-15.7
		s14.4,5.8,14.4,15.7V175.4z M116.6,160.6c0-7.3-2.9-9.4-6.4-9.4s-6.4,2.1-6.4,9.4v14c0,7.3,2.9,9.4,6.4,9.4s6.4-2.1,6.4-9.4V160.6z
		"/>
</g>
<g>
	<path fill="#6C54A3" d="M137,176.3v-6.7c0-2.4-0.7-3.6-2.7-3.6c-1.3,0-2.5,0.8-3.1,2.1v8.2h-1.7v-11.5h1.7v1.5
		c0.7-1.1,2-1.7,3.5-1.7c1.6,0,2.8,0.8,3.4,2.1c1-1.3,2.3-2.1,4.1-2.1c2.5,0,3.9,1.8,3.9,4.7v7h-1.7v-6.7c0-2.4-0.7-3.6-2.7-3.6
		c-1.3,0-2.4,0.8-3.2,2.2c0,0.3,0.1,0.6,0.1,1v7H137z"/>
	<path fill="#6C54A3" d="M158.2,171.8c0,2.8-1.5,4.8-4.2,4.8c-1.5,0-2.6-0.6-3.3-1.5v1.3H149v-16.4h1.7v6.1c0.6-0.9,1.8-1.5,3.3-1.5
		c2.7,0,4.2,2,4.2,4.8V171.8z M156.5,169.7c0-2.4-0.9-3.6-2.9-3.6c-1.3,0-2.3,0.8-2.8,1.9v5.2c0.6,1.1,1.5,1.9,2.8,1.9
		c2,0,2.9-1.2,2.9-3.6V169.7z"/>
	<path fill="#6C54A3" d="M162.5,181.3h-1.7v-16.5h1.7v1.3c0.6-0.9,1.8-1.5,3.3-1.5c2.7,0,4.2,2,4.2,4.8v2.4c0,2.8-1.5,4.8-4.2,4.8
		c-1.5,0-2.6-0.6-3.3-1.5V181.3z M168.2,169.7c0-2.4-0.9-3.6-2.9-3.6c-1.3,0-2.3,0.8-2.8,1.9v5.2c0.6,1.1,1.5,1.9,2.8,1.9
		c2,0,2.9-1.2,2.9-3.6V169.7z"/>
	<path fill="#6C54A3" d="M176.3,164.5c2.3,0,3.9,1.2,4.5,3.2L179,168c-0.3-1.2-1.3-2-2.7-2c-1.4,0-2.2,0.7-2.2,1.7
		c0,1.1,0.8,1.6,2.3,1.8l1.1,0.2c2.6,0.4,3.5,1.6,3.5,3.4c0,2-1.6,3.4-4.1,3.4c-2.4,0-4.2-1.2-4.8-3.5l1.7-0.3
		c0.5,1.5,1.7,2.3,3.1,2.3c1.5,0,2.4-0.8,2.4-1.9c0-1.1-0.8-1.7-2.3-1.9l-1.1-0.2c-2.7-0.4-3.5-1.6-3.5-3.4
		C172.4,165.8,174,164.5,176.3,164.5z"/>
</g>
<g>
	<g>
		<path fill="#FFFFFF" d="M62.7,80c-3-0.3-5-2.2-5.8-5.1l2.1-0.4c0.6,2,1.8,3.3,3.7,3.6v-6.9l-0.2-0.1c-3.5-0.7-5.1-2.2-5.1-5.1
			c0-2.4,1.7-4.8,5.3-5v-2h1.7v2.1c2.6,0.4,4.4,2.2,4.9,4.7l-2.1,0.4c-0.4-1.5-1.3-2.8-2.8-3.2v6.5c3.6,0.7,5.4,2.4,5.4,5.3
			c0,2.8-1.8,4.9-5.4,5.1v2h-1.7V80z M62.7,69.3V63c-2.1,0.1-3.2,1.5-3.2,3.1C59.5,67.8,60.4,68.9,62.7,69.3z M64.4,71.6v6.6
			c2.1-0.2,3.3-1.5,3.3-3.3S66.6,72.1,64.4,71.6z"/>
		<path fill="#FFFFFF" d="M77.2,94.8v-7h9V57.3l-9,3.7v-7.6l10.2-4.7h6.8v39h8.8v7H77.2z"/>
		<path fill="#FFFFFF" d="M108.8,94.8v-7h9V57.3l-9,3.7v-7.6l10.2-4.7h6.8v39h8.8v7H108.8z"/>
		<path fill="#FFFFFF" d="M138.3,80.8c0-5,2.6-9.4,6.6-11.4c-2.9-1.8-5-5.2-5-9.1c0-6.9,5.4-12.4,13.4-12.4c8,0,13.4,5.5,13.4,12.4
			c0,3.9-2.1,7.2-5,9.1c4.1,2,6.6,6.4,6.6,11.4c0,8.3-6,14.8-15,14.8C144.3,95.6,138.3,89,138.3,80.8z M146.3,80.8c0,4.9,2.8,8,7,8
			c4.3,0,7-3.1,7-8c0-4.9-2.8-8-7-8C149,72.7,146.3,75.9,146.3,80.8z M147.7,60.5c0,3.3,2.2,5.7,5.6,5.7c3.4,0,5.6-2.4,5.6-5.7
			c0-3.3-2.2-5.7-5.6-5.7C150,54.7,147.7,57.2,147.7,60.5z"/>
		<path fill="#FFFFFF" d="M75.6,124.2h-2l7.9-22.3h2L75.6,124.2z"/>
		<path fill="#FFFFFF" d="M93.4,121.8v-7.4c0-2.6-0.8-3.9-3-3.9c-1.4,0-2.7,0.9-3.4,2.3v9h-1.9v-12.7H87v1.6
			c0.8-1.2,2.2-1.9,3.9-1.9c1.8,0,3.1,0.8,3.8,2.3c1.1-1.5,2.6-2.3,4.5-2.3c2.8,0,4.3,2,4.3,5.2v7.8h-1.9v-7.4c0-2.6-0.8-4-3-4
			c-1.5,0-2.7,0.9-3.5,2.4c0,0.4,0.1,0.7,0.1,1.1v7.8H93.4z"/>
		<path fill="#FFFFFF" d="M106.3,114.1c0-2.9,2.1-5.3,5.3-5.3c3.2,0,5.3,2.4,5.3,5.3v2.6c0,2.9-2.1,5.3-5.3,5.3
			c-3.2,0-5.3-2.4-5.3-5.3V114.1z M114.9,114.5c0-2.5-1.5-4-3.4-4s-3.4,1.5-3.4,4v1.9c0,2.5,1.5,4,3.4,4s3.4-1.5,3.4-4V114.5z"/>
		<path fill="#FFFFFF" d="M127.9,121.8v-7.4c0-2.6-0.8-3.9-3-3.9c-1.4,0-2.7,0.9-3.4,2.3v9h-1.9v-12.7h1.9v1.6
			c0.8-1.2,2.2-1.9,3.9-1.9c2.8,0,4.3,2,4.3,5.2v7.8H127.9z"/>
		<path fill="#FFFFFF" d="M139,109.1v1.7h-3.2v7.2c0,1.3,0.5,2.1,1.7,2.1h1.7v1.7h-1.7c-2.5,0-3.6-1.3-3.6-3.7v-7.4h-2v-1.7h2v-3.6
			h1.9v3.6H139z"/>
		<path fill="#FFFFFF" d="M149.9,121.8v-7.4c0-2.6-0.8-3.9-3-3.9c-1.4,0-2.7,0.9-3.4,2.3v9h-1.9v-18.1h1.9v7
			c0.8-1.2,2.2-1.9,3.9-1.9c2.8,0,4.3,2,4.3,5.2v7.8H149.9z"/>
	</g>
</g>
<line fill="none" stroke="#FFFFFF" stroke-width="0.5" stroke-miterlimit="10" x1="36.4" y1="133.6" x2="202.4" y2="133.6"/>
</svg>
