<?xml version="1.0" encoding="utf-8"?>
<!-- Generator: Adobe Illustrator 18.0.0, SVG Export Plug-In . SVG Version: 6.00 Build 0)  -->
<!DOCTYPE svg PUBLIC "-//W3C//DTD SVG 1.1//EN" "http://www.w3.org/Graphics/SVG/1.1/DTD/svg11.dtd">
<svg version="1.1" id="Layer_1" xmlns="http://www.w3.org/2000/svg" xmlns:xlink="http://www.w3.org/1999/xlink" x="0px" y="0px"
	 viewBox="37 15 116 113" enable-background="new 37 15 116 113" xml:space="preserve">
<g>
	<path fill="#BFBFBF" d="M95,25.5c25.7,0,46.5,20.8,46.5,46.5s-20.8,46.5-46.5,46.5S48.5,97.6,48.5,72C48.5,46.4,69.4,25.5,95,25.5
		 M95,24.7L95,24.7c-26.2,0-47.4,21.2-47.4,47.4s21.2,47.3,47.4,47.3l0,0c26.2,0,47.3-21.2,47.3-47.3S121.2,24.7,95,24.7z"/>
	<path fill="#A0A0A0" d="M95,113.6L95,113.6C72,113.6,53.4,95,53.4,72S72,30.4,95,30.4l0,0c23,0,41.6,18.6,41.6,41.6
		S118,113.6,95,113.6z"/>
	<g enable-background="new    ">
		<path fill="#FFFFFF" d="M80.5,91.1c-0.9-0.1-1.4-0.6-1.6-1.5l0.6-0.1c0.2,0.6,0.5,0.9,1,1v-2l-0.1,0c-1-0.2-1.4-0.6-1.4-1.5
			c0-0.7,0.5-1.4,1.5-1.4v-0.6H81v0.6c0.7,0.1,1.2,0.6,1.4,1.4l-0.6,0.1c-0.1-0.4-0.4-0.8-0.8-0.9v1.8c1,0.2,1.5,0.7,1.5,1.5
			c0,0.8-0.5,1.4-1.5,1.5v0.6h-0.5C80.5,91.6,80.5,91.1,80.5,91.1z M80.5,88v-1.8c-0.6,0-0.9,0.4-0.9,0.9
			C79.6,87.6,79.9,87.9,80.5,88z M81,88.7v1.9c0.6-0.1,0.9-0.4,0.9-0.9S81.6,88.8,81,88.7z"/>
	</g>
	<g enable-background="new    ">
		<path fill="#FFFFFF" d="M85.3,91.2c0,2.1,1.2,3,2.6,3c1.4,0,2.5-0.9,2.5-3c0-2.2-1.1-2.9-2.5-2.9c-0.4,0-0.8,0.1-1.1,0.2l-0.8-1
			l3.6-4.5h-5.4v-1.3h7.1v1.2L88,87.2c0.1,0,0.2,0,0.3,0c1.9,0,3.5,1.3,3.5,4c0,2.6-1.5,4.3-4,4.3s-4-1.7-4-4.3l1.5-0.1L85.3,91.2
			L85.3,91.2z"/>
		<path fill="#FFFFFF" d="M95.4,91.2c0,2.1,1.2,3,2.6,3c1.4,0,2.5-0.9,2.5-3c0-2.2-1.1-2.9-2.5-2.9c-0.4,0-0.8,0.1-1.1,0.2l-0.8-1
			l3.6-4.5h-5.4v-1.3h7.1v1.2l-3.3,4.2c0.1,0,0.2,0,0.3,0c1.9,0,3.5,1.3,3.5,4c0,2.6-1.5,4.3-4,4.3c-2.5,0-4-1.7-4-4.3l1.5-0.1
			L95.4,91.2L95.4,91.2z"/>
		<path fill="#FFFFFF" d="M103.9,91.3c0-1.5,0.8-3,2.2-3.5c-1-0.5-1.7-1.6-1.7-2.8c0-1.9,1.5-3.5,3.6-3.5s3.6,1.6,3.6,3.5
			c0,1.1-0.6,2.2-1.7,2.8c1.4,0.6,2.2,2,2.2,3.5c0,2.3-1.6,4.2-4.1,4.2S103.9,93.6,103.9,91.3z M105.3,91.4c0,1.6,1.1,2.9,2.7,2.9
			s2.7-1.3,2.7-2.9c0-1.6-1.1-2.9-2.7-2.9S105.3,89.8,105.3,91.4z M110.1,85.1c0-1.2-0.9-2.2-2.2-2.2c-1.2,0-2.2,0.9-2.2,2.2
			c0,1.2,0.9,2.1,2.2,2.1C109.2,87.2,110.1,86.3,110.1,85.1z"/>
	</g>
	<g enable-background="new    ">
		<path fill="#FFFFFF" d="M82.3,105.8h-0.7l2.7-7.5H85L82.3,105.8z"/>
		<path fill="#FFFFFF" d="M88.3,105v-2.5c0-0.9-0.3-1.3-1-1.3c-0.5,0-0.9,0.3-1.1,0.8v3h-0.6v-4.3h0.6v0.5c0.3-0.4,0.7-0.6,1.3-0.6
			c0.6,0,1,0.3,1.3,0.8c0.4-0.5,0.9-0.8,1.5-0.8c0.9,0,1.5,0.7,1.5,1.8v2.6h-0.6v-2.5c0-0.9-0.3-1.3-1-1.3c-0.5,0-0.9,0.3-1.2,0.8
			c0,0.1,0,0.2,0,0.4v2.6L88.3,105L88.3,105z"/>
		<path fill="#FFFFFF" d="M92.6,102.4c0-1,0.7-1.8,1.8-1.8c1.1,0,1.8,0.8,1.8,1.8v0.9c0,1-0.7,1.8-1.8,1.8s-1.8-0.8-1.8-1.8V102.4z
			 M95.5,102.5c0-0.8-0.5-1.3-1.1-1.3c-0.6,0-1.1,0.5-1.1,1.3v0.6c0,0.8,0.5,1.3,1.1,1.3c0.6,0,1.1-0.5,1.1-1.3V102.5z"/>
		<path fill="#FFFFFF" d="M99.9,105v-2.5c0-0.9-0.3-1.3-1-1.3c-0.5,0-0.9,0.3-1.1,0.8v3h-0.6v-4.3h0.6v0.5c0.3-0.4,0.7-0.6,1.3-0.6
			c0.9,0,1.5,0.7,1.5,1.8v2.6H99.9z"/>
		<path fill="#FFFFFF" d="M103.6,100.7v0.6h-1.1v2.4c0,0.4,0.2,0.7,0.6,0.7h0.6v0.6h-0.6c-0.8,0-1.2-0.4-1.2-1.2v-2.5h-0.6v-0.6h0.6
			v-1.2h0.6v1.2L103.6,100.7L103.6,100.7z"/>
		<path fill="#FFFFFF" d="M107.2,105v-2.5c0-0.9-0.3-1.3-1-1.3c-0.5,0-0.9,0.3-1.1,0.8v3h-0.6v-6.1h0.6v2.4c0.3-0.4,0.7-0.6,1.3-0.6
			c0.9,0,1.5,0.7,1.5,1.8v2.6L107.2,105L107.2,105z"/>
	</g>
	<polyline fill="#FFFFFF" points="59.6,76.6 130.5,76.6 130.5,76.4 59.6,76.4 	"/>
	<g enable-background="new    ">
		<path fill="#FFFFFF" d="M74.7,57.9l-1.9-2.1l5.1-6H70v-3.4h12.5v3.1L78,54.9c3.4,0.2,5.4,2.7,5.4,6.7c0,4.2-2.4,7.3-7,7.3
			c-4.6,0-7-3.1-7-7.3v-0.1l3.9-0.3v0.3c0,2.7,1.3,4,3.1,4c1.8,0,3.1-1.3,3.1-4c0-2.7-1.2-4-3.2-4C75.7,57.5,75.2,57.6,74.7,57.9z"
			/>
		<path fill="#FFFFFF" d="M100.4,61.3c0,4.8-2.8,7.6-7,7.6c-4.2,0-7-2.8-7-7.6v-7.6c0-4.8,2.8-7.6,7-7.6s7,2.8,7,7.6V61.3z M96.5,54
			c0-3.5-1.4-4.6-3.1-4.6s-3.1,1-3.1,4.6v6.8c0,3.5,1.4,4.6,3.1,4.6s3.1-1,3.1-4.6V54z"/>
	</g>
	<g enable-background="new    ">
		<path fill="#FFFFFF" d="M106,59.4l-1.6-2.9V61h-0.7v-6h0.6l2,3.6l2-3.6h0.6v6h-0.7v-4.6l-1.6,2.9H106z"/>
		<path fill="#FFFFFF" d="M113.4,59.3c0,1-0.5,1.8-1.6,1.8c-0.5,0-1-0.2-1.2-0.6V61H110v-6.1h0.6v2.3c0.2-0.3,0.6-0.6,1.2-0.6
			c1,0,1.6,0.8,1.6,1.8V59.3z M112.8,58.5c0-0.9-0.3-1.3-1.1-1.3c-0.5,0-0.8,0.3-1,0.7v1.9c0.2,0.4,0.6,0.7,1,0.7
			c0.7,0,1.1-0.5,1.1-1.3V58.5z"/>
		<path fill="#FFFFFF" d="M115,62.9h-0.6v-6.1h0.6v0.5c0.2-0.3,0.6-0.6,1.2-0.6c1,0,1.6,0.8,1.6,1.8v0.9c0,1-0.5,1.8-1.6,1.8
			c-0.5,0-1-0.2-1.2-0.6V62.9z M117.1,58.5c0-0.9-0.3-1.3-1.1-1.3c-0.5,0-0.8,0.3-1,0.7v1.9c0.2,0.4,0.6,0.7,1,0.7
			c0.7,0,1.1-0.5,1.1-1.3V58.5z"/>
		<path fill="#FFFFFF" d="M120.1,56.6c0.8,0,1.4,0.4,1.7,1.2l-0.6,0.1c-0.1-0.4-0.5-0.7-1-0.7s-0.8,0.3-0.8,0.6
			c0,0.4,0.3,0.6,0.8,0.7l0.4,0.1c1,0.2,1.3,0.6,1.3,1.2c0,0.7-0.6,1.3-1.5,1.3c-0.9,0-1.6-0.4-1.8-1.3l0.6-0.1
			c0.2,0.6,0.6,0.8,1.1,0.8c0.6,0,0.9-0.3,0.9-0.7c0-0.4-0.3-0.6-0.8-0.7l-0.4-0.1c-1-0.2-1.3-0.6-1.3-1.2
			C118.7,57.1,119.2,56.6,120.1,56.6z"/>
	</g>
</g>
</svg>
