<?xml version="1.0" encoding="utf-8"?>
<!-- Generator: Adobe Illustrator 18.0.0, SVG Export Plug-In . SVG Version: 6.00 Build 0)  -->
<!DOCTYPE svg PUBLIC "-//W3C//DTD SVG 1.1//EN" "http://www.w3.org/Graphics/SVG/1.1/DTD/svg11.dtd">
<svg version="1.1" id="Layer_1" xmlns="http://www.w3.org/2000/svg" xmlns:xlink="http://www.w3.org/1999/xlink" x="0px" y="0px"
	 viewBox="37 15 114 113" enable-background="new 37 15 114 113" xml:space="preserve">
<g>
	<path fill="#BFBFBF" d="M95,25.5c25.7,0,46.5,20.8,46.5,46.5s-20.8,46.5-46.5,46.5S48.5,97.6,48.5,72C48.5,46.4,69.4,25.5,95,25.5
		 M95,24.7L95,24.7c-26.2,0-47.4,21.2-47.4,47.4s21.2,47.3,47.4,47.3l0,0c26.2,0,47.3-21.2,47.3-47.3S121.2,24.7,95,24.7z"/>
	<path fill="#A0A0A0" d="M95,113.6L95,113.6C72,113.6,53.4,95,53.4,72S72,30.4,95,30.4l0,0c23,0,41.6,18.6,41.6,41.6
		S118,113.6,95,113.6z"/>
	<g enable-background="new    ">
		<path fill="#FFFFFF" d="M80.1,91.1c-0.9-0.1-1.4-0.6-1.6-1.5l0.6-0.1c0.2,0.6,0.5,0.9,1,1v-2l-0.1,0c-1-0.2-1.4-0.6-1.4-1.5
			c0-0.7,0.5-1.4,1.5-1.4v-0.6h0.5v0.6c0.7,0.1,1.2,0.6,1.4,1.4l-0.6,0.1c-0.1-0.4-0.4-0.8-0.8-0.9v1.8c1,0.2,1.5,0.7,1.5,1.5
			c0,0.8-0.5,1.4-1.5,1.5v0.6h-0.5C80.1,91.6,80.1,91.1,80.1,91.1z M80.1,88v-1.8c-0.6,0-0.9,0.4-0.9,0.9
			C79.2,87.6,79.5,87.9,80.1,88z M80.6,88.7v1.9c0.6-0.1,0.9-0.4,0.9-0.9S81.2,88.8,80.6,88.7z"/>
	</g>
	<g enable-background="new    ">
		<path fill="#FFFFFF" d="M85,85.5v0.3l-1.5-0.1v-0.2c0-2.2,1.5-3.9,4-3.9c2.4,0,4,1.7,4,3.9c0,1.3-0.5,2.2-1.4,3.2L85.4,94h6v1.3
			h-7.9v-1.2l5.5-6.3c0.7-0.8,0.9-1.5,0.9-2.3c0-1.7-1.1-2.6-2.5-2.6C86.1,82.9,85,83.8,85,85.5z"/>
		<path fill="#FFFFFF" d="M95,91.2c0,2.1,1.2,3,2.6,3s2.5-0.9,2.5-3c0-2.2-1.1-2.9-2.5-2.9c-0.4,0-0.8,0.1-1.1,0.2l-0.8-1l3.6-4.5
			h-5.4v-1.3h7.1v1.2l-3.3,4.2c0.1,0,0.2,0,0.3,0c1.9,0,3.5,1.3,3.5,4c0,2.6-1.5,4.3-4,4.3s-4-1.7-4-4.3l1.5-0.1L95,91.2L95,91.2z"
			/>
		<path fill="#FFFFFF" d="M111.6,90.9c0,3-1.6,4.6-4,4.6c-2.4,0-4-1.7-4-4.6v-4.7c0-3,1.6-4.6,4-4.6c2.4,0,4,1.7,4,4.6V90.9z
			 M110.2,86.4c0-2.6-1.1-3.5-2.6-3.5c-1.5,0-2.6,0.9-2.6,3.5v4.3c0,2.6,1.1,3.5,2.6,3.5c1.5,0,2.6-0.9,2.6-3.5V86.4z"/>
	</g>
	<g enable-background="new    ">
		<path fill="#FFFFFF" d="M82.1,105.8h-0.7l2.7-7.5h0.7L82.1,105.8z"/>
		<path fill="#FFFFFF" d="M88.1,105v-2.5c0-0.9-0.3-1.3-1-1.3c-0.5,0-0.9,0.3-1.1,0.8v3h-0.6v-4.3H86v0.5c0.3-0.4,0.7-0.6,1.3-0.6
			c0.6,0,1,0.3,1.3,0.8c0.4-0.5,0.9-0.8,1.5-0.8c0.9,0,1.5,0.7,1.5,1.8v2.6h-0.6v-2.5c0-0.9-0.3-1.3-1-1.3c-0.5,0-0.9,0.3-1.2,0.8
			c0,0.1,0,0.2,0,0.4v2.6L88.1,105L88.1,105z"/>
		<path fill="#FFFFFF" d="M92.4,102.4c0-1,0.7-1.8,1.8-1.8s1.8,0.8,1.8,1.8v0.9c0,1-0.7,1.8-1.8,1.8c-1.1,0-1.8-0.8-1.8-1.8V102.4z
			 M95.3,102.5c0-0.8-0.5-1.3-1.1-1.3c-0.6,0-1.1,0.5-1.1,1.3v0.6c0,0.8,0.5,1.3,1.1,1.3c0.6,0,1.1-0.5,1.1-1.3V102.5z"/>
		<path fill="#FFFFFF" d="M99.7,105v-2.5c0-0.9-0.3-1.3-1-1.3c-0.5,0-0.9,0.3-1.1,0.8v3h-0.6v-4.3h0.6v0.5c0.3-0.4,0.7-0.6,1.3-0.6
			c0.9,0,1.5,0.7,1.5,1.8v2.6H99.7z"/>
		<path fill="#FFFFFF" d="M103.4,100.7v0.6h-1.1v2.4c0,0.4,0.2,0.7,0.6,0.7h0.6v0.6h-0.6c-0.8,0-1.2-0.4-1.2-1.2v-2.5H101v-0.6h0.6
			v-1.2h0.6v1.2L103.4,100.7L103.4,100.7z"/>
		<path fill="#FFFFFF" d="M107,105v-2.5c0-0.9-0.3-1.3-1-1.3c-0.5,0-0.9,0.3-1.1,0.8v3h-0.6v-6.1h0.6v2.4c0.3-0.4,0.7-0.6,1.3-0.6
			c0.9,0,1.5,0.7,1.5,1.8v2.6L107,105L107,105z"/>
	</g>
	<polyline fill="#FFFFFF" points="59.6,76.6 130.5,76.6 130.5,76.4 59.6,76.4 	"/>
	<g enable-background="new    ">
		<path fill="#FFFFFF" d="M82.4,59.6L76,66.9h8.5v3.4H70.8v-2.8l8.5-9.8c1-1.2,1.3-2.1,1.3-3.1c0-2.2-1.2-3.4-3-3.4
			c-1.8,0-3,1.2-3,3.4v0.8L70.8,55v-0.5c0-3.8,2.5-6.7,6.8-6.7c4.2,0,6.8,2.9,6.8,6.7C84.6,56.7,83.8,58,82.4,59.6z"/>
		<path fill="#FFFFFF" d="M101.7,62.9c0,4.8-2.8,7.6-7,7.6c-4.2,0-7-2.8-7-7.6v-7.6c0-4.8,2.8-7.6,7-7.6c4.2,0,7,2.8,7,7.6V62.9z
			 M97.9,55.8c0-3.5-1.4-4.6-3.1-4.6s-3.1,1-3.1,4.6v6.8c0,3.5,1.4,4.6,3.1,4.6s3.1-1,3.1-4.6V55.8z"/>
	</g>
	<g enable-background="new    ">
		<path fill="#FFFFFF" d="M106.6,61.1l-1.6-2.9v4.6h-0.7v-6h0.6l2,3.6l2-3.6h0.6v6h-0.7v-4.6l-1.6,2.9H106.6z"/>
		<path fill="#FFFFFF" d="M114,61c0,1-0.5,1.8-1.6,1.8c-0.5,0-1-0.2-1.2-0.6v0.5h-0.6v-6.1h0.6v2.3c0.2-0.3,0.6-0.6,1.2-0.6
			c1,0,1.6,0.8,1.6,1.8V61z M113.4,60.3c0-0.9-0.3-1.3-1.1-1.3c-0.5,0-0.8,0.3-1,0.7v1.9c0.2,0.4,0.6,0.7,1,0.7
			c0.7,0,1.1-0.5,1.1-1.3V60.3z"/>
		<path fill="#FFFFFF" d="M115.6,64.6H115v-6.1h0.6v0.5c0.2-0.3,0.6-0.6,1.2-0.6c1,0,1.6,0.8,1.6,1.8V61c0,1-0.5,1.8-1.6,1.8
			c-0.5,0-1-0.2-1.2-0.6V64.6z M117.7,60.3c0-0.9-0.3-1.3-1.1-1.3c-0.5,0-0.8,0.3-1,0.7v1.9c0.2,0.4,0.6,0.7,1,0.7
			c0.7,0,1.1-0.5,1.1-1.3V60.3z"/>
		<path fill="#FFFFFF" d="M120.7,58.3c0.8,0,1.4,0.4,1.7,1.2l-0.6,0.1c-0.1-0.4-0.5-0.7-1-0.7c-0.5,0-0.8,0.3-0.8,0.6
			c0,0.4,0.3,0.6,0.8,0.7l0.4,0.1c1,0.2,1.3,0.6,1.3,1.2c0,0.7-0.6,1.3-1.5,1.3c-0.9,0-1.6-0.4-1.8-1.3l0.6-0.1
			c0.2,0.6,0.6,0.8,1.1,0.8c0.6,0,0.9-0.3,0.9-0.7c0-0.4-0.3-0.6-0.8-0.7l-0.4-0.1c-1-0.2-1.3-0.6-1.3-1.2
			C119.3,58.8,119.9,58.3,120.7,58.3z"/>
	</g>
</g>
</svg>
