<?xml version="1.0" encoding="utf-8"?>
<!-- Generator: Adobe Illustrator 18.0.0, SVG Export Plug-In . SVG Version: 6.00 Build 0)  -->
<!DOCTYPE svg PUBLIC "-//W3C//DTD SVG 1.1//EN" "http://www.w3.org/Graphics/SVG/1.1/DTD/svg11.dtd">
<svg version="1.1" id="Layer_1" xmlns="http://www.w3.org/2000/svg" xmlns:xlink="http://www.w3.org/1999/xlink" x="0px" y="0px"
	 viewBox="0 0 238 237" enable-background="new 0 0 238 237" xml:space="preserve">
<g>
	<g>
		<path fill="#C0BFBF" d="M117.5,10.6c29.1,0,56.5,11.3,77,31.9c20.6,20.6,31.9,47.9,31.9,77c0,29.1-11.3,56.5-31.9,77
			c-20.6,20.6-47.9,31.9-77,31.9c-29.1,0-56.5-11.3-77-31.9s-31.9-47.9-31.9-77s11.3-56.5,31.9-77C61,21.9,88.4,10.6,117.5,10.6
			 M117.5,8.6L117.5,8.6C56.2,8.6,6.6,58.3,6.6,119.6s49.7,110.9,110.9,110.9h0c61.3,0,110.9-49.7,110.9-110.9S178.8,8.6,117.5,8.6
			L117.5,8.6z"/>
	</g>
</g>
<g>
	<g>
		<path fill="#A09F9F" d="M117.5,217L117.5,217c-53.8,0-97.4-43.6-97.4-97.4s43.6-97.4,97.4-97.4h0c53.8,0,97.4,43.6,97.4,97.4
			S171.3,217,117.5,217z"/>
	</g>
</g>
<g>
	<path fill="#6C54A3" d="M87.8,171.6l-11.9,13.5h15.9v6.2H66.3v-5.2l15.9-18.3c1.9-2.2,2.5-3.8,2.5-5.9c0-4.1-2.3-6.3-5.5-6.3
		c-3.3,0-5.5,2.2-5.5,6.3v1.4l-7.3-0.5v-1c0-7.1,4.8-12.5,12.8-12.5c7.8,0,12.8,5.4,12.8,12.5C91.9,166,90.4,168.6,87.8,171.6z"/>
	<path fill="#6C54A3" d="M122.8,177.8c0,9-5.2,14.3-13.1,14.3c-7.9,0-13.1-5.2-13.1-14.3v-14.2c0-9,5.2-14.3,13.1-14.3
		c7.9,0,13.1,5.2,13.1,14.3V177.8z M115.6,164.3c0-6.6-2.7-8.5-5.8-8.5c-3.2,0-5.8,1.9-5.8,8.5v12.7c0,6.6,2.7,8.5,5.8,8.5
		c3.2,0,5.8-1.9,5.8-8.5V164.3z"/>
</g>
<g>
	<g>
		<path fill="#FFFFFF" d="M65.5,81c-3-0.3-5-2.2-5.8-5.1l2.1-0.4c0.6,2,1.8,3.3,3.7,3.6v-6.9l-0.2-0.1c-3.5-0.7-5.1-2.2-5.1-5.1
			c0-2.4,1.7-4.8,5.3-5v-2h1.7v2.1c2.6,0.4,4.4,2.2,4.9,4.7L70,67.3c-0.4-1.5-1.3-2.8-2.8-3.2v6.5c3.6,0.7,5.4,2.4,5.4,5.3
			c0,2.8-1.8,4.9-5.4,5.1v2h-1.7V81z M65.5,70.3V64c-2.1,0.1-3.2,1.5-3.2,3.1C62.2,68.8,63.2,69.9,65.5,70.3z M67.1,72.6v6.6
			c2.1-0.2,3.3-1.5,3.3-3.3S69.4,73.1,67.1,72.6z"/>
		<path fill="#FFFFFF" d="M101.2,73.7L88,88.8h17.8v7H77.2v-5.9l17.7-20.4c2.1-2.4,2.8-4.3,2.8-6.6c0-4.6-2.6-7-6.2-7
			c-3.7,0-6.2,2.4-6.2,7v1.6L77.2,64v-1.1c0-7.9,5.3-14,14.3-14c8.7,0,14.3,6.1,14.3,14C105.7,67.5,104.1,70.4,101.2,73.7z"/>
		<path fill="#FFFFFF" d="M121.1,73.6l-3.9-4.3l10.6-12.6h-16.5v-7h26.1v6.5l-9.4,11.2c7.1,0.4,11.2,5.7,11.2,13.9
			c0,8.8-5,15.3-14.6,15.3c-9.7,0-14.7-6.5-14.7-15.2v-0.1l8.1-0.5v0.5c0,5.7,2.7,8.4,6.6,8.4c3.8,0,6.5-2.6,6.5-8.4
			c0-5.7-2.6-8.4-6.7-8.4C123,72.9,122.1,73.1,121.1,73.6z"/>
		<path fill="#FFFFFF" d="M173.3,80.6c0,10.1-5.8,15.9-14.6,15.9c-8.8,0-14.6-5.9-14.6-15.9V64.8c0-10.1,5.8-15.9,14.6-15.9
			c8.8,0,14.6,5.9,14.6,15.9V80.6z M165.2,65.6c0-7.4-3-9.5-6.5-9.5c-3.6,0-6.5,2.2-6.5,9.5v14.2c0,7.4,3,9.5,6.5,9.5
			c3.6,0,6.5-2.2,6.5-9.5V65.6z"/>
		<path fill="#FFFFFF" d="M79.6,125.2h-2l7.9-22.3h2L79.6,125.2z"/>
		<path fill="#FFFFFF" d="M97.4,122.8v-7.4c0-2.6-0.8-3.9-3-3.9c-1.4,0-2.7,0.9-3.4,2.3v9h-1.9v-12.7h1.9v1.6
			c0.8-1.2,2.2-1.9,3.9-1.9c1.8,0,3.1,0.8,3.8,2.3c1.1-1.5,2.6-2.3,4.5-2.3c2.8,0,4.3,2,4.3,5.2v7.8h-1.9v-7.4c0-2.6-0.8-4-3-4
			c-1.5,0-2.7,0.9-3.5,2.4c0,0.4,0.1,0.7,0.1,1.1v7.8H97.4z"/>
		<path fill="#FFFFFF" d="M110.4,115.1c0-2.9,2.1-5.3,5.3-5.3s5.3,2.4,5.3,5.3v2.6c0,2.9-2.1,5.3-5.3,5.3s-5.3-2.4-5.3-5.3V115.1z
			 M119,115.5c0-2.5-1.5-4-3.4-4c-1.9,0-3.4,1.5-3.4,4v1.9c0,2.5,1.5,4,3.4,4c1.9,0,3.4-1.5,3.4-4V115.5z"/>
		<path fill="#FFFFFF" d="M132,122.8v-7.4c0-2.6-0.8-3.9-3-3.9c-1.4,0-2.7,0.9-3.4,2.3v9h-1.9v-12.7h1.9v1.6
			c0.8-1.2,2.2-1.9,3.9-1.9c2.8,0,4.3,2,4.3,5.2v7.8H132z"/>
		<path fill="#FFFFFF" d="M143,110.1v1.7h-3.2v7.2c0,1.3,0.5,2.1,1.7,2.1h1.7v1.7h-1.7c-2.5,0-3.6-1.3-3.6-3.7v-7.4h-2v-1.7h2v-3.6
			h1.9v3.6H143z"/>
		<path fill="#FFFFFF" d="M153.9,122.8v-7.4c0-2.6-0.8-3.9-3-3.9c-1.4,0-2.7,0.9-3.4,2.3v9h-1.9v-18.1h1.9v7
			c0.8-1.2,2.2-1.9,3.9-1.9c2.8,0,4.3,2,4.3,5.2v7.8H153.9z"/>
	</g>
</g>
<line fill="none" stroke="#FFFFFF" stroke-width="0.5" stroke-miterlimit="10" x1="34.5" y1="134.6" x2="200.5" y2="134.6"/>
<g>
	<path fill="#6C54A3" d="M136.5,177.3v-6.7c0-2.4-0.7-3.6-2.7-3.6c-1.3,0-2.5,0.8-3.1,2.1v8.2H129v-11.5h1.7v1.5
		c0.7-1.1,2-1.7,3.5-1.7c1.6,0,2.8,0.8,3.4,2.1c1-1.3,2.3-2.1,4.1-2.1c2.5,0,3.9,1.8,3.9,4.7v7h-1.7v-6.7c0-2.4-0.7-3.6-2.7-3.6
		c-1.3,0-2.4,0.8-3.2,2.2c0,0.3,0.1,0.6,0.1,1v7H136.5z"/>
	<path fill="#6C54A3" d="M157.7,172.8c0,2.8-1.5,4.8-4.2,4.8c-1.5,0-2.6-0.6-3.3-1.5v1.3h-1.7v-16.4h1.7v6.1
		c0.6-0.9,1.8-1.5,3.3-1.5c2.7,0,4.2,2,4.2,4.8V172.8z M156,170.7c0-2.4-0.9-3.6-2.9-3.6c-1.3,0-2.3,0.8-2.8,1.9v5.2
		c0.6,1.1,1.5,1.9,2.8,1.9c2,0,2.9-1.2,2.9-3.6V170.7z"/>
	<path fill="#6C54A3" d="M162,182.3h-1.7v-16.5h1.7v1.3c0.6-0.9,1.8-1.5,3.3-1.5c2.7,0,4.2,2,4.2,4.8v2.4c0,2.8-1.5,4.8-4.2,4.8
		c-1.5,0-2.6-0.6-3.3-1.5V182.3z M167.7,170.7c0-2.4-0.9-3.6-2.9-3.6c-1.3,0-2.3,0.8-2.8,1.9v5.2c0.6,1.1,1.5,1.9,2.8,1.9
		c2,0,2.9-1.2,2.9-3.6V170.7z"/>
	<path fill="#6C54A3" d="M175.8,165.5c2.3,0,3.9,1.2,4.5,3.2l-1.8,0.3c-0.3-1.2-1.3-2-2.7-2c-1.4,0-2.2,0.7-2.2,1.7
		c0,1.1,0.8,1.6,2.3,1.8l1.1,0.2c2.6,0.4,3.5,1.6,3.5,3.4c0,2-1.6,3.4-4.1,3.4c-2.4,0-4.2-1.2-4.8-3.5l1.7-0.3
		c0.5,1.5,1.7,2.3,3.1,2.3c1.5,0,2.4-0.8,2.4-1.9c0-1.1-0.8-1.7-2.3-1.9l-1.1-0.2c-2.7-0.4-3.5-1.6-3.5-3.4
		C171.9,166.8,173.5,165.5,175.8,165.5z"/>
</g>
</svg>
