<?xml version="1.0" encoding="utf-8"?>
<!-- Generator: Adobe Illustrator 18.0.0, SVG Export Plug-In . SVG Version: 6.00 Build 0)  -->
<!DOCTYPE svg PUBLIC "-//W3C//DTD SVG 1.1//EN" "http://www.w3.org/Graphics/SVG/1.1/DTD/svg11.dtd">
<svg version="1.1" id="Layer_1" xmlns="http://www.w3.org/2000/svg" xmlns:xlink="http://www.w3.org/1999/xlink" x="0px" y="0px"
	 viewBox="47.5 30.5 91.5 91.5" enable-background="new 47.5 30.5 91.5 91.5" xml:space="preserve">
<g>
	<path fill="#BFBFBF" d="M92.7,38.1c20.6,0,37.3,16.7,37.3,37.3s-16.7,37.3-37.3,37.3S55.4,95.9,55.4,75.4
		C55.3,54.9,72.1,38.1,92.7,38.1 M92.7,37.5L92.7,37.5c-21,0-38,17-38,38s17,38,38,38l0,0c21,0,38-17,38-38S113.6,37.5,92.7,37.5z"
		/>
	<path fill="#A0A0A0" d="M92.7,108.7L92.7,108.7c-18.4,0-33.4-14.9-33.4-33.4s14.9-33.3,33.4-33.3l0,0c18.4,0,33.4,14.9,33.4,33.4
		S111,108.7,92.7,108.7z"/>
	<polygon fill="#FFFFFF" points="74.2,72.6 74.2,69.9 77.7,69.9 77.7,58.2 74.2,59.6 74.2,56.7 78.1,54.9 80.8,54.9 80.8,69.9 
		84.2,69.9 84.2,72.6 	"/>
	<path fill="#FFFFFF" d="M97.4,66.8c0,3.9-2.2,6.1-5.6,6.1s-5.6-2.2-5.6-6.1v-6.1c0-3.9,2.2-6.1,5.6-6.1c3.3,0,5.6,2.2,5.6,6.1V66.8
		z M94.3,61c0-2.8-1.2-3.7-2.5-3.7c-1.4,0-2.5,0.8-2.5,3.7v5.5c0,2.8,1.2,3.7,2.5,3.7c1.4,0,2.5-0.8,2.5-3.7V61z"/>
	<polygon fill="#FFFFFF" points="103,65.3 101.7,62.9 101.7,66.6 101.1,66.6 101.1,61.8 101.6,61.8 103.2,64.6 104.8,61.8 
		105.3,61.8 105.3,66.6 104.8,66.6 104.8,62.9 103.4,65.3 	"/>
	<path fill="#FFFFFF" d="M108.9,65.2c0,0.8-0.5,1.4-1.3,1.4c-0.5,0-0.8-0.2-1-0.5v0.4h-0.5v-4.9h0.5v1.8c0.2-0.3,0.5-0.5,1-0.5
		c0.8,0,1.3,0.6,1.3,1.4V65.2z M108.4,64.6c0-0.7-0.3-1.1-0.9-1.1c-0.4,0-0.7,0.2-0.9,0.6v1.5c0.2,0.3,0.5,0.6,0.9,0.6
		c0.6,0,0.9-0.3,0.9-1.1V64.6z"/>
	<path fill="#FFFFFF" d="M110.2,68h-0.5v-4.9h0.5v0.4c0.2-0.3,0.5-0.5,1-0.5c0.8,0,1.3,0.6,1.3,1.4v0.7c0,0.8-0.5,1.4-1.3,1.4
		c-0.5,0-0.8-0.2-1-0.5V68z M112,64.6c0-0.7-0.3-1.1-0.9-1.1c-0.4,0-0.7,0.2-0.9,0.6v1.5c0.2,0.3,0.5,0.6,0.9,0.6
		c0.6,0,0.9-0.3,0.9-1.1V64.6z"/>
	<path fill="#FFFFFF" d="M114.4,63.1c0.7,0,1.2,0.3,1.3,1l-0.5,0.1c-0.1-0.3-0.4-0.6-0.8-0.6c-0.4,0-0.7,0.2-0.7,0.5
		c0,0.3,0.2,0.5,0.7,0.6l0.3,0.1c0.8,0.1,1,0.5,1,1c0,0.6-0.5,1-1.2,1c-0.8,0-1.3-0.3-1.4-1l0.5-0.1c0.1,0.5,0.5,0.7,0.9,0.7
		c0.5,0,0.7-0.2,0.7-0.6s-0.2-0.5-0.7-0.6l-0.3,0c-0.8-0.1-1-0.5-1-1C113.2,63.4,113.6,63.1,114.4,63.1z"/>
	<path fill="#FFFFFF" d="M80.4,90.7c-0.7-0.1-1.2-0.5-1.3-1.2l0.5-0.1c0.1,0.5,0.4,0.8,0.9,0.8v-1.5h-0.1c-0.8-0.2-1.2-0.5-1.2-1.2
		c0-0.6,0.4-1.1,1.2-1.2v-0.5h0.4v0.5c0.6,0.1,1,0.5,1.2,1.1l-0.5,0.1c-0.1-0.3-0.3-0.6-0.6-0.8v1.5c0.8,0.2,1.2,0.5,1.2,1.2
		c0,0.6-0.4,1.1-1.2,1.2v0.5h-0.4V90.7L80.4,90.7z M80.4,88.3v-1.4c-0.5,0.1-0.8,0.3-0.8,0.7C79.7,87.9,79.9,88.2,80.4,88.3z
		 M80.8,88.8v1.5c0.5-0.1,0.8-0.3,0.8-0.8C81.5,89.1,81.3,88.9,80.8,88.8z"/>
	<polygon fill="#FFFFFF" points="83.8,93 86.1,93 86.1,84.5 83.8,85.5 83.8,84.4 86.2,83.3 87.2,83.3 87.2,93 89.5,93 89.5,94 
		83.8,94 	"/>
	<polygon fill="#FFFFFF" points="91,93 93.2,93 93.2,84.5 91,85.5 91,84.4 93.3,83.3 94.4,83.3 94.4,93 96.6,93 96.6,94 91,94 	"/>
	<path fill="#FFFFFF" d="M97.6,90.9c0-1.2,0.6-2.4,1.7-2.8c-0.8-0.4-1.3-1.3-1.3-2.2c0-1.5,1.2-2.8,2.9-2.8c1.7,0,2.9,1.3,2.9,2.8
		c0,0.9-0.5,1.8-1.3,2.2c1.1,0.5,1.7,1.6,1.7,2.8c0,1.8-1.3,3.3-3.3,3.3C98.9,94.3,97.6,92.7,97.6,90.9z M98.8,90.9
		c0,1.3,0.9,2.3,2.1,2.3c1.3,0,2.1-1,2.1-2.3s-0.9-2.3-2.1-2.3C99.6,88.6,98.8,89.6,98.8,90.9z M102.6,85.8c0-1-0.8-1.7-1.7-1.7
		c-1,0-1.7,0.8-1.7,1.7c0,1,0.8,1.7,1.7,1.7C101.9,87.6,102.6,86.8,102.6,85.8z"/>
	<polygon fill="#FFFFFF" points="81.7,102.4 81.1,102.4 83.3,96.5 83.8,96.5 	"/>
	<path fill="#FFFFFF" d="M86.5,101.8v-2c0-0.7-0.2-1-0.8-1c-0.4,0-0.8,0.2-0.9,0.6v2.4h-0.5v-3.4h0.5v0.5c0.2-0.3,0.6-0.5,1-0.5
		c0.5,0,0.9,0.2,1,0.6c0.3-0.4,0.7-0.6,1.2-0.6c0.8,0,1.2,0.5,1.2,1.4v2.1h-0.5v-2c0-0.7-0.2-1.1-0.8-1.1c-0.4,0-0.7,0.2-0.9,0.6
		c0,0.1,0,0.2,0,0.3v2.1L86.5,101.8L86.5,101.8z"/>
	<path fill="#FFFFFF" d="M89.9,99.7c0-0.8,0.6-1.4,1.4-1.4c0.9,0,1.4,0.6,1.4,1.4v0.7c0,0.8-0.6,1.4-1.4,1.4c-0.9,0-1.4-0.6-1.4-1.4
		V99.7z M92.2,99.9c0-0.7-0.4-1.1-0.9-1.1c-0.5,0-0.9,0.4-0.9,1.1v0.5c0,0.7,0.4,1.1,0.9,1.1s0.9-0.4,0.9-1.1V99.9z"/>
	<path fill="#FFFFFF" d="M95.8,101.8v-2c0-0.7-0.2-1-0.8-1c-0.4,0-0.8,0.2-0.9,0.6v2.4h-0.5v-3.4H94v0.5c0.2-0.3,0.6-0.5,1-0.5
		c0.8,0,1.2,0.5,1.2,1.4v2.1L95.8,101.8L95.8,101.8z"/>
	<path fill="#FFFFFF" d="M98.8,98.4v0.5h-0.9v2c0,0.3,0.1,0.6,0.5,0.6h0.5v0.5h-0.5c-0.7,0-1-0.3-1-1v-2h-0.5v-0.5h0.5v-1h0.5v1
		L98.8,98.4L98.8,98.4L98.8,98.4z"/>
	<path fill="#FFFFFF" d="M101.7,101.8v-2c0-0.7-0.2-1-0.8-1c-0.4,0-0.8,0.2-0.9,0.6v2.4h-0.5V97h0.5v1.9c0.2-0.3,0.6-0.5,1-0.5
		c0.8,0,1.2,0.5,1.2,1.4v2.1H101.7L101.7,101.8z"/>
	<polyline fill="#FFFFFF" points="64.2,79.1 121.1,79.1 121.1,78.9 64.2,78.9 	"/>
</g>
</svg>
