<?xml version="1.0" encoding="utf-8"?>
<!-- Generator: Adobe Illustrator 18.0.0, SVG Export Plug-In . SVG Version: 6.00 Build 0)  -->
<!DOCTYPE svg PUBLIC "-//W3C//DTD SVG 1.1//EN" "http://www.w3.org/Graphics/SVG/1.1/DTD/svg11.dtd">
<svg version="1.1" id="Layer_1" xmlns="http://www.w3.org/2000/svg" xmlns:xlink="http://www.w3.org/1999/xlink" x="0px" y="0px"
	 viewBox="0 0 141.7 141.7" enable-background="new 0 0 141.7 141.7" xml:space="preserve">
<g>
	<path fill="#BFBFBF" d="M70.9,6.1c35.7,0,64.7,29,64.7,64.7c0,35.7-29,64.7-64.7,64.7c-35.7,0-64.7-29-64.7-64.7
		C6.1,35.2,35.2,6.1,70.9,6.1 M70.9,5L70.9,5C34.5,5,5,34.5,5,70.9s29.5,65.9,65.9,65.9h0c36.4,0,65.9-29.5,65.9-65.9
		S107.3,5,70.9,5z"/>
	<path fill="#A0A0A0" d="M70.9,128.7L70.9,128.7c-32,0-57.9-25.9-57.9-57.9S38.9,13,70.9,13h0c32,0,57.9,25.9,57.9,57.9
		S102.8,128.7,70.9,128.7z"/>
	<text transform="matrix(1 0 0 1 47.9468 97.3052)" fill="#FFFFFF" font-family="'CoreSansD35Regular'" font-size="10.3898">$</text>
	<text transform="matrix(1 0 0 1 53.8999 103.2398)" fill="#FFFFFF" font-family="'CoreSansD35Regular'" font-size="26.7319">338</text>
	<text transform="matrix(1 0 0 1 52.2358 116.7349)" fill="#FFFFFF" font-family="'CoreSansD35Regular'" font-size="11.8808">/month</text>
	<polyline fill="#FFFFFF" points="21.6,77.3 120.2,77.3 120.2,77 21.6,77 	"/>
	<text transform="matrix(1 0 0 1 32.9595 65.979)" fill="#FFFFFF" font-family="'CoreSansD55Bold'" font-size="43.9077">30</text>
	<text transform="matrix(1 0 0 1 82.0259 55.5542)" fill="#FFFFFF" font-family="'CoreSansD35Regular'" font-size="11.8808">Mbps</text>
</g>
</svg>
