<?xml version="1.0" encoding="utf-8"?>
<!-- Generator: Adobe Illustrator 18.0.0, SVG Export Plug-In . SVG Version: 6.00 Build 0)  -->
<!DOCTYPE svg PUBLIC "-//W3C//DTD SVG 1.1//EN" "http://www.w3.org/Graphics/SVG/1.1/DTD/svg11.dtd">
<svg version="1.1" id="Layer_1" xmlns="http://www.w3.org/2000/svg" xmlns:xlink="http://www.w3.org/1999/xlink" x="0px" y="0px"
	 viewBox="0 0 85 85" enable-background="new 0 0 85 85" xml:space="preserve">
<g>
	<path fill="#929497" d="M65.4,58.7c4.6-5.2,7.4-12,7.4-19.5c0-7.8-3-14.9-8-20.1c0,0,0,0,0,0c-5.2-5.5-12.4-9-20.4-9.3l-0.6,0
		c-0.1,0-0.3,0-0.4,0c-0.1,0-0.3,0-0.4,0l-0.6,0C34.4,10,27.1,13.5,22,19c0,0,0,0,0,0c0,0,0,0,0,0c-4.9,5.3-8,12.4-8,20.1
		c0,7.5,2.8,14.3,7.4,19.5c0,0,0,0,0,0c0,0,0,0,0.1,0.1c5.2,5.8,12.6,9.5,20.9,9.8l0.6,0c0.1,0,0.3,0,0.4,0c0.1,0,0.3,0,0.4,0l0.6,0
		h0C52.7,68.3,60.2,64.6,65.4,58.7C65.4,58.7,65.4,58.7,65.4,58.7C65.4,58.7,65.4,58.7,65.4,58.7L65.4,58.7z M16,40.2h12.2
		c0.1,4.3,1,8.5,2.5,12.4c-2.9,1-5.7,2.4-8.2,4.2C18.6,52.3,16.2,46.5,16,40.2L16,40.2z M23,20.9c2.5,1.6,5.2,3,8,3.9
		c-1.7,4.2-2.7,8.7-2.8,13.3H16C16.3,31.5,18.8,25.5,23,20.9L23,20.9z M70.8,38.1H58.6c-0.1-4.6-1.1-9.1-2.8-13.3
		c2.8-1,5.5-2.3,8-3.9C68,25.5,70.6,31.5,70.8,38.1L70.8,38.1z M42.4,24.9c-2.9-0.1-5.8-0.5-8.6-1.3c2.1-4.2,5-8,8.6-11.2V24.9z
		 M42.4,26.9v11.2H30.2c0.1-4.4,1.1-8.7,2.7-12.7C36,26.4,39.2,26.9,42.4,26.9L42.4,26.9z M44.4,26.9c3.2-0.1,6.4-0.6,9.4-1.5
		c1.7,4,2.6,8.3,2.7,12.7H44.4V26.9z M44.4,24.9V12.4c3.6,3.2,6.5,7,8.6,11.2C50.2,24.4,47.4,24.8,44.4,24.9L44.4,24.9z M55,23
		c-2-4.1-4.7-7.8-8-11c5.9,0.8,11.3,3.5,15.4,7.4C60.1,20.9,57.6,22.1,55,23L55,23z M31.8,23c-2.6-0.9-5.1-2.1-7.4-3.6
		c4.1-4,9.5-6.7,15.4-7.4C36.5,15.2,33.8,18.9,31.8,23L31.8,23z M30.2,40.2h12.2v10.2c-3.4,0.1-6.6,0.6-9.8,1.6
		C31.2,48.2,30.3,44.3,30.2,40.2L30.2,40.2z M42.4,52.4v13.5c-3.9-3.4-6.9-7.5-9-12.1C36.3,53,39.3,52.5,42.4,52.4L42.4,52.4z
		 M44.4,65.9V52.4c3.1,0.1,6.1,0.6,9,1.4C51.4,58.4,48.3,62.5,44.4,65.9L44.4,65.9z M44.4,50.4V40.2h12.2c-0.1,4.1-0.9,8-2.3,11.8
		C51.1,51,47.8,50.5,44.4,50.4L44.4,50.4z M58.6,40.2h12.2c-0.2,6.3-2.6,12.1-6.4,16.6c-2.6-1.8-5.3-3.1-8.2-4.2
		C57.7,48.7,58.5,44.5,58.6,40.2L58.6,40.2z M23.8,58.3c2.4-1.6,5-2.9,7.6-3.8c2,4.4,4.8,8.5,8.4,11.9C33.6,65.5,28,62.6,23.8,58.3
		L23.8,58.3z M47,66.3c3.6-3.4,6.4-7.4,8.4-11.9c2.7,1,5.2,2.2,7.6,3.8C58.8,62.6,53.2,65.5,47,66.3L47,66.3z M47,66.3"/>
	<polygon fill="#A6A8AC" stroke="#FFFFFF" stroke-miterlimit="10" points="33.8,39.3 23,50.1 27.8,50.1 27.8,60.5 39.7,60.5 
		39.7,50.1 44.5,50.1 	"/>
	<polygon fill="#FFFFFF" stroke="#A6A8AC" stroke-miterlimit="10" points="52.8,75.4 63.6,64.6 58.8,64.6 58.8,54.2 46.8,54.2 
		46.8,64.6 42,64.6 	"/>
</g>
</svg>
