<?xml version="1.0" encoding="utf-8"?>
<!-- Generator: Adobe Illustrator 18.0.0, SVG Export Plug-In . SVG Version: 6.00 Build 0)  -->
<!DOCTYPE svg PUBLIC "-//W3C//DTD SVG 1.1//EN" "http://www.w3.org/Graphics/SVG/1.1/DTD/svg11.dtd">
<svg version="1.1" id="Layer_1" xmlns="http://www.w3.org/2000/svg" xmlns:xlink="http://www.w3.org/1999/xlink" x="0px" y="0px"
	 viewBox="0 0 134.5 85" enable-background="new 0 0 134.5 85" xml:space="preserve">
<g>
	<g>
		<g>
			<g>
				<g>
					<g>
						<text transform="matrix(1 0 0 1 64.4458 63.1271)"><tspan x="0" y="0" fill="#595A5C" font-family="'CoreSansD37CnRegular'" font-size="19.0395">&gt; 50</tspan><tspan x="24.9" y="0" fill="#595A5C" font-family="'CoreSansD35Regular'" font-size="12.693">Mbps</tspan></text>
					</g>
				</g>
			</g>
		</g>
	</g>
	<g>
		<g>
			<g>
				<path fill="#A6A8AC" d="M10.6,68.3c-0.3,0-0.5-0.1-0.7-0.3c-0.3-0.4-0.2-0.9,0.2-1.2l8.3-6.3c0.1-0.1,0.3-0.2,0.5-0.2
					c0.3,0,0.5,0.1,0.7,0.3c0.3,0.4,0.2,0.9-0.2,1.2l-8.3,6.3C10.9,68.3,10.7,68.3,10.6,68.3z"/>
				<path fill="#A6A8AC" d="M18.8,60.6c0.2,0,0.3,0.1,0.5,0.2c0.2,0.3,0.1,0.6-0.1,0.8l-8.3,6.3c-0.1,0.1-0.2,0.1-0.4,0.1
					c-0.2,0-0.3-0.1-0.5-0.2c-0.2-0.3-0.1-0.6,0.1-0.8l8.3-6.3C18.6,60.6,18.7,60.6,18.8,60.6 M18.8,60.1L18.8,60.1
					c-0.2,0-0.5,0.1-0.7,0.2l-8.3,6.3c-0.2,0.2-0.4,0.4-0.4,0.7c0,0.3,0,0.6,0.2,0.8c0.2,0.3,0.5,0.4,0.9,0.4c0.2,0,0.5-0.1,0.7-0.2
					l8.3-6.3c0.5-0.4,0.6-1,0.2-1.5C19.5,60.2,19.2,60.1,18.8,60.1L18.8,60.1z"/>
			</g>
		</g>
		<g>
			<g>
				<path fill="#A6A8AC" d="M20,72c-0.3,0-0.5-0.1-0.7-0.3c-0.3-0.4-0.2-0.9,0.2-1.2l8.3-6.3c0.1-0.1,0.3-0.2,0.5-0.2
					c0.3,0,0.5,0.1,0.7,0.3c0.3,0.4,0.2,0.9-0.2,1.2l-8.3,6.3C20.3,72,20.2,72,20,72z"/>
				<path fill="#A6A8AC" d="M28.2,64.3c0.2,0,0.3,0.1,0.5,0.2c0.2,0.3,0.1,0.6-0.1,0.8l-8.3,6.3c-0.1,0.1-0.2,0.1-0.4,0.1
					c-0.2,0-0.3-0.1-0.5-0.2c-0.2-0.3-0.1-0.6,0.1-0.8l8.3-6.3C28,64.4,28.1,64.3,28.2,64.3 M28.2,63.8c-0.2,0-0.5,0.1-0.7,0.2
					l-8.3,6.3c-0.5,0.4-0.6,1-0.2,1.5c0.2,0.3,0.5,0.4,0.9,0.4c0.2,0,0.5-0.1,0.7-0.2l8.3-6.3c0.2-0.2,0.4-0.4,0.4-0.7
					c0-0.3,0-0.6-0.2-0.8C28.9,64,28.6,63.8,28.2,63.8L28.2,63.8z"/>
			</g>
		</g>
		<g>
			<g>
				<path fill="#A6A8AC" d="M80.3,14.6l-4.2,3.2c0-0.2,0-0.3-0.1-0.5c-0.1-0.1-0.3-0.2-0.5-0.2c-0.1,0-0.2,0-0.4,0.1l-7.3,5.6
					l-4.1-5.3L80.3,14.6 M80.2,14.1L63.7,17l-0.8,0.1l0.5,0.7l4.1,5.3l0.3,0.4l0.4-0.3l7.3-5.6c0,0,0,0,0.1,0c0,0,0,0,0.1,0
					c0,0,0,0,0,0.1l-0.3,1.4l1.1-0.9l4.2-3.2L80.2,14.1L80.2,14.1z"/>
			</g>
			<g>
				<path fill="#FFFFFF" d="M34.3,51.8l4.6-3.5c0.1-0.1,0.1-0.1,0.1-0.2c0-0.1,0-0.2-0.1-0.2l-0.2-0.2L53,36.8l0.2,0.2
					c0.1,0.1,0.2,0.1,0.3,0.1c0.1,0,0.1,0,0.2-0.1c0.1-0.1,0.2-0.3,0.1-0.5l-1.9-2.5C51.7,34,51.6,34,51.5,34c-0.1,0-0.1,0-0.2,0.1
					L32,48.8l-3.7-4.9l34.4-26.3l4.6,6.1v0.1c0,0.1,0,0.1,0.1,0.2c0.1,0.1,0.1,0.1,0.2,0.1l0.1,0l5.2,6.8L38.4,57.1L34.3,51.8z"/>
				<path fill="#A6A8AC" d="M62.7,17.9l4.4,5.8c0,0.1,0,0.2,0.1,0.4c0.1,0.1,0.2,0.2,0.3,0.2l5,6.5l-15,11.4L38.4,56.8l-2-2.6
					l-1.8-2.3l4.4-3.3c0.3-0.2,0.3-0.6,0.1-0.8l13.8-10.6c0.1,0.1,0.3,0.2,0.5,0.2c0.1,0,0.2,0,0.4-0.1c0.3-0.2,0.3-0.6,0.1-0.8
					L52,33.9c-0.1-0.1-0.3-0.2-0.5-0.2c-0.1,0-0.2,0-0.4,0.1L32.1,48.4l-1.4-1.9l-2-2.6l19.1-14.6L62.7,17.9 M62.8,17.2l-0.4,0.3
					l-15,11.4L28.3,43.5l-0.4,0.3l0.3,0.4l2,2.6l1.4,1.9l0.3,0.4l0.4-0.3l19.1-14.6c0,0,0,0,0.1,0c0,0,0,0,0.1,0l1.9,2.5
					c0,0,0,0.1,0,0.1c0,0,0,0-0.1,0c0,0,0,0-0.1,0L53,36.4l-0.4,0.3L38.8,47.3l-0.4,0.3l0.3,0.4c0,0,0,0.1,0,0.1l-4.4,3.3L34,51.7
					l0.3,0.4l1.8,2.3l2,2.6l0.3,0.4l0.4-0.3l19.1-14.6l15-11.4l0.4-0.3l-0.3-0.4l-5-6.5l-0.1-0.1l-0.2,0l0-0.2l-0.2-0.2l-4.4-5.8
					L62.8,17.2L62.8,17.2z"/>
			</g>
			<g>
				
					<rect x="27.5" y="54.3" transform="matrix(-0.7944 0.6074 -0.6074 -0.7944 90.3105 80.8959)" fill="#FFFFFF" width="8" height="2.8"/>
				<path fill="#A6A8AC" d="M33.7,52.5l1.4,1.9l-6,4.6l-1.4-1.9L33.7,52.5 M33.8,51.8l-0.4,0.3l-6,4.6L27.1,57l0.3,0.4l1.4,1.9
					l0.3,0.4l0.4-0.3l6-4.6l0.4-0.3l-0.3-0.4l-1.4-1.9L33.8,51.8L33.8,51.8z"/>
			</g>
			<g>
				
					<rect x="23.6" y="49.6" transform="matrix(-0.7944 0.6073 -0.6073 -0.7944 80.3652 74.2155)" fill="#FFFFFF" width="8" height="2.3"/>
				<path fill="#A6A8AC" d="M30.1,47.7l1.1,1.4l-6,4.6l-1.1-1.4L30.1,47.7 M30.2,47l-0.4,0.3l-6,4.6l-0.4,0.3l0.3,0.4l1.1,1.4
					l0.3,0.4l0.4-0.3l6-4.6l0.4-0.3l-0.3-0.4l-1.1-1.4L30.2,47L30.2,47z"/>
			</g>
			<g>
				<path fill="#FFFFFF" d="M33.5,67.9l5-10.2l18.5-14.2l-1.2,2.9l-8,6.1c-0.1,0.1-0.1,0.1-0.1,0.2c0,0.1,0,0.2,0.1,0.2
					c0.1,0.1,0.2,0.1,0.3,0.1c0.1,0,0.1,0,0.2-0.1l7.1-5.4l-1.2,2.8l-8.6,6.6c-0.1,0.1-0.1,0.1-0.1,0.2c0,0.1,0,0.2,0.1,0.2
					c0.1,0.1,0.2,0.1,0.3,0.1c0.1,0,0.1,0,0.2-0.1l7.7-5.9l-0.8,2l-19,14.5L33.5,67.9z"/>
				<path fill="#A6A8AC" d="M56.5,44.4l-0.8,2l-7.9,6.1c-0.3,0.2-0.3,0.6-0.1,0.8c0.1,0.1,0.3,0.2,0.5,0.2c0.1,0,0.2,0,0.4-0.1
					l6.4-4.9L54,50.4l-8.5,6.5c-0.3,0.2-0.3,0.6-0.1,0.8c0.1,0.1,0.3,0.2,0.5,0.2c0.1,0,0.2,0,0.4-0.1l6.9-5.3l-0.4,1L33.8,68.1
					l5-10.1L56.5,44.4 M57.7,42.9L56.2,44L38.5,57.6l-0.1,0.1l-0.1,0.1l-5,10.1l0.8,0.6L53,54l0.1-0.1l0.1-0.1l0.4-1l0.7-1.7
					l-1.5,1.1l-6.9,5.3c0,0,0,0-0.1,0c0,0,0,0-0.1,0c0,0,0-0.1,0-0.1l8.5-6.5l0.1-0.1l0.1-0.1l0.8-1.9L56,47l-1.5,1.1L48.1,53
					c0,0,0,0-0.1,0c0,0,0,0-0.1,0c0,0,0-0.1,0-0.1l7.9-6.1l0.1-0.1l0.1-0.1l0.8-2L57.7,42.9L57.7,42.9z"/>
			</g>
			<g>
				<path fill="#FFFFFF" d="M22.5,56.9l28.9-22.1l1.8,2.4L39.1,48l-0.2-0.2c-0.1-0.1-0.2-0.1-0.3-0.1c-0.1,0-0.1,0-0.2,0.1L24,58.8
					L22.5,56.9z"/>
				<path fill="#A6A8AC" d="M51.4,35.1l1.5,2L39.1,47.7c-0.1-0.1-0.3-0.2-0.5-0.2c-0.1,0-0.2,0-0.4,0.1L24,58.5l-1.2-1.6L51.4,35.1
					 M51.5,34.4l-0.4,0.3L22.5,56.5l-0.4,0.3l0.3,0.4l1.2,1.6l0.3,0.4l0.4-0.3L38.6,48c0,0,0,0,0.1,0c0,0,0,0,0.1,0l0.3,0.4l0.4-0.3
					l13.8-10.6l0.4-0.3l-0.3-0.4l-1.5-2L51.5,34.4L51.5,34.4z"/>
			</g>
			<g>
				<path fill="#A6A8AC" stroke="#A6A8AC" stroke-width="0.5" d="M53.7,54.2L58.4,43l15.3-11.7c0,0,0,0,0,0c0.1-0.1,0.2-0.2,0.2-0.3
					l7.9-16.9c0.1-0.2,0.1-0.4-0.1-0.6c-0.1-0.2-0.3-0.3-0.6-0.2l-18.5,3.2c0,0,0,0,0,0c0,0-0.1,0-0.1,0c0,0,0,0,0,0
					c0,0-0.1,0-0.1,0.1c0,0,0,0,0,0L47.1,28.3l-12.4,1.1c-0.1,0-0.2,0-0.3,0.1l-21,16.1c-0.2,0.2-0.3,0.4-0.2,0.7c0,0,0,0.1,0.1,0.1
					c0.1,0.2,0.3,0.3,0.5,0.2l13.7-2.2l1.8,2.4l-6.4,4.9c-0.3,0.2-0.3,0.6-0.1,0.8l1.4,1.9l-2.6,2c-0.3,0.2-0.3,0.6-0.1,0.8l1.9,2.5
					c0.2,0.3,0.6,0.3,0.8,0.1l2.6-2l1.8,2.3c0.2,0.3,0.6,0.3,0.8,0.1l6.4-4.9l1.8,2.4l-6,12.1c-0.1,0.2-0.1,0.4,0.1,0.6
					c0,0,0.1,0.1,0.1,0.1c0.2,0.2,0.5,0.2,0.7,0l21-16.1C53.6,54.4,53.7,54.3,53.7,54.2z M27.6,43.3L16,45.1L35,30.5l6.1-0.5
					l-6.7,5.1c-0.3,0.2-0.3,0.6-0.1,0.8c0.2,0.3,0.6,0.3,0.8,0.1l8.1-6.2c0,0,0.1,0,0.1-0.1l2.1-0.2L27.6,43.3z M80.3,14.6
					l-7.1,15.1l-4.6-6l7.3-5.6c0.1-0.1,0.2-0.2,0.2-0.3c0-0.2,0-0.3-0.1-0.5c-0.2-0.3-0.6-0.3-0.8-0.1l-7.3,5.6l-4.1-5.3L80.3,14.6z
					 M25.2,53.7l-1.1-1.4l6-4.6l1.1,1.4L25.2,53.7z M29.2,58.9l-1.4-1.9l6-4.6l1.4,1.9L29.2,58.9z M64.6,20.4l2.5,3.3
					c0,0.1,0,0.2,0.1,0.4c0.1,0.1,0.2,0.2,0.3,0.2l5,6.5l-15,11.4L38.4,56.8l-2-2.6l-1.8-2.3l4.4-3.3c0.3-0.2,0.3-0.6,0.1-0.8l0,0
					c-0.2-0.3-0.6-0.3-0.8-0.1L24,58.5l-1.2-1.6l28.5-21.8l1.5,2l0,0c0.2,0.3,0.6,0.3,0.8,0.1c0.3-0.2,0.3-0.6,0.1-0.8L52,33.9
					c-0.2-0.3-0.6-0.3-0.8-0.1L32.1,48.4l-1.4-1.9l-2-2.6l19.1-14.6l15-11.4L64.6,20.4 M33.8,68.1l5-10.1l17.7-13.6l-0.8,2l-7.9,6.1
					c-0.3,0.2-0.3,0.6-0.1,0.8c0.2,0.3,0.6,0.3,0.8,0.1l6.4-4.9L54,50.4l-8.5,6.5c-0.3,0.2-0.3,0.6-0.1,0.8c0.2,0.3,0.6,0.3,0.8,0.1
					l6.9-5.3l-0.4,1L33.8,68.1z"/>
			</g>
		</g>
	</g>
</g>
</svg>
