<?xml version="1.0" encoding="utf-8"?>
<!-- Generator: Adobe Illustrator 18.0.0, SVG Export Plug-In . SVG Version: 6.00 Build 0)  -->
<!DOCTYPE svg PUBLIC "-//W3C//DTD SVG 1.1//EN" "http://www.w3.org/Graphics/SVG/1.1/DTD/svg11.dtd">
<svg version="1.1" id="Layer_1" xmlns="http://www.w3.org/2000/svg" xmlns:xlink="http://www.w3.org/1999/xlink" x="0px" y="0px"
	 viewBox="0 0 134.5 85" enable-background="new 0 0 134.5 85" xml:space="preserve">
<g>
	<path fill="#929497" d="M96.9,49.2c0-2.1-1.2-3.8-3-4.6v-7.5C93.9,23.3,82.6,12,68.7,12c-13.9,0-25.2,11.3-25.2,25.2v7.5
		c-1.8,0.8-3,2.5-3,4.6c0,2.4,1.7,4.5,4,4.9v0.1c0,2.8,2.3,5,5,5h5V39.1h-5c-1.6,0-3.1,0.8-4,2v-4.1C45.6,24.4,56,14,68.8,14
		c12.8,0,23.2,10.4,23.2,23.2v4.1c-0.9-1.2-2.4-2-4-2h-5v20.1h4v5c0,2.8-2.3,5-5,5h-7.2c-0.6-1.7-2.5-3-4.9-3c-2.8,0-5,1.8-5,4
		c0,2.2,2.3,4,5,4c2.3,0,4.3-1.3,4.9-3h7.2c3.9,0,7.1-3.2,7.1-7.1v-5.1c2.3-0.5,4-2.5,4-4.9v-0.1C95.2,53.7,96.9,51.6,96.9,49.2z
		 M46.6,44.2c0-1.7,1.4-3,3-3h3v16.1h-3c-1.7,0-3-1.4-3-3V44.2z M42.6,49.2c0-1.3,0.8-2.4,2-2.8v5.7C43.4,51.6,42.6,50.5,42.6,49.2z
		 M69.8,72.4c-1.6,0-3-0.9-3-2c0-1.1,1.4-2,3-2c1.6,0,3,0.9,3,2C72.8,71.5,71.4,72.4,69.8,72.4z M90.9,54.3c0,1.7-1.4,3-3,3h-3V41.2
		h3c1.7,0,3,1.4,3,3V54.3z M92.9,52.1v-5.7c1.2,0.4,2,1.5,2,2.8S94.1,51.6,92.9,52.1z"/>
	<g>
		<path fill="#929497" d="M61.8,34.6h-7.4v-1.5l3.5-3.7c0.5-0.5,0.8-1,1.1-1.4c0.2-0.4,0.3-0.8,0.3-1.1c0-0.5-0.1-0.9-0.4-1.1
			c-0.2-0.3-0.6-0.4-1-0.4c-0.5,0-0.9,0.2-1.1,0.5c-0.3,0.3-0.4,0.8-0.4,1.3h-2.1c0-0.7,0.2-1.3,0.5-1.8c0.3-0.5,0.8-1,1.3-1.3
			c0.6-0.3,1.2-0.5,1.9-0.5c1.1,0,2,0.3,2.6,0.8c0.6,0.5,0.9,1.3,0.9,2.3c0,0.5-0.1,1.1-0.4,1.6c-0.3,0.6-0.7,1.2-1.4,1.9l-2.4,2.6
			h4.6V34.6z"/>
		<path fill="#929497" d="M69.4,30.6h1.2v1.7h-1.2v2.3h-2.1v-2.3h-4.4L62.8,31l4.5-7.1h2.2V30.6z M64.9,30.6h2.4v-3.8L67.2,27
			L64.9,30.6z"/>
		<path fill="#929497" d="M72.6,35.6H71l4-11.7h1.6L72.6,35.6z"/>
		<path fill="#929497" d="M84.8,25.1l-4.2,9.6h-2.3l4.2-9h-5.3v-1.7h7.6V25.1z"/>
	</g>
</g>
</svg>
