<?xml version="1.0" encoding="utf-8"?>
<!-- Generator: Adobe Illustrator 18.0.0, SVG Export Plug-In . SVG Version: 6.00 Build 0)  -->
<!DOCTYPE svg PUBLIC "-//W3C//DTD SVG 1.1//EN" "http://www.w3.org/Graphics/SVG/1.1/DTD/svg11.dtd">
<svg version="1.1" id="Layer_1" xmlns="http://www.w3.org/2000/svg" xmlns:xlink="http://www.w3.org/1999/xlink" x="0px" y="0px"
	 viewBox="24 37 141 67" enable-background="new 24 37 141 67" xml:space="preserve">
<g>
	<g>
		<g>
			<g>
				<g>
					<g>
						<g enable-background="new    ">
							<path fill="#595A5C" d="M90.8,83l1.1-2.6h1l-1.5,3.5l1.6,3.7h-1l-1.2-2.8l-1.2,2.8h-1l1.6-3.7l-1.5-3.5h1L90.8,83z"/>
							<path fill="#595A5C" d="M96.3,79.9c0-1.8,0.8-2.6,2-2.6s2,0.8,2,2.6v0.4c0,0.9-0.1,1.4-0.7,2.4l-2.2,4h2.9v0.9h-4v-0.8
								l2.6-4.7c0.4-0.7,0.5-1.1,0.5-1.8V80c0-1.3-0.5-1.7-1-1.7c-0.6,0-1,0.4-1,1.7v0.5l-1-0.1L96.3,79.9L96.3,79.9z"/>
							<path fill="#595A5C" d="M101.5,85v-4.9c0-1.8,0.7-2.8,2.1-2.8s2.1,1,2.1,2.8V85c0,1.8-0.7,2.8-2.1,2.8S101.5,86.8,101.5,85z
								 M104.7,85v-4.8c0-1.4-0.4-1.9-1.1-1.9s-1.1,0.5-1.1,1.9V85c0,1.4,0.4,1.9,1.1,1.9S104.7,86.4,104.7,85z"/>
							<path fill="#595A5C" d="M106.8,85v-4.9c0-1.8,0.7-2.8,2.1-2.8s2.1,1,2.1,2.8V85c0,1.8-0.7,2.8-2.1,2.8S106.8,86.8,106.8,85z
								 M109.9,85v-4.8c0-1.4-0.4-1.9-1.1-1.9s-1.1,0.5-1.1,1.9V85c0,1.4,0.4,1.9,1.1,1.9S109.9,86.4,109.9,85z"/>
							<path fill="#595A5C" d="M112.1,81.3v-2.4c0-0.9,0.5-1.5,1.3-1.5s1.3,0.6,1.3,1.5v2.4c0,0.9-0.5,1.5-1.3,1.5
								S112.1,82.2,112.1,81.3z M113,78.9v2.3c0,0.5,0.1,0.7,0.4,0.7c0.3,0,0.4-0.2,0.4-0.7v-2.3c0-0.5-0.1-0.7-0.4-0.7
								C113.2,78.2,113,78.4,113,78.9z M114.5,87.6h-0.9l2.9-10.1h0.9L114.5,87.6z M116.3,86.3v-2.4c0-0.9,0.5-1.5,1.3-1.5
								c0.9,0,1.3,0.6,1.3,1.5v2.4c0,0.9-0.5,1.5-1.3,1.5C116.7,87.8,116.3,87.2,116.3,86.3z M117.2,83.9v2.3c0,0.5,0.1,0.7,0.4,0.7
								c0.3,0,0.4-0.2,0.4-0.7v-2.3c0-0.5-0.1-0.7-0.4-0.7C117.3,83.2,117.2,83.4,117.2,83.9z"/>
						</g>
					</g>
				</g>
			</g>
		</g>
	</g>
	<g>
		<g>
			<g>
				<path fill="#A6A8AC" d="M50.3,91.5c-0.2,0-0.4-0.1-0.5-0.2c-0.2-0.3-0.2-0.7,0.2-0.9l6.3-4.8c0.1-0.1,0.2-0.2,0.4-0.2
					c0.2,0,0.4,0.1,0.5,0.2c0.2,0.3,0.2,0.7-0.2,0.9l-6.3,4.8C50.6,91.5,50.5,91.5,50.3,91.5z"/>
				<path fill="#A6A8AC" d="M56.6,85.7c0.2,0,0.2,0.1,0.4,0.2c0.2,0.2,0.1,0.5-0.1,0.6l-6.3,4.8c-0.1,0.1-0.2,0.1-0.3,0.1
					s-0.2-0.1-0.4-0.2c-0.2-0.2-0.1-0.5,0.1-0.6l6.3-4.8C56.4,85.7,56.5,85.7,56.6,85.7 M56.6,85.3L56.6,85.3
					c-0.2,0-0.4,0.1-0.5,0.2l-6.3,4.8c-0.2,0.2-0.3,0.3-0.3,0.5s0,0.5,0.2,0.6c0.2,0.2,0.4,0.3,0.7,0.3c0.2,0,0.4-0.1,0.5-0.2
					l6.3-4.8c0.2-0.2,0.3-0.3,0.3-0.5s0-0.5-0.2-0.6C57,85.4,56.8,85.3,56.6,85.3L56.6,85.3z"/>
			</g>
		</g>
		<g>
			<g>
				<path fill="#A6A8AC" d="M57.4,94.3c-0.2,0-0.4-0.1-0.5-0.2c-0.2-0.3-0.2-0.7,0.2-0.9l6.3-4.8c0.1-0.1,0.2-0.2,0.4-0.2
					c0.2,0,0.4,0.1,0.5,0.2c0.2,0.3,0.2,0.7-0.2,0.9l-6.3,4.8C57.7,94.3,57.6,94.3,57.4,94.3z"/>
				<path fill="#A6A8AC" d="M63.7,88.5c0.2,0,0.2,0.1,0.4,0.2c0.2,0.2,0.1,0.5-0.1,0.6l-6.3,4.8c-0.1,0.1-0.2,0.1-0.3,0.1
					S57.2,94.1,57,94c-0.1-0.2-0.1-0.5,0.2-0.6l6.3-4.8C63.5,88.6,63.6,88.5,63.7,88.5 M63.7,88.1c-0.2,0-0.4,0.1-0.5,0.2L57,93.1
					c-0.4,0.3-0.5,0.8-0.2,1.1c0.2,0.2,0.4,0.3,0.7,0.3c0.2,0,0.4-0.1,0.5-0.2l6.3-4.8c0.2-0.2,0.3-0.3,0.3-0.5s0-0.5-0.2-0.6
					C64.2,88.3,63.9,88.1,63.7,88.1L63.7,88.1z"/>
			</g>
		</g>
		<g>
			<g>
				<path fill="#A6A8AC" d="M103.1,50.9l-3.2,2.4c0-0.2,0-0.2-0.1-0.4c-0.1-0.1-0.2-0.2-0.4-0.2c-0.1,0-0.2,0-0.3,0.1l-5.5,4.2
					l-3.1-4L103.1,50.9 M103,50.5l-12.4,2.2L90,52.8l0.4,0.5l3.1,4l0.2,0.3l0.3-0.2l5.5-4.2c0,0,0,0,0.1,0c0,0,0,0,0.1,0
					c0,0,0,0,0,0.1l-0.2,1.1l0.8-0.7l3.2-2.4L103,50.5L103,50.5z"/>
			</g>
			<g>
				<path fill="#FFFFFF" d="M68.3,79l3.5-2.7c0.1-0.1,0.1-0.1,0.1-0.2c0-0.1,0-0.2-0.1-0.2l-0.2-0.2l10.7-8.2l0.2,0.2
					c0.1,0.1,0.2,0.1,0.2,0.1c0.1,0,0.1,0,0.2-0.1c0.1-0.1,0.2-0.2,0.1-0.4l-1.4-1.9c-0.1,0-0.2,0-0.2,0s-0.2,0-0.2,0L66.6,76.8
					l-2.8-3.7l26-19.9l3.5,4.6v0.1c0,0.1,0,0.1,0.1,0.2c0.1,0.1,0.1,0.1,0.2,0.1h0.1l3.9,5.1L71.4,83L68.3,79z"/>
				<path fill="#A6A8AC" d="M89.7,53.4l3.3,4.4c0,0.1,0,0.2,0.1,0.3c0.1,0.1,0.2,0.2,0.2,0.2l3.8,4.9l-11.4,8.6l-14.4,11l-1.5-2
					l-1.4-1.7l3.3-2.5c0.2-0.2,0.2-0.5,0.1-0.6l10.5-8c0.1,0.1,0.2,0.2,0.4,0.2c0.1,0,0.2,0,0.3-0.1c0.2-0.2,0.2-0.5,0.1-0.6
					l-1.4-1.9c-0.1-0.1-0.2-0.2-0.4-0.2c-0.1,0-0.2,0-0.3,0.1l-14.5,11l-1.1-1.4l-1.5-2l14.5-11L89.7,53.4 M89.8,52.9l-0.3,0.2
					l-11.4,8.6l-14.4,11L63.5,73l0.2,0.3l1.5,2l1.1,1.4l0.2,0.3l0.3-0.2l14.5-11c0,0,0,0,0.1,0c0,0,0,0,0.1,0l1.4,1.9v0.1
					c0,0,0,0-0.1,0c0,0,0,0-0.1,0l-0.2-0.3l-0.3,0.2l-10.5,8l-0.3,0.2l0.2,0.3v0.1l-3.3,2.5L68,79l0.2,0.3l1.4,1.7l1.5,2l0.2,0.3
					l0.3-0.2l14.5-11l11.4-8.6l0.3-0.2l-0.2-0.3l-3.8-4.9l-0.1-0.1h-0.1v-0.2l-0.2-0.2L90,53.1L89.8,52.9L89.8,52.9z"/>
			</g>
			<g>
				
					<rect x="63.2" y="81" transform="matrix(-0.7944 0.6074 -0.6074 -0.7944 168.5745 106.9626)" fill="#FFFFFF" width="6.1" height="2.1"/>
				<path fill="#A6A8AC" d="M67.9,79.6l1.1,1.4l-4.5,3.5l-1.1-1.4L67.9,79.6 M67.9,79l-0.3,0.2l-4.5,3.5L62.8,83l0.2,0.3l1.1,1.4
					l0.2,0.3l0.3-0.2l4.5-3.5l0.3-0.2l-0.2-0.3l-1.1-1.4L67.9,79L67.9,79z"/>
			</g>
			<g>
				
					<rect x="60.2" y="77.3" transform="matrix(-0.7944 0.6073 -0.6073 -0.7944 160.9308 101.9313)" fill="#FFFFFF" width="6.1" height="1.7"/>
				<path fill="#A6A8AC" d="M65.1,75.9l0.8,1.1l-4.5,3.5l-0.8-1.1L65.1,75.9 M65.1,75.4l-0.3,0.2l-4.5,3.5L60,79.3l0.2,0.3l0.8,1.1
					l0.2,0.3l0.3-0.2l4.5-3.5l0.3-0.2l-0.2-0.3l-0.8-1.1L65.1,75.4L65.1,75.4z"/>
			</g>
			<g>
				<path fill="#FFFFFF" d="M67.7,91.2l3.8-7.7l14-10.7L84.6,75l-6.1,4.6c-0.1,0.1-0.1,0.1-0.1,0.2c0,0.1,0,0.2,0.1,0.2
					c0.1,0.1,0.2,0.1,0.2,0.1s0.1,0,0.2-0.1l5.4-4.1l-0.9,2.1l-6.5,5c-0.1,0.1-0.1,0.1-0.1,0.2c0,0.1,0,0.2,0.1,0.2
					c0.1,0.1,0.2,0.1,0.2,0.1s0.1,0,0.2-0.1l5.8-4.5l-0.6,1.5l-14.4,11L67.7,91.2L67.7,91.2z"/>
				<path fill="#A6A8AC" d="M85.1,73.4L84.5,75l-6,4.6c-0.2,0.2-0.2,0.5-0.1,0.6c0.1,0.1,0.2,0.2,0.4,0.2c0.1,0,0.2,0,0.3-0.1
					l4.8-3.7L83.4,78L77,82.9c-0.2,0.2-0.2,0.5-0.1,0.6c0.1,0.1,0.2,0.2,0.4,0.2c0.1,0,0.2,0,0.3-0.1l5.2-4l-0.3,0.8l-14.6,11
					l3.8-7.6L85.1,73.4 M86,72.3l-1.1,0.8L71.5,83.4l-0.1,0.1h-0.1l-3.8,7.6l0.6,0.5l14.3-10.9l0.1-0.1l0.1-0.1l0.3-0.8l0.5-1.4
					l-1.1,0.8l-5.2,4c0,0,0,0-0.1,0c0,0,0,0-0.1,0v-0.1l6.4-4.9l0.1-0.1l0.1-0.1l0.6-1.4l0.5-1.3l-1.1,0.8L78.8,80c0,0,0,0-0.1,0
					c0,0,0,0-0.1,0v-0.1l6-4.6l0.1-0.1l0.1-0.1l0.6-1.5L86,72.3L86,72.3z"/>
			</g>
			<g>
				<path fill="#FFFFFF" d="M59.4,82.9l21.9-16.7l1.4,1.8l-10.7,8.2L71.7,76c-0.1-0.1-0.2-0.1-0.2-0.1c-0.1,0-0.1,0-0.2,0.1
					l-10.8,8.3L59.4,82.9z"/>
				<path fill="#A6A8AC" d="M81.3,66.4l1.1,1.5l-10.4,8c-0.1-0.1-0.2-0.2-0.4-0.2c-0.1,0-0.2,0-0.3,0.1l-10.8,8.3l-0.9-1.2
					L81.3,66.4 M81.3,65.9L81,66.1L59.4,82.6l-0.3,0.2l0.2,0.3l0.9,1.2l0.2,0.3l0.3-0.2l10.8-8.2c0,0,0,0,0.1,0c0,0,0,0,0.1,0
					l0.2,0.3l0.3-0.2l10.5-8L83,68l-0.3-0.3l-1.1-1.5L81.3,65.9L81.3,65.9z"/>
			</g>
			<g>
				<path fill="#A6A8AC" stroke="#A6A8AC" stroke-width="0.5" d="M83,80.9l3.5-8.5l11.6-8.9l0,0c0.1-0.1,0.2-0.2,0.2-0.2l6-12.8
					c0.1-0.2,0.1-0.3-0.1-0.5c-0.1-0.2-0.2-0.2-0.5-0.2l-14,2.4l0,0h-0.1l0,0c0,0-0.1,0-0.1,0.1l0,0L78,61.2l-9.4,0.8
					c-0.1,0-0.2,0-0.2,0.1L52.5,74.3c-0.2,0.2-0.2,0.3-0.2,0.5c0,0,0,0.1,0.1,0.1c0.1,0.2,0.2,0.2,0.4,0.2l10.4-1.7l1.4,1.8L59.7,79
					c-0.2,0.2-0.2,0.5-0.1,0.6l1.1,1.4l-2,1.5c-0.2,0.2-0.2,0.5-0.1,0.6l1.4,1.9c0.2,0.2,0.5,0.2,0.6,0.1l2-1.5l1.4,1.7
					c0.2,0.2,0.5,0.2,0.6,0.1l4.8-3.7l1.4,1.8l-4.5,9.2c-0.1,0.2-0.1,0.3,0.1,0.5l0.1,0.1c0.2,0.2,0.4,0.2,0.5,0L82.8,81
					C82.9,81,82.9,80.9,83,80.9z M63.2,72.6L54.4,74l14.5-11l4.6-0.4l-5.1,3.9c-0.2,0.2-0.2,0.5-0.1,0.6c0.2,0.2,0.5,0.2,0.6,0.1
					l6.1-4.7c0,0,0.1,0,0.1-0.1l1.6-0.2L63.2,72.6z M103.1,50.9l-5.4,11.4l-3.5-4.5l5.5-4.2c0.1-0.1,0.2-0.2,0.2-0.2
					c0-0.2,0-0.2-0.1-0.4c-0.2-0.2-0.5-0.2-0.6-0.1l-5.5,4.2l-3.1-4L103.1,50.9z M61.4,80.5l-0.8-1.1l4.5-3.5L66,77L61.4,80.5z
					 M64.5,84.4L63.4,83l4.5-3.5l1.1,1.4L64.5,84.4z M91.2,55.3l1.9,2.5c0,0.1,0,0.2,0.1,0.3c0.1,0.1,0.2,0.2,0.2,0.2l3.8,4.9
					l-11.4,8.6l-14.4,11l-1.5-2l-1.4-1.7l3.3-2.5c0.2-0.2,0.2-0.5,0.1-0.6l0,0c-0.2-0.2-0.5-0.2-0.6-0.1l-10.8,8.2l-0.9-1.2
					l21.6-16.5l1.1,1.5l0,0c0.2,0.2,0.5,0.2,0.6,0.1c0.2-0.2,0.2-0.5,0.1-0.6l-1.4-1.9c-0.2-0.2-0.5-0.2-0.6-0.1l-14.4,11L65.5,75
					l-1.5-2l14.5-11l11.4-8.6L91.2,55.3 M67.9,91.4l3.8-7.6L85,73.4L84.4,75l-6,4.6c-0.2,0.2-0.2,0.5-0.1,0.6
					c0.2,0.2,0.5,0.2,0.6,0.1l4.8-3.7L83.2,78l-6.4,4.9c-0.2,0.2-0.2,0.5-0.1,0.6c0.2,0.2,0.5,0.2,0.6,0.1l5.2-4l-0.3,0.8L67.9,91.4
					z"/>
			</g>
		</g>
	</g>
	<g>
		<path fill="#A6A8AC" d="M131.8,71.6c-6.9,0-12.5-5.6-12.5-12.5c0-3.4,1.4-6.5,3.6-8.8c-4.7,1.8-8,6.4-8,11.7
			c0,6.9,5.6,12.5,12.5,12.5c3.5,0,6.7-1.4,8.9-3.7C134.9,71.4,133.4,71.6,131.8,71.6z"/>
		<polygon fill="#A6A8AC" points="131.1,57.1 128.9,56.9 127.6,58.7 127,56.6 124.9,55.8 126.8,54.7 126.9,52.5 128.6,53.8 
			130.7,53.2 129.9,55.3 		"/>
		<polygon fill="#A6A8AC" points="128.9,63.8 127.8,63.7 127.1,64.6 126.9,63.5 125.8,63.1 126.8,62.6 126.8,61.6 127.7,62.2 
			128.7,61.9 128.3,62.9 		"/>
		<polygon fill="#A6A8AC" points="136.8,57.8 135.8,57.8 135.1,58.6 134.9,57.6 133.8,57.2 134.7,56.6 134.8,55.6 135.6,56.3 
			136.6,55.9 136.2,56.9 		"/>
		<polygon fill="#A6A8AC" points="135.3,65.5 134.2,65.4 133.6,66.2 133.3,65.3 132.3,64.9 133.2,64.3 133.3,63.2 134.1,63.9 
			135.2,63.6 134.7,64.6 		"/>
		<polygon fill="#A6A8AC" points="140.8,63.7 139.8,63.7 139.1,64.5 138.8,63.4 137.8,63.1 138.7,62.5 138.8,61.5 139.6,62.2 
			140.6,61.8 140.2,62.8 		"/>
	</g>
</g>
</svg>
