<?xml version="1.0" encoding="utf-8"?>
<!-- Generator: Adobe Illustrator 18.0.0, SVG Export Plug-In . SVG Version: 6.00 Build 0)  -->
<!DOCTYPE svg PUBLIC "-//W3C//DTD SVG 1.1//EN" "http://www.w3.org/Graphics/SVG/1.1/DTD/svg11.dtd">
<svg version="1.1" id="Layer_1" xmlns="http://www.w3.org/2000/svg" xmlns:xlink="http://www.w3.org/1999/xlink" x="0px" y="0px"
	 viewBox="0 0 134.5 85" enable-background="new 0 0 134.5 85" xml:space="preserve">
<g>
	<g>
		<g>
			<g>
				<g>
					<g>
						<text transform="matrix(1 0 0 1 58.6567 63.1271)" fill="#595A5C" font-family="'CoreSansD37CnRegular'" font-size="19.0395">x 200%</text>
					</g>
				</g>
			</g>
		</g>
	</g>
	<g>
		<g>
			<g>
				<path fill="#A6A8AC" d="M8.2,68.3c-0.3,0-0.5-0.1-0.7-0.3c-0.3-0.4-0.2-0.9,0.2-1.2l8.3-6.3c0.1-0.1,0.3-0.2,0.5-0.2
					c0.3,0,0.5,0.1,0.7,0.3c0.3,0.4,0.2,0.9-0.2,1.2l-8.3,6.3C8.6,68.3,8.4,68.3,8.2,68.3z"/>
				<path fill="#A6A8AC" d="M16.5,60.6c0.2,0,0.3,0.1,0.5,0.2c0.2,0.3,0.1,0.6-0.1,0.8l-8.3,6.3c-0.1,0.1-0.2,0.1-0.4,0.1
					c-0.2,0-0.3-0.1-0.5-0.2c-0.2-0.3-0.1-0.6,0.1-0.8l8.3-6.3C16.2,60.6,16.4,60.6,16.5,60.6 M16.5,60.1L16.5,60.1
					c-0.2,0-0.5,0.1-0.7,0.2l-8.3,6.3c-0.2,0.2-0.4,0.4-0.4,0.7c0,0.3,0,0.6,0.2,0.8c0.2,0.3,0.5,0.4,0.9,0.4c0.2,0,0.5-0.1,0.7-0.2
					l8.3-6.3c0.2-0.2,0.4-0.4,0.4-0.7c0-0.3,0-0.6-0.2-0.8C17.1,60.2,16.8,60.1,16.5,60.1L16.5,60.1z"/>
			</g>
		</g>
		<g>
			<g>
				<path fill="#A6A8AC" d="M17.6,72c-0.3,0-0.5-0.1-0.7-0.3c-0.3-0.4-0.2-0.9,0.2-1.2l8.3-6.3c0.1-0.1,0.3-0.2,0.5-0.2
					c0.3,0,0.5,0.1,0.7,0.3c0.3,0.4,0.2,0.9-0.2,1.2l-8.3,6.3C18,72,17.8,72,17.6,72z"/>
				<path fill="#A6A8AC" d="M25.9,64.3c0.2,0,0.3,0.1,0.5,0.2c0.2,0.3,0.1,0.6-0.1,0.8L18,71.7c-0.1,0.1-0.2,0.1-0.4,0.1
					c-0.2,0-0.3-0.1-0.5-0.2C17,71.3,17,71,17.3,70.8l8.3-6.3C25.7,64.4,25.8,64.3,25.9,64.3 M25.9,63.8c-0.2,0-0.5,0.1-0.7,0.2
					L17,70.4c-0.5,0.4-0.6,1-0.2,1.5c0.2,0.3,0.5,0.4,0.9,0.4c0.2,0,0.5-0.1,0.7-0.2l8.3-6.3c0.2-0.2,0.4-0.4,0.4-0.7
					c0-0.3,0-0.6-0.2-0.8C26.6,64,26.2,63.8,25.9,63.8L25.9,63.8z"/>
			</g>
		</g>
		<g>
			<g>
				<path fill="#A6A8AC" d="M77.9,14.6l-4.2,3.2c0-0.2,0-0.3-0.1-0.5c-0.1-0.1-0.3-0.2-0.5-0.2c-0.1,0-0.2,0-0.4,0.1l-7.3,5.6
					l-4.1-5.3L77.9,14.6 M77.8,14.1L61.4,17l-0.8,0.1l0.5,0.7l4.1,5.3l0.3,0.4l0.4-0.3l7.3-5.6c0,0,0,0,0.1,0c0,0,0,0,0.1,0
					c0,0,0,0,0,0.1l-0.3,1.4l1.1-0.9l4.2-3.2L77.8,14.1L77.8,14.1z"/>
			</g>
			<g>
				<path fill="#FFFFFF" d="M32,51.8l4.6-3.5c0.1-0.1,0.1-0.1,0.1-0.2c0-0.1,0-0.2-0.1-0.2l-0.2-0.2l14.2-10.9l0.2,0.2
					c0.1,0.1,0.2,0.1,0.3,0.1c0.1,0,0.1,0,0.2-0.1c0.1-0.1,0.2-0.3,0.1-0.5l-1.9-2.5C49.4,34,49.3,34,49.2,34C49.1,34,49,34,49,34
					L29.7,48.8l-3.7-4.9l34.4-26.3l4.6,6.1l0,0.1c0,0.1,0,0.1,0.1,0.2c0.1,0.1,0.1,0.1,0.2,0.1l0.1,0l5.2,6.8L36.1,57.1L32,51.8z"/>
				<path fill="#A6A8AC" d="M60.3,17.9l4.4,5.8c0,0.1,0,0.2,0.1,0.4c0.1,0.1,0.2,0.2,0.3,0.2l5,6.5l-15,11.4L36.1,56.8l-2-2.6
					l-1.8-2.3l4.4-3.3c0.3-0.2,0.3-0.6,0.1-0.8l13.8-10.6c0.1,0.1,0.3,0.2,0.5,0.2c0.1,0,0.2,0,0.4-0.1c0.3-0.2,0.3-0.6,0.1-0.8
					l-1.9-2.5c-0.1-0.1-0.3-0.2-0.5-0.2c-0.1,0-0.2,0-0.4,0.1L29.7,48.4l-1.4-1.9l-2-2.6l19.1-14.6L60.3,17.9 M60.4,17.2L60,17.5
					l-15,11.4L26,43.5l-0.4,0.3l0.3,0.4l2,2.6l1.4,1.9l0.3,0.4l0.4-0.3l19.1-14.6c0,0,0,0,0.1,0c0,0,0,0,0.1,0l1.9,2.5
					c0,0,0,0.1,0,0.1c0,0,0,0-0.1,0c0,0,0,0-0.1,0l-0.3-0.4l-0.4,0.3L36.5,47.3l-0.4,0.3l0.3,0.4c0,0,0,0.1,0,0.1L32,51.4l-0.4,0.3
					l0.3,0.4l1.8,2.3l2,2.6l0.3,0.4l0.4-0.3l19.1-14.6l15-11.4l0.4-0.3l-0.3-0.4l-5-6.5l-0.1-0.1l-0.2,0l0-0.2l-0.2-0.2l-4.4-5.8
					L60.4,17.2L60.4,17.2z"/>
			</g>
			<g>
				
					<rect x="25.1" y="54.3" transform="matrix(-0.7944 0.6074 -0.6074 -0.7944 86.1338 82.3096)" fill="#FFFFFF" width="8" height="2.8"/>
				<path fill="#A6A8AC" d="M31.4,52.5l1.4,1.9l-6,4.6l-1.4-1.9L31.4,52.5 M31.5,51.8l-0.4,0.3l-6,4.6L24.7,57l0.3,0.4l1.4,1.9
					l0.3,0.4l0.4-0.3l6-4.6l0.4-0.3l-0.3-0.4l-1.4-1.9L31.5,51.8L31.5,51.8z"/>
			</g>
			<g>
				
					<rect x="21.3" y="49.6" transform="matrix(-0.7944 0.6073 -0.6073 -0.7944 76.1884 75.6291)" fill="#FFFFFF" width="8" height="2.3"/>
				<path fill="#A6A8AC" d="M27.7,47.7l1.1,1.4l-6,4.6l-1.1-1.4L27.7,47.7 M27.8,47l-0.4,0.3l-6,4.6l-0.4,0.3l0.3,0.4l1.1,1.4
					l0.3,0.4l0.4-0.3l6-4.6l0.4-0.3l-0.3-0.4l-1.1-1.4L27.8,47L27.8,47z"/>
			</g>
			<g>
				<path fill="#FFFFFF" d="M31.2,67.9l5-10.2l18.5-14.2l-1.2,2.9l-8,6.1c-0.1,0.1-0.1,0.1-0.1,0.2c0,0.1,0,0.2,0.1,0.2
					c0.1,0.1,0.2,0.1,0.3,0.1c0.1,0,0.1,0,0.2-0.1l7.1-5.4l-1.2,2.8l-8.6,6.6c-0.1,0.1-0.1,0.1-0.1,0.2c0,0.1,0,0.2,0.1,0.2
					c0.1,0.1,0.2,0.1,0.3,0.1c0.1,0,0.1,0,0.2-0.1l7.7-5.9l-0.8,2l-19,14.5L31.2,67.9z"/>
				<path fill="#A6A8AC" d="M54.2,44.4l-0.8,2l-7.9,6.1c-0.3,0.2-0.3,0.6-0.1,0.8c0.1,0.1,0.3,0.2,0.5,0.2c0.1,0,0.2,0,0.4-0.1
					l6.4-4.9l-0.8,1.9l-8.5,6.5c-0.3,0.2-0.3,0.6-0.1,0.8c0.1,0.1,0.3,0.2,0.5,0.2c0.1,0,0.2,0,0.4-0.1l6.9-5.3l-0.4,1L31.4,68.1
					l5-10.1L54.2,44.4 M55.4,42.9L53.9,44L36.2,57.6l-0.1,0.1L36,57.7l-5,10.1l0.8,0.6L50.7,54l0.1-0.1l0.1-0.1l0.4-1L52,51
					l-1.5,1.1l-6.9,5.3c0,0,0,0-0.1,0c0,0,0,0-0.1,0c0,0,0-0.1,0-0.1l8.5-6.5l0.1-0.1l0.1-0.1l0.8-1.9l0.7-1.7l-1.5,1.1L45.8,53
					c0,0,0,0-0.1,0c0,0,0,0-0.1,0c0,0,0-0.1,0-0.1l7.9-6.1l0.1-0.1l0.1-0.1l0.8-2L55.4,42.9L55.4,42.9z"/>
			</g>
			<g>
				<path fill="#FFFFFF" d="M20.2,56.9l28.9-22.1l1.8,2.4L36.7,48l-0.2-0.2c-0.1-0.1-0.2-0.1-0.3-0.1c-0.1,0-0.1,0-0.2,0.1
					L21.7,58.8L20.2,56.9z"/>
				<path fill="#A6A8AC" d="M49.1,35.1l1.5,2L36.8,47.7c-0.1-0.1-0.3-0.2-0.5-0.2c-0.1,0-0.2,0-0.4,0.1L21.7,58.5l-1.2-1.6
					L49.1,35.1 M49.2,34.4l-0.4,0.3L20.2,56.5l-0.4,0.3l0.3,0.4l1.2,1.6l0.3,0.4l0.4-0.3L36.3,48c0,0,0,0,0.1,0c0,0,0,0,0.1,0
					l0.3,0.4l0.4-0.3l13.8-10.6l0.4-0.3L51,36.8l-1.5-2L49.2,34.4L49.2,34.4z"/>
			</g>
			<g>
				<path fill="#A6A8AC" stroke="#A6A8AC" stroke-width="0.5" d="M51.4,54.2L56,43l15.3-11.7c0,0,0,0,0,0c0.1-0.1,0.2-0.2,0.2-0.3
					l7.9-16.9c0.1-0.2,0.1-0.4-0.1-0.6c-0.1-0.2-0.3-0.3-0.6-0.2l-18.5,3.2c0,0,0,0,0,0c0,0-0.1,0-0.1,0c0,0,0,0,0,0
					c0,0-0.1,0-0.1,0.1c0,0,0,0,0,0L44.8,28.3l-12.4,1.1c-0.1,0-0.2,0-0.3,0.1l-21,16.1c-0.2,0.2-0.3,0.4-0.2,0.7c0,0,0,0.1,0.1,0.1
					c0.1,0.2,0.3,0.3,0.5,0.2l13.7-2.2l1.8,2.4l-6.4,4.9c-0.3,0.2-0.3,0.6-0.1,0.8l1.4,1.9l-2.6,2c-0.3,0.2-0.3,0.6-0.1,0.8l1.9,2.5
					c0.2,0.3,0.6,0.3,0.8,0.1l2.6-2l1.8,2.3c0.2,0.3,0.6,0.3,0.8,0.1l6.4-4.9l1.8,2.4l-6,12.1c-0.1,0.2-0.1,0.4,0.1,0.6
					c0,0,0.1,0.1,0.1,0.1c0.2,0.2,0.5,0.2,0.7,0l21-16.1C51.3,54.4,51.3,54.3,51.4,54.2z M25.2,43.3l-11.6,1.8l19.1-14.6l6.1-0.5
					l-6.7,5.1c-0.3,0.2-0.3,0.6-0.1,0.8c0.2,0.3,0.6,0.3,0.8,0.1l8.1-6.2c0,0,0.1,0,0.1-0.1l2.1-0.2L25.2,43.3z M77.9,14.6
					l-7.1,15.1l-4.6-6l7.3-5.6c0.1-0.1,0.2-0.2,0.2-0.3c0-0.2,0-0.3-0.1-0.5c-0.2-0.3-0.6-0.3-0.8-0.1l-7.3,5.6l-4.1-5.3L77.9,14.6z
					 M22.9,53.7l-1.1-1.4l6-4.6l1.1,1.4L22.9,53.7z M26.9,58.9l-1.4-1.9l6-4.6l1.4,1.9L26.9,58.9z M62.2,20.4l2.5,3.3
					c0,0.1,0,0.2,0.1,0.4c0.1,0.1,0.2,0.2,0.3,0.2l5,6.5l-15,11.4L36.1,56.8l-2-2.6l-1.8-2.3l4.4-3.3c0.3-0.2,0.3-0.6,0.1-0.8l0,0
					c-0.2-0.3-0.6-0.3-0.8-0.1L21.7,58.5l-1.2-1.6l28.5-21.8l1.5,2l0,0c0.2,0.3,0.6,0.3,0.8,0.1c0.3-0.2,0.3-0.6,0.1-0.8l-1.9-2.5
					c-0.2-0.3-0.6-0.3-0.8-0.1L29.7,48.4l-1.4-1.9l-2-2.6l19.1-14.6l15-11.4L62.2,20.4 M31.4,68.1l5-10.1l17.7-13.6l-0.8,2l-7.9,6.1
					c-0.3,0.2-0.3,0.6-0.1,0.8c0.2,0.3,0.6,0.3,0.8,0.1l6.4-4.9l-0.8,1.9l-8.5,6.5c-0.3,0.2-0.3,0.6-0.1,0.8
					c0.2,0.3,0.6,0.3,0.8,0.1l6.9-5.3l-0.4,1L31.4,68.1z"/>
			</g>
		</g>
	</g>
	<g>
		<path fill="#A6A8AC" d="M115.9,42c-9.1,0-16.5-7.4-16.5-16.5c0-4.5,1.8-8.6,4.8-11.6c-6.2,2.4-10.6,8.4-10.6,15.4
			c0,9.1,7.4,16.5,16.5,16.5c4.6,0,8.8-1.9,11.8-4.9C119.9,41.7,118,42,115.9,42z"/>
		<polygon fill="#A6A8AC" points="115,22.8 112.1,22.6 110.3,24.9 109.5,22.1 106.8,21.1 109.3,19.6 109.4,16.7 111.6,18.5 
			114.4,17.7 113.3,20.4 		"/>
		<polygon fill="#A6A8AC" points="112,31.7 110.6,31.6 109.7,32.7 109.4,31.3 108,30.8 109.2,30.1 109.3,28.7 110.4,29.6 
			111.7,29.2 111.2,30.5 		"/>
		<polygon fill="#A6A8AC" points="122.5,23.8 121.1,23.7 120.2,24.8 119.9,23.5 118.5,23 119.7,22.2 119.8,20.8 120.9,21.7 
			122.2,21.3 121.7,22.6 		"/>
		<polygon fill="#A6A8AC" points="120.5,33.9 119.1,33.8 118.2,34.9 117.9,33.6 116.5,33.1 117.7,32.3 117.8,30.9 118.9,31.8 
			120.3,31.4 119.7,32.7 		"/>
		<polygon fill="#A6A8AC" points="127.8,31.6 126.4,31.5 125.5,32.6 125.1,31.2 123.8,30.7 125,30 125.1,28.6 126.2,29.5 
			127.5,29.1 127,30.4 		"/>
	</g>
</g>
</svg>
