<?xml version="1.0" encoding="utf-8"?>
<!-- Generator: Adobe Illustrator 18.0.0, SVG Export Plug-In . SVG Version: 6.00 Build 0)  -->
<!DOCTYPE svg PUBLIC "-//W3C//DTD SVG 1.1//EN" "http://www.w3.org/Graphics/SVG/1.1/DTD/svg11.dtd">
<svg version="1.1" id="Layer_1" xmlns="http://www.w3.org/2000/svg" xmlns:xlink="http://www.w3.org/1999/xlink" x="0px" y="0px"
	 viewBox="0 0 134.5 85" enable-background="new 0 0 134.5 85" xml:space="preserve">
<g>
	<g>
		<path fill="#929497" d="M92.1,63.7c5-5.6,8.1-13.1,8.1-21.2c0-8.4-3.3-16.1-8.7-21.8c0,0,0,0,0,0c-5.6-5.9-13.4-9.8-22.2-10.1
			l-0.6,0c-0.2,0-0.3,0-0.5,0s-0.3,0-0.5,0l-0.6,0c-8.7,0.3-16.6,4.1-22.2,10.1c0,0,0,0,0,0c0,0,0,0,0,0c-5.4,5.7-8.7,13.4-8.7,21.8
			c0,8.1,3.1,15.5,8.1,21.2c0,0,0,0,0,0c0,0,0,0,0.1,0.1c5.6,6.3,13.7,10.3,22.7,10.6l0.6,0c0.2,0,0.3,0,0.5,0s0.3,0,0.5,0l0.6,0h0
			C78.4,74.2,86.5,70.1,92.1,63.7C92.1,63.8,92.1,63.8,92.1,63.7C92.1,63.7,92.1,63.7,92.1,63.7L92.1,63.7z M38.5,43.6h13.2
			c0.1,4.7,1,9.2,2.7,13.5c-3.1,1.1-6.1,2.7-8.9,4.6C41.4,56.7,38.8,50.5,38.5,43.6L38.5,43.6z M46.1,22.7c2.7,1.8,5.7,3.2,8.7,4.3
			c-1.9,4.5-2.9,9.4-3,14.4H38.5C38.8,34.3,41.6,27.7,46.1,22.7L46.1,22.7z M98,41.4H84.7c-0.1-5-1.2-9.9-3-14.4
			c3-1.1,6-2.5,8.7-4.3C94.9,27.7,97.7,34.3,98,41.4L98,41.4z M67.1,27.1c-3.2-0.1-6.3-0.6-9.3-1.4c2.2-4.6,5.4-8.7,9.3-12.2V27.1z
			 M67.1,29.3v12.2H54c0.1-4.8,1.1-9.4,2.9-13.7C60.2,28.7,63.6,29.2,67.1,29.3L67.1,29.3z M69.4,29.3c3.5-0.1,6.9-0.6,10.3-1.6
			c1.8,4.3,2.8,9,2.9,13.7H69.4V29.3z M69.4,27.1V13.5c3.9,3.4,7.1,7.6,9.3,12.2C75.7,26.5,72.5,27,69.4,27.1L69.4,27.1z M80.8,25
			c-2.1-4.4-5.1-8.5-8.7-11.9c6.5,0.8,12.3,3.8,16.7,8.1C86.3,22.7,83.6,24,80.8,25L80.8,25z M55.7,25c-2.8-1-5.5-2.3-8-3.9
			c4.5-4.3,10.3-7.2,16.7-8.1C60.7,16.5,57.8,20.6,55.7,25L55.7,25z M54,43.6h13.2v11.1c-3.6,0.1-7.2,0.7-10.6,1.7
			C55,52.4,54.1,48.1,54,43.6L54,43.6z M67.1,56.9v14.7c-4.2-3.7-7.5-8.2-9.8-13.1C60.5,57.5,63.8,57,67.1,56.9L67.1,56.9z
			 M69.4,71.6V56.9c3.3,0.1,6.6,0.6,9.8,1.5C76.9,63.4,73.6,67.9,69.4,71.6L69.4,71.6z M69.4,54.7V43.6h13.2
			c-0.1,4.4-1,8.7-2.5,12.8C76.6,55.4,73,54.8,69.4,54.7L69.4,54.7z M84.7,43.6H98c-0.3,6.8-2.8,13.1-6.9,18
			c-2.8-1.9-5.8-3.4-8.9-4.6C83.7,52.9,84.6,48.3,84.7,43.6L84.7,43.6z M47,63.3c2.6-1.7,5.4-3.1,8.3-4.2c2.1,4.8,5.2,9.2,9.1,12.9
			C57.6,71.1,51.5,68,47,63.3L47,63.3z M72.1,72c3.9-3.7,7-8.1,9.1-12.9c2.9,1,5.7,2.4,8.3,4.2C85,68,78.9,71.1,72.1,72L72.1,72z
			 M72.1,72"/>
	</g>
	<g>
		<path fill="#FFFFFF" d="M54.8,36.9V55h6.5l0.5-3h3.4l3,1.5c0,0,2.7,0.8,4.1,0.6c1.4-0.2,10.6-0.3,10.6-0.3s0,0,1.2-0.1
			c1.2-1.2,0.4-3.7,0.4-3.7c2.1-2.6,0.2-4.5,0.2-4.5c2.6-1.8,0.8-4,0.8-4c4-1.2,0.6-4,0.6-4l-9.6-0.3c-0.9-1.1,1.1-5.7,1.1-6
			c0.2-4.2-2.2-5-2.2-5c-1.2-0.5-2,1.7-2,1.7l-1.9,5.1L70.3,36l-1.2,0.9l-2.4,2l-3.3,0.9l-1.7-0.1l-0.3-2.8H54.8z"/>
		<g>
			<path fill="#929497" stroke="#FFFFFF" stroke-width="3.4177" stroke-miterlimit="10" d="M85.6,36.7h-7.9c-0.2,0-0.3-0.1-0.3-0.2
				c0-0.1-0.1-0.2-0.1-0.4l1.4-5.3c0.6-2.3-0.7-4.6-3-5.2c-1-0.3-2,0.3-2.3,1.3l-1,3.7c-0.4,1.6-1.3,3.1-2.4,4.3
				c-1.1,1.1-2.3,2.1-3.1,2.7c-0.3,0.2-0.5,0.4-0.7,0.6l-0.3,0.2c-0.2,0.1-0.4,0.2-0.6,0.2h-2.9v-2c0-0.4-0.3-0.8-0.8-0.8h-6.9
				c-0.4,0-0.8,0.3-0.8,0.8v18c0,0.4,0.3,0.8,0.8,0.8h6.9c0.4,0,0.8-0.3,0.8-0.8v-2h2.9c0.2,0,0.4,0.1,0.6,0.2
				c1.3,1.1,3,1.8,4.8,1.8h12.7c1.4,0,2.6-1.2,2.6-2.6v-0.4c0-0.5-0.2-1.1-0.5-1.5c0.7-0.5,1.2-1.3,1.2-2.2v-0.4
				c0-0.5-0.2-1.1-0.5-1.5c0.7-0.5,1.2-1.3,1.2-2.2v-0.4c0-0.5-0.2-1.1-0.5-1.5c0.7-0.5,1.2-1.3,1.2-2.2v-0.4
				C88.2,37.8,87.1,36.7,85.6,36.7z M60.9,53.9h-5.4V37.4h5.4V53.9z M86.7,39.7c0,0.6-0.5,1.1-1.1,1.1h-2.1c-0.4,0-0.8,0.3-0.8,0.8
				c0,0.4,0.3,0.8,0.8,0.8h1.3c0.6,0,1.1,0.5,1.1,1.1v0.4c0,0.6-0.5,1.1-1.1,1.1h-2.2c-0.4,0-0.8,0.3-0.8,0.8s0.3,0.8,0.8,0.8h1.4
				c0.6,0,1.1,0.5,1.1,1.1v0.4c0,0.6-0.5,1.1-1.1,1.1h-2.3c-0.4,0-0.8,0.3-0.8,0.8c0,0.4,0.3,0.8,0.8,0.8h1.5c0.6,0,1.1,0.5,1.1,1.1
				V52c0,0.6-0.5,1.1-1.1,1.1H70.6c-1.4,0-2.7-0.5-3.8-1.4c-0.4-0.4-1-0.6-1.6-0.6h-2.9V40.2h2.9c0.6,0,1.1-0.2,1.6-0.6l0.3-0.2
				c0.1-0.1,0.4-0.3,0.6-0.5c0.8-0.6,2.1-1.6,3.3-2.8c1.4-1.4,2.3-3.1,2.8-5l1-3.7c0-0.2,0.2-0.3,0.4-0.2c1.5,0.4,2.3,1.9,1.9,3.3
				l-1.4,5.3c-0.1,0.3-0.1,0.6,0,0.9h-0.9c-0.4,0-0.8,0.3-0.8,0.8s0.3,0.8,0.8,0.8h10.7c0.6,0,1.1,0.5,1.1,1.1V39.7z"/>
			<path fill="#929497" stroke="#FFFFFF" stroke-width="3.4177" stroke-miterlimit="10" d="M58.8,52.6c0.4,0,0.8-0.3,0.8-0.8v-0.8
				c0-0.4-0.3-0.8-0.8-0.8c-0.4,0-0.8,0.3-0.8,0.8v0.8C58,52.3,58.4,52.6,58.8,52.6z"/>
			<path fill="#929497" stroke="#FFFFFF" stroke-width="3.4177" stroke-miterlimit="10" d="M67.5,41.2c-0.4,0-0.8,0.3-0.8,0.8v3.6
				c0,0.4,0.3,0.8,0.8,0.8c0.4,0,0.8-0.3,0.8-0.8v-3.6C68.3,41.5,67.9,41.2,67.5,41.2z"/>
			<path fill="#929497" stroke="#FFFFFF" stroke-width="3.4177" stroke-miterlimit="10" d="M67.5,47.8c-0.4,0-0.8,0.3-0.8,0.8v0.8
				c0,0.4,0.3,0.8,0.8,0.8c0.4,0,0.8-0.3,0.8-0.8v-0.8C68.3,48.1,67.9,47.8,67.5,47.8z"/>
		</g>
		<g>
			<path fill="#929497" d="M85.6,36.7h-7.9c-0.2,0-0.3-0.1-0.3-0.2c0-0.1-0.1-0.2-0.1-0.4l1.4-5.3c0.6-2.3-0.7-4.6-3-5.2
				c-1-0.3-2,0.3-2.3,1.3l-1,3.7c-0.4,1.6-1.3,3.1-2.4,4.3c-1.1,1.1-2.3,2.1-3.1,2.7c-0.3,0.2-0.5,0.4-0.7,0.6l-0.3,0.2
				c-0.2,0.1-0.4,0.2-0.6,0.2h-2.9v-2c0-0.4-0.3-0.8-0.8-0.8h-6.9c-0.4,0-0.8,0.3-0.8,0.8v18c0,0.4,0.3,0.8,0.8,0.8h6.9
				c0.4,0,0.8-0.3,0.8-0.8v-2h2.9c0.2,0,0.4,0.1,0.6,0.2c1.3,1.1,3,1.8,4.8,1.8h12.7c1.4,0,2.6-1.2,2.6-2.6v-0.4
				c0-0.5-0.2-1.1-0.5-1.5c0.7-0.5,1.2-1.3,1.2-2.2v-0.4c0-0.5-0.2-1.1-0.5-1.5c0.7-0.5,1.2-1.3,1.2-2.2v-0.4c0-0.5-0.2-1.1-0.5-1.5
				c0.7-0.5,1.2-1.3,1.2-2.2v-0.4C88.2,37.8,87.1,36.7,85.6,36.7z M60.9,53.9h-5.4V37.4h5.4V53.9z M86.7,39.7c0,0.6-0.5,1.1-1.1,1.1
				h-2.1c-0.4,0-0.8,0.3-0.8,0.8c0,0.4,0.3,0.8,0.8,0.8h1.3c0.6,0,1.1,0.5,1.1,1.1v0.4c0,0.6-0.5,1.1-1.1,1.1h-2.2
				c-0.4,0-0.8,0.3-0.8,0.8s0.3,0.8,0.8,0.8h1.4c0.6,0,1.1,0.5,1.1,1.1v0.4c0,0.6-0.5,1.1-1.1,1.1h-2.3c-0.4,0-0.8,0.3-0.8,0.8
				c0,0.4,0.3,0.8,0.8,0.8h1.5c0.6,0,1.1,0.5,1.1,1.1V52c0,0.6-0.5,1.1-1.1,1.1H70.6c-1.4,0-2.7-0.5-3.8-1.4c-0.4-0.4-1-0.6-1.6-0.6
				h-2.9V40.2h2.9c0.6,0,1.1-0.2,1.6-0.6l0.3-0.2c0.1-0.1,0.4-0.3,0.6-0.5c0.8-0.6,2.1-1.6,3.3-2.8c1.4-1.4,2.3-3.1,2.8-5l1-3.7
				c0-0.2,0.2-0.3,0.4-0.2c1.5,0.4,2.3,1.9,1.9,3.3l-1.4,5.3c-0.1,0.3-0.1,0.6,0,0.9h-0.9c-0.4,0-0.8,0.3-0.8,0.8s0.3,0.8,0.8,0.8
				h10.7c0.6,0,1.1,0.5,1.1,1.1V39.7z"/>
			<path fill="#929497" d="M58.8,52.6c0.4,0,0.8-0.3,0.8-0.8v-0.8c0-0.4-0.3-0.8-0.8-0.8c-0.4,0-0.8,0.3-0.8,0.8v0.8
				C58,52.3,58.4,52.6,58.8,52.6z"/>
			<path fill="#929497" d="M67.5,41.2c-0.4,0-0.8,0.3-0.8,0.8v3.6c0,0.4,0.3,0.8,0.8,0.8c0.4,0,0.8-0.3,0.8-0.8v-3.6
				C68.3,41.5,67.9,41.2,67.5,41.2z"/>
			<path fill="#929497" d="M67.5,47.8c-0.4,0-0.8,0.3-0.8,0.8v0.8c0,0.4,0.3,0.8,0.8,0.8c0.4,0,0.8-0.3,0.8-0.8v-0.8
				C68.3,48.1,67.9,47.8,67.5,47.8z"/>
		</g>
	</g>
</g>
</svg>
