<?xml version="1.0" encoding="utf-8"?>
<!-- Generator: Adobe Illustrator 18.0.0, SVG Export Plug-In . SVG Version: 6.00 Build 0)  -->
<!DOCTYPE svg PUBLIC "-//W3C//DTD SVG 1.1//EN" "http://www.w3.org/Graphics/SVG/1.1/DTD/svg11.dtd">
<svg version="1.1" id="Layer_1" xmlns="http://www.w3.org/2000/svg" xmlns:xlink="http://www.w3.org/1999/xlink" x="0px" y="0px"
	 viewBox="0 0 134.5 85" enable-background="new 0 0 134.5 85" xml:space="preserve">
<g>
	<path fill="#929497" d="M82.2,30.1c-3.4-3.6-8.1-5.9-13.3-6l-0.4,0c-0.1,0-0.2,0-0.3,0s-0.2,0-0.3,0l-0.4,0
		c-5.2,0.2-9.9,2.5-13.3,6c0,0,0,0,0,0c0,0,0,0,0,0c-3.2,3.4-5.2,8-5.2,13.1c0,4.9,1.8,9.3,4.8,12.7c0,0,0,0,0,0c0,0,0,0,0,0
		c3.4,3.8,8.2,6.2,13.6,6.4l0.4,0c0.1,0,0.2,0,0.3,0s0.2,0,0.3,0l0.4,0h0c5.4-0.2,10.3-2.6,13.6-6.4c0,0,0,0,0,0c0,0,0,0,0,0
		c3-3.4,4.8-7.8,4.8-12.7C87.4,38.1,85.4,33.5,82.2,30.1C82.2,30.1,82.2,30.1,82.2,30.1z M65.9,25.5c-2.2,2.1-3.9,4.5-5.2,7.2
		c-1.7-0.6-3.3-1.4-4.8-2.3C58.6,27.7,62.1,26,65.9,25.5z M54.9,31.3c1.6,1.1,3.4,1.9,5.2,2.6c-1.1,2.7-1.7,5.6-1.8,8.7h-7.9
		C50.6,38.2,52.3,34.3,54.9,31.3z M54.6,54.7c-2.5-2.9-4-6.7-4.2-10.8h7.9c0.1,2.8,0.6,5.5,1.6,8.1C58.1,52.6,56.3,53.5,54.6,54.7z
		 M55.5,55.6c1.6-1,3.2-1.9,5-2.5c1.3,2.9,3.1,5.5,5.5,7.7C61.9,60.3,58.2,58.4,55.5,55.6z M67.6,60.6c-2.5-2.2-4.5-4.9-5.9-7.9
		c1.9-0.6,3.9-0.9,5.9-0.9V60.6z M67.6,50.5c-2.2,0.1-4.3,0.4-6.4,1c-0.9-2.4-1.5-5-1.5-7.7h7.9V50.5z M67.6,42.5h-7.9
		c0.1-2.9,0.7-5.7,1.8-8.2c2,0.6,4,0.9,6.1,0.9V42.5z M67.6,33.9c-1.9-0.1-3.8-0.3-5.6-0.8c1.3-2.8,3.2-5.2,5.6-7.3V33.9z
		 M80.6,30.3c-1.5,1-3.1,1.7-4.8,2.3c-1.3-2.7-3-5.1-5.2-7.2C74.5,26,77.9,27.7,80.6,30.3z M68.9,25.8c2.4,2.1,4.3,4.5,5.6,7.3
		c-1.8,0.5-3.7,0.8-5.6,0.8V25.8z M68.9,35.2c2.1-0.1,4.2-0.4,6.2-0.9c1.1,2.6,1.7,5.4,1.8,8.2h-7.9V35.2z M68.9,43.8h7.9
		c-0.1,2.7-0.6,5.2-1.5,7.7c-2.1-0.6-4.2-1-6.4-1V43.8z M68.9,60.6v-8.8c2,0.1,4,0.4,5.9,0.9C73.4,55.7,71.4,58.4,68.9,60.6z
		 M70.6,60.9c2.3-2.2,4.2-4.8,5.5-7.7c1.7,0.6,3.4,1.5,5,2.5C78.3,58.4,74.6,60.3,70.6,60.9z M81.9,54.7c-1.7-1.1-3.5-2-5.4-2.7
		c1-2.6,1.5-5.3,1.6-8.1h7.9C85.9,48,84.4,51.7,81.9,54.7z M78.1,42.5c-0.1-3-0.7-5.9-1.8-8.7c1.8-0.6,3.6-1.5,5.2-2.6
		c2.7,3,4.4,6.9,4.5,11.2H78.1z"/>
	<path fill="#929497" d="M97.8,36.2h-4.2L93.2,35c-0.4-1.2-0.9-2.4-1.5-3.6l-0.6-1.1l3-3c0.4-0.4,0.7-1,0.7-1.7
		c0-0.6-0.2-1.2-0.7-1.7l-6.6-6.6c-0.4-0.4-1-0.7-1.7-0.7c-0.6,0-1.2,0.2-1.7,0.7l-3,3l-1.1-0.6c-1.2-0.6-2.4-1.1-3.6-1.5l-1.2-0.4
		v-4.2c0-1.3-1.1-2.4-2.4-2.4h-4.6h-4.6c-1.3,0-2.4,1.1-2.4,2.4v4.2L60,18.2c-1.2,0.4-2.4,0.9-3.6,1.5l-1.1,0.6l-3-3
		c-0.4-0.4-1-0.7-1.7-0.7c-0.6,0-1.2,0.2-1.7,0.7l-6.6,6.6c-0.9,0.9-0.9,2.4,0,3.3l3,3l-0.6,1.1c-0.6,1.2-1.1,2.4-1.5,3.6l-0.4,1.2
		h-4.2c-1.3,0-2.4,1.1-2.4,2.4v9.3c0,1.3,1.1,2.4,2.4,2.4h4.2l0.4,1.2c0.4,1.2,0.9,2.4,1.5,3.6l0.6,1.1l-3,3c-0.9,0.9-0.9,2.4,0,3.3
		l6.6,6.6c0.4,0.4,1,0.7,1.7,0.7c0.6,0,1.2-0.2,1.7-0.7l3-3l1.1,0.6c1.2,0.6,2.4,1.1,3.6,1.5l1.2,0.4v4.2c0,1.3,1.1,2.4,2.4,2.4h4.6
		h4.6c1.3,0,2.4-1.1,2.4-2.4v-4.2l1.2-0.4c1.2-0.4,2.4-0.9,3.6-1.5l1.1-0.6l3,3c0.4,0.4,1,0.7,1.7,0.7c0.6,0,1.2-0.2,1.7-0.7
		l6.6-6.6c0.9-0.9,0.9-2.4,0-3.3l-3-3l0.6-1.1c0.6-1.2,1.1-2.4,1.5-3.6l0.4-1.2h4.2c1.3,0,2.4-1.1,2.4-2.4v-9.3
		C100.2,37.2,99.1,36.2,97.8,36.2z M68.3,64.6c-11.8,0-21.4-9.6-21.4-21.4c0-11.8,9.6-21.4,21.4-21.4c11.8,0,21.4,9.6,21.4,21.4
		C89.6,55,80,64.6,68.3,64.6z"/>
</g>
</svg>
