<?xml version="1.0" encoding="utf-8"?>
<!-- Generator: Adobe Illustrator 18.0.0, SVG Export Plug-In . SVG Version: 6.00 Build 0)  -->
<!DOCTYPE svg PUBLIC "-//W3C//DTD SVG 1.1//EN" "http://www.w3.org/Graphics/SVG/1.1/DTD/svg11.dtd">
<svg version="1.1" id="Layer_1" xmlns="http://www.w3.org/2000/svg" xmlns:xlink="http://www.w3.org/1999/xlink" x="0px" y="0px"
	 viewBox="0 0 134.5 85" enable-background="new 0 0 134.5 85" xml:space="preserve">
<g>
	<circle fill="#929497" cx="33.7" cy="61.7" r="1.3"/>
	<path fill="#929497" d="M87.2,51.5c-1.1-2.5-4.1-3.7-6.6-2.6c0,0,0,0,0,0l-8.4,3.9c-0.7,0.3-0.9,1.1-0.6,1.7
		c0.3,0.7,1.1,0.9,1.7,0.6l8.4-3.9c1.2-0.5,2.7,0,3.2,1.3c0.3,0.6,0.3,1.3,0,1.9c-0.2,0.6-0.7,1.1-1.3,1.4l-17.1,7.6
		c-2.7,1.2-5.8,1.1-8.4-0.2L51.7,60c-3.3-1.7-7.2-1.8-10.6-0.2l-0.1,0l-4.7-10.6l6.5-2.9c3.1-1.4,6.6-1.5,9.7-0.3l12.6,4.6
		c1.1,0.4,1.8,1.7,1.4,2.8c-0.4,1.2-1.7,1.8-2.9,1.4l-9.8-3.3c-0.7-0.2-1.4,0.1-1.6,0.8c-0.2,0.7,0.1,1.4,0.8,1.6l9.8,3.3
		c0.5,0.2,1,0.3,1.5,0.3c2,0,3.9-1.3,4.6-3.3c0.8-2.5-0.5-5.2-2.9-6.1l-12.6-4.6c-3.8-1.4-8-1.3-11.7,0.4l-6.5,2.9
		c-0.4-0.6-0.9-1-1.5-1.2c-0.8-0.3-1.7-0.3-2.5,0.1l-8.3,3.7c-0.5,0.2-0.8,0.7-0.8,1.2L22,73.1c0,0.5,0.2,0.9,0.6,1.1
		c0.2,0.1,0.4,0.2,0.7,0.2c0.2,0,0.4,0,0.6-0.1L40.2,66c0.8-0.4,1.4-1,1.7-1.8c0.3-0.7,0.3-1.4,0.1-2l0.1-0.1
		c2.7-1.2,5.8-1.1,8.4,0.2l6.3,3.1c3.3,1.7,7.2,1.8,10.6,0.2l17.1-7.6C87.2,57,88.3,54,87.2,51.5z M39.5,63.3
		c-0.1,0.2-0.2,0.3-0.4,0.4c0,0-14.5,7.3-14.5,7.3l0-5.6l3.8-1.8c0.6-0.3,0.9-1.1,0.6-1.7c-0.3-0.6-1.1-0.9-1.7-0.6l-2.6,1.3l0-11.1
		l7.6-3.3c0.2-0.1,0.3-0.1,0.5,0c0.2,0.1,0.3,0.2,0.4,0.4l6.4,14.4C39.5,62.9,39.5,63.1,39.5,63.3z"/>
	<path fill="#929497" d="M71.2,35.5h-2.6c-0.8,0-1.4-0.6-1.4-1.4c0-0.7-0.6-1.3-1.3-1.3c-0.7,0-1.3,0.6-1.3,1.3c0,2.2,1.8,4,4,4h0.1
		v1.6c0,0.7,0.6,1.3,1.3,1.3c0.7,0,1.3-0.6,1.3-1.3v-1.6c2.3-0.1,4.1-1.9,4.1-4.2v-1.4c0-2.3-1.9-4.2-4.2-4.2h-0.9h-0.6h-0.9
		c-0.9,0-1.6-0.7-1.6-1.6v-1.4c0-0.9,0.7-1.6,1.6-1.6h2.6c0.8,0,1.4,0.6,1.4,1.4c0,0.7,0.6,1.3,1.3,1.3c0.7,0,1.3-0.6,1.3-1.3
		c0-2.2-1.8-4-4-4h-0.1v-1.6c0-0.7-0.6-1.3-1.3-1.3c-0.7,0-1.3,0.6-1.3,1.3V21c-2.3,0.1-4.1,1.9-4.1,4.2v1.4c0,2.3,1.9,4.2,4.2,4.2
		h0.9h0.6h0.9c0.9,0,1.6,0.7,1.6,1.6v1.4C72.8,34.7,72.1,35.5,71.2,35.5z"/>
	<path fill="#929497" d="M70,47.2c9.7,0,17.6-7.9,17.6-17.6C87.6,19.9,79.7,12,70,12s-17.6,7.9-17.6,17.6S60.3,47.2,70,47.2z
		 M70,14.6c8.3,0,15,6.7,15,15c0,8.3-6.7,15-15,15s-15-6.7-15-15C55,21.3,61.7,14.6,70,14.6z"/>
	<g>
		<path fill="#A6A8AC" d="M105.1,13.1c-5.2,0-9.4,4.2-9.4,9.4c0,5.2,4.2,9.4,9.4,9.4c5.2,0,9.4-4.2,9.4-9.4
			C114.5,17.3,110.3,13.1,105.1,13.1L105.1,13.1z M105.1,31.1c-4.8,0-8.7-3.9-8.7-8.7c0-4.8,3.9-8.7,8.7-8.7c4.8,0,8.7,3.9,8.7,8.7
			C113.8,27.2,109.9,31.1,105.1,31.1L105.1,31.1z M105.1,31.1"/>
		<path fill="#A6A8AC" d="M108.6,19c-0.1-0.1-0.4-0.1-0.5,0l-3,3l-3-3c-0.1-0.1-0.4-0.1-0.5,0c-0.1,0.1-0.1,0.4,0,0.5l3,3l-3,3
			c-0.1,0.1-0.1,0.4,0,0.5c0.1,0.1,0.2,0.1,0.3,0.1c0.1,0,0.2,0,0.3-0.1l3-3l3,3c0.1,0.1,0.2,0.1,0.3,0.1c0.1,0,0.2,0,0.3-0.1
			c0.1-0.1,0.1-0.4,0-0.5l-3-3l3-3C108.8,19.3,108.8,19.1,108.6,19L108.6,19z M108.6,19"/>
	</g>
</g>
</svg>
