<?xml version="1.0" encoding="utf-8"?>
<!-- Generator: Adobe Illustrator 18.0.0, SVG Export Plug-In . SVG Version: 6.00 Build 0)  -->
<!DOCTYPE svg PUBLIC "-//W3C//DTD SVG 1.1//EN" "http://www.w3.org/Graphics/SVG/1.1/DTD/svg11.dtd">
<svg version="1.1" id="Layer_1" xmlns="http://www.w3.org/2000/svg" xmlns:xlink="http://www.w3.org/1999/xlink" x="0px" y="0px"
	 viewBox="0 0 134.5 85" enable-background="new 0 0 134.5 85" xml:space="preserve">
<g>
	<g>
		<path fill="#929497" stroke="#A6A8AC" stroke-width="0.8" d="M90.2,55.9c-2.2,0-3.9,1.8-3.9,3.9c0,2.2,1.8,3.9,3.9,3.9
			c2.2,0,3.9-1.8,3.9-3.9C94.1,57.6,92.4,55.9,90.2,55.9L90.2,55.9z M90.2,62.4c-1.4,0-2.6-1.2-2.6-2.6c0-1.4,1.2-2.6,2.6-2.6
			c1.4,0,2.6,1.2,2.6,2.6C92.8,61.2,91.6,62.4,90.2,62.4L90.2,62.4z M90.2,62.4"/>
		<path fill="#929497" stroke="#A6A8AC" stroke-width="0.8" d="M80.6,55.9c-2.2,0-3.9,1.8-3.9,3.9c0,2.2,1.8,3.9,3.9,3.9
			c2.2,0,3.9-1.8,3.9-3.9C84.5,57.6,82.7,55.9,80.6,55.9L80.6,55.9z M80.6,62.4c-1.4,0-2.6-1.2-2.6-2.6c0-1.4,1.2-2.6,2.6-2.6
			c1.4,0,2.6,1.2,2.6,2.6C83.2,61.2,82,62.4,80.6,62.4L80.6,62.4z M80.6,62.4"/>
		<path fill="#929497" stroke="#A6A8AC" stroke-width="0.8" d="M70.9,55.9c-2.2,0-3.9,1.8-3.9,3.9c0,2.2,1.8,3.9,3.9,3.9
			c2.2,0,3.9-1.8,3.9-3.9C74.8,57.6,73.1,55.9,70.9,55.9L70.9,55.9z M70.9,62.4c-1.4,0-2.6-1.2-2.6-2.6c0-1.4,1.2-2.6,2.6-2.6
			c1.4,0,2.6,1.2,2.6,2.6C73.5,61.2,72.4,62.4,70.9,62.4L70.9,62.4z M70.9,62.4"/>
		<path fill="#929497" stroke="#A6A8AC" stroke-width="0.8" d="M93.3,47.5L73.2,15.4c-0.4-0.6-0.9-0.9-1.5-1.1
			c-0.6-0.1-1.3,0-1.8,0.3c-1.1,0.7-1.5,2.3-0.7,3.4l18.5,29.4H36.6c-5.7,0-10.4,4.7-10.4,10.4v3.9c0,5.7,4.7,10.4,10.4,10.4h56
			c5.7,0,10.4-4.7,10.4-10.4v-3.9C103,52.3,98.7,47.8,93.3,47.5L93.3,47.5z M70.2,17.3c-0.3-0.5-0.2-1.2,0.3-1.6
			c0.3-0.2,0.6-0.2,0.8-0.2c0.3,0.1,0.5,0.2,0.7,0.5l19.6,31.3h-2.6L70.2,17.3z M92.6,70.8h-56c-2.9,0-5.5-1.4-7.2-3.5h7.1
			c0.4,0,0.7-0.3,0.7-0.7c0-0.4-0.3-0.7-0.7-0.7h-7.8c0,0-0.1,0-0.1,0c-0.7-1.3-1-2.7-1-4.2v-1.3h31.8c0.4,0,0.7-0.3,0.7-0.7
			c0-0.4-0.3-0.7-0.7-0.7H27.6v-1.3c0-0.9,0.1-1.7,0.4-2.5h14.3c0.4,0,0.7-0.3,0.7-0.7c0-0.4-0.3-0.7-0.7-0.7H28.4
			c1.4-3.1,4.6-5.2,8.2-5.2h56c5,0,9.1,4.1,9.1,9.1v1.5h-3c-0.4,0-0.7,0.3-0.7,0.7c0,0.4,0.3,0.7,0.7,0.7h3v1.1
			C101.7,66.7,97.6,70.8,92.6,70.8L92.6,70.8z M92.6,70.8"/>
	</g>
	<g>
		<path fill="#A6A8AC" d="M102.1,14.8c-5.1,0-9.2,4.1-9.2,9.2s4.1,9.2,9.2,9.2c5.1,0,9.2-4.1,9.2-9.2S107.1,14.8,102.1,14.8
			L102.1,14.8z M102.1,32.4c-4.7,0-8.5-3.8-8.5-8.5c0-4.7,3.8-8.5,8.5-8.5c4.7,0,8.5,3.8,8.5,8.5C110.5,28.6,106.7,32.4,102.1,32.4
			L102.1,32.4z M102.1,32.4"/>
		<path fill="#A6A8AC" d="M106.4,20.2l-5.4,6.1l-3.3-2.6c-0.2-0.1-0.4-0.1-0.5,0.1c-0.1,0.2-0.1,0.4,0.1,0.5l3.5,2.8
			c0.1,0.1,0.1,0.1,0.2,0.1c0.1,0,0.2,0,0.3-0.1l5.6-6.3c0.1-0.1,0.1-0.4,0-0.5C106.8,20,106.5,20.1,106.4,20.2L106.4,20.2z
			 M106.4,20.2"/>
	</g>
</g>
</svg>
