<?xml version="1.0" encoding="utf-8"?>
<!-- Generator: Adobe Illustrator 18.0.0, SVG Export Plug-In . SVG Version: 6.00 Build 0)  -->
<!DOCTYPE svg PUBLIC "-//W3C//DTD SVG 1.1//EN" "http://www.w3.org/Graphics/SVG/1.1/DTD/svg11.dtd">
<svg version="1.1" id="Layer_1" xmlns="http://www.w3.org/2000/svg" xmlns:xlink="http://www.w3.org/1999/xlink" x="0px" y="0px"
	 viewBox="0 0 35 40" enable-background="new 0 0 35 40" xml:space="preserve">
<g>
	<g>
		<g>
			<g>
				<path fill="#ED3B27" d="M6.7,11.1c1.5-6,7.5-9.6,13.5-8.2c6,1.5,9.6,7.5,8.2,13.5c-1.5,6-7.5,9.6-13.5,8.2
					C8.8,23.1,5.2,17.1,6.7,11.1"/>
			</g>
			<path fill="#FED208" d="M18.2,13.4l-0.5,0.6l-0.8-0.3l0.4,0.7l-0.5,0.6l0.8-0.2l0.4,0.7l0.1-0.8l0.8-0.2l-0.8-0.3L18.2,13.4z
				 M21.2,11.7l-0.8,0l-0.3-0.8l-0.3,0.8l-0.8,0l0.7,0.5L19.5,13l0.7-0.5l0.7,0.5l-0.3-0.8L21.2,11.7z M19.9,8.7L20,9.5l0.4-0.7
				l0.8,0.1l-0.6-0.6L21,7.6L20.3,8l-0.6-0.6l0.1,0.8l-0.7,0.4L19.9,8.7z M18.2,5l-0.5,0.6l-0.8-0.3L17.4,6l-0.5,0.6l0.8-0.2
				l0.4,0.7l0.1-0.8l0.8-0.2l-0.8-0.3L18.2,5z M12.5,8.6l-0.8-2.4L11,8.6H8.5l2,1.5l-0.8,2.4l2-1.5l2,1.5L13,10l2-1.5H12.5z"/>
		</g>
	</g>
	<g>
		<path fill="#010101" d="M13.2,30.2c0-0.2,0.1-0.2,0.3-0.2c0.2,0,0.3,0.1,0.3,0.2v1.2h2.3c0.5,0,0.7,0.2,0.7,0.7v2
			c0,0.5-0.2,0.7-0.7,0.7h-2.3v2.3c0,0.2-0.1,0.2-0.3,0.2c-0.2,0-0.3-0.1-0.3-0.2v-2.3H11c-0.5,0-0.7-0.2-0.7-0.7v-2
			c0-0.5,0.2-0.7,0.7-0.7h2.2V30.2z M11.3,32c-0.3,0-0.4,0.1-0.4,0.3V34c0,0.2,0.1,0.3,0.4,0.3h1.9V32H11.3z M15.9,34.3
			c0.3,0,0.4-0.1,0.4-0.3v-1.7c0-0.2-0.1-0.3-0.4-0.3h-2v2.3H15.9z"/>
		<path fill="#010101" d="M23.6,31.9c-0.3,1.1-0.9,2.2-1.7,3.1c0.2,0.1,0.3,0.2,0.4,0.4c0.7,0.5,1.7,1,2.5,1.2
			c0.2,0,0.2,0.2,0.2,0.3c0,0,0,0.1,0,0.1c-0.1,0.2-0.2,0.2-0.3,0.2c-0.1,0-0.1,0-0.2,0c-1-0.3-1.9-0.8-2.7-1.4
			c-0.2-0.1-0.3-0.2-0.5-0.4c-0.2,0.1-0.3,0.3-0.5,0.4c-0.9,0.7-1.7,1.1-2.7,1.4c0,0-0.1,0-0.1,0c-0.1,0-0.3-0.1-0.3-0.2
			c0,0,0-0.1,0-0.1c0-0.1,0.1-0.2,0.2-0.3c0.9-0.3,1.8-0.7,2.7-1.4c0.1-0.1,0.2-0.1,0.2-0.2c-0.8-0.9-1.4-1.9-1.7-3.1H18
			c-0.1,0-0.2-0.1-0.2-0.3c0-0.2,0.1-0.3,0.2-0.3h3v-1c0-0.2,0.1-0.3,0.3-0.3c0.2,0,0.3,0.1,0.3,0.3v1h3.2c0.1,0,0.2,0.1,0.2,0.3
			c0,0.2-0.1,0.3-0.2,0.3H23.6z M19.9,31.9c0.3,1,0.8,1.9,1.5,2.6c0.7-0.8,1.2-1.7,1.5-2.6H19.9z"/>
	</g>
</g>
</svg>
