<?xml version="1.0" encoding="utf-8"?>
<!-- Generator: Adobe Illustrator 18.0.0, SVG Export Plug-In . SVG Version: 6.00 Build 0)  -->
<!DOCTYPE svg PUBLIC "-//W3C//DTD SVG 1.1//EN" "http://www.w3.org/Graphics/SVG/1.1/DTD/svg11.dtd">
<svg version="1.1" id="Layer_1" xmlns="http://www.w3.org/2000/svg" xmlns:xlink="http://www.w3.org/1999/xlink" x="0px" y="0px"
	 viewBox="0 0 35 40" enable-background="new 0 0 35 40" xml:space="preserve">
<g>
	<g>
		<g>
			<g>
				<defs>
					<path id="SVGID_1_" d="M17.5,2c-5,0-9.6,3.4-10.8,8.5c-1.5,6,2.2,12,8.2,13.5c6,1.5,12-2.2,13.5-8.2c1.5-6-2.2-12-8.2-13.5
						C19.3,2.1,18.4,2,17.5,2L17.5,2"/>
				</defs>
				<clipPath id="SVGID_2_">
					<use xlink:href="#SVGID_1_"  overflow="visible"/>
				</clipPath>
				
					<radialGradient id="SVGID_3_" cx="-1970.8295" cy="2008.2882" r="5.654899e-02" gradientTransform="matrix(197.4678 0 0 -197.4678 389192.8438 396585.4375)" gradientUnits="userSpaceOnUse">
					<stop  offset="0" style="stop-color:#FFFFFF"/>
					<stop  offset="0.7809" style="stop-color:#FFFFFF"/>
					<stop  offset="0.821" style="stop-color:#F5F3F2"/>
					<stop  offset="0.8811" style="stop-color:#E3DFDA"/>
					<stop  offset="0.9535" style="stop-color:#C8C1B9"/>
					<stop  offset="1" style="stop-color:#B5ACA2"/>
				</radialGradient>
				<rect x="5.2" y="2" clip-path="url(#SVGID_2_)" fill="url(#SVGID_3_)" width="24.6" height="23.5"/>
			</g>
			<g>
				<path fill="#263D8A" d="M6.7,10.5c1.5-6,7.5-9.6,13.5-8.2c6,1.5,9.6,7.5,8.2,13.5c-1.5,6-7.5,9.6-13.5,8.2
					C8.8,22.5,5.2,16.5,6.7,10.5"/>
			</g>
			<g>
				<path fill="#EFEAE7" d="M25.4,5.3l-4.5,3V2.6c-0.2-0.1-0.5-0.2-0.7-0.2C18.1,1.8,16,1.9,14,2.6v5.7l-4.5-3c-1,1-1.9,2.3-2.4,3.7
					l1.2,0.8H6.9c-0.1,0.2-0.1,0.5-0.2,0.7c-0.5,2.1-0.4,4.3,0.2,6.2h1.5l-1.2,0.8c0.6,1.4,1.4,2.6,2.5,3.7l4.4-2.9v5.6
					c0.3,0.1,0.5,0.2,0.8,0.2c2.1,0.5,4.2,0.4,6.1-0.2v-5.6l4.4,2.9c1-1,1.9-2.3,2.5-3.7l-1.2-0.8h1.5c0.1-0.3,0.2-0.5,0.2-0.8
					c0.5-2.1,0.4-4.2-0.2-6.1h-1.5L27.8,9C27.3,7.6,26.5,6.4,25.4,5.3"/>
			</g>
			<g>
				<path fill="#EC2227" d="M12.3,9.8L8.2,7C7.9,7.5,7.7,7.9,7.4,8.4l2.2,1.4H12.3z M26.8,7c-0.3-0.4-0.6-0.8-0.9-1.2l-5,3.3v0.7
					h1.7L26.8,7z M8.2,19.4c0.3,0.4,0.6,0.8,0.9,1.2l4.9-3.3v-0.6h-1.8L8.2,19.4z M28.5,11.2h-9v-9c-1.4-0.2-2.7-0.2-4,0v9h-9
					c-0.2,1.4-0.2,2.7,0,4h8.9v8.9c1.4,0.3,2.7,0.2,4,0v-8.9h9C28.7,13.9,28.7,12.5,28.5,11.2 M22.7,16.7l4.1,2.7
					c0.3-0.4,0.5-0.9,0.8-1.3l-2.1-1.4L22.7,16.7z"/>
			</g>
			<g>
				<path fill="#283B85" d="M20.9,3.7L20.9,3.7v0.7C21,4.3,21,4.2,21,4.1C21,3.9,21,3.8,20.9,3.7"/>
			</g>
		</g>
	</g>
	<g>
		<path fill="#010101" d="M5.9,36.1v-5.6h3.3v0.6H6.5V33h2.4v0.6H6.5v2h2.7v0.6H5.9z"/>
		<path fill="#010101" d="M12.7,36.1v-2.3c0-0.8-0.2-1.2-0.9-1.2c-0.4,0-0.9,0.3-1.1,0.7v2.8h-0.6v-4h0.6v0.5
			c0.3-0.4,0.7-0.6,1.2-0.6c0.9,0,1.4,0.6,1.4,1.6v2.4H12.7z"/>
		<path fill="#010101" d="M16.7,35.7c-0.2,0.3-0.6,0.5-1.1,0.5c-0.9,0-1.5-0.7-1.5-1.7v-0.8c0-1,0.5-1.7,1.5-1.7
			c0.5,0,0.9,0.2,1.1,0.5v-0.4h0.6v4.1c0,1-0.5,1.8-1.5,1.8c-0.7,0-1.2-0.4-1.5-1l0.6-0.1c0.2,0.4,0.5,0.6,0.9,0.6
			c0.6,0,0.9-0.4,0.9-1.3V35.7z M14.7,34.4c0,0.8,0.3,1.3,1,1.3c0.4,0,0.8-0.3,1-0.6v-1.8c-0.2-0.4-0.5-0.6-1-0.6
			c-0.7,0-1,0.4-1,1.3V34.4z"/>
		<path fill="#010101" d="M19.7,36.1h-0.2c-0.8,0-1.1-0.4-1.1-1.2v-4.5H19v4.5c0,0.4,0.2,0.7,0.6,0.7h0.1V36.1z"/>
		<path fill="#010101" d="M20.5,30.4h0.6v0.7h-0.6V30.4z M20.5,32.1h0.6v4h-0.6V32.1z"/>
		<path fill="#010101" d="M23.6,32c0.8,0,1.4,0.4,1.6,1.1l-0.6,0.1c-0.1-0.4-0.4-0.7-0.9-0.7s-0.8,0.2-0.8,0.6
			c0,0.4,0.3,0.6,0.8,0.6l0.4,0.1c0.9,0.1,1.2,0.5,1.2,1.2c0,0.7-0.5,1.2-1.4,1.2c-0.8,0-1.5-0.4-1.7-1.2l0.6-0.1
			c0.2,0.5,0.6,0.8,1.1,0.8c0.5,0,0.8-0.3,0.8-0.6c0-0.4-0.3-0.6-0.8-0.7l-0.4-0.1c-0.9-0.2-1.2-0.6-1.2-1.2
			C22.2,32.5,22.7,32,23.6,32z"/>
		<path fill="#010101" d="M28.7,36.1v-2.3c0-0.8-0.2-1.2-0.9-1.2c-0.4,0-0.9,0.3-1.1,0.7v2.8h-0.6v-5.7h0.6v2.2
			c0.3-0.4,0.7-0.6,1.2-0.6c0.9,0,1.4,0.6,1.4,1.6v2.4H28.7z"/>
	</g>
</g>
</svg>
