<?xml version="1.0" encoding="utf-8"?>
<!-- Generator: Adobe Illustrator 18.0.0, SVG Export Plug-In . SVG Version: 6.00 Build 0)  -->
<!DOCTYPE svg PUBLIC "-//W3C//DTD SVG 1.1//EN" "http://www.w3.org/Graphics/SVG/1.1/DTD/svg11.dtd">
<svg version="1.1" id="Layer_1" xmlns="http://www.w3.org/2000/svg" xmlns:xlink="http://www.w3.org/1999/xlink" x="0px" y="0px"
	 viewBox="65 36 51 64" enable-background="new 65 36 51 64" xml:space="preserve">
<g id="Padlock">
	<g>
		<path fill="#929497" d="M103.2,63.8v-7.3c0-7.3-6-13.3-13.3-13.3s-13.3,6-13.3,13.3v7.3c-2.7,0-5,2.3-5,5v20c0,2.7,2.3,5,5,5h26.7
			c2.7,0,5-2.3,5-5v-20C108.2,66.1,105.9,63.8,103.2,63.8z M80.9,57c0-5.2,4-9.6,8.9-9.6c4.9,0,8.9,4.2,8.9,9.6v6.9H80.9V57z
			 M103.6,88c0,0.9-0.7,1.5-1.5,1.5H77.5c-0.9,0-1.5-0.7-1.5-1.5V69.6c0-0.9,0.7-1.5,1.5-1.5H102c0.9,0,1.5,0.7,1.5,1.5V88H103.6z
			 M91.5,77.7v-3.8c0-0.9-0.8-1.6-1.6-1.6c-0.9,0-1.6,0.8-1.6,1.6v3.8c-1.1,0.5-1.7,1.6-1.7,2.8c0,1.9,1.5,3.4,3.4,3.4
			s3.4-1.5,3.4-3.4C93.1,79.3,92.5,78.2,91.5,77.7z"/>
	</g>
</g>
</svg>
