<?xml version="1.0" encoding="utf-8"?>
<!-- Generator: Adobe Illustrator 18.0.0, SVG Export Plug-In . SVG Version: 6.00 Build 0)  -->
<!DOCTYPE svg PUBLIC "-//W3C//DTD SVG 1.1//EN" "http://www.w3.org/Graphics/SVG/1.1/DTD/svg11.dtd">
<svg version="1.1" id="Layer_1" xmlns="http://www.w3.org/2000/svg" xmlns:xlink="http://www.w3.org/1999/xlink" x="0px" y="0px"
	 viewBox="52 31 74 73" enable-background="new 52 31 74 73" xml:space="preserve">
<g>
	<g>
		<path fill="#929497" d="M71.7,50.4c2.6-2.6,5.6-4.1,9-5.3c2.4-0.8,5.1-1.2,7.7-1.1l0.3-1.2c0.1-0.8,0.5-1.2,1.3-1.3
			c0.4-0.1,1-0.1,1.5,0.1l5.3,5c0.5,0.2,0.8,1,0.4,1.5c0,0.5-0.3,1.1-0.9,1.2l-7,2.4c-0.5,0.3-1.2,0-1.5-0.4c-0.4-0.4-0.8-1-0.5-1.7
			l0.1-0.4c-4.6,0.2-8.9,2-12.3,5.1c-8.5,7.3-9.4,20.3-2.1,28.7c7.5,8.6,20.5,9.3,28.9,1.9c5.9-5,8.3-12.6,6.4-20.3
			c-0.3-1.4,0.5-2.8,2.1-3.2c1-0.1,1.9-0.1,2.6,0.5c0.1,0.1,0.1,0.1,0.1,0.1c0.1,0.4,0.4,0.8,0.4,1.3c2.3,9.2-0.7,19.1-8.1,25.5
			c-5.1,4.6-11.8,6.6-18.7,6.2c-6.8-0.4-13.1-3.6-17.5-8.6c-4.6-5.1-6.8-11.9-6.4-18.8C63.3,61.2,66.5,54.9,71.7,50.4L71.7,50.4z"/>
	</g>
	<g>
		<g>
			<path fill="#929497" d="M111.8,46.7l-1.1-0.8c-1.2-0.9-2.8-0.7-3.8,0.5L87.2,71l-6.4-4.9c-1.2-0.9-2.8-0.7-3.8,0.5l-0.8,1.1
				c-0.9,1.2-0.7,2.8,0.5,3.8l9.7,7.4c1.2,0.9,2.8,0.7,3.8-0.5l22.2-27.8C113.2,49.3,113,47.6,111.8,46.7L111.8,46.7z"/>
		</g>
	</g>
</g>
</svg>
