<?xml version="1.0" encoding="utf-8"?>
<!-- Generator: Adobe Illustrator 18.0.0, SVG Export Plug-In . SVG Version: 6.00 Build 0)  -->
<!DOCTYPE svg PUBLIC "-//W3C//DTD SVG 1.1//EN" "http://www.w3.org/Graphics/SVG/1.1/DTD/svg11.dtd">
<svg version="1.1" id="Layer_1" xmlns="http://www.w3.org/2000/svg" xmlns:xlink="http://www.w3.org/1999/xlink" x="0px" y="0px"
	 viewBox="0 0 174.4 96.6" enable-background="new 0 0 174.4 96.6" xml:space="preserve">
<g>
	<path fill="#929497" d="M96.9,23.4h-8.5v-4.2c0-1.9-1.5-3.4-3.4-3.4c-1.9,0-3.4,1.5-3.4,3.4v4.2H66.5v-4.2c0-1.9-1.5-3.4-3.4-3.4
		c-1.9,0-3.4,1.5-3.4,3.4v4.2h-8.5c-1.4,0-2.5,1.1-2.5,2.5v36.8c0,1.4,1.1,2.5,2.5,2.5h45.7c1.4,0,2.5-1.1,2.5-2.5V26
		C99.5,24.6,98.3,23.4,96.9,23.4z M61,60.2h-7.2v-6.8H61V60.2z M61,50h-7.2v-5.1H61V50z M61,41.6h-7.2v-6.8H61V41.6z M72.4,60.2h-8
		v-6.8h8V60.2z M72.4,50h-8v-5.1h8V50z M72.4,41.6h-8v-6.8h8V41.6z M83.8,60.2h-8v-6.8h8V60.2z M83.8,50h-8v-5.1h8V50z M83.8,41.6
		h-8v-6.8h8V41.6z M94.4,60.2h-7.2v-6.8h7.2V60.2z M94.4,50h-7.2v-5.1h7.2V50z M94.4,41.6h-7.2v-6.8h7.2V41.6z"/>
	<path fill="#FFFFFF" d="M113.1,73.8H79.3c-1.3,0-2.3-1-2.3-2.3V44.8c0-1.3,1-2.3,2.3-2.3h33.8c1.3,0,2.3,1,2.3,2.3v26.7
		C115.4,72.8,114.4,73.8,113.1,73.8z"/>
	<g>
		<path fill="#929497" d="M110.9,71.9c0.8,0,1.5-0.3,2.1-0.8l-10.1-10.1c-0.2,0.2-0.5,0.3-0.7,0.5c-0.8,0.6-1.4,1-1.8,1.3
			c-0.5,0.3-1.1,0.6-1.9,1c-0.8,0.3-1.5,0.5-2.2,0.5h0h0c-0.7,0-1.4-0.2-2.2-0.5c-0.8-0.3-1.4-0.6-1.9-1c-0.5-0.3-1.1-0.7-1.8-1.3
			c-0.2-0.2-0.4-0.3-0.7-0.5L79.7,71.1c0.6,0.5,1.3,0.8,2.1,0.8H110.9z"/>
		<path fill="#929497" d="M81,54.7c-0.8-0.5-1.4-1.1-2-1.7v15.3l8.9-8.9C86.1,58.2,83.8,56.6,81,54.7z"/>
		<path fill="#929497" d="M111.7,54.7c-2.7,1.8-5,3.4-6.9,4.7l8.9,8.9V53C113.1,53.6,112.5,54.2,111.7,54.7z"/>
		<path fill="#929497" d="M110.9,44.4H81.7c-1,0-1.8,0.3-2.3,1c-0.5,0.7-0.8,1.5-0.8,2.6c0,0.8,0.4,1.7,1.1,2.7
			c0.7,1,1.5,1.7,2.3,2.3c0.4,0.3,1.8,1.3,4.1,2.8c1.2,0.8,2.3,1.6,3.2,2.2c0.8,0.5,1.4,1,2,1.4c0.1,0,0.2,0.1,0.3,0.2
			c0.1,0.1,0.3,0.2,0.5,0.4c0.4,0.3,0.8,0.6,1.1,0.8c0.3,0.2,0.6,0.4,1,0.6c0.4,0.2,0.8,0.4,1.1,0.5c0.4,0.1,0.7,0.2,1,0.2h0h0
			c0.3,0,0.6-0.1,1-0.2c0.4-0.1,0.7-0.3,1.1-0.5c0.4-0.2,0.7-0.5,1-0.6c0.3-0.2,0.6-0.4,1.1-0.8c0.2-0.2,0.4-0.3,0.5-0.4
			c0.1-0.1,0.2-0.2,0.3-0.2c0.4-0.3,1.1-0.8,2-1.4c1.6-1.1,4.1-2.8,7.3-5c1-0.7,1.8-1.5,2.4-2.4c0.6-1,1-1.9,1-3
			c0-0.9-0.3-1.6-0.9-2.2C112.5,44.7,111.8,44.4,110.9,44.4z"/>
	</g>
</g>
</svg>
