<?xml version="1.0" encoding="utf-8"?>
<!-- Generator: Adobe Illustrator 18.0.0, SVG Export Plug-In . SVG Version: 6.00 Build 0)  -->
<!DOCTYPE svg PUBLIC "-//W3C//DTD SVG 1.1//EN" "http://www.w3.org/Graphics/SVG/1.1/DTD/svg11.dtd">
<svg version="1.1" id="Layer_1" xmlns="http://www.w3.org/2000/svg" xmlns:xlink="http://www.w3.org/1999/xlink" x="0px" y="0px"
	 viewBox="43 27 90 79" enable-background="new 43 27 90 79" xml:space="preserve">
<g>
	<path fill="#929497" d="M105.6,44.9h-9.3v-4.6c0-2.1-1.6-3.7-3.7-3.7s-3.7,1.6-3.7,3.7v4.6H72.4v-4.6c0-2.1-1.6-3.7-3.7-3.7
		S65,38.2,65,40.3v4.6h-9.3c-1.5,0-2.7,1.2-2.7,2.7v40.1c0,1.5,1.2,2.7,2.7,2.7h49.8c1.5,0,2.7-1.2,2.7-2.7v-40
		C108.4,46.2,107.1,44.9,105.6,44.9z M66.5,85h-7.8v-7.4h7.8V85z M66.5,73.9h-7.8v-5.6h7.8V73.9z M66.5,64.7h-7.8v-7.4h7.8V64.7z
		 M78.9,85h-8.7v-7.4h8.7V85z M78.9,73.9h-8.7v-5.6h8.7V73.9z M78.9,64.7h-8.7v-7.4h8.7V64.7z M91.3,85h-8.7v-7.4h8.7V85z
		 M91.3,73.9h-8.7v-5.6h8.7V73.9z M91.3,64.7h-8.7v-7.4h8.7V64.7z M102.8,85H95v-7.4h7.8V85z M102.8,73.9H95v-5.6h7.8V73.9z
		 M102.8,64.7H95v-7.4h7.8V64.7z"/>
	<path fill="#FFFFFF" d="M123.2,99.8H86.4c-1.4,0-2.5-1.1-2.5-2.5V68.2c0-1.4,1.1-2.5,2.5-2.5h36.8c1.4,0,2.5,1.1,2.5,2.5v29.1
		C125.7,98.7,124.6,99.8,123.2,99.8z"/>
	<g>
		<path fill="#929497" d="M120.8,97.7c0.9,0,1.6-0.3,2.3-0.9l-11-11c-0.2,0.2-0.5,0.3-0.8,0.5c-0.9,0.7-1.5,1.1-2,1.4
			c-0.5,0.3-1.2,0.7-2.1,1.1c-0.9,0.3-1.6,0.5-2.4,0.5l0,0l0,0c-0.8,0-1.5-0.2-2.4-0.5s-1.5-0.7-2.1-1.1c-0.5-0.3-1.2-0.8-2-1.4
			c-0.2-0.2-0.4-0.3-0.8-0.5l-10.9,11c0.7,0.5,1.4,0.9,2.3,0.9H120.8z"/>
		<path fill="#929497" d="M88.2,79c-0.9-0.5-1.5-1.2-2.2-1.9v16.7l9.7-9.7C93.8,82.8,91.3,81,88.2,79z"/>
		<path fill="#929497" d="M121.7,79c-2.9,2-5.4,3.7-7.5,5.1l9.7,9.7V77.1C123.2,77.8,122.6,78.4,121.7,79z"/>
		<path fill="#929497" d="M120.8,67.8H89c-1.1,0-2,0.3-2.5,1.1c-0.5,0.8-0.9,1.6-0.9,2.8c0,0.9,0.4,1.9,1.2,2.9
			c0.8,1.1,1.6,1.9,2.5,2.5c0.4,0.3,2,1.4,4.5,3.1c1.3,0.9,2.5,1.7,3.5,2.4c0.9,0.5,1.5,1.1,2.2,1.5c0.1,0,0.2,0.1,0.3,0.2
			c0.1,0.1,0.3,0.2,0.5,0.4c0.4,0.3,0.9,0.7,1.2,0.9c0.3,0.2,0.7,0.4,1.1,0.7c0.4,0.2,0.9,0.4,1.2,0.5c0.4,0.1,0.8,0.2,1.1,0.2l0,0
			l0,0c0.3,0,0.7-0.1,1.1-0.2c0.4-0.1,0.8-0.3,1.2-0.5c0.4-0.2,0.8-0.5,1.1-0.7c0.3-0.2,0.7-0.4,1.2-0.9c0.2-0.2,0.4-0.3,0.5-0.4
			c0.1-0.1,0.2-0.2,0.3-0.2c0.4-0.3,1.2-0.9,2.2-1.5c1.7-1.2,4.5-3.1,8-5.4c1.1-0.8,2-1.6,2.6-2.6c0.7-1.1,1.1-2.1,1.1-3.3
			c0-1-0.3-1.7-1-2.4C122.6,68.1,121.8,67.8,120.8,67.8z"/>
	</g>
</g>
</svg>
