<?xml version="1.0" encoding="utf-8"?>
<!-- Generator: Adobe Illustrator 18.0.0, SVG Export Plug-In . SVG Version: 6.00 Build 0)  -->
<!DOCTYPE svg PUBLIC "-//W3C//DTD SVG 1.1//EN" "http://www.w3.org/Graphics/SVG/1.1/DTD/svg11.dtd">
<svg version="1.1" id="Layer_1" xmlns="http://www.w3.org/2000/svg" xmlns:xlink="http://www.w3.org/1999/xlink" x="0px" y="0px"
	 viewBox="51 42 78 54" enable-background="new 51 42 78 54" xml:space="preserve">
<g>
	<path fill="#929497" d="M97.8,87c-5.8,0-11.4,0.1-17.2,0c-4.8-0.1-7.5-3.2-8-7.6c-0.2-2.6,0.2-5,2.4-6.8c1.5-1.3,3.3-1.9,5.2-2.1
		c0.8-0.1,0.9-0.4,1-1c0.7-3.3,2-6.1,4.9-8c4.2-2.5,10.6-2.3,14.2,2.4c0.7,0.9,1.2,0.9,2.1,0.5c3.5-1.3,6.8-0.8,9.6,1.7
		c1.9,1.6,2.7,3.7,2.7,6.2c0,0.7,0.2,1,0.9,1.2c3.2,0.9,4.9,3.3,5,6.5c0,1.6-0.2,3.2-1.2,4.5c-1.1,1.6-2.5,2.4-4.5,2.4
		C109.3,87,103.6,87,97.8,87L97.8,87z"/>
	<path fill="#929497" d="M106.1,61.8c-1.5,0.3-2.9,0.5-4.5,0.9c-1-1.4-2.4-2.6-4.1-3.4c-6.3-3.1-15.7-0.3-18,8.6
		c-0.2,0.7-0.4,1-1.2,1.2c-4,1.1-7,3.4-7.8,7.6c-0.4,2.4-0.1,4.7,1,6.9c0.1,0.2,0.2,0.5,0.4,0.9c-0.3,0-0.5,0.1-0.8,0.1
		c-1.5,0-2.9,0-4.5,0c-4.2,0.1-8-3.7-8.3-7.3c-0.3-3.3,0.5-6.1,3.4-8.1c1-0.7,2.1-1.1,3.2-1.3c0.8-0.2,0.9-0.5,0.9-1.2
		c-0.1-3.1,1-5.8,3.2-8c2.9-2.9,7.4-3.7,11.2-2c0.8,0.3,1,0.2,1.4-0.4c2-3.2,4.8-5.1,8.5-5.9c5.9-1.2,12.6,2.4,14.8,8.1
		C105.5,59.5,105.8,60.7,106.1,61.8z"/>
</g>
</svg>
