<?xml version="1.0" encoding="utf-8"?>
<!-- Generator: Adobe Illustrator 18.0.0, SVG Export Plug-In . SVG Version: 6.00 Build 0)  -->
<!DOCTYPE svg PUBLIC "-//W3C//DTD SVG 1.1//EN" "http://www.w3.org/Graphics/SVG/1.1/DTD/svg11.dtd">
<svg version="1.1" id="Layer_1" xmlns="http://www.w3.org/2000/svg" xmlns:xlink="http://www.w3.org/1999/xlink" x="0px" y="0px"
	 viewBox="19 36.5 141 64" enable-background="new 19 36.5 141 64" xml:space="preserve">
<g>
	<path fill="#6C54A3" d="M71.8,80.8c1.9-3.7,3.1-7.8,3.1-12.1c0-14.4-11.8-25.9-26.1-25.9c-4.2,0-8.6,1.2-12.1,3.1l6.3,6.3
		c1.6-0.9,3.7-1,5.8-1c9.8,0,17.6,7.8,17.6,17.4c0,2.1-0.4,3.9-1,5.8l-3.1-3.1l-0.9,7l-0.9,7.2l7.2-0.9L75,84L71.8,80.8z"/>
	<path fill="#808080" d="M48.7,86.2c-9.5,0-17.4-7.8-17.4-17.4c0-2.7,0.7-5.1,1.6-7.4l3.5,3.5l0.9-7.2l0.9-7.2l-7.2,0.9l-7.2,0.8
		l3.1,3.1c-2.5,3.9-3.9,8.6-3.9,13.6c0,14.2,11.7,25.8,25.8,25.8c4.9,0,9.8-1.2,13.7-3.9l-6.2-6.2C54,85.7,51.6,86.2,48.7,86.2z"/>
	<g>
		<path fill="#808080" d="M105.9,77c2.6,2.4,6.5,4.7,10.1,4.7c2.3,0,5.2-1.3,5.2-4c0-3.2-4.4-3.7-8.7-5.3c-4.4-1.6-8.7-4.1-8.7-10.9
			c0-6.5,4.6-12.6,11.3-13.1v-6.8h5.2v6.8c3.5,0.3,7.1,1.3,10.1,3.3l-4.1,8.1c-2-1.6-4.5-2.7-7.1-2.7c-2.5,0-4.7,0.9-4.7,3.2
			c0,2.6,3.5,3.7,5.4,4.4c6.3,2.1,12.1,4.5,12.1,12.2c0,7.8-4.5,11.8-11.7,13.6v7h-5.2v-6.6c-2.5,0-4.8-0.5-7.2-1.4
			c-2.3-0.9-4.7-2-6.5-3.7L105.9,77z"/>
	</g>
	<g>
		<g>
			<g>
				<path fill="#929497" stroke="#FFFFFF" stroke-width="5.4722" stroke-miterlimit="10" d="M152.8,66.7l-0.8-0.7
					c-0.9-0.7-2.2-0.5-2.8,0.4L134.3,85l-4.9-3.7c-0.9-0.7-2.2-0.5-2.8,0.4l-0.7,0.8c-0.7,0.9-0.5,2.2,0.4,2.8l7.3,5.6
					c0.9,0.7,2.2,0.5,2.8-0.4l16.7-20.9C153.8,68.6,153.7,67.4,152.8,66.7L152.8,66.7z"/>
			</g>
		</g>
		<g>
			<g>
				<path fill="#6C54A3" d="M152.8,66.7l-0.8-0.7c-0.9-0.7-2.2-0.5-2.8,0.4L134.3,85l-4.9-3.7c-0.9-0.7-2.2-0.5-2.8,0.4l-0.7,0.8
					c-0.7,0.9-0.5,2.2,0.4,2.8l7.3,5.6c0.9,0.7,2.2,0.5,2.8-0.4l16.7-20.9C153.8,68.6,153.7,67.4,152.8,66.7L152.8,66.7z"/>
			</g>
		</g>
	</g>
</g>
</svg>
