<?xml version="1.0" encoding="utf-8"?>
<!-- Generator: Adobe Illustrator 18.0.0, SVG Export Plug-In . SVG Version: 6.00 Build 0)  -->
<!DOCTYPE svg PUBLIC "-//W3C//DTD SVG 1.1//EN" "http://www.w3.org/Graphics/SVG/1.1/DTD/svg11.dtd">
<svg version="1.1" id="Layer_1" xmlns="http://www.w3.org/2000/svg" xmlns:xlink="http://www.w3.org/1999/xlink" x="0px" y="0px"
	 viewBox="0 0 174.4 96.6" enable-background="new 0 0 174.4 96.6" xml:space="preserve">
<g>
	<path fill="#6C54A3" d="M65.9,56.4c1.7-3.4,2.8-7.2,2.8-11.1c0-13.2-10.8-23.8-24-23.8c-3.9,0-7.9,1.1-11.1,2.8l5.8,5.8
		c1.5-0.8,3.4-0.9,5.3-0.9c9,0,16.2,7.2,16.2,16c0,1.9-0.4,3.6-0.9,5.3l-2.8-2.8l-0.8,6.4l-0.8,6.6l6.6-0.8l6.6-0.6L65.9,56.4z"/>
	<path fill="#808080" d="M44.7,61.3c-8.7,0-16-7.2-16-16c0-2.5,0.6-4.7,1.5-6.8l3.2,3.2l0.8-6.6l0.8-6.6l-6.6,0.8L21.8,30l2.8,2.8
		c-2.3,3.6-3.6,7.9-3.6,12.5C21,58.3,31.7,69,44.7,69c4.5,0,9-1.1,12.6-3.6l-5.7-5.7C49.6,60.9,47.4,61.3,44.7,61.3z"/>
	<g>
		<path fill="#808080" d="M97.2,52.9c2.4,2.2,6,4.3,9.3,4.3c2.1,0,4.8-1.2,4.8-3.7c0-2.9-4-3.4-8-4.9c-4-1.5-8-3.8-8-10
			c0-6,4.2-11.6,10.4-12v-6.2h4.8v6.2c3.2,0.3,6.5,1.2,9.3,3l-3.8,7.4c-1.8-1.5-4.1-2.5-6.5-2.5c-2.3,0-4.3,0.8-4.3,2.9
			c0,2.4,3.2,3.4,5,4c5.8,1.9,11.1,4.1,11.1,11.2c0,7.2-4.1,10.8-10.7,12.5v6.4h-4.8v-6.1c-2.3,0-4.4-0.5-6.6-1.3
			c-2.1-0.8-4.3-1.8-6-3.4L97.2,52.9z"/>
	</g>
	<g>
		<g>
			<g>
				<path fill="#929497" stroke="#FFFFFF" stroke-width="5.4722" stroke-miterlimit="10" d="M140.3,43.4l-0.7-0.6
					c-0.8-0.6-2-0.5-2.6,0.4l-13.7,17l-4.5-3.4c-0.8-0.6-2-0.5-2.6,0.4l-0.6,0.7c-0.6,0.8-0.5,2,0.4,2.6l6.7,5.1
					c0.8,0.6,2,0.5,2.6-0.4L140.6,46C141.2,45.2,141.1,44.1,140.3,43.4L140.3,43.4z M140.3,43.4"/>
			</g>
		</g>
		<g>
			<g>
				<path fill="#6C54A3" d="M140.3,43.4l-0.7-0.6c-0.8-0.6-2-0.5-2.6,0.4l-13.7,17l-4.5-3.4c-0.8-0.6-2-0.5-2.6,0.4l-0.6,0.7
					c-0.6,0.8-0.5,2,0.4,2.6l6.7,5.1c0.8,0.6,2,0.5,2.6-0.4L140.6,46C141.2,45.2,141.1,44.1,140.3,43.4L140.3,43.4z M140.3,43.4"/>
			</g>
		</g>
	</g>
</g>
</svg>
