<?xml version="1.0" encoding="utf-8"?>
<!-- Generator: Adobe Illustrator 18.0.0, SVG Export Plug-In . SVG Version: 6.00 Build 0)  -->
<!DOCTYPE svg PUBLIC "-//W3C//DTD SVG 1.1//EN" "http://www.w3.org/Graphics/SVG/1.1/DTD/svg11.dtd">
<svg version="1.1" id="Layer_1" xmlns="http://www.w3.org/2000/svg" xmlns:xlink="http://www.w3.org/1999/xlink" x="0px" y="0px"
	 viewBox="55 33 67.5 69" enable-background="new 55 33 67.5 69" xml:space="preserve">
<g>
	<path fill="#929497" d="M109.3,90.6l-4.5-7.6c-0.7-1.1-3.2-2.1-5.4-2.1H73.8c-2.4,0-4.9,0.9-5.4,2.1l-4.2,7.6
		c-0.8,1.1,0.9,2.1,3.2,2.1h38.9C108.6,92.7,109.9,91.8,109.3,90.6L109.3,90.6z"/>
	<path fill="#929497" d="M73.1,46.5L73.1,46.5H99v28.8H73.1V46.5z M70.7,79.7L70.7,79.7h30.5c1.3,0,2.3-1,2.3-2.3V44.2
		c0-1.3-1-2.3-2.3-2.3H70.7c-1.2,0-2.3,1-2.3,2.3v33.2C68.5,78.8,69.5,79.7,70.7,79.7L70.7,79.7z"/>
	<g>
		<circle fill="#FFFFFF" cx="99.9" cy="78.8" r="16.2"/>
		<g>
			<path fill="#929497" d="M111.3,67.4c-0.2-0.2-0.3-0.3-0.7-0.3c-0.3,0-0.5,0.1-0.8,0.3l-2,2c-1.1-1-2.4-1.7-3.8-2.3
				c-1.4-0.5-2.8-0.9-4.4-0.9c-2.7,0-5.1,0.9-7.3,2.5c-2.1,1.6-3.5,3.9-4.1,6.5v0.2c0,0.1,0.1,0.2,0.2,0.3c0.1,0,0.2,0.1,0.3,0.1
				h3.1c0.2,0,0.3-0.1,0.3-0.3c0.4-0.9,0.8-1.5,0.9-1.7c0.8-1.2,1.6-2.1,2.8-2.7c1.2-0.7,2.5-0.9,3.8-0.9c2.1,0,3.8,0.7,5.3,2.2
				l-2.1,2c-0.3,0.2-0.3,0.3-0.3,0.7c0,0.3,0.1,0.5,0.3,0.8c0.1,0.2,0.3,0.3,0.5,0.3h6.9c0.2,0,0.4-0.1,0.7-0.3
				c0.2-0.2,0.2-0.3,0.2-0.8v-6.8C111.6,67.9,111.6,67.6,111.3,67.4L111.3,67.4z M110.8,79.7L110.8,79.7h-2.9
				c-0.2,0-0.3,0.2-0.4,0.3c-0.3,1.1-0.7,1.6-0.9,1.7c-0.7,1.2-1.5,2.1-2.7,2.7c-1.2,0.7-2.5,1-3.8,1c-0.9,0-2-0.2-2.7-0.5
				c-0.9-0.3-1.7-0.9-2.5-1.5l2.1-2.1c0.2-0.3,0.3-0.4,0.3-0.8c0-0.2-0.1-0.4-0.3-0.8c-0.1-0.1-0.3-0.3-0.7-0.3h-6.9
				c-0.2,0-0.4,0.2-0.8,0.3c-0.2,0.3-0.3,0.4-0.3,0.8v6.9c0,0.3,0.1,0.5,0.3,0.8c0.3,0.1,0.4,0.3,0.8,0.3c0.3,0,0.4-0.2,0.8-0.3
				l1.9-2.1c1.2,1,2.4,1.9,3.8,2.4c1.4,0.5,2.8,0.9,4.4,0.9c2.7,0,5.1-0.9,7.2-2.6c2.1-1.6,3.5-3.8,4.1-6.5c0-0.1,0-0.1,0-0.1
				c0-0.2,0-0.3-0.2-0.3C110.9,79.8,110.9,79.7,110.8,79.7L110.8,79.7z"/>
		</g>
	</g>
</g>
</svg>
