<?xml version="1.0" encoding="utf-8"?>
<!-- Generator: Adobe Illustrator 18.0.0, SVG Export Plug-In . SVG Version: 6.00 Build 0)  -->
<!DOCTYPE svg PUBLIC "-//W3C//DTD SVG 1.1//EN" "http://www.w3.org/Graphics/SVG/1.1/DTD/svg11.dtd">
<svg version="1.1" id="Layer_1" xmlns="http://www.w3.org/2000/svg" xmlns:xlink="http://www.w3.org/1999/xlink" x="0px" y="0px"
	 viewBox="0 0 174.4 96.6" enable-background="new 0 0 174.4 96.6" xml:space="preserve">
<path fill="#929497" d="M102.3,25.7l-19.5-6.6c-0.2-0.1-0.3-0.1-0.5-0.1c-0.2,0-0.3,0-0.5,0.1l-19.5,6.6c-0.5,0.2-0.8,0.6-0.8,1.1
	l0,14.9c0,0.2,1,21.6,20.4,29.1c0.1,0.1,0.3,0.1,0.4,0.1c0.1,0,0.3,0,0.4-0.1c19.4-7.5,20.4-28.9,20.4-29.1V26.9
	C103.1,26.3,102.7,25.9,102.3,25.7z M82.3,66C66.8,59.7,66,42.5,66,42.3V29.9l16.3-5.5l16.3,5.5l0,12.4C98.5,42.5,97.7,59.7,82.3,66
	z"/>
</svg>
