<?xml version="1.0" encoding="utf-8"?>
<!-- Generator: Adobe Illustrator 18.0.0, SVG Export Plug-In . SVG Version: 6.00 Build 0)  -->
<!DOCTYPE svg PUBLIC "-//W3C//DTD SVG 1.1//EN" "http://www.w3.org/Graphics/SVG/1.1/DTD/svg11.dtd">
<svg version="1.1" id="Layer_1" xmlns="http://www.w3.org/2000/svg" xmlns:xlink="http://www.w3.org/1999/xlink" x="0px" y="0px"
	 viewBox="0 0 174.4 96.6" enable-background="new 0 0 174.4 96.6" xml:space="preserve">
<g>
	<g>
		<path fill="#929497" d="M92.7,69.6c-7.4,0-14.7,0.1-22.1,0c-6.2-0.1-9.7-4.1-10.2-9.8c-0.3-3.3,0.3-6.4,3.1-8.7
			c1.9-1.6,4.2-2.4,6.7-2.7c0.9-0.1,1.1-0.5,1.2-1.3c0.8-4.2,2.6-7.9,6.4-10.2c5.4-3.3,13.6-2.9,18.1,3.1c0.8,1.1,1.5,1.2,2.7,0.7
			c4.5-1.6,8.7-1,12.3,2.2c2.4,2.1,3.5,4.8,3.5,7.9c0,0.9,0.3,1.3,1.2,1.5c4.1,1.1,6.3,4.1,6.4,8.4c0,2.1-0.3,4-1.5,5.7
			c-1.4,2-3.2,3-5.7,3C107.4,69.6,100.1,69.6,92.7,69.6C92.7,69.6,92.7,69.6,92.7,69.6z"/>
		<path fill="#6C54A3" d="M103.3,37.2c-2,0.4-3.8,0.7-5.7,1.1c-1.3-1.8-3.1-3.3-5.3-4.4c-8.2-3.9-20.1-0.5-23.1,11
			c-0.2,0.9-0.6,1.2-1.5,1.5c-5.1,1.5-9,4.3-10.1,9.9c-0.6,3-0.2,6,1.2,8.8c0.2,0.3,0.3,0.6,0.5,1.1c-0.4,0-0.7,0.1-1,0.1
			c-1.9,0-3.8-0.1-5.7,0c-5.5,0.2-10.2-4.8-10.6-9.4c-0.4-4.2,0.7-7.9,4.4-10.3c1.2-0.8,2.6-1.3,4-1.7c1-0.2,1.2-0.6,1.1-1.5
			c-0.1-4,1.3-7.4,4.1-10.2c3.8-3.8,9.5-4.8,14.4-2.5c0.9,0.4,1.3,0.2,1.8-0.6c2.6-4,6.2-6.6,10.9-7.6c7.5-1.6,16.3,3.1,19.1,10.4
			C102.5,34.2,102.9,35.7,103.3,37.2z"/>
	</g>
	<g>
		<path fill="#FFFFFF" d="M79.2,62.1v-2.3h2.1V48.5l-2.1,1v-2.5l2.6-1.4h2.1v14.2H86v2.3H79.2z"/>
		<path fill="#FFFFFF" d="M88.4,47.9h7.4V50h-2.5v12.1H91V50h-2.5V47.9z"/>
		<path fill="#FFFFFF" d="M97,62.1V47.9h3.3c2.2,0,3.7,1.2,3.7,3.9c0,1.4-0.6,2.4-1.4,2.8c1,0.5,1.7,1.6,1.7,3.2
			c0,2.8-1.4,4.1-3.8,4.1H97z M100,53.7c1.1,0,1.6-0.5,1.6-1.8c0-1.3-0.5-1.9-1.6-1.9h-0.6v3.7H100z M99.3,55.8v4.1h0.9
			c1.1,0,1.6-0.6,1.6-2.1c0-1.4-0.5-2-1.6-2H99.3z"/>
	</g>
</g>
</svg>
