<?xml version="1.0" encoding="utf-8"?>
<!-- Generator: Adobe Illustrator 18.0.0, SVG Export Plug-In . SVG Version: 6.00 Build 0)  -->
<!DOCTYPE svg PUBLIC "-//W3C//DTD SVG 1.1//EN" "http://www.w3.org/Graphics/SVG/1.1/DTD/svg11.dtd">
<svg version="1.1" id="Layer_1" xmlns="http://www.w3.org/2000/svg" xmlns:xlink="http://www.w3.org/1999/xlink" x="0px" y="0px"
	 viewBox="33 33 113 70" enable-background="new 33 33 113 70" xml:space="preserve">
<g>
	<g>
		<path fill="#929497" d="M101,95.2c-8.1,0-16,0.1-24.1,0c-6.8-0.1-10.6-4.5-11.1-10.7c-0.3-3.6,0.3-7,3.4-9.5
			c2.1-1.7,4.6-2.6,7.3-2.9c1-0.1,1.2-0.5,1.3-1.4c0.9-4.6,2.8-8.6,7-11.1c5.9-3.6,14.8-3.2,19.7,3.4c0.9,1.2,1.6,1.3,2.9,0.8
			c4.9-1.7,9.5-1.1,13.4,2.4c2.6,2.3,3.8,5.2,3.8,8.6c0,1,0.3,1.4,1.3,1.6c4.5,1.2,6.9,4.5,7,9.2c0,2.3-0.3,4.4-1.6,6.2
			c-1.5,2.2-3.5,3.3-6.2,3.3C117,95.2,109.1,95.2,101,95.2L101,95.2z"/>
		<path fill="#6C54A3" d="M112.5,59.9c-2.2,0.4-4.1,0.8-6.2,1.2c-1.4-2-3.4-3.6-5.8-4.8c-8.9-4.2-21.9-0.5-25.2,12
			c-0.2,1-0.7,1.3-1.6,1.6c-5.6,1.6-9.8,4.7-11,10.8c-0.7,3.3-0.2,6.5,1.3,9.6c0.2,0.3,0.3,0.7,0.5,1.2c-0.4,0-0.8,0.1-1.1,0.1
			c-2.1,0-4.1-0.1-6.2,0c-6,0.2-11.1-5.2-11.5-10.2c-0.4-4.6,0.8-8.6,4.8-11.2c1.3-0.9,2.8-1.4,4.4-1.9c1.1-0.2,1.3-0.7,1.2-1.6
			c-0.1-4.4,1.4-8.1,4.5-11.1c4.1-4.1,10.3-5.2,15.7-2.7c1,0.4,1.4,0.2,2-0.7c2.8-4.4,6.8-7.2,11.9-8.3c8.2-1.7,17.8,3.4,20.8,11.3
			C111.7,56.6,112.1,58.3,112.5,59.9z"/>
	</g>
	<g>
		<path fill="#FFFFFF" d="M86.3,87v-2.5h2.3V72.2l-2.3,1.1v-2.7l2.8-1.5h2.3v15.5h2.3V87H86.3z"/>
		<path fill="#FFFFFF" d="M96.3,71.6h8.1v2.3h-2.7V87h-2.5V73.9h-2.7v-2.3H96.3z"/>
		<path fill="#FFFFFF" d="M105.7,87V71.6h3.6c2.4,0,4,1.3,4,4.2c0,1.5-0.7,2.6-1.5,3.1c1.1,0.5,1.9,1.7,1.9,3.5
			c0,3.1-1.5,4.5-4.1,4.5h-3.8V87z M108.9,77.9c1.2,0,1.7-0.5,1.7-2s-0.5-2.1-1.7-2.1h-0.7v4H108.9z M108.2,80.2v4.5h1
			c1.2,0,1.7-0.7,1.7-2.3c0-1.5-0.5-2.2-1.7-2.2H108.2z"/>
	</g>
</g>
</svg>
