<?xml version="1.0" encoding="utf-8"?>
<!-- Generator: Adobe Illustrator 18.0.0, SVG Export Plug-In . SVG Version: 6.00 Build 0)  -->
<!DOCTYPE svg PUBLIC "-//W3C//DTD SVG 1.1//EN" "http://www.w3.org/Graphics/SVG/1.1/DTD/svg11.dtd">
<svg version="1.1" id="Layer_1" xmlns="http://www.w3.org/2000/svg" xmlns:xlink="http://www.w3.org/1999/xlink" x="0px" y="0px"
	 viewBox="0 0 174.4 96.6" enable-background="new 0 0 174.4 96.6" xml:space="preserve">
<g id="Padlock">
	<g>
		<path fill="#929497" d="M94.7,40.8v-6.7c0-6.7-5.5-12.2-12.2-12.2c-6.7,0-12.2,5.5-12.2,12.2v6.7c-2.5,0-4.6,2.1-4.6,4.6v18.4
			c0,2.5,2.1,4.6,4.6,4.6h24.5c2.5,0,4.6-2.1,4.6-4.6V45.4C99.3,42.9,97.2,40.8,94.7,40.8z M74.3,34.5c0-4.8,3.7-8.8,8.2-8.8
			c4.5,0,8.2,3.9,8.2,8.8v6.3H74.3V34.5z M95.1,63c0,0.8-0.6,1.4-1.4,1.4H71.1c-0.8,0-1.4-0.6-1.4-1.4V46.1c0-0.8,0.6-1.4,1.4-1.4
			h22.5c0.8,0,1.4,0.6,1.4,1.4V63z M84,53.5V50c0-0.8-0.7-1.5-1.5-1.5c-0.8,0-1.5,0.7-1.5,1.5v3.5C80,54,79.4,55,79.4,56.1
			c0,1.7,1.4,3.1,3.1,3.1c1.7,0,3.1-1.4,3.1-3.1C85.5,55,84.9,54,84,53.5z"/>
	</g>
</g>
</svg>
