<?xml version="1.0" encoding="utf-8"?>
<!-- Generator: Adobe Illustrator 18.0.0, SVG Export Plug-In . SVG Version: 6.00 Build 0)  -->
<!DOCTYPE svg PUBLIC "-//W3C//DTD SVG 1.1//EN" "http://www.w3.org/Graphics/SVG/1.1/DTD/svg11.dtd">
<svg version="1.1" id="Layer_1" xmlns="http://www.w3.org/2000/svg" xmlns:xlink="http://www.w3.org/1999/xlink" x="0px" y="0px"
	 viewBox="42 17 87.4 103" enable-background="new 42 17 87.4 103" xml:space="preserve">
<g>
	<g id="Padlock_1_">
		<g>
			<path fill="#929497" d="M94.8,60.6v-8c0-5.8-4.7-10.6-10.6-10.6c-5.8,0-10.6,4.7-10.6,10.6v8c-2.2,0-3.9,1.7-3.9,3.9v15.8
				c0,2.2,1.7,3.9,3.9,3.9h21.1c2.2,0,3.9-1.7,3.9-3.9V64.5C98.8,62.3,97,60.6,94.8,60.6z M76.4,52.6c0-4.4,3.6-8,7.8-8
				c4.4,0,8,3.6,8,8v8H76.4V52.6z M96.1,80.3c0,0.8-0.5,1.3-1.3,1.3h-21c-0.8,0-1.3-0.5-1.3-1.3V64.5c0-0.8,0.5-1.3,1.3-1.3h21
				c0.8,0,1.3,0.5,1.3,1.3V80.3z M85.6,71.5v-3.1c0-0.8-0.5-1.3-1.3-1.3S83,67.6,83,68.4v3.1c-0.9,0.4-1.3,1.3-1.3,2.3
				c0,1.4,1.2,2.6,2.6,2.6s2.6-1.2,2.6-2.6C86.9,72.8,86.4,71.9,85.6,71.5z"/>
		</g>
	</g>
	<path fill="#929497" d="M117.9,37L85.1,25.9c-0.3-0.1-0.5-0.1-0.9-0.1c-0.3,0-0.5,0-0.9,0.1L50.7,37c-0.9,0.3-1.4,1.1-1.4,2V64
		c0,0.3,1.6,36.3,34.2,48.9c0.2,0.1,0.4,0.1,0.8,0.1c0.2,0,0.5,0,0.8-0.1c32.6-12.6,34.2-48.5,34.3-48.9V39
		C119.3,38,118.8,37.2,117.9,37z M84.2,106.4C56.9,95.3,55.5,64.8,55.5,64.6v-22l28.9-9.7l28.9,9.7v21.9
		C113.1,64.8,111.7,95.3,84.2,106.4z"/>
	<g>
		<circle fill="#FFFFFF" cx="113" cy="94.2" r="16.5"/>
		<g>
			<path fill="#6C54A3" d="M123.3,94h-2c-0.5,0-1,0.4-1,0.9c-0.4,4-3.7,7-7.7,7c-4.5,0-8-3.5-8-7.8s3.5-7.7,7.8-7.8v1.3
				c0,0.5,0.4,0.7,0.9,0.5l6.6-3.3c0.5-0.3,0.5-0.7,0-1l-6.6-3.3c-0.1-0.1-0.2-0.1-0.3-0.1c-0.4,0-0.7,0.2-0.7,0.7v1.2
				c-6.5,0.1-11.8,5.3-11.8,11.9c0,6.5,5.2,11.8,11.9,11.8c6.2,0,11.2-4.8,11.7-11C124.2,94.4,123.8,94,123.3,94L123.3,94z"/>
		</g>
	</g>
</g>
</svg>
