<?xml version="1.0" encoding="utf-8"?>
<!-- Generator: Adobe Illustrator 18.0.0, SVG Export Plug-In . SVG Version: 6.00 Build 0)  -->
<!DOCTYPE svg PUBLIC "-//W3C//DTD SVG 1.1//EN" "http://www.w3.org/Graphics/SVG/1.1/DTD/svg11.dtd">
<svg version="1.1" id="Layer_1" xmlns="http://www.w3.org/2000/svg" xmlns:xlink="http://www.w3.org/1999/xlink" x="0px" y="0px"
	 viewBox="0 0 174.4 96.6" enable-background="new 0 0 174.4 96.6" xml:space="preserve">
<g>
	<g id="Padlock_1_">
		<g>
			<path fill="#929497" d="M87,37.8v-7.3c0-5.3-4.3-9.7-9.7-9.7c-5.3,0-9.7,4.3-9.7,9.7v7.3c-2,0-3.6,1.6-3.6,3.6v14.5
				c0,2,1.6,3.6,3.6,3.6H87c2,0,3.6-1.6,3.6-3.6V41.4C90.7,39.4,89,37.8,87,37.8z M70.1,30.5c0-4,3.3-7.3,7.2-7.3
				c4,0,7.3,3.3,7.3,7.3v7.3H70.1V30.5z M88.2,55.9c0,0.7-0.5,1.2-1.2,1.2H67.7c-0.7,0-1.2-0.5-1.2-1.2V41.4c0-0.7,0.5-1.2,1.2-1.2
				H87c0.7,0,1.2,0.5,1.2,1.2V55.9z M78.6,47.8V45c0-0.7-0.5-1.2-1.2-1.2c-0.7,0-1.2,0.5-1.2,1.2v2.8C75.4,48.2,75,49,75,49.9
				c0,1.3,1.1,2.4,2.4,2.4c1.3,0,2.4-1.1,2.4-2.4C79.8,49,79.3,48.2,78.6,47.8z"/>
		</g>
	</g>
	<path fill="#929497" d="M108.2,16.2L78.1,6c-0.3-0.1-0.5-0.1-0.8-0.1c-0.3,0-0.5,0-0.8,0.1L46.5,16.2c-0.8,0.3-1.3,1-1.3,1.8l0,23
		c0,0.3,1.5,33.3,31.4,44.9c0.2,0.1,0.4,0.1,0.7,0.1c0.2,0,0.5,0,0.7-0.1c29.9-11.6,31.4-44.5,31.5-44.9v-23
		C109.5,17.1,109,16.4,108.2,16.2z M77.3,79.9C52.2,69.7,50.9,41.7,50.9,41.5V21.3l26.5-8.9l26.5,8.9l0,20.1
		C103.8,41.7,102.5,69.7,77.3,79.9z"/>
	<g>
		<circle fill-rule="evenodd" clip-rule="evenodd" fill="#FFFFFF" cx="103.7" cy="68.7" r="15.1"/>
		<g>
			<path fill-rule="evenodd" clip-rule="evenodd" fill="#6C54A3" d="M113.2,68.5h-1.8c-0.5,0-0.9,0.4-0.9,0.8
				c-0.4,3.7-3.4,6.4-7.1,6.4c-4.1,0-7.3-3.2-7.3-7.2c0-4,3.2-7.1,7.2-7.2v1.2c0,0.5,0.4,0.6,0.8,0.5l6.1-3c0.5-0.3,0.5-0.6,0-0.9
				l-6.1-3c-0.1-0.1-0.2-0.1-0.3-0.1c-0.4,0-0.6,0.2-0.6,0.6v1.1c-6,0.1-10.8,4.9-10.8,10.9c0,6,4.8,10.8,10.9,10.8
				c5.7,0,10.3-4.4,10.7-10.1C114,68.9,113.6,68.5,113.2,68.5L113.2,68.5z"/>
		</g>
	</g>
</g>
</svg>
