<?xml version="1.0" encoding="utf-8"?>
<!-- Generator: Adobe Illustrator 18.0.0, SVG Export Plug-In . SVG Version: 6.00 Build 0)  -->
<!DOCTYPE svg PUBLIC "-//W3C//DTD SVG 1.1//EN" "http://www.w3.org/Graphics/SVG/1.1/DTD/svg11.dtd">
<svg version="1.1" id="Layer_1" xmlns="http://www.w3.org/2000/svg" xmlns:xlink="http://www.w3.org/1999/xlink" x="0px" y="0px"
	 viewBox="39 23 100 92" enable-background="new 39 23 100 92" xml:space="preserve">
<g>
	<g>
		<path fill="#929497" d="M89.7,43.8c4.1,0,7.5-3.4,7.5-7.5s-3.4-7.5-7.5-7.5c-4.1,0-7.5,3.4-7.5,7.5S85.5,43.8,89.7,43.8L89.7,43.8
			z"/>
		<path fill="#929497" d="M77.8,66.8h23.7c1.5,0,2.8-1.2,2.8-2.8V53.6c0-2.8-1.9-5.4-4.6-6.3l0,0l-4-0.7c-0.3-0.1-0.7,0.1-0.9,0.4
			l-4.5,12.4c-0.2,0.8-1.3,0.8-1.5,0l-4.5-12.4c-0.1-0.2-0.3-0.4-0.7-0.4c-0.1,0-0.1,0-0.2,0l-4,0.8c-2.7,0.9-4.6,3.5-4.6,6.3V64
			C75,65.6,76.3,66.8,77.8,66.8L77.8,66.8z"/>
		<path fill="#929497" d="M60.6,87c4.1,0,7.5-3.4,7.5-7.5c0-4.1-3.4-7.5-7.5-7.5s-7.5,3.4-7.5,7.5C53.1,83.7,56.4,87,60.6,87
			L60.6,87z"/>
		<path fill="#929497" d="M70.6,90.7L70.6,90.7l-4-0.7c-0.3-0.1-0.7,0.1-0.9,0.4l-4.5,12.4c-0.2,0.8-1.3,0.8-1.5,0l-4.5-12.4
			c-0.1-0.2-0.3-0.4-0.7-0.4c-0.1,0-0.1,0-0.2,0l-4,0.7c-2.7,0.9-4.6,3.5-4.6,6.3v10.3c0,1.5,1.2,2.8,2.8,2.8h23.7
			c1.5,0,2.8-1.2,2.8-2.8V97.1C75.2,94.1,73.3,91.6,70.6,90.7L70.6,90.7z"/>
		<path fill="#929497" d="M118.3,87c4.1,0,7.5-3.4,7.5-7.5c0-4.1-3.4-7.5-7.5-7.5s-7.5,3.4-7.5,7.5C110.8,83.7,114.2,87,118.3,87
			L118.3,87z"/>
		<path fill="#929497" d="M128.4,90.7L128.4,90.7l-4-0.7c-0.3-0.1-0.7,0.1-0.9,0.4l-4.5,12.4c-0.2,0.8-1.3,0.8-1.5,0l-4.5-12.4
			c-0.1-0.2-0.3-0.4-0.7-0.4c-0.1,0-0.1,0-0.2,0l-4,0.7c-2.7,0.9-4.6,3.5-4.6,6.3v10.3c0,1.5,1.2,2.8,2.8,2.8h23.8
			c1.5,0,2.8-1.2,2.8-2.8V97.1C133,94.1,131.2,91.6,128.4,90.7L128.4,90.7z"/>
		<path fill="#929497" d="M92.2,68.9h-5v11.3L75.5,91.9c1.1,1.4,1.6,3.3,1.6,5.1v0.2l12.5-12.5l12,12c0.1-2,0.8-3.7,1.9-5.1
			L92.2,80.2V68.9z"/>
		<path fill="#929497" d="M91.5,46.7c-0.2-0.2-0.4-0.3-0.8-0.3h-2.2c-0.3,0-0.5,0.1-0.8,0.3c-0.3,0.3-0.3,0.8-0.1,1.2l1.2,1.7
			l-0.7,4.5l1.1,2.8c0.1,0.3,0.5,0.3,0.7,0l1.1-2.8l-0.7-4.6l1.2-1.7C91.8,47.5,91.7,47.1,91.5,46.7L91.5,46.7z"/>
		<path fill="#929497" d="M62.3,90.1c-0.2-0.2-0.4-0.3-0.8-0.3h-2.2c-0.3,0-0.5,0.1-0.8,0.3c-0.3,0.3-0.3,0.8-0.1,1.2l1.2,1.7
			l-0.5,4.6l1.1,2.8c0.1,0.3,0.5,0.3,0.7,0l1.1-2.8L61.4,93l1.2-1.7C62.6,90.8,62.6,90.4,62.3,90.1L62.3,90.1z"/>
		<path fill="#929497" d="M120.2,90.1c-0.2-0.2-0.4-0.3-0.8-0.3h-2.2c-0.3,0-0.5,0.1-0.8,0.3c-0.3,0.3-0.3,0.8-0.1,1.2l1.2,1.7
			l-0.5,4.6l1.1,2.8c0.1,0.3,0.5,0.3,0.7,0l1.1-2.8l-0.5-4.6l1.2-1.7C120.6,90.8,120.5,90.4,120.2,90.1L120.2,90.1z"/>
	</g>
	<g>
		<g>
			<g>
				<path fill="#929497" stroke="#FFFFFF" stroke-width="4.9685" stroke-miterlimit="10" d="M107.1,68.3l-0.8-0.5
					c-0.9-0.7-2.1-0.4-2.7,0.3L89.4,85.7l-4.6-3.5c-0.9-0.7-2.1-0.4-2.7,0.3l-0.5,0.8c-0.7,0.9-0.4,2.1,0.3,2.7l7,5.2
					c0.9,0.7,2.1,0.4,2.7-0.3L107.5,71C108.1,70.1,108,68.9,107.1,68.3L107.1,68.3z"/>
			</g>
		</g>
		<g>
			<g>
				<g>
					<path fill="#6C54A3" d="M107.1,68.3l-0.8-0.5c-0.9-0.7-2.1-0.4-2.7,0.3L89.4,85.7l-4.6-3.5c-0.9-0.7-2.1-0.4-2.7,0.3l-0.5,0.8
						c-0.7,0.9-0.4,2.1,0.3,2.7l7,5.2c0.9,0.7,2.1,0.4,2.7-0.3L107.5,71C108.1,70.1,108,68.9,107.1,68.3L107.1,68.3z"/>
				</g>
			</g>
		</g>
	</g>
</g>
</svg>
