<?xml version="1.0" encoding="utf-8"?>
<!-- Generator: Adobe Illustrator 18.0.0, SVG Export Plug-In . SVG Version: 6.00 Build 0)  -->
<!DOCTYPE svg PUBLIC "-//W3C//DTD SVG 1.1//EN" "http://www.w3.org/Graphics/SVG/1.1/DTD/svg11.dtd">
<svg version="1.1" id="Layer_1" xmlns="http://www.w3.org/2000/svg" xmlns:xlink="http://www.w3.org/1999/xlink" x="0px" y="0px"
	 viewBox="0 0 174.4 96.6" enable-background="new 0 0 174.4 96.6" xml:space="preserve">
<g>
	<g>
		<path fill="#929497" d="M82.3,22.4c3.8,0,6.9-3.1,6.9-6.9c0-3.8-3.1-6.9-6.9-6.9c-3.8,0-6.9,3.1-6.9,6.9
			C75.4,19.3,78.5,22.4,82.3,22.4L82.3,22.4z M82.3,22.4"/>
		<path fill="#929497" d="M71.4,43.5h21.8c1.4,0,2.6-1.1,2.6-2.6v-9.5c0-2.6-1.7-5-4.2-5.8l0,0l-3.7-0.6c-0.3-0.1-0.6,0.1-0.8,0.4
			L83,36.8c-0.2,0.7-1.2,0.7-1.4,0l-4.1-11.4c-0.1-0.2-0.3-0.4-0.6-0.4c-0.1,0-0.1,0-0.2,0L73,25.7c-2.5,0.8-4.2,3.2-4.2,5.8V41
			C68.8,42.4,70,43.5,71.4,43.5L71.4,43.5z M71.4,43.5"/>
		<path fill="#929497" d="M55.6,62.1c3.8,0,6.9-3.1,6.9-6.9c0-3.8-3.1-6.9-6.9-6.9c-3.8,0-6.9,3.1-6.9,6.9
			C48.7,59,51.8,62.1,55.6,62.1L55.6,62.1z M55.6,62.1"/>
		<path fill="#929497" d="M64.8,65.5L64.8,65.5l-3.7-0.6c-0.3-0.1-0.6,0.1-0.8,0.4l-4.1,11.4c-0.2,0.7-1.2,0.7-1.4,0l-4.1-11.4
			c-0.1-0.2-0.3-0.4-0.6-0.4c-0.1,0-0.1,0-0.2,0l-3.7,0.6c-2.5,0.8-4.2,3.2-4.2,5.8v9.5c0,1.4,1.1,2.6,2.6,2.6h21.8
			c1.4,0,2.6-1.1,2.6-2.6v-9.5C69,68.6,67.3,66.3,64.8,65.5L64.8,65.5z M64.8,65.5"/>
		<path fill="#929497" d="M108.6,62.1c3.8,0,6.9-3.1,6.9-6.9c0-3.8-3.1-6.9-6.9-6.9c-3.8,0-6.9,3.1-6.9,6.9
			C101.7,59,104.8,62.1,108.6,62.1L108.6,62.1z M108.6,62.1"/>
		<path fill="#929497" d="M117.9,65.5L117.9,65.5l-3.7-0.6c-0.3-0.1-0.6,0.1-0.8,0.4l-4.1,11.4c-0.2,0.7-1.2,0.7-1.4,0l-4.1-11.4
			c-0.1-0.2-0.3-0.4-0.6-0.4c-0.1,0-0.1,0-0.2,0l-3.7,0.6c-2.5,0.8-4.2,3.2-4.2,5.8v9.5c0,1.4,1.1,2.6,2.6,2.6h21.8
			c1.4,0,2.6-1.1,2.6-2.6v-9.5C122.1,68.6,120.4,66.3,117.9,65.5L117.9,65.5z M117.9,65.5"/>
		<path fill="#929497" d="M84.6,45.5H80v10.4L69.3,66.6c1,1.3,1.5,3,1.5,4.7v0.2L82.3,60l11,11c0.1-1.8,0.7-3.4,1.7-4.7L84.6,55.8
			V45.5z M84.6,45.5"/>
		<path fill="#929497" d="M84,25.1c-0.2-0.2-0.4-0.3-0.7-0.3h-2c-0.3,0-0.5,0.1-0.7,0.3c-0.3,0.3-0.3,0.7-0.1,1.1l1.1,1.6L81,31.9
			l1,2.6c0.1,0.3,0.5,0.3,0.6,0l1-2.6L83,27.7l1.1-1.6C84.3,25.8,84.2,25.4,84,25.1L84,25.1z M84,25.1"/>
		<path fill="#929497" d="M57.2,64.9c-0.2-0.2-0.4-0.3-0.7-0.3h-2c-0.3,0-0.5,0.1-0.7,0.3c-0.3,0.3-0.3,0.7-0.1,1.1l1.1,1.6
			l-0.5,4.2l1,2.6c0.1,0.3,0.5,0.3,0.6,0l1-2.6l-0.5-4.2l1.1-1.6C57.5,65.6,57.5,65.2,57.2,64.9L57.2,64.9z M57.2,64.9"/>
		<path fill="#929497" d="M110.3,64.9c-0.2-0.2-0.4-0.3-0.7-0.3h-2c-0.3,0-0.5,0.1-0.7,0.3c-0.3,0.3-0.3,0.7-0.1,1.1l1.1,1.6
			l-0.5,4.2l1,2.6c0.1,0.3,0.5,0.3,0.6,0l1-2.6l-0.5-4.2l1.1-1.6C110.7,65.6,110.6,65.2,110.3,64.9L110.3,64.9z M110.3,64.9"/>
	</g>
	<g>
		<g>
			<g>
				<path fill="#929497" stroke="#FFFFFF" stroke-width="4.9685" stroke-miterlimit="10" d="M98.3,44.9l-0.7-0.5
					c-0.8-0.6-1.9-0.4-2.5,0.3l-13,16.2l-4.2-3.2c-0.8-0.6-1.9-0.4-2.5,0.3l-0.5,0.7c-0.6,0.8-0.4,1.9,0.3,2.5l6.4,4.8
					c0.8,0.6,1.9,0.4,2.5-0.3l14.6-18.3C99.2,46.6,99.1,45.5,98.3,44.9L98.3,44.9z M98.3,44.9"/>
			</g>
		</g>
		<g>
			<g>
				<g>
					<path fill="#6C54A3" d="M98.3,44.9l-0.7-0.5c-0.8-0.6-1.9-0.4-2.5,0.3l-13,16.2l-4.2-3.2c-0.8-0.6-1.9-0.4-2.5,0.3l-0.5,0.7
						c-0.6,0.8-0.4,1.9,0.3,2.5l6.4,4.8c0.8,0.6,1.9,0.4,2.5-0.3l14.6-18.3C99.2,46.6,99.1,45.5,98.3,44.9L98.3,44.9z M98.3,44.9"/>
				</g>
			</g>
		</g>
	</g>
</g>
</svg>
