<?xml version="1.0" encoding="utf-8"?>
<!-- Generator: Adobe Illustrator 18.0.0, SVG Export Plug-In . SVG Version: 6.00 Build 0)  -->
<!DOCTYPE svg PUBLIC "-//W3C//DTD SVG 1.1//EN" "http://www.w3.org/Graphics/SVG/1.1/DTD/svg11.dtd">
<svg version="1.1" id="Layer_1" xmlns="http://www.w3.org/2000/svg" xmlns:xlink="http://www.w3.org/1999/xlink" x="0px" y="0px"
	 viewBox="42 31 106 83" enable-background="new 42 31 106 83" xml:space="preserve">
<g>
	<path fill="#929497" d="M71.7,101.5c-0.3,0-0.7,0.3-0.7,0.7v2.7c0,0.3,0.3,0.7,0.7,0.7h32.5c0.3,0,0.7-0.3,0.7-0.7v-2.7
		c0-0.3-0.3-0.7-0.7-0.7H97c-0.3,0-0.7-0.3-0.7-0.7v-2.3c0-0.3-0.3-0.7-0.7-0.7H82.4c-0.3,0-0.7,0.3-0.7,0.7v2.3
		c0,0.3-0.3,0.7-0.7,0.7H71.7L71.7,101.5z"/>
	<path fill="#929497" d="M55.7,39c-2.4,0-4.2,2-4.2,4.2v47.1c0,2.4,2,4.2,4.2,4.2H103c0,0,1.7,0,1.7-2.2v-5.2c0-2.2-1.7-2.2-1.7-2.2
		H54.7V43.2c0-0.5,0.4-1.1,1.1-1.1h67.8c0.5,0,1.1,0.4,1.1,1.1v11.1c0,1.5-0.2,1.7,0.7,1.7h1.7c1,0,0.9-0.2,0.9-1.6V43.2
		c0-2.4-2-4.2-4.2-4.2H55.7L55.7,39z M89.6,91c-1.1,0-2-0.9-2-2c0-1.1,0.9-2,2-2c1.1,0,2,0.9,2,2C91.5,90.1,90.6,91,89.6,91L89.6,91
		z"/>
	<path fill="#6C54A3" d="M111.2,59.9c-1.5,0-2.7,1.2-2.7,2.7v40.3c0,1.5,1.2,2.7,2.7,2.7h24.5c1.5,0,2.7-1.2,2.7-2.7V62.6
		c0-1.5-1.2-2.7-2.7-2.7L111.2,59.9L111.2,59.9z M126.6,62.7c0.3,0,0.5,0.2,0.5,0.5c0,0.3-0.2,0.5-0.5,0.5h-6.1
		c-0.3,0-0.5-0.2-0.5-0.5c0-0.3,0.2-0.5,0.5-0.5H126.6L126.6,62.7z M123.5,103.8c-0.8,0-1.4-0.7-1.4-1.4c0-0.8,0.7-1.4,1.4-1.4
		c0.8,0,1.4,0.7,1.4,1.4C125,103.2,124.4,103.8,123.5,103.8L123.5,103.8z M110.9,66.1c0-0.3,0.3-0.7,0.7-0.7h24
		c0.3,0,0.7,0.3,0.7,0.7v33.4c0,0.3-0.3,0.7-0.7,0.7h-24c-0.3,0-0.7-0.3-0.7-0.7V66.1z"/>
</g>
</svg>
