<?xml version="1.0" encoding="utf-8"?>
<!-- Generator: Adobe Illustrator 18.0.0, SVG Export Plug-In . SVG Version: 6.00 Build 0)  -->
<!DOCTYPE svg PUBLIC "-//W3C//DTD SVG 1.1//EN" "http://www.w3.org/Graphics/SVG/1.1/DTD/svg11.dtd">
<svg version="1.1" id="Layer_1" xmlns="http://www.w3.org/2000/svg" xmlns:xlink="http://www.w3.org/1999/xlink" x="0px" y="0px"
	 viewBox="0 0 147 146" enable-background="new 0 0 147 146" xml:space="preserve">
<g>
	<path fill="#C0BFBF" d="M78.7,17c15.1,0,29.2,5.9,39.9,16.5s16.5,24.8,16.5,39.9s-5.9,29.2-16.5,39.9s-24.8,16.5-39.9,16.5
		c-15.1,0-29.2-5.9-39.9-16.5S22.3,88.5,22.3,73.5c0-15.1,5.9-29.2,16.5-39.9C49.5,22.9,63.6,17,78.7,17 M78.7,15.7L78.7,15.7
		c-31.9,0-57.8,25.9-57.8,57.8c0,31.9,25.9,57.8,57.8,57.8h0c31.9,0,57.8-25.9,57.8-57.8C136.5,41.5,110.6,15.7,78.7,15.7z"/>
	<path fill="#FFFFFF" d="M78.7,124.2L78.7,124.2c-28,0-50.7-22.7-50.7-50.7s22.7-50.7,50.7-50.7h0c28,0,50.7,22.7,50.7,50.7
		S106.7,124.2,78.7,124.2z"/>
	<path fill="#7A62A9" d="M60.6,100.5l-6.2,7h8.3v3.3H49.4v-2.7l8.3-9.5c1-1.1,1.3-2,1.3-3.1c0-2.1-1.2-3.3-2.9-3.3
		c-1.7,0-2.9,1.1-2.9,3.3v0.7L49.4,96v-0.5c0-3.7,2.5-6.5,6.7-6.5c4.1,0,6.7,2.8,6.7,6.5C62.7,97.7,62,99,60.6,100.5z"/>
	<path fill="#7A62A9" d="M79.5,103.8c0,4.7-2.7,7.4-6.8,7.4c-4.1,0-6.8-2.7-6.8-7.4v-7.4c0-4.7,2.7-7.4,6.8-7.4
		c4.1,0,6.8,2.7,6.8,7.4V103.8z M75.7,96.8c0-3.4-1.4-4.5-3-4.5c-1.7,0-3,1-3,4.5v6.6c0,3.4,1.4,4.5,3,4.5c1.7,0,3-1,3-4.5V96.8z"/>
	<polygon fill="#7A62A9" points="83.3,105.7 83.3,110.8 81.8,110.8 81.8,102.4 83.1,102.4 85.6,107 88,102.4 89.4,102.4 89.4,110.8 
		87.8,110.8 87.8,105.7 86.2,108.7 85,108.7 	"/>
	<path fill="#7A62A9" d="M96,108.5c0,1.4-0.8,2.5-2.2,2.5c-0.7,0-1.2-0.3-1.5-0.7v0.6h-1.5v-8.5h1.5v3.1c0.3-0.4,0.8-0.7,1.5-0.7
		c1.4,0,2.2,1,2.2,2.5V108.5z M94.5,107.5c0-1-0.3-1.5-1.2-1.5c-0.4,0-0.8,0.3-1,0.7v2.4c0.2,0.4,0.6,0.7,1,0.7
		c0.8,0,1.2-0.5,1.2-1.5V107.5z"/>
	<path fill="#7A62A9" d="M102.3,108.5c0,1.4-0.8,2.5-2.2,2.5c-0.7,0-1.2-0.3-1.5-0.7v3.2h-1.5v-8.6h1.5v0.6c0.3-0.4,0.8-0.7,1.5-0.7
		c1.4,0,2.2,1,2.2,2.5V108.5z M100.9,107.5c0-1-0.3-1.5-1.2-1.5c-0.4,0-0.8,0.3-1,0.7v2.4c0.2,0.4,0.6,0.7,1,0.7
		c0.8,0,1.2-0.5,1.2-1.5V107.5z"/>
	<path fill="#7A62A9" d="M105.9,108.4l-0.5-0.1c-1.3-0.2-1.9-0.8-1.9-1.8c0-1,0.8-1.8,2.2-1.8c1.2,0,2.1,0.6,2.4,1.8l-1.4,0.2
		c-0.1-0.4-0.5-0.7-1-0.7c-0.5,0-0.8,0.3-0.8,0.6c0,0.4,0.3,0.6,0.8,0.7l0.5,0.1c1.4,0.2,1.9,0.8,1.9,1.8c0,1.1-0.9,1.9-2.3,1.9
		c-1.3,0-2.3-0.7-2.6-1.9l1.4-0.2c0.2,0.6,0.6,0.9,1.2,0.9c0.5,0,0.8-0.3,0.8-0.6C106.8,108.7,106.5,108.5,105.9,108.4z"/>
	<path fill="#595A5C" d="M51.7,53.7V55h-1.6v-1.4c-1.8-0.3-3.1-1.6-3.5-3.5l2.2-0.3c0.2,0.9,0.7,1.4,1.3,1.7v-3.2
		c-2.1-0.4-3.2-1.5-3.2-3.4c0-1.6,1.1-3.1,3.2-3.4v-1.3h1.6v1.4c1.7,0.3,2.9,1.5,3.2,3.2l-2.2,0.3c-0.2-0.7-0.5-1.2-1-1.5v3
		c2.5,0.4,3.5,1.7,3.5,3.5C55.2,52,53.9,53.5,51.7,53.7z M50.1,46.3v-2.7c-0.7,0.2-1,0.8-1,1.4C49.1,45.5,49.4,46,50.1,46.3z
		 M51.7,48.6v3c0.8-0.2,1.3-0.8,1.3-1.5C53,49.4,52.6,48.9,51.7,48.6z"/>
	<path fill="#595A5C" d="M58.2,52.2l6.4-13.1h4.5l-4.5,9.2c0.2,0,0.4-0.1,0.7-0.1c4.6,0,7.8,3.3,7.8,7.6c0,4.3-3.1,7.6-7.8,7.6
		c-4.7,0-7.8-3.4-7.8-7.7C57.4,54.5,57.7,53.3,58.2,52.2z M68.9,55.9c0-2.5-1.4-4.1-3.7-4.1c-2.3,0-3.7,1.6-3.7,4.1
		c0,2.5,1.4,4.1,3.7,4.1C67.5,60,68.9,58.4,68.9,55.9z"/>
	<path fill="#595A5C" d="M91.8,58.3h-2.6v4.8H85v-4.8h-9.5v-3.5l9.1-15.7h4.6v15.5h2.6V58.3z M85,54.7v-8.9l-5.2,8.9H85z"/>
	<path fill="#595A5C" d="M109.8,55.3c0,5.2-3,8.3-7.6,8.3s-7.6-3.1-7.6-8.3V47c0-5.2,3-8.3,7.6-8.3s7.6,3.1,7.6,8.3V55.3z
		 M105.6,47.4c0-3.8-1.5-5-3.4-5c-1.9,0-3.4,1.1-3.4,5v7.4c0,3.8,1.5,5,3.4,5c1.9,0,3.4-1.1,3.4-5V47.4z"/>
	<polygon fill="#595A5C" points="59.3,78.5 57.6,78.5 61.8,66.9 63.5,66.9 	"/>
	<polygon fill="#595A5C" points="66.1,71.5 66.1,77.2 64.4,77.2 64.4,68 65.9,68 68.6,73 71.4,68 72.8,68 72.8,77.2 71.1,77.2 
		71.1,71.5 69.3,74.9 68,74.9 	"/>
	<path fill="#595A5C" d="M74.3,73.2c0-1.5,1.2-2.7,2.9-2.7c1.7,0,2.9,1.2,2.9,2.7v1.5c0,1.5-1.2,2.7-2.9,2.7c-1.7,0-2.9-1.2-2.9-2.7
		V73.2z M75.9,74.5c0,1.1,0.6,1.5,1.3,1.5c0.7,0,1.3-0.4,1.3-1.5v-1.2c0-1.1-0.6-1.5-1.3-1.5c-0.7,0-1.3,0.4-1.3,1.5V74.5z"/>
	<path fill="#595A5C" d="M87.1,77.2h-1.6v-3.8c0-1-0.3-1.5-1.2-1.5c-0.5,0-1,0.3-1.2,0.8v4.5h-1.6v-6.6H83v0.7
		c0.3-0.5,1-0.9,1.8-0.9c1.5,0,2.3,1,2.3,2.7V77.2z"/>
	<path fill="#595A5C" d="M90.6,75c0,0.6,0.2,0.9,0.8,0.9h0.9v1.4h-1.1c-1.5,0-2.2-0.7-2.2-2.1V72H88v-1.4H89v-1.9h1.6v1.9h1.5V72
		h-1.5V75z"/>
	<path fill="#595A5C" d="M99.1,77.2h-1.6v-3.8c0-1-0.3-1.5-1.2-1.5c-0.5,0-1,0.3-1.2,0.8v4.5h-1.6v-9.4H95v3.6
		c0.3-0.5,1-0.9,1.8-0.9c1.5,0,2.3,1,2.3,2.7V77.2z"/>
	<polyline fill="#7A62AA" points="35.5,84.1 121.9,84.1 121.9,83.7 35.5,83.7 	"/>
</g>
</svg>
