<?xml version="1.0" encoding="utf-8"?>
<!-- Generator: Adobe Illustrator 18.0.0, SVG Export Plug-In . SVG Version: 6.00 Build 0)  -->
<!DOCTYPE svg PUBLIC "-//W3C//DTD SVG 1.1//EN" "http://www.w3.org/Graphics/SVG/1.1/DTD/svg11.dtd">
<svg version="1.1" id="Layer_1" xmlns="http://www.w3.org/2000/svg" xmlns:xlink="http://www.w3.org/1999/xlink" x="0px" y="0px"
	 viewBox="0 0 147 146" enable-background="new 0 0 147 146" xml:space="preserve">
<path fill="#C0BFBF" d="M71.4,13.8c15.1,0,29.2,5.9,39.9,16.5c10.7,10.7,16.5,24.8,16.5,39.9s-5.9,29.2-16.5,39.9
	c-10.7,10.7-24.8,16.5-39.9,16.5c-15.1,0-29.2-5.9-39.9-16.5C20.8,99.5,15,85.3,15,70.2c0-15.1,5.9-29.2,16.5-39.9
	C42.1,19.7,56.3,13.8,71.4,13.8 M71.4,12.5L71.4,12.5c-31.9,0-57.8,25.9-57.8,57.8S39.5,128,71.4,128h0c31.9,0,57.8-25.9,57.8-57.8
	S103.3,12.5,71.4,12.5z"/>
<path fill="#FFFFFF" d="M71.4,120.9L71.4,120.9c-28,0-50.7-22.7-50.7-50.7s22.7-50.7,50.7-50.7h0c28,0,50.7,22.7,50.7,50.7
	S99.4,120.9,71.4,120.9z"/>
<path fill="#7A62A9" d="M47.2,97.3l-1.8-2l4.9-5.9h-7.7v-3.3h12.2v3l-4.4,5.2c3.3,0.2,5.2,2.7,5.2,6.5c0,4.1-2.3,7.1-6.8,7.1
	c-4.5,0-6.8-3-6.8-7.1v-0.1l3.8-0.2v0.2c0,2.7,1.3,3.9,3.1,3.9c1.8,0,3-1.2,3-3.9c0-2.7-1.2-3.9-3.1-3.9
	C48.1,96.9,47.6,97,47.2,97.3z"/>
<path fill="#7A62A9" d="M72.1,100.5c0,4.7-2.7,7.4-6.8,7.4s-6.8-2.7-6.8-7.4v-7.4c0-4.7,2.7-7.4,6.8-7.4s6.8,2.7,6.8,7.4V100.5z
	 M68.4,93.5c0-3.4-1.4-4.5-3-4.5c-1.7,0-3,1-3,4.5v6.6c0,3.4,1.4,4.5,3,4.5c1.7,0,3-1,3-4.5V93.5z"/>
<polygon fill="#7A62A9" points="76,102.4 76,107.6 74.4,107.6 74.4,99.2 75.8,99.2 78.2,103.8 80.7,99.2 82,99.2 82,107.6 
	80.5,107.6 80.5,102.4 78.8,105.5 77.6,105.5 "/>
<path fill="#7A62A9" d="M88.7,105.3c0,1.4-0.8,2.5-2.2,2.5c-0.7,0-1.2-0.3-1.5-0.7v0.6h-1.5v-8.5H85v3.1c0.3-0.4,0.8-0.7,1.5-0.7
	c1.4,0,2.2,1,2.2,2.5V105.3z M87.2,104.3c0-1-0.3-1.5-1.2-1.5c-0.4,0-0.8,0.3-1,0.7v2.4c0.2,0.4,0.6,0.7,1,0.7
	c0.8,0,1.2-0.5,1.2-1.5V104.3z"/>
<path fill="#7A62A9" d="M95,105.3c0,1.4-0.8,2.5-2.2,2.5c-0.7,0-1.2-0.3-1.5-0.7v3.2h-1.5v-8.6h1.5v0.6c0.3-0.4,0.8-0.7,1.5-0.7
	c1.4,0,2.2,1,2.2,2.5V105.3z M93.5,104.3c0-1-0.3-1.5-1.2-1.5c-0.4,0-0.8,0.3-1,0.7v2.4c0.2,0.4,0.6,0.7,1,0.7
	c0.8,0,1.2-0.5,1.2-1.5V104.3z"/>
<path fill="#7A62A9" d="M98.6,105.2l-0.5-0.1c-1.3-0.2-1.9-0.8-1.9-1.8c0-1,0.8-1.8,2.2-1.8c1.2,0,2.1,0.6,2.4,1.8l-1.4,0.2
	c-0.1-0.4-0.5-0.7-1-0.7c-0.5,0-0.8,0.3-0.8,0.6c0,0.4,0.3,0.6,0.8,0.7L99,104c1.4,0.2,1.9,0.8,1.9,1.8c0,1.1-0.9,1.9-2.3,1.9
	c-1.3,0-2.3-0.7-2.6-1.9l1.4-0.2c0.2,0.6,0.6,0.9,1.2,0.9c0.5,0,0.8-0.3,0.8-0.6C99.4,105.5,99.2,105.3,98.6,105.2z"/>
<path fill="#595A5C" d="M44.4,50.4v1.3h-1.6v-1.4c-1.8-0.3-3.1-1.6-3.5-3.5l2.2-0.3c0.2,0.9,0.7,1.4,1.3,1.7v-3.2
	c-2.1-0.4-3.2-1.5-3.2-3.4c0-1.6,1.1-3.1,3.2-3.4V37h1.6v1.4c1.7,0.3,2.9,1.5,3.2,3.2l-2.2,0.3c-0.2-0.7-0.5-1.2-1-1.5v3
	c2.5,0.4,3.5,1.7,3.5,3.5C47.9,48.8,46.6,50.2,44.4,50.4z M42.8,43v-2.7c-0.7,0.2-1,0.8-1,1.4C41.8,42.3,42.1,42.8,42.8,43z
	 M44.4,45.4v3c0.8-0.2,1.3-0.8,1.3-1.5C45.7,46.2,45.3,45.7,44.4,45.4z"/>
<path fill="#595A5C" d="M64.7,46.9l-6.4,13.1h-4.5l4.5-9.2c-0.2,0-0.4,0.1-0.7,0.1c-4.6,0-7.8-3.3-7.8-7.6c0-4.3,3.1-7.6,7.8-7.6
	c4.7,0,7.8,3.4,7.8,7.7C65.6,44.5,65.3,45.8,64.7,46.9z M54.1,43.2c0,2.5,1.4,4.1,3.7,4.1s3.7-1.6,3.7-4.1c0-2.5-1.4-4.1-3.7-4.1
	S54.1,40.7,54.1,43.2z"/>
<path fill="#595A5C" d="M84,52c0,5.2-3,8.3-7.6,8.3c-4.6,0-7.6-3.1-7.6-8.3v-8.2c0-5.2,3-8.3,7.6-8.3c4.6,0,7.6,3.1,7.6,8.3V52z
	 M79.8,44.2c0-3.8-1.5-5-3.4-5c-1.9,0-3.4,1.1-3.4,5v7.4c0,3.8,1.5,5,3.4,5c1.9,0,3.4-1.1,3.4-5V44.2z"/>
<path fill="#595A5C" d="M102.5,52c0,5.2-3,8.3-7.6,8.3s-7.6-3.1-7.6-8.3v-8.2c0-5.2,3-8.3,7.6-8.3s7.6,3.1,7.6,8.3V52z M98.3,44.2
	c0-3.8-1.5-5-3.4-5c-1.9,0-3.4,1.1-3.4,5v7.4c0,3.8,1.5,5,3.4,5c1.9,0,3.4-1.1,3.4-5V44.2z"/>
<polygon fill="#595A5C" points="52,75.3 50.3,75.3 54.5,63.6 56.2,63.6 "/>
<polygon fill="#595A5C" points="58.8,68.3 58.8,74 57.1,74 57.1,64.7 58.6,64.7 61.3,69.8 64,64.7 65.5,64.7 65.5,74 63.8,74 
	63.8,68.3 62,71.7 60.6,71.7 "/>
<path fill="#595A5C" d="M67,70c0-1.5,1.2-2.7,2.9-2.7c1.7,0,2.9,1.2,2.9,2.7v1.5c0,1.5-1.2,2.7-2.9,2.7c-1.7,0-2.9-1.2-2.9-2.7V70z
	 M68.6,71.3c0,1.1,0.6,1.5,1.3,1.5c0.7,0,1.3-0.4,1.3-1.5v-1.2c0-1.1-0.6-1.5-1.3-1.5c-0.7,0-1.3,0.4-1.3,1.5V71.3z"/>
<path fill="#595A5C" d="M79.8,74h-1.6v-3.8c0-1-0.3-1.5-1.2-1.5c-0.5,0-1,0.3-1.2,0.8V74h-1.6v-6.6h1.6v0.7c0.3-0.5,1-0.9,1.8-0.9
	c1.5,0,2.3,1,2.3,2.7V74z"/>
<path fill="#595A5C" d="M83.3,71.7c0,0.6,0.2,0.9,0.8,0.9h0.9V74h-1.1c-1.5,0-2.2-0.7-2.2-2.1v-3.1h-0.9v-1.4h0.9v-1.9h1.6v1.9h1.5
	v1.4h-1.5V71.7z"/>
<path fill="#595A5C" d="M91.7,74h-1.6v-3.8c0-1-0.3-1.5-1.2-1.5c-0.5,0-1,0.3-1.2,0.8V74h-1.6v-9.4h1.6v3.6c0.3-0.5,1-0.9,1.8-0.9
	c1.5,0,2.3,1,2.3,2.7V74z"/>
<polyline fill="#7A62AA" points="28.1,80.9 114.6,80.9 114.6,80.5 28.1,80.5 "/>
</svg>
