<?xml version="1.0" encoding="utf-8"?>
<!-- Generator: Adobe Illustrator 18.0.0, SVG Export Plug-In . SVG Version: 6.00 Build 0)  -->
<!DOCTYPE svg PUBLIC "-//W3C//DTD SVG 1.1//EN" "http://www.w3.org/Graphics/SVG/1.1/DTD/svg11.dtd">
<svg version="1.1" id="Layer_1" xmlns="http://www.w3.org/2000/svg" xmlns:xlink="http://www.w3.org/1999/xlink" x="0px" y="0px"
	 viewBox="0 0 147 146" enable-background="new 0 0 147 146" xml:space="preserve">
<g>
	<path fill="#C0BFBF" d="M73.6,17c15.1,0,29.2,5.9,39.9,16.5S130,58.4,130,73.5s-5.9,29.2-16.5,39.9c-10.7,10.7-24.8,16.5-39.9,16.5
		c-15.1,0-29.2-5.9-39.9-16.5C23,102.7,17.2,88.5,17.2,73.5c0-15.1,5.9-29.2,16.5-39.9C44.4,22.9,58.5,17,73.6,17 M73.6,15.7
		L73.6,15.7c-31.9,0-57.8,25.9-57.8,57.8c0,31.9,25.9,57.8,57.8,57.8h0c31.9,0,57.8-25.9,57.8-57.8C131.4,41.5,105.5,15.7,73.6,15.7
		z"/>
	<path fill="#FFFFFF" d="M73.6,124.2L73.6,124.2c-28,0-50.7-22.7-50.7-50.7s22.7-50.7,50.7-50.7h0c28,0,50.7,22.7,50.7,50.7
		S101.6,124.2,73.6,124.2z"/>
	<polygon fill="#7A62A9" points="45.6,110.8 45.6,107.5 49.8,107.5 49.8,93.4 45.6,95.1 45.6,91.5 50.4,89.3 53.6,89.3 53.6,107.5 
		57.7,107.5 57.7,110.8 	"/>
	<path fill="#7A62A9" d="M74.4,103.8c0,4.7-2.7,7.4-6.8,7.4s-6.8-2.7-6.8-7.4v-7.4c0-4.7,2.7-7.4,6.8-7.4s6.8,2.7,6.8,7.4V103.8z
		 M70.6,96.8c0-3.4-1.4-4.5-3-4.5c-1.7,0-3,1-3,4.5v6.6c0,3.4,1.4,4.5,3,4.5c1.7,0,3-1,3-4.5V96.8z"/>
	<polygon fill="#7A62A9" points="78.2,105.7 78.2,110.8 76.7,110.8 76.7,102.4 78,102.4 80.5,107 82.9,102.4 84.3,102.4 84.3,110.8 
		82.7,110.8 82.7,105.7 81.1,108.7 79.9,108.7 	"/>
	<path fill="#7A62A9" d="M90.9,108.5c0,1.4-0.8,2.5-2.2,2.5c-0.7,0-1.2-0.3-1.5-0.7v0.6h-1.5v-8.5h1.5v3.1c0.3-0.4,0.8-0.7,1.5-0.7
		c1.4,0,2.2,1,2.2,2.5V108.5z M89.4,107.5c0-1-0.3-1.5-1.2-1.5c-0.4,0-0.8,0.3-1,0.7v2.4c0.2,0.4,0.6,0.7,1,0.7
		c0.8,0,1.2-0.5,1.2-1.5V107.5z"/>
	<path fill="#7A62A9" d="M97.2,108.5c0,1.4-0.8,2.5-2.2,2.5c-0.7,0-1.2-0.3-1.5-0.7v3.2h-1.5v-8.6h1.5v0.6c0.3-0.4,0.8-0.7,1.5-0.7
		c1.4,0,2.2,1,2.2,2.5V108.5z M95.8,107.5c0-1-0.3-1.5-1.2-1.5c-0.4,0-0.8,0.3-1,0.7v2.4c0.2,0.4,0.6,0.7,1,0.7
		c0.8,0,1.2-0.5,1.2-1.5V107.5z"/>
	<path fill="#7A62A9" d="M100.8,108.4l-0.5-0.1c-1.3-0.2-1.9-0.8-1.9-1.8c0-1,0.8-1.8,2.2-1.8c1.2,0,2.1,0.6,2.4,1.8l-1.4,0.2
		c-0.1-0.4-0.5-0.7-1-0.7c-0.5,0-0.8,0.3-0.8,0.6c0,0.4,0.3,0.6,0.8,0.7l0.5,0.1c1.4,0.2,1.9,0.8,1.9,1.8c0,1.1-0.9,1.9-2.3,1.9
		c-1.3,0-2.3-0.7-2.6-1.9l1.4-0.2c0.2,0.6,0.6,0.9,1.2,0.9c0.5,0,0.8-0.3,0.8-0.6C101.7,108.7,101.4,108.5,100.8,108.4z"/>
	<path fill="#595A5C" d="M46.6,53.7V55H45v-1.4c-1.8-0.3-3.1-1.6-3.5-3.5l2.2-0.3c0.2,0.9,0.7,1.4,1.3,1.7v-3.2
		c-2.1-0.4-3.2-1.5-3.2-3.4c0-1.6,1.1-3.1,3.2-3.4v-1.3h1.6v1.4c1.7,0.3,2.9,1.5,3.2,3.2l-2.2,0.3c-0.2-0.7-0.5-1.2-1-1.5v3
		c2.5,0.4,3.5,1.7,3.5,3.5C50.1,52,48.8,53.5,46.6,53.7z M45,46.3v-2.7c-0.7,0.2-1,0.8-1,1.4C44,45.5,44.3,46,45,46.3z M46.6,48.6v3
		c0.8-0.2,1.3-0.8,1.3-1.5C47.9,49.4,47.5,48.9,46.6,48.6z"/>
	<path fill="#595A5C" d="M58.3,51.6l-2.1-2.3l5.5-6.5h-8.6v-3.6h13.6v3.4l-4.9,5.8c3.7,0.2,5.8,3,5.8,7.2c0,4.6-2.6,8-7.6,8
		c-5,0-7.6-3.4-7.6-7.9v-0.1l4.2-0.3v0.3c0,3,1.4,4.4,3.4,4.4c2,0,3.4-1.4,3.4-4.4s-1.3-4.4-3.5-4.4C59.3,51.2,58.8,51.4,58.3,51.6z
		"/>
	<path fill="#595A5C" d="M86.7,58.3h-2.6v4.8h-4.2v-4.8h-9.5v-3.5l9.1-15.7h4.6v15.5h2.6V58.3z M79.9,54.7v-8.9l-5.2,8.9H79.9z"/>
	<path fill="#595A5C" d="M104.7,55.3c0,5.2-3,8.3-7.6,8.3s-7.6-3.1-7.6-8.3V47c0-5.2,3-8.3,7.6-8.3s7.6,3.1,7.6,8.3V55.3z
		 M100.5,47.4c0-3.8-1.5-5-3.4-5c-1.9,0-3.4,1.1-3.4,5v7.4c0,3.8,1.5,5,3.4,5c1.9,0,3.4-1.1,3.4-5V47.4z"/>
	<polygon fill="#595A5C" points="54.2,78.5 52.5,78.5 56.7,66.9 58.4,66.9 	"/>
	<polygon fill="#595A5C" points="61,71.5 61,77.2 59.3,77.2 59.3,68 60.8,68 63.5,73 66.3,68 67.7,68 67.7,77.2 66,77.2 66,71.5 
		64.2,74.9 62.9,74.9 	"/>
	<path fill="#595A5C" d="M69.2,73.2c0-1.5,1.2-2.7,2.9-2.7c1.7,0,2.9,1.2,2.9,2.7v1.5c0,1.5-1.2,2.7-2.9,2.7c-1.7,0-2.9-1.2-2.9-2.7
		V73.2z M70.8,74.5c0,1.1,0.6,1.5,1.3,1.5c0.7,0,1.3-0.4,1.3-1.5v-1.2c0-1.1-0.6-1.5-1.3-1.5c-0.7,0-1.3,0.4-1.3,1.5V74.5z"/>
	<path fill="#595A5C" d="M82,77.2h-1.6v-3.8c0-1-0.3-1.5-1.2-1.5c-0.5,0-1,0.3-1.2,0.8v4.5h-1.6v-6.6h1.6v0.7c0.3-0.5,1-0.9,1.8-0.9
		c1.5,0,2.3,1,2.3,2.7V77.2z"/>
	<path fill="#595A5C" d="M85.5,75c0,0.6,0.2,0.9,0.8,0.9h0.9v1.4h-1.1c-1.5,0-2.2-0.7-2.2-2.1V72h-0.9v-1.4h0.9v-1.9h1.6v1.9H87V72
		h-1.5V75z"/>
	<path fill="#595A5C" d="M94,77.2h-1.6v-3.8c0-1-0.3-1.5-1.2-1.5c-0.5,0-1,0.3-1.2,0.8v4.5h-1.6v-9.4h1.6v3.6c0.3-0.5,1-0.9,1.8-0.9
		c1.5,0,2.3,1,2.3,2.7V77.2z"/>
	<polyline fill="#7A62AA" points="30.4,84.1 116.8,84.1 116.8,83.7 30.4,83.7 	"/>
</g>
</svg>
