<?xml version="1.0" encoding="utf-8"?>
<!-- Generator: Adobe Illustrator 18.0.0, SVG Export Plug-In . SVG Version: 6.00 Build 0)  -->
<!DOCTYPE svg PUBLIC "-//W3C//DTD SVG 1.1//EN" "http://www.w3.org/Graphics/SVG/1.1/DTD/svg11.dtd">
<svg version="1.1" id="Layer_1" xmlns="http://www.w3.org/2000/svg" xmlns:xlink="http://www.w3.org/1999/xlink" x="0px" y="0px"
	 viewBox="0 0 117.8 92.8" enable-background="new 0 0 117.8 92.8" xml:space="preserve">
<g>
	<g>
		<polygon fill="#6C55A4" points="92.9,20.5 91.1,20.5 91.1,20.9 91.7,20.9 91.7,22.8 92.3,22.8 92.3,20.9 92.9,20.9 		"/>
		<path fill="#6C55A4" d="M89.9,24.6h-1v-7.9h-1.5l-2.1,1l0,1.4l1.8-0.7h0v6.2h-1.2c-0.1,0-0.1,0-0.1,0.1v1c0,0.1,0.1,0.1,0.1,0.1h4
			c0.1,0,0.1-0.1,0.1-0.1v-1C90,24.7,90,24.6,89.9,24.6z"/>
		<path fill="#6C55A4" d="M90.5,21.4c-0.3-0.1-0.4-0.2-0.4-0.3c0-0.1,0.1-0.2,0.3-0.2c0.2,0,0.4,0.1,0.5,0.1l0.1-0.4
			c-0.1-0.1-0.3-0.1-0.6-0.1c-0.5,0-0.9,0.3-0.9,0.7c0,0.3,0.3,0.6,0.6,0.7c0.3,0.1,0.4,0.2,0.4,0.3c0,0.2-0.1,0.2-0.4,0.2
			c-0.2,0-0.4-0.1-0.6-0.1l-0.1,0.4c0.1,0.1,0.4,0.1,0.7,0.1c0.6,0,0.9-0.3,0.9-0.7C91.1,21.8,90.9,21.6,90.5,21.4z"/>
		<path fill="#6C55A4" d="M69,75.2h-1.8c-0.3,0-0.5,0.2-0.5,0.5c0,0.3,0.2,0.5,0.5,0.5H69c0.3,0,0.5-0.2,0.5-0.5
			C69.4,75.4,69.2,75.2,69,75.2z"/>
		<path fill="#6C55A4" d="M69,74h-1.8c-0.3,0-0.5,0.2-0.5,0.5c0,0.3,0.2,0.5,0.5,0.5H69c0.3,0,0.5-0.2,0.5-0.5
			C69.4,74.2,69.2,74,69,74z"/>
		<path fill="#6C55A4" d="M65.6,70.2l1-1.6v1.2h-0.1c-0.1,0-0.3,0.1-0.3,0.1C66,70,66,70.2,66,70.3l0.3,3c0,0.2,0.2,0.4,0.5,0.4h2.4
			c0.2,0,0.4-0.2,0.5-0.4l0.3-3c0-0.1,0-0.3-0.1-0.4c-0.1-0.1-0.2-0.1-0.3-0.1h-0.1v-2.9c0-0.3-0.2-0.5-0.5-0.5H67c0,0-0.1,0-0.1,0
			l0,0l0,0c0,0,0,0-0.1,0l0,0c0,0-0.1,0.1-0.1,0.1l0,0l0,0l-1.8,3c-0.1,0.2-0.1,0.5,0.2,0.6C65.2,70.5,65.5,70.4,65.6,70.2z
			 M67,70.7c0.3,0,0.5-0.2,0.5-0.5v-2.9h0.9v2.9c0,0.3,0.2,0.5,0.5,0.5H69l-0.2,2.1h-1.6L67,70.7L67,70.7z"/>
		<polygon fill="#6C55A4" points="89.9,80.3 89.9,74.9 91.7,74.9 91.7,73.7 86.7,73.7 86.7,74.9 88.5,74.9 88.5,80.3 		"/>
		<path fill="#6C55A4" d="M99.4,79.2c-0.6,0-1.2-0.2-1.6-0.4L97.5,80c0.4,0.2,1.1,0.4,1.8,0.4c1.8,0,2.6-0.9,2.6-2.1
			c0-0.9-0.5-1.6-1.7-2c-0.8-0.3-1.2-0.5-1.2-0.9c0-0.3,0.3-0.6,0.9-0.6c0.6,0,1.1,0.2,1.3,0.3l0.3-1.2c-0.4-0.2-0.9-0.3-1.7-0.3
			c-1.5,0-2.5,0.9-2.5,2c0,1,0.7,1.6,1.8,2c0.8,0.3,1.1,0.5,1.1,0.9C100.5,78.9,100.1,79.2,99.4,79.2z"/>
		<rect x="94.8" y="73.7" fill="#6C55A4" width="1.5" height="6.7"/>
		<path fill="#6C55A4" d="M105.1,78c0.9,0,1.6-0.2,2.1-0.7c0.4-0.4,0.6-0.9,0.6-1.6c0-0.6-0.3-1.2-0.7-1.5c-0.4-0.4-1.1-0.5-2-0.5
			c-0.9,0-1.5,0.1-2,0.1v6.6h1.5v-2.4C104.7,78,104.9,78,105.1,78z M104.6,74.8c0.1,0,0.3,0,0.6,0c0.7,0,1.2,0.4,1.2,1
			c0,0.7-0.5,1.1-1.3,1.1c-0.2,0-0.4,0-0.5,0V74.8z"/>
		<polygon fill="#6C55A4" points="80.5,74.9 80.5,73.7 76.4,73.7 76.4,80.3 80.6,80.3 80.6,79.1 77.9,79.1 77.9,77.5 80.3,77.5 
			80.3,76.3 77.9,76.3 77.9,74.9 		"/>
		<path fill="#6C55A4" d="M83.5,79.2c-0.6,0-1.2-0.2-1.6-0.4L81.5,80c0.4,0.2,1.1,0.4,1.8,0.4c1.8,0,2.6-0.9,2.6-2.1
			c0-0.9-0.5-1.6-1.7-2c-0.9-0.3-1.2-0.5-1.2-0.9c0-0.3,0.3-0.6,0.9-0.6c0.6,0,1.1,0.2,1.3,0.3l0.3-1.2c-0.4-0.2-0.9-0.3-1.7-0.3
			c-1.5,0-2.5,0.9-2.5,2c0,1,0.7,1.6,1.8,2c0.8,0.3,1.1,0.5,1.1,0.9C84.5,78.9,84.1,79.2,83.5,79.2z"/>
		<path fill="#6C55A4" d="M75,75.3c0-0.6-0.3-1.1-0.8-1.3c-0.5-0.3-1-0.4-1.9-0.4c-0.7,0-1.5,0.1-1.9,0.1v6.5c0.3,0,0.9,0.1,1.6,0.1
			c1.3,0,2.1-0.2,2.6-0.6c0.4-0.3,0.7-0.8,0.7-1.4c0-0.8-0.5-1.4-1.3-1.6v0C74.7,76.4,75,75.9,75,75.3z M71.9,74.8
			c0.1,0,0.3,0,0.6,0c0.7,0,1,0.3,1,0.8c0,0.5-0.4,0.8-1.2,0.8h-0.5V74.8z M72.4,79.3c-0.3,0-0.4,0-0.6,0v-1.9h0.5
			c0.7,0,1.3,0.3,1.3,0.9C73.7,79,73.1,79.3,72.4,79.3z"/>
		<path fill="#6C55A4" d="M112.4,68.9c-0.2-0.4-0.6-0.8-1.3-0.8c-0.6,0-1.1,0.3-1.3,0.6c-0.2,0.4-0.2,0.7-0.2,0.8c0,0,0,0.1,0,0.1
			v0.6h-7.4v-0.7c0-0.6,0.3-1.2,1-1.7c1-0.8,2.6-1.6,3.9-2.4c0.7-0.4,1.3-0.9,1.8-1.4c0.5-0.5,0.8-1.2,0.8-1.9c0-1.2-0.7-2-1.3-2.3
			c-0.6-0.3-1.2-0.3-1.3-0.3c-0.9,0-1.3,0-1.6,0v-1.9h0c0.7-0.2,1.2-0.9,1.2-1.7s-0.5-1.4-1.2-1.7v-2.7h0.5c2.8,0,5.1-2.3,5.1-5.1
			V10.7c0-2.8-2.3-5.1-5.1-5.1H70.1c-2.8,0-5.1,2.3-5.1,5.1v35.7c0,2.8,2.3,5.1,5.1,5.1h34.3v2.6c-0.7,0.2-1.3,0.9-1.3,1.7
			c0,0.8,0.5,1.5,1.3,1.7h0v1.9c-0.2,0-0.4,0-0.7,0h0c-1.2,0-2,0.7-2.3,1.3c-0.3,0.6-0.3,1.2-0.3,1.3c0,0.3,0.2,0.5,0.5,0.5
			c0.3,0,0.5-0.2,0.5-0.5c0,0,0,0,0-0.1c0-0.2,0.1-0.6,0.3-0.9c0.2-0.3,0.6-0.6,1.3-0.6h0h0c0.6,0,0.9,0,1.2,0c0.6,0,0.9,0,2,0
			c0,0,0,0,0.1,0c0.2,0,0.6,0.1,1,0.3c0.3,0.2,0.6,0.6,0.7,1.4c0,0.6-0.4,1.2-1,1.7c-1,0.8-2.6,1.6-3.9,2.4
			c-0.7,0.4-1.3,0.9-1.8,1.4c-0.5,0.5-0.8,1.2-0.8,1.9v0.7h-3.3V59.8c0-0.1,0-0.2-0.1-0.3l0,0l0,0l0,0c-0.1-0.1-0.2-0.1-0.3-0.1h0
			c-0.3,0-0.5,0.2-0.5,0.5v0c0,0,0,0,0,0.1c0,0.2-0.1,0.7-0.3,1.1c-0.2,0.4-0.6,0.7-1.4,0.7h-3.9c-0.1-1-0.7-1.6-1.3-1.8
			c-0.7-0.3-1.3-0.3-1.3-0.3h-3.2c0,0-0.6,0-1.3,0.3c-0.7,0.3-1.4,1.1-1.3,2.3v6.5c0,0.9-0.4,1.2-0.8,1.5c-0.2,0.1-0.4,0.2-0.6,0.2
			c-0.1,0-0.2,0-0.2,0c0,0-0.1,0-0.1,0l-7.1,0v-0.6c0-0.6,0.4-1.2,1-1.7c1-0.8,2.6-1.6,3.9-2.4c0.7-0.4,1.3-0.9,1.8-1.4
			c0.5-0.5,0.8-1.2,0.8-1.9c0-1.2-0.7-2-1.3-2.3c-0.7-0.3-1.2-0.3-1.3-0.3c-1.2,0-1.4,0-2,0c-0.3,0-0.6,0-1.2,0h0
			c-1.2,0-2,0.7-2.3,1.3c-0.3,0.6-0.3,1.2-0.3,1.3c0,0.3,0.2,0.5,0.5,0.5c0.3,0,0.5-0.2,0.5-0.5c0,0,0,0,0-0.1
			c0-0.2,0.1-0.6,0.3-0.9c0.2-0.3,0.6-0.6,1.3-0.6h0h0c0.6,0,0.9,0,1.2,0c0.6,0,0.9,0,2,0c0,0,0,0,0.1,0c0.2,0,0.6,0.1,1,0.3
			c0.4,0.2,0.6,0.6,0.7,1.4c0,0.6-0.4,1.2-1,1.7c-1,0.8-2.6,1.6-3.9,2.4c-0.7,0.4-1.3,0.9-1.8,1.4c-0.5,0.5-0.8,1.2-0.8,1.9
			c0,0.1,0,1.1,0,1.1v0.5l8,0c0,0,0.6,0,1.3-0.3c0.3-0.1,0.6-0.4,0.9-0.7c0.2,0.3,0.6,0.6,0.9,0.7c0.7,0.3,1.2,0.3,1.3,0.3h3.3
			c1.2,0,2-0.7,2.3-1.3c0.3-0.7,0.3-1.2,0.3-1.3l0-6h3.8c0.6,0,1.1-0.2,1.5-0.5c0.1,0,0.1-0.1,0.2-0.1v8.2h-4.2
			c-0.3,0-0.5,0.2-0.5,0.5c0,0.3,0.2,0.5,0.5,0.5c0,0,2,0,4.6,0l0,0l0,0h7.5l0,0l0,0h4.6v10.3c0,0.4-0.1,0.4-0.3,0.5
			c-0.1,0-0.2,0.1-0.2,0.1c0,0-0.1,0-0.1,0H68.5v-4.9c0-0.3-0.2-0.5-0.5-0.5c-0.3,0-0.5,0.2-0.5,0.5v4.9h-0.6
			c-0.7,0-1.2,0.4-1.4,0.8c-0.2,0.4-0.2,0.7-0.2,0.8c0,0,0,0.4,0.2,0.7c0.2,0.4,0.7,0.8,1.4,0.8h0c0.7,0,1.2-0.4,1.3-0.8
			c0.2-0.4,0.2-0.7,0.2-0.7v-0.6l40.4,0c0,0,0.4,0,0.7-0.2c0.4-0.2,0.8-0.7,0.8-1.4V71.2h0.6c0.7,0,1.2-0.4,1.4-0.8
			c0.2-0.4,0.2-0.7,0.2-0.8v0C112.6,69.6,112.6,69.3,112.4,68.9z M70.1,50c-1,0-1.9-0.4-2.5-1c-0.6-0.6-1-1.5-1-2.5V10.7
			c0-1,0.4-1.9,1-2.5c0.6-0.6,1.5-1,2.5-1h35.7c1,0,1.9,0.4,2.5,1c0.6,0.6,1,1.5,1,2.5v35.7c0,1-0.4,1.9-1,2.5c-0.6,0.6-1.5,1-2.5,1
			h-0.5v-4.6c0-1.6-0.6-2.5-1.4-3c-0.7-0.5-1.4-0.5-1.5-0.5h-5.3L97,39.7c-0.1-0.4-0.4-0.7-0.8-0.7H93c-0.1-0.7-0.4-1.2-0.7-1.5
			c-0.4-0.5-0.8-0.6-0.9-0.6l-0.1,0h0c0,0-0.4-0.1-0.7-0.3c-0.2-0.1-0.3-0.2-0.4-0.3c-0.1-0.1-0.1-0.3-0.1-0.5v-1.3
			c0.1,0,0.1-0.1,0.2-0.1c0.3-0.2,0.6-0.4,0.8-0.7c0.2-0.3,0.4-0.6,0.3-1c0-0.4-0.1-0.8-0.3-1c-0.1-0.1-0.2-0.2-0.2-0.3
			c1.2-0.5,2.2-1.2,3-2.1c0.8-0.9,1.5-1.9,1.9-2.9c0.3,0,1.1,0.2,2.1,0.2c1,0,2.1-0.1,3.2-0.5c1.1-0.4,2.1-1.2,2.4-2.6
			c1.1-4,1.1-3.9,2-6.8c0.2-0.7,0.3-1.3,0.3-1.8c0-1.1-0.5-2-1.2-2.4c-0.7-0.5-1.6-0.6-2.5-0.6c-1.8,0-3.7,0.6-4.6,0.9
			c0.1-0.9,0.1-1.4,0.1-1.4c0-0.2-0.1-0.4-0.2-0.6c-0.1-0.2-0.3-0.2-0.6-0.2H79.2c-0.2,0-0.4,0.1-0.6,0.2c-0.1,0.2-0.2,0.4-0.2,0.6
			c0,0,0,0.5,0.1,1.2c-1-0.3-2.6-0.7-4.1-0.7c-0.9,0-1.8,0.1-2.5,0.6c-0.8,0.5-1.3,1.3-1.2,2.4c0,0.6,0.1,1.2,0.3,1.8
			c0.9,2.9,0.9,2.8,2,6.8c0.4,1.4,1.4,2.2,2.5,2.6c1.1,0.4,2.3,0.5,3.3,0.5c0.7,0,1.2,0,1.6-0.1c0.4,1,1,2,1.8,2.9
			c0.8,0.9,1.8,1.7,2.9,2.1c-0.1,0.1-0.2,0.2-0.3,0.3c-0.2,0.3-0.4,0.6-0.3,1c0,0.4,0.1,0.8,0.3,1c0.2,0.3,0.6,0.6,0.9,0.8v1.3
			c0,0.2-0.1,0.4-0.1,0.5c-0.1,0.2-0.4,0.4-0.7,0.5c-0.1,0.1-0.2,0.1-0.3,0.1c0,0-0.1,0-0.1,0l0,0l-0.1,0c-0.1,0-0.5,0.2-0.9,0.6
			c-0.3,0.3-0.6,0.8-0.7,1.5h-3.2c-0.4,0-0.7,0.3-0.8,0.7l-1,6.8c0,0.2,0,0.4,0.2,0.6c0.1,0.2,0.4,0.3,0.6,0.3h18.3
			c0.2,0,0.4-0.1,0.6-0.3c0.1-0.2,0.2-0.4,0.2-0.6l-0.5-3.6h5.1c0.1,0,0.6,0,1,0.3c0.4,0.3,0.9,0.8,0.9,2.2V50H70.1z M88,30.3
			c-1.8,0-3.3-0.9-4.5-2.2c-1.2-1.3-1.9-3.1-2.2-4.6c-0.3-2-0.7-5.2-0.9-7.8c-0.2-1.7-0.3-3.1-0.4-4H96c-0.1,0.9-0.2,2.6-0.3,4.4
			c-0.2,2.8-0.5,6-0.7,7.4c-0.2,1.5-1.1,3.2-2.3,4.6C91.4,29.4,89.8,30.3,88,30.3z M89.9,32.6c0,0,0,0.1-0.1,0.1
			c-0.1,0.1-0.3,0.3-0.6,0.4l0,0c-0.1,0-0.1,0-0.2,0.1c-0.3,0.1-0.6,0.1-1,0.1c-0.6,0-1.1-0.2-1.5-0.3c-0.2-0.1-0.3-0.2-0.3-0.3
			c-0.1-0.1-0.1-0.1-0.1-0.1c0,0,0-0.1,0.1-0.1c0.1-0.1,0.3-0.3,0.6-0.4c0.3-0.1,0.7-0.2,1.2-0.2h0c0.6,0,1.1,0.1,1.5,0.3
			c0.2,0.1,0.3,0.2,0.3,0.3C89.9,32.5,89.9,32.6,89.9,32.6z M87,37.1c0.3-0.4,0.4-0.8,0.4-1.4v-0.9c0.2,0,0.4,0,0.6,0
			c0.2,0,0.4,0,0.5,0v0.9c0,0.5,0.2,1,0.4,1.4c0.4,0.5,0.9,0.8,1.3,1c0.3,0.1,0.5,0.2,0.6,0.2c0.1,0,0.2,0.1,0.3,0.3
			c0.1,0.1,0.1,0.2,0.2,0.4h-6.9c0.1-0.2,0.2-0.4,0.3-0.5c0.1-0.1,0.2-0.1,0.2-0.2l0,0c0.2,0,0.6-0.2,1.1-0.4
			C86.4,37.7,86.7,37.5,87,37.1z M95.5,40.5l0.7,5.3H79.7l0.7-5.3H95.5z M96.3,24.8c0.1-0.3,0.2-0.6,0.2-0.9
			c0.3-1.5,0.5-4.7,0.7-7.5c0.1-0.8,0.1-1.5,0.2-2.2c0,0,0.1,0,0.1,0c0,0,0,0,0.1,0c0.5-0.2,2.8-0.9,4.5-0.9c0.7,0,1.3,0.1,1.7,0.3
			c0.3,0.2,0.5,0.5,0.5,1.1c0,0.3-0.1,0.8-0.3,1.4c-0.9,2.9-0.9,2.9-2,6.9c-0.2,0.8-0.7,1.2-1.5,1.6c-0.8,0.3-1.8,0.4-2.7,0.4
			c-0.5,0-1,0-1.4-0.1C96.4,24.8,96.3,24.8,96.3,24.8z M80,24.8c-0.3,0-0.7,0-1.1,0c-0.9,0-2-0.1-2.8-0.4c-0.8-0.3-1.4-0.8-1.6-1.6
			c-1.1-4-1.1-4-2-6.9c-0.2-0.6-0.3-1-0.3-1.4c0-0.7,0.2-0.9,0.5-1.1c0.3-0.2,1-0.4,1.7-0.4c1,0,2.2,0.2,3.1,0.5
			c0.4,0.1,0.8,0.2,1.1,0.3c0.3,2.9,0.7,7.3,1.1,9.9C79.9,24.1,80,24.5,80,24.8z M104.9,56.7c-0.5,0-0.9-0.4-0.9-0.9
			c0-0.5,0.4-0.9,0.9-0.9c0.5,0,0.9,0.4,0.9,0.9C105.8,56.3,105.4,56.7,104.9,56.7z M88.8,60.5C88.8,60.5,88.8,60.5,88.8,60.5
			c0.2,0,0.7,0.1,1,0.3c0.3,0.2,0.5,0.4,0.6,0.9h-0.5c-0.9,0-1.2-0.4-1.5-0.8c-0.1-0.1-0.1-0.3-0.1-0.4H88.8z M90.5,68.6
			C90.5,68.6,90.5,68.6,90.5,68.6c0,0.2-0.1,0.7-0.3,1c-0.2,0.4-0.6,0.6-1.4,0.7h-3.2c0,0,0,0-0.1,0c-0.2,0-0.6-0.1-1-0.3
			c-0.4-0.2-0.6-0.6-0.7-1.4v-6.5c0-0.9,0.4-1.2,0.8-1.5c0.2-0.1,0.4-0.2,0.6-0.2c0.1,0,0.2,0,0.2,0c0,0,0.1,0,0.1,0h1.7
			c0,0.2,0.1,0.5,0.3,0.8c0.3,0.7,1.1,1.4,2.3,1.3h0.6V68.6z M67.5,83.7c0,0,0,0.2-0.1,0.4c-0.1,0.1-0.2,0.2-0.5,0.2
			c-0.4,0-0.4-0.1-0.5-0.3c0-0.1-0.1-0.2-0.1-0.2c0,0,0-0.1,0-0.1v0c0,0,0-0.2,0.1-0.3c0.1-0.1,0.2-0.2,0.5-0.2h0.6V83.7z M111.6,70
			c-0.1,0.1-0.2,0.2-0.5,0.2h-0.6v-0.7c0-0.1,0-0.2,0.1-0.3c0.1-0.1,0.1-0.2,0.5-0.2c0.3,0,0.4,0.1,0.5,0.3c0,0.1,0.1,0.2,0.1,0.3
			c0,0,0,0.1,0,0.1C111.7,69.8,111.6,69.9,111.6,70z"/>
		<path fill="#6C55A4" d="M83.7,45.3l8.6,0c0.2,0,0.4-0.1,0.5-0.2c0.1-0.1,0.2-0.3,0.2-0.5v-2.7c0-0.2-0.1-0.4-0.2-0.5
			c-0.1-0.1-0.3-0.2-0.5-0.2h-8.6c-0.2,0-0.4,0.1-0.5,0.2c-0.1,0.1-0.2,0.3-0.2,0.5v2.7c0,0.2,0.1,0.4,0.2,0.5
			C83.3,45.2,83.5,45.3,83.7,45.3z M84.4,42.6h7.1v1.2h-7.1V42.6z"/>
	</g>
	<g>
		<path fill="none" d="M32.9,32.3c-0.3-0.2-0.9-0.3-1.5-0.3h0c-0.4,0-0.9,0.1-1.2,0.2c-0.3,0.1-0.5,0.3-0.6,0.4
			c-0.1,0.1-0.1,0.1-0.1,0.1c0,0,0,0.1,0.1,0.1c0,0.1,0.2,0.2,0.3,0.3c0.3,0.2,0.9,0.3,1.5,0.3c0.4,0,0.7-0.1,1-0.1
			c0.1,0,0.1-0.1,0.2-0.1c0.3-0.1,0.5-0.3,0.6-0.4c0.1-0.1,0.1-0.1,0.1-0.1c0,0,0-0.1-0.1-0.1C33.2,32.5,33.1,32.4,32.9,32.3z"/>
		<path fill="none" d="M28.4,38.4c0,0-0.1,0.1-0.2,0.2c-0.1,0.1-0.2,0.3-0.3,0.5h6.9c-0.1-0.2-0.1-0.3-0.2-0.4
			c-0.1-0.2-0.2-0.2-0.3-0.3c-0.1,0-0.4-0.1-0.6-0.2c-0.4-0.2-0.9-0.5-1.3-1c-0.3-0.4-0.4-0.8-0.4-1.4c0-0.4,0-0.6,0-0.9
			c-0.2,0-0.4,0-0.6,0c-0.2,0-0.4,0-0.6,0v0.9c0,0.5-0.2,1-0.4,1.4c-0.3,0.4-0.6,0.6-0.9,0.8C29.1,38.2,28.7,38.3,28.4,38.4
			L28.4,38.4z"/>
		<path fill="none" d="M9.8,83.5c-0.1,0.1-0.1,0.3-0.1,0.4l0,0c0,0,0,0,0,0.1c0,0.1,0,0.2,0.1,0.2c0.1,0.2,0.1,0.3,0.5,0.3
			c0.4,0,0.4-0.1,0.5-0.2c0.1-0.1,0.1-0.3,0.1-0.4v0v-0.6h-0.6C10,83.2,9.9,83.3,9.8,83.5z"/>
		<path fill="none" d="M23.1,45.9h16.6L39,40.6H23.9L23.1,45.9z M26.3,41.9c0-0.2,0.1-0.4,0.2-0.5c0.1-0.1,0.3-0.2,0.5-0.2h8.7
			c0.2,0,0.4,0.1,0.5,0.2c0.1,0.1,0.2,0.3,0.2,0.5v2.7c0,0.2-0.1,0.4-0.2,0.5c-0.1,0.1-0.3,0.2-0.5,0.2h-8.7c-0.2,0-0.4-0.1-0.5-0.2
			c-0.1-0.1-0.2-0.3-0.2-0.5V41.9z"/>
		<path fill="none" d="M43.9,24.5c0.8-0.3,1.3-0.8,1.5-1.6c1.1-4,1.1-4,2-6.9c0.2-0.6,0.3-1,0.3-1.4c0-0.7-0.2-0.9-0.5-1.1
			c-0.3-0.2-0.9-0.4-1.7-0.3c-1.8,0-4,0.7-4.5,0.9c-0.1,0-0.1,0-0.1,0c0,0-0.1,0-0.1,0c0,0.7-0.1,1.4-0.2,2.2
			c-0.2,2.8-0.5,6-0.7,7.5c-0.1,0.3-0.1,0.6-0.2,0.9c0.1,0,0.1,0,0.2,0c0.3,0,0.8,0.1,1.4,0.1C42.1,24.9,43.1,24.8,43.9,24.5z"/>
		<path fill="none" d="M21,13.6c-0.9-0.2-2.1-0.5-3.1-0.5c-0.7,0-1.3,0.1-1.7,0.4c-0.3,0.2-0.5,0.5-0.5,1.1c0,0.3,0.1,0.8,0.3,1.4
			c0.9,2.9,0.9,2.9,2,6.9c0.2,0.8,0.8,1.2,1.6,1.6c0.8,0.3,1.9,0.4,2.8,0.4c0.4,0,0.8,0,1.1,0c-0.1-0.3-0.2-0.7-0.2-1
			c-0.4-2.6-0.9-7-1.1-9.9C21.8,13.9,21.4,13.8,21,13.6z"/>
		<rect x="27.9" y="42.7" fill="none" width="7.1" height="1.2"/>
		<path fill="none" d="M12.1,73l0.2-2.1h-0.1c-0.3,0-0.5-0.2-0.5-0.5v-2.9h-0.9v2.9c0,0.3-0.2,0.5-0.5,0.5h-0.1l0.2,2.1H12.1z"/>
		<path fill="none" d="M33.3,61.8h0.6c-0.1-0.5-0.3-0.7-0.6-0.9c-0.4-0.2-0.8-0.3-1-0.3c0,0-0.1,0-0.1,0h-0.5c0,0.1,0.1,0.3,0.1,0.4
			C32,61.4,32.4,61.8,33.3,61.8z"/>
		<path fill="none" d="M31,61.4c-0.1-0.3-0.2-0.6-0.3-0.8H29c0,0,0,0-0.1,0c0,0-0.1,0-0.2,0c-0.2,0-0.4,0.1-0.6,0.2
			c-0.4,0.2-0.8,0.6-0.8,1.5v6.5c0,0.8,0.3,1.1,0.7,1.4c0.4,0.2,0.8,0.3,1,0.3c0,0,0.1,0,0.1,0h3.2c0.8,0,1.1-0.3,1.4-0.7
			c0.2-0.4,0.3-0.8,0.3-1c0,0,0-0.1,0-0.1v-6h-0.6C32,62.7,31.3,62,31,61.4z"/>
		<path fill="none" d="M47.9,45.5c0-1.3-0.5-1.9-0.9-2.2c-0.4-0.3-0.9-0.3-1-0.3h-5.2l0.5,3.6c0,0.2,0,0.4-0.2,0.6
			c-0.1,0.2-0.4,0.3-0.6,0.3H22.3c-0.2,0-0.4-0.1-0.6-0.3c-0.1-0.2-0.2-0.4-0.2-0.6l1-6.8c0.1-0.4,0.4-0.7,0.8-0.7h3.2
			c0.1-0.7,0.4-1.2,0.7-1.5c0.4-0.5,0.8-0.6,0.9-0.6l0.1,0l0,0c0,0,0,0,0.1,0c0.1,0,0.2-0.1,0.3-0.1c0.2-0.1,0.5-0.3,0.7-0.5
			c0.1-0.1,0.1-0.3,0.1-0.5v-1.3c-0.4-0.2-0.7-0.4-0.9-0.8c-0.2-0.3-0.3-0.6-0.3-1c0-0.4,0.1-0.8,0.3-1c0.1-0.1,0.2-0.2,0.3-0.3
			c-1.1-0.5-2.1-1.3-2.9-2.1c-0.8-0.9-1.4-1.8-1.8-2.9c-0.4,0-1,0.1-1.6,0.1c-1,0-2.2-0.1-3.3-0.5c-1.1-0.4-2.2-1.2-2.5-2.6
			c-1.1-4-1.1-3.9-2-6.8c-0.2-0.7-0.3-1.3-0.3-1.8c0-1.1,0.5-2,1.2-2.4c0.7-0.5,1.6-0.6,2.5-0.6c1.5,0,3,0.4,4.1,0.7
			c-0.1-0.8-0.1-1.2-0.1-1.2c0-0.2,0.1-0.4,0.2-0.6c0.1-0.2,0.3-0.2,0.6-0.2h17.6c0.2,0,0.4,0.1,0.6,0.2c0.1,0.2,0.2,0.4,0.2,0.6
			c0,0,0,0.6-0.1,1.4c0.9-0.3,2.8-0.8,4.6-0.9c0.9,0,1.7,0.1,2.5,0.6c0.7,0.5,1.2,1.3,1.2,2.4c0,0.6-0.1,1.2-0.3,1.8
			c-0.9,2.9-0.9,2.8-2,6.8c-0.4,1.4-1.4,2.2-2.4,2.6c-1.1,0.4-2.2,0.5-3.2,0.5c-1,0-1.8-0.1-2.1-0.2c-0.5,1-1.1,2.1-1.9,2.9
			c-0.8,0.9-1.8,1.7-3,2.1c0.1,0.1,0.2,0.2,0.3,0.3c0.2,0.3,0.3,0.6,0.3,1c0,0.4-0.1,0.8-0.3,1c-0.2,0.3-0.5,0.5-0.8,0.7
			c0,0-0.1,0.1-0.2,0.1c0,0.3,0,0.7,0,1.3c0,0.2,0,0.3,0.1,0.5c0.1,0.1,0.2,0.2,0.4,0.3c0.3,0.2,0.7,0.3,0.7,0.3l0.1,0
			c0.1,0,0.5,0.2,0.9,0.6c0.3,0.3,0.6,0.8,0.7,1.5h3.2c0.4,0,0.7,0.3,0.8,0.7l0.3,2.3H46c0.1,0,0.8,0,1.5,0.5c0.7,0.4,1.4,1.4,1.4,3
			v4.6h0.5c1,0,1.9-0.4,2.5-1c0.7-0.6,1-1.5,1-2.5V10.8c0-1-0.4-1.9-1-2.5c-0.6-0.6-1.5-1-2.5-1H13.5c-1,0-1.9,0.4-2.5,1
			c-0.6,0.6-1,1.5-1,2.5v35.8c0,1,0.4,1.9,1,2.5c0.6,0.6,1.5,1,2.5,1h34.4V45.5z"/>
		<path fill="none" d="M36.1,28.2c1.2-1.3,2.1-3.1,2.3-4.6c0.2-1.4,0.5-4.6,0.7-7.4c0.1-1.8,0.2-3.5,0.3-4.5h-16
			c0.1,0.9,0.2,2.3,0.3,4c0.3,2.7,0.6,5.8,0.9,7.8c0.2,1.5,1,3.3,2.2,4.6c1.2,1.3,2.7,2.2,4.5,2.2C33.3,30.4,34.9,29.5,36.1,28.2z
			 M33.4,25.8c0,0.1-0.1,0.1-0.1,0.1h-4c-0.1,0-0.1,0-0.1-0.1v-1c0-0.1,0.1-0.1,0.1-0.1h1.2v-6.2h0l-1.5,0.7l-0.3-1.4l2.1-1h1.5v7.9
			h1c0.1,0,0.1,0.1,0.1,0.1V25.8z M33.5,22.9c-0.3,0-0.5-0.1-0.7-0.1l0.1-0.4c0.1,0.1,0.4,0.1,0.6,0.1c0.2,0,0.4-0.1,0.4-0.3
			c0-0.1-0.1-0.2-0.4-0.3c-0.4-0.1-0.6-0.4-0.6-0.7c0-0.4,0.3-0.7,0.9-0.7c0.3,0,0.5,0.1,0.6,0.1L34.3,21c-0.1,0-0.3-0.1-0.5-0.1
			c-0.2,0-0.3,0.1-0.3,0.2c0,0.1,0.1,0.2,0.4,0.3c0.4,0.2,0.6,0.4,0.6,0.7C34.5,22.6,34.2,22.9,33.5,22.9z M35.7,22.9h-0.5V21h-0.6
			v-0.4h1.8V21h-0.6V22.9z"/>
		<path fill="none" d="M49.8,75.9c0-0.6-0.4-1-1.2-1c-0.3,0-0.5,0-0.6,0v2c0.1,0,0.3,0,0.5,0C49.3,77,49.8,76.5,49.8,75.9z"/>
		<path fill="none" d="M15.8,77.5h-0.5v1.9c0.1,0,0.3,0,0.6,0c0.7,0,1.3-0.3,1.3-1C17.1,77.8,16.5,77.5,15.8,77.5z"/>
		<path fill="none" d="M16.9,75.6c0-0.5-0.4-0.8-1-0.8c-0.3,0-0.5,0-0.6,0v1.6h0.5C16.5,76.4,16.9,76.1,16.9,75.6z"/>
		<path fill="none" d="M55,69.5c-0.1-0.2-0.2-0.3-0.5-0.3c-0.4,0-0.4,0.1-0.5,0.2c-0.1,0.1-0.1,0.3-0.1,0.3v0l0,0v0.6h0.6
			c0.4,0,0.4-0.1,0.5-0.2c0.1-0.1,0.1-0.3,0.1-0.3c0,0,0,0,0-0.1C55.1,69.7,55.1,69.6,55,69.5z"/>
		<path fill="#6C55A4" d="M48.6,78.1c0.9,0,1.6-0.2,2.1-0.7c0.4-0.4,0.6-0.9,0.6-1.6c0-0.7-0.3-1.2-0.7-1.5c-0.4-0.4-1.1-0.5-2-0.5
			c-0.9,0-1.5,0.1-2,0.1v6.6h1.5v-2.4C48.2,78.1,48.4,78.1,48.6,78.1z M48.1,74.9c0.1,0,0.3,0,0.6,0c0.7,0,1.2,0.4,1.2,1
			c0,0.7-0.5,1.1-1.3,1.1c-0.2,0-0.4,0-0.5,0V74.9z"/>
		<path fill="#6C55A4" d="M12.3,75.4h-1.8c-0.3,0-0.5,0.2-0.5,0.5c0,0.3,0.2,0.5,0.5,0.5h1.8c0.3,0,0.5-0.2,0.5-0.5
			C12.8,75.6,12.6,75.4,12.3,75.4z"/>
		<path fill="#6C55A4" d="M56.1,69.8c0,0,0-0.4-0.2-0.7c-0.2-0.4-0.6-0.8-1.3-0.8c-0.6,0-1.1,0.3-1.3,0.6C53,69.2,53,69.6,53,69.7
			c0,0,0,0.1,0,0.1v0.6h-4.1V60.1l0,0c0,0,0-0.1,0-0.1v-0.5c0.7-0.2,1.2-0.9,1.2-1.7c0-0.8-0.5-1.4-1.2-1.7v-4.4h0.5
			c2.8,0,5.1-2.3,5.1-5.1V10.8c0-2.8-2.3-5.1-5.1-5.1H13.5c-2.8,0-5.1,2.3-5.1,5.1v35.8c0,2.8,2.3,5.1,5.1,5.1h34.4v4.4
			c-0.7,0.2-1.3,0.9-1.3,1.7c0,0.8,0.5,1.5,1.3,1.7v0.5c0,1-0.4,1.4-0.8,1.6c-0.2,0.1-0.4,0.2-0.6,0.2c-0.1,0-0.2,0-0.2,0
			c0,0,0,0,0,0h0H43c-0.3,0-0.5,0.2-0.5,0.5c0,0.3,0.2,0.5,0.5,0.5h3.2c0,0,0.6,0,1.3-0.3c0.1-0.1,0.3-0.1,0.4-0.2v8.3h-6.6V59.9v0
			c0-0.1,0-0.2-0.1-0.3l0,0l0,0l0,0c-0.1-0.1-0.2-0.1-0.3-0.1h0c-0.3,0-0.5,0.2-0.5,0.5v0v0c0,0,0,0,0,0.1c0,0.2-0.1,0.7-0.3,1.1
			c-0.3,0.4-0.6,0.7-1.4,0.7h-3.9c-0.1-1-0.7-1.6-1.3-1.8c-0.7-0.3-1.2-0.3-1.3-0.3H29c0,0-0.6,0-1.3,0.3c-0.7,0.3-1.4,1.1-1.3,2.3
			v6.5c0,0.9-0.4,1.2-0.8,1.5c-0.2,0.1-0.4,0.2-0.6,0.2c-0.1,0-0.2,0-0.2,0c0,0-0.1,0-0.1,0l-7.1,0v-0.6c0-0.6,0.4-1.2,1-1.7
			c1-0.8,2.6-1.6,3.9-2.4c0.7-0.4,1.3-0.9,1.8-1.4c0.5-0.5,0.8-1.2,0.8-1.9c0-1.2-0.7-2-1.3-2.3c-0.7-0.3-1.3-0.3-1.3-0.3
			c-1.1,0-1.4,0-2,0c-0.3,0-0.6,0-1.2,0c0,0,0,0,0,0c-1.2,0-2,0.7-2.3,1.3c-0.3,0.6-0.3,1.2-0.3,1.3c0,0.3,0.2,0.5,0.5,0.5
			c0.3,0,0.5-0.2,0.5-0.5c0,0,0,0,0-0.1c0-0.2,0.1-0.6,0.3-1c0.2-0.3,0.6-0.6,1.3-0.6h0h0h0c0.6,0,0.9,0,1.2,0c0.6,0,0.9,0,2,0
			c0,0,0,0,0.1,0c0.2,0,0.6,0.1,1,0.3c0.4,0.2,0.6,0.6,0.7,1.4c0,0.6-0.3,1.2-1,1.7c-1,0.8-2.6,1.6-3.9,2.4
			c-0.7,0.4-1.3,0.9-1.8,1.4c-0.5,0.5-0.8,1.2-0.8,1.9c0,0.1,0,1.1,0,1.1v0.5l8,0c0,0,0.6,0,1.3-0.3c0.3-0.1,0.6-0.4,0.9-0.7
			c0.2,0.3,0.6,0.6,0.9,0.7c0.7,0.3,1.3,0.3,1.3,0.3h3.2h0c1.2,0,2-0.7,2.3-1.3c0.3-0.7,0.3-1.2,0.3-1.3v-6h3.8
			c0.6,0,1.1-0.2,1.5-0.5c0.1,0,0.1-0.1,0.2-0.1v8.3h-4.2c-0.3,0-0.5,0.2-0.5,0.5c0,0.3,0.2,0.5,0.5,0.5c0,0,2,0,4.6,0h0h0h7.5h0h0
			H53v10.3c0,0.4-0.1,0.4-0.3,0.5c-0.1,0-0.2,0.1-0.2,0.1c0,0-0.1,0-0.1,0l0,0H11.9v-4.9c0-0.3-0.2-0.5-0.5-0.5
			c-0.3,0-0.5,0.2-0.5,0.5v4.9h-0.6c-0.7,0-1.2,0.4-1.4,0.8c-0.2,0.4-0.2,0.7-0.2,0.8c0,0,0,0.4,0.2,0.8c0.2,0.4,0.7,0.8,1.4,0.8h0
			c0.7,0,1.2-0.4,1.3-0.8c0.2-0.4,0.2-0.7,0.2-0.8v-0.6h40.5c0,0,0.4,0,0.8-0.2c0.4-0.2,0.8-0.7,0.8-1.4V71.4h0.6
			c0.7,0,1.2-0.4,1.4-0.8C56.1,70.2,56.1,69.8,56.1,69.8L56.1,69.8L56.1,69.8z M32.2,60.6C32.2,60.6,32.2,60.6,32.2,60.6
			c0.2,0,0.7,0.1,1,0.3c0.3,0.2,0.5,0.4,0.6,0.9h-0.6c-0.9,0-1.2-0.4-1.5-0.8c-0.1-0.1-0.1-0.3-0.1-0.4H32.2z M33.9,68.7
			C33.9,68.7,33.9,68.7,33.9,68.7c0,0.2-0.1,0.7-0.3,1c-0.2,0.4-0.6,0.6-1.4,0.7H29c0,0,0,0-0.1,0c-0.2,0-0.6-0.1-1-0.3
			c-0.3-0.2-0.6-0.6-0.7-1.4v-6.5c0-0.9,0.4-1.2,0.8-1.5c0.2-0.1,0.4-0.2,0.6-0.2c0.1,0,0.2,0,0.2,0c0,0,0.1,0,0.1,0h1.7
			c0,0.2,0.1,0.5,0.3,0.8c0.3,0.7,1.1,1.4,2.3,1.3h0.6V68.7z M13.5,50.1c-1,0-1.9-0.4-2.5-1c-0.6-0.6-1-1.5-1-2.5V10.8
			c0-1,0.4-1.9,1-2.5c0.6-0.6,1.5-1,2.5-1h35.8c1,0,1.9,0.4,2.5,1c0.7,0.6,1,1.5,1,2.5v35.8c0,1-0.4,1.9-1,2.5c-0.6,0.6-1.5,1-2.5,1
			h-0.5v-4.6c0-1.6-0.6-2.5-1.4-3c-0.7-0.5-1.4-0.5-1.5-0.5h-5.3l-0.3-2.3c-0.1-0.4-0.4-0.7-0.8-0.7h-3.2c-0.1-0.7-0.4-1.2-0.7-1.5
			c-0.4-0.5-0.8-0.6-0.9-0.6l-0.1,0c-0.1,0-0.4-0.1-0.7-0.3c-0.2-0.1-0.3-0.2-0.4-0.3c-0.1-0.1-0.1-0.3-0.1-0.5c0-0.6,0-1,0-1.3
			c0.1,0,0.1-0.1,0.2-0.1c0.3-0.2,0.6-0.4,0.8-0.7c0.2-0.3,0.3-0.6,0.3-1c0-0.4-0.1-0.8-0.3-1c-0.1-0.1-0.2-0.2-0.3-0.3
			c1.2-0.5,2.2-1.2,3-2.1c0.8-0.9,1.5-1.9,1.9-2.9c0.3,0,1.1,0.2,2.1,0.2c1,0,2.1-0.1,3.2-0.5c1.1-0.4,2.1-1.2,2.4-2.6
			c1.1-4,1.1-3.9,2-6.8c0.2-0.7,0.3-1.3,0.3-1.8c0-1.1-0.5-2-1.2-2.4c-0.7-0.5-1.6-0.6-2.5-0.6c-1.8,0-3.7,0.6-4.6,0.9
			c0.1-0.9,0.1-1.4,0.1-1.4c0-0.2-0.1-0.4-0.2-0.6c-0.1-0.2-0.3-0.2-0.6-0.2H22.6c-0.2,0-0.4,0.1-0.6,0.2c-0.1,0.2-0.2,0.4-0.2,0.6
			c0,0,0,0.5,0.1,1.2c-1-0.3-2.6-0.7-4.1-0.7c-0.9,0-1.8,0.1-2.5,0.6c-0.8,0.5-1.3,1.3-1.2,2.4c0,0.6,0.1,1.2,0.3,1.8
			c0.9,2.9,0.9,2.8,2,6.8c0.4,1.4,1.4,2.2,2.5,2.6c1.1,0.4,2.3,0.5,3.3,0.5c0.7,0,1.2,0,1.6-0.1c0.4,1,1,2,1.8,2.9
			c0.8,0.9,1.8,1.7,2.9,2.1c-0.1,0.1-0.2,0.2-0.3,0.3c-0.2,0.3-0.3,0.6-0.3,1c0,0.4,0.1,0.8,0.3,1c0.2,0.3,0.6,0.6,0.9,0.8v1.3
			c0,0.2-0.1,0.4-0.1,0.5c-0.1,0.2-0.4,0.4-0.7,0.5c-0.1,0.1-0.2,0.1-0.3,0.1c0,0-0.1,0-0.1,0l0,0l-0.1,0c-0.1,0-0.5,0.2-0.9,0.6
			c-0.3,0.3-0.6,0.8-0.7,1.5h-3.2c-0.4,0-0.7,0.3-0.8,0.7l-1,6.8c0,0.2,0,0.4,0.2,0.6c0.1,0.2,0.4,0.3,0.6,0.3h18.3
			c0.2,0,0.4-0.1,0.6-0.3c0.1-0.2,0.2-0.4,0.2-0.6L40.8,43H46c0.1,0,0.6,0,1,0.3c0.4,0.3,0.9,0.8,0.9,2.2v4.6H13.5z M31.4,30.4
			c-1.8,0-3.3-0.9-4.5-2.2c-1.2-1.3-1.9-3.1-2.2-4.6c-0.3-2-0.7-5.2-0.9-7.8c-0.2-1.7-0.3-3.1-0.3-4h16c-0.1,0.9-0.2,2.6-0.3,4.5
			c-0.2,2.8-0.5,6-0.7,7.4c-0.2,1.5-1.1,3.2-2.3,4.6C34.9,29.5,33.3,30.4,31.4,30.4z M33.3,32.7c0,0,0,0.1-0.1,0.1
			c-0.1,0.1-0.3,0.3-0.6,0.4c-0.1,0-0.2,0-0.2,0.1c-0.3,0.1-0.6,0.1-1,0.1c-0.6,0-1.1-0.1-1.5-0.3c-0.2-0.1-0.3-0.2-0.3-0.3
			c-0.1-0.1-0.1-0.1-0.1-0.1c0,0,0-0.1,0.1-0.1c0.1-0.1,0.3-0.3,0.6-0.4c0.3-0.1,0.7-0.2,1.2-0.2h0c0.6,0,1.1,0.1,1.5,0.3
			c0.2,0.1,0.3,0.2,0.3,0.3C33.3,32.6,33.3,32.6,33.3,32.7z M30.4,37.2c0.3-0.4,0.4-0.8,0.4-1.4v-0.9c0.2,0,0.4,0,0.6,0
			c0.2,0,0.4,0,0.6,0c0,0.2,0,0.5,0,0.9c0,0.5,0.2,1,0.4,1.4c0.4,0.5,0.9,0.8,1.3,1c0.3,0.1,0.5,0.2,0.6,0.2c0.1,0,0.2,0.1,0.3,0.3
			c0.1,0.1,0.1,0.2,0.2,0.4H28c0.1-0.2,0.2-0.4,0.3-0.5c0.1-0.1,0.2-0.1,0.2-0.2l0,0c0.2,0,0.6-0.2,1.1-0.4
			C29.8,37.8,30.1,37.5,30.4,37.2z M39,40.6l0.8,5.3H23.1l0.7-5.3H39z M39.7,24.8c0.1-0.3,0.2-0.6,0.2-0.9c0.3-1.5,0.5-4.7,0.7-7.5
			c0.1-0.8,0.1-1.5,0.2-2.2c0,0,0.1,0,0.1,0c0,0,0,0,0.1,0c0.5-0.2,2.8-0.9,4.5-0.9c0.7,0,1.3,0.1,1.7,0.3c0.3,0.2,0.5,0.5,0.5,1.1
			c0,0.3-0.1,0.8-0.3,1.4c-0.9,2.9-0.9,2.9-2,6.9c-0.2,0.8-0.7,1.2-1.5,1.6c-0.8,0.3-1.8,0.4-2.7,0.4c-0.5,0-1,0-1.4-0.1
			C39.8,24.8,39.7,24.8,39.7,24.8z M23.4,24.9c-0.3,0-0.7,0-1.1,0c-0.9,0-2-0.1-2.8-0.4c-0.8-0.3-1.4-0.8-1.6-1.6
			c-1.1-4-1.1-4-2-6.9c-0.2-0.6-0.3-1-0.3-1.4c0-0.7,0.2-0.9,0.5-1.1c0.3-0.2,1-0.4,1.7-0.4c1,0,2.2,0.2,3.1,0.5
			c0.4,0.1,0.8,0.2,1.1,0.3c0.3,2.9,0.7,7.3,1.1,9.9C23.3,24.2,23.3,24.5,23.4,24.9z M48.4,58.6c-0.5,0-0.9-0.4-0.9-0.9
			c0-0.5,0.4-0.9,0.9-0.9c0.5,0,0.9,0.4,0.9,0.9C49.3,58.2,48.9,58.6,48.4,58.6z M10.9,83.8L10.9,83.8c0,0,0,0.2-0.1,0.4
			c-0.1,0.1-0.2,0.2-0.5,0.2c-0.4,0-0.4-0.1-0.5-0.3c0-0.1-0.1-0.2-0.1-0.2c0,0,0-0.1,0-0.1l0,0c0,0,0-0.2,0.1-0.4
			c0.1-0.1,0.2-0.2,0.5-0.2h0.6V83.8z M55,70.2c-0.1,0.1-0.1,0.2-0.5,0.2h-0.6v-0.6l0,0v0c0-0.1,0-0.2,0.1-0.3
			c0.1-0.1,0.1-0.2,0.5-0.2c0.3,0,0.4,0.1,0.5,0.3c0,0.1,0.1,0.2,0.1,0.3c0,0,0,0.1,0,0.1C55.1,69.9,55.1,70,55,70.2z"/>
		<path fill="#6C55A4" d="M9,70.3l1-1.6v1.2H9.8c-0.1,0-0.2,0.1-0.3,0.2c-0.1,0.1-0.1,0.2-0.1,0.4l0.3,3c0,0.2,0.2,0.4,0.5,0.4h2.4
			c0.2,0,0.4-0.2,0.5-0.4l0.3-3c0-0.1,0-0.3-0.1-0.4c-0.1-0.1-0.2-0.2-0.3-0.2h-0.1v-2.9c0-0.3-0.2-0.5-0.5-0.5h-1.8
			c0,0-0.1,0-0.1,0l0,0l0,0c0,0,0,0-0.1,0l0,0c0,0-0.1,0.1-0.1,0.1l0,0l0,0l-1.8,3c-0.1,0.2-0.1,0.5,0.2,0.6
			C8.6,70.6,8.9,70.5,9,70.3z M10.4,70.9c0.3,0,0.5-0.2,0.5-0.5v-2.9h0.9v2.9c0,0.3,0.2,0.5,0.5,0.5h0.1L12.1,73h-1.6L10.4,70.9
			L10.4,70.9z"/>
		<path fill="#6C55A4" d="M12.3,74.2h-1.8c-0.3,0-0.5,0.2-0.5,0.5c0,0.3,0.2,0.5,0.5,0.5h1.8c0.3,0,0.5-0.2,0.5-0.5
			C12.8,74.4,12.6,74.2,12.3,74.2z"/>
		<path fill="#6C55A4" d="M18.4,75.4c0-0.6-0.3-1.1-0.8-1.3c-0.5-0.3-1-0.4-1.9-0.4c-0.7,0-1.5,0.1-1.9,0.1v6.6
			c0.3,0,0.9,0.1,1.6,0.1c1.3,0,2.1-0.2,2.6-0.6c0.4-0.3,0.7-0.8,0.7-1.4c0-0.9-0.5-1.4-1.3-1.6v0C18.1,76.6,18.4,76,18.4,75.4z
			 M15.3,74.9c0.1,0,0.3,0,0.6,0c0.7,0,1,0.3,1,0.8c0,0.5-0.4,0.8-1.2,0.8h-0.5V74.9z M15.8,79.4c-0.3,0-0.4,0-0.6,0v-1.9h0.5
			c0.7,0,1.3,0.3,1.3,0.9C17.1,79.2,16.5,79.4,15.8,79.4z"/>
		<path fill="#6C55A4" d="M42.9,79.3c-0.6,0-1.2-0.2-1.6-0.4l-0.3,1.2c0.4,0.2,1.1,0.4,1.9,0.4c1.8,0,2.6-0.9,2.6-2.1
			c0-0.9-0.5-1.6-1.7-2c-0.8-0.3-1.2-0.5-1.2-0.9c0-0.3,0.3-0.6,0.9-0.6c0.6,0,1.1,0.2,1.4,0.3l0.3-1.2c-0.4-0.2-0.9-0.3-1.7-0.3
			c-1.5,0-2.5,0.9-2.5,2c0,1,0.7,1.6,1.8,2c0.8,0.3,1.1,0.5,1.1,0.9C43.9,79,43.5,79.3,42.9,79.3z"/>
		<rect x="38.2" y="73.8" fill="#6C55A4" width="1.5" height="6.7"/>
		<path fill="#6C55A4" d="M26.9,79.3c-0.6,0-1.2-0.2-1.6-0.4l-0.3,1.2c0.4,0.2,1.1,0.4,1.8,0.4c1.8,0,2.6-0.9,2.6-2.1
			c0-0.9-0.5-1.6-1.7-2c-0.8-0.3-1.2-0.5-1.2-0.9c0-0.3,0.3-0.6,0.9-0.6c0.6,0,1.1,0.2,1.4,0.3l0.3-1.2c-0.4-0.2-0.9-0.3-1.7-0.3
			c-1.5,0-2.5,0.9-2.5,2c0,1,0.7,1.6,1.8,2c0.8,0.3,1.1,0.5,1.1,0.9C27.9,79,27.5,79.3,26.9,79.3z"/>
		<polygon fill="#6C55A4" points="23.9,75 23.9,73.8 19.8,73.8 19.8,80.5 24,80.5 24,79.2 21.3,79.2 21.3,77.6 23.7,77.6 23.7,76.4 
			21.3,76.4 21.3,75 		"/>
		<polygon fill="#6C55A4" points="33.3,80.5 33.3,75.1 35.1,75.1 35.1,73.8 30.1,73.8 30.1,75.1 31.9,75.1 31.9,80.5 		"/>
		<polygon fill="#6C55A4" points="36.3,20.5 34.5,20.5 34.5,21 35.2,21 35.2,22.9 35.7,22.9 35.7,21 36.3,21 		"/>
		<path fill="#6C55A4" d="M27.1,45.4h8.7c0.2,0,0.4-0.1,0.5-0.2c0.1-0.1,0.2-0.3,0.2-0.5v-2.7c0-0.2-0.1-0.4-0.2-0.5
			c-0.1-0.1-0.3-0.2-0.5-0.2h-8.7c-0.2,0-0.4,0.1-0.5,0.2c-0.1,0.1-0.2,0.3-0.2,0.5v2.7c0,0.2,0.1,0.4,0.2,0.5
			C26.7,45.3,26.9,45.4,27.1,45.4z M27.9,42.7H35v1.2h-7.1V42.7z"/>
		<path fill="#6C55A4" d="M33.9,21.5c-0.3-0.1-0.4-0.2-0.4-0.3c0-0.1,0.1-0.2,0.3-0.2c0.2,0,0.4,0.1,0.5,0.1l0.1-0.4
			c-0.1-0.1-0.3-0.1-0.6-0.1c-0.5,0-0.9,0.3-0.9,0.7c0,0.3,0.3,0.6,0.6,0.7c0.3,0.1,0.4,0.2,0.4,0.3c0,0.2-0.1,0.3-0.4,0.3
			c-0.2,0-0.4-0.1-0.6-0.1l-0.1,0.4c0.1,0.1,0.4,0.1,0.7,0.1c0.6,0,0.9-0.3,0.9-0.7C34.5,21.8,34.3,21.6,33.9,21.5z"/>
		<path fill="#6C55A4" d="M33.3,24.7h-1v-7.9h-1.5l-2.1,1l0.3,1.4l1.5-0.7h0v6.2h-1.2c-0.1,0-0.1,0.1-0.1,0.1v1
			c0,0.1,0.1,0.1,0.1,0.1h4c0.1,0,0.1,0,0.1-0.1v-1C33.4,24.7,33.4,24.7,33.3,24.7z"/>
	</g>
</g>
</svg>
