<?xml version="1.0" encoding="utf-8"?>
<!-- Generator: Adobe Illustrator 18.0.0, SVG Export Plug-In . SVG Version: 6.00 Build 0)  -->
<!DOCTYPE svg PUBLIC "-//W3C//DTD SVG 1.1//EN" "http://www.w3.org/Graphics/SVG/1.1/DTD/svg11.dtd">
<svg version="1.1" id="Layer_1" xmlns="http://www.w3.org/2000/svg" xmlns:xlink="http://www.w3.org/1999/xlink" x="0px" y="0px"
	 viewBox="0 0 117.8 92.8" enable-background="new 0 0 117.8 92.8" xml:space="preserve">
<g>
	<path fill="#7A62A9" d="M86.3,44.9h-0.7c0,10.9-4.4,20.7-11.5,27.8C67,79.8,57.1,84.2,46.3,84.2c-10.9,0-20.7-4.4-27.8-11.5
		C11.4,65.6,7,55.8,7,44.9c0-10.9,4.4-20.7,11.5-27.8C25.6,10,35.4,5.6,46.3,5.6C57.1,5.6,67,10,74.1,17.1
		c7.1,7.1,11.5,16.9,11.5,27.8H86.3H87C87,22.4,68.8,4.2,46.3,4.2C23.8,4.2,5.6,22.4,5.6,44.9c0,22.5,18.2,40.7,40.7,40.7
		C68.8,85.6,87,67.4,87,44.9H86.3z"/>
	<path fill="#7A62A9" d="M54,60.5c0.2,0.7,0.2,1.3,0.2,1.9c0,1-0.3,1.8-0.8,2.3c-0.5,0.5-1.2,0.8-2.3,0.8c-1.8,0-4.3-0.8-7-2.4
		c-2.8-1.6-5.8-3.9-8.7-6.8c-2.9-2.9-5.2-5.9-6.8-8.7c-1.6-2.8-2.5-5.3-2.4-7c0-1,0.3-1.8,0.8-2.3c0.5-0.5,1.2-0.8,2.3-0.8
		c0.6,0,1.2,0.1,1.9,0.3c0.4,0.1,0.8-0.1,0.9-0.5c0.1-0.4-0.1-0.8-0.5-0.9C30.8,36.1,30,36,29.3,36c-1.3,0-2.4,0.3-3.3,1.2
		c-0.8,0.8-1.2,2-1.2,3.3c0,2.2,1,4.8,2.6,7.7c1.7,2.9,4.1,6,7,9c3,3,6.1,5.4,9,7c2.9,1.7,5.6,2.6,7.7,2.6c1.3,0,2.4-0.3,3.3-1.2
		c0.8-0.8,1.2-2,1.2-3.3c0-0.7-0.1-1.4-0.3-2.2c-0.1-0.4-0.5-0.6-0.8-0.5C54.2,59.8,54,60.2,54,60.5L54,60.5z"/>
	<path fill="#7A62A9" d="M12.8,52.4l13.9-13.9c0.3-0.3,0.3-0.7,0-1c-0.3-0.3-0.7-0.3-1,0L11.8,51.4c-0.3,0.3-0.3,0.7,0,1
		C12,52.7,12.5,52.7,12.8,52.4"/>
	<path fill="#7A62A9" d="M40.3,79.9L54.2,66c0.3-0.3,0.3-0.7,0-1c-0.3-0.3-0.7-0.3-1,0L39.3,78.9c-0.3,0.3-0.3,0.7,0,1
		C39.5,80.2,40,80.2,40.3,79.9"/>
	<path fill="#7A62A9" d="M49.1,66.1l15.7-15.7c0.3-0.3,0.3-0.7,0-1c-0.3-0.3-0.7-0.3-1,0L48.1,65.1c-0.3,0.3-0.3,0.7,0,1
		S48.8,66.4,49.1,66.1"/>
	<path fill="#7A62A9" d="M26.6,43.6l15.7-15.7c0.3-0.3,0.3-0.7,0-1s-0.7-0.3-1,0L25.6,42.6c-0.3,0.3-0.3,0.7,0,1
		C25.9,43.9,26.3,43.9,26.6,43.6"/>
	<path fill="#7A62A9" d="M59,37c0.6,0.7,1.2,1.5,1.8,2.2c0.2,0.3,0.7,0.4,1,0.2c0.3-0.2,0.4-0.7,0.2-1c-0.6-0.8-1.2-1.5-1.8-2.3
		c-0.3-0.3-0.7-0.3-1-0.1C58.7,36.3,58.7,36.7,59,37L59,37z"/>
	<path fill="#7A62A9" d="M52.3,30.9c0.7,0.5,1.5,1.1,2.2,1.7c0.3,0.3,0.7,0.2,1-0.1c0.3-0.3,0.2-0.7-0.1-1c-0.8-0.7-1.5-1.3-2.3-1.8
		c-0.3-0.2-0.8-0.2-1,0.2C51.9,30.2,52,30.6,52.3,30.9L52.3,30.9z"/>
	<path fill="#7A62A9" d="M63.9,44.9c0.4,1,0.5,1.9,0.5,2.6c0,0.8-0.2,1.4-0.6,1.8c-0.4,0.4-0.9,0.6-1.8,0.6c-1.4,0-3.4-0.7-5.7-2
		c-2.3-1.3-4.7-3.2-7.1-5.6c-2.4-2.4-4.3-4.8-5.6-7.1c-1.3-2.2-2-4.3-2-5.7c0-0.8,0.2-1.4,0.6-1.8c0.4-0.4,0.9-0.6,1.8-0.6
		c0.6,0,1.3,0.1,2.1,0.4c0.4,0.1,0.8-0.1,0.9-0.5c0.1-0.4-0.1-0.8-0.5-0.9c-0.9-0.3-1.8-0.4-2.6-0.4c-1.1,0-2.1,0.3-2.8,1
		c-0.7,0.7-1,1.7-1,2.8c0,1.8,0.8,4,2.2,6.4c1.4,2.4,3.3,4.9,5.8,7.4c2.4,2.4,5,4.4,7.4,5.8c2.4,1.4,4.6,2.2,6.4,2.2
		c1.1,0,2.1-0.3,2.8-1c0.7-0.7,1-1.7,1-2.8c0-0.9-0.2-2-0.6-3.1c-0.1-0.4-0.5-0.6-0.9-0.4C64,44.2,63.8,44.6,63.9,44.9L63.9,44.9z"
		/>
	<path fill="#7A62A9" d="M42,32.7l13.3-13.3c0.3-0.3,0.3-0.7,0-1s-0.7-0.3-1,0L41.1,31.7c-0.3,0.3-0.3,0.7,0,1
		C41.3,33,41.8,33,42,32.7"/>
	<path fill="#7A62A9" d="M45.3,38.7L60,24c0.3-0.3,0.3-0.7,0-1c-0.3-0.3-0.7-0.3-1,0L44.3,37.7c-0.3,0.3-0.3,0.7,0,1
		C44.5,39,45,39,45.3,38.7"/>
	<path fill="#7A62A9" d="M47.3,40.7L62,26c0.3-0.3,0.3-0.7,0-1c-0.3-0.3-0.7-0.3-1,0L46.3,39.7c-0.3,0.3-0.3,0.7,0,1
		C46.5,41,47,41,47.3,40.7"/>
	<path fill="#7A62A9" d="M51.8,45.3l14.7-14.7c0.3-0.3,0.3-0.7,0-1c-0.3-0.3-0.7-0.3-1,0L50.8,44.3c-0.3,0.3-0.3,0.7,0,1
		C51.1,45.5,51.5,45.5,51.8,45.3"/>
	<path fill="#7A62A9" d="M53.8,47.3l14.7-14.7c0.3-0.3,0.3-0.7,0-1c-0.3-0.3-0.7-0.3-1,0L52.8,46.3c-0.3,0.3-0.3,0.7,0,1
		C53.1,47.5,53.5,47.5,53.8,47.3"/>
	<path fill="#7A62A9" d="M59.6,50.6l13.5-13.5c0.3-0.3,0.3-0.7,0-1c-0.3-0.3-0.7-0.3-1,0L58.6,49.6c-0.3,0.3-0.3,0.7,0,1
		C58.9,50.8,59.3,50.8,59.6,50.6"/>
	<path fill="#7A62A9" d="M59.3,23.7l-0.5-0.5c-0.3,0.3-0.6,0.4-1.1,0.4c-0.6,0-1.4-0.3-2-0.9c-0.6-0.6-0.9-1.4-0.9-2
		c0-0.4,0.1-0.8,0.4-1.1c0.3-0.3,0.6-0.4,1.1-0.4c0.6,0,1.4,0.3,2,0.9c0.6,0.6,0.9,1.4,0.9,2c0,0.4-0.1,0.8-0.4,1.1L59.3,23.7
		l0.5,0.5c0.6-0.6,0.8-1.3,0.8-2.1c0-1.1-0.5-2.1-1.3-3c-0.9-0.9-2-1.3-3-1.3c-0.8,0-1.5,0.3-2.1,0.8c-0.6,0.6-0.8,1.3-0.8,2.1
		c0,1.1,0.5,2.1,1.3,3c0.9,0.9,2,1.3,3,1.3c0.8,0,1.5-0.3,2.1-0.8L59.3,23.7z"/>
	<path fill="#7A62A9" d="M65.8,30.4l-0.5-0.5c-0.3,0.3-0.6,0.4-1.1,0.4c-0.6,0-1.4-0.3-2-0.9c-0.6-0.6-0.9-1.4-0.9-2
		c0-0.4,0.1-0.8,0.4-1.1c0.3-0.3,0.6-0.4,1.1-0.4c0.6,0,1.4,0.3,2,0.9c0.6,0.6,0.9,1.4,0.9,2c0,0.4-0.1,0.8-0.4,1.1L65.8,30.4
		l0.5,0.5c0.6-0.6,0.8-1.3,0.8-2.1c0-1.1-0.5-2.1-1.3-3c-0.9-0.9-2-1.3-3-1.3c-0.8,0-1.5,0.3-2.1,0.8c-0.6,0.6-0.8,1.3-0.8,2.1
		c0,1.1,0.5,2.1,1.3,3c0.9,0.9,2,1.3,3,1.3c0.8,0,1.5-0.3,2.1-0.8L65.8,30.4z"/>
	<path fill="#7A62A9" d="M72.4,36.9l-0.5-0.5c-0.3,0.3-0.6,0.4-1.1,0.4c-0.6,0-1.4-0.3-2-0.9c-0.6-0.6-0.9-1.4-0.9-2
		c0-0.4,0.1-0.8,0.4-1.1c0.3-0.3,0.6-0.4,1.1-0.4c0.6,0,1.4,0.3,2,0.9c0.6,0.6,0.9,1.4,0.9,2c0,0.4-0.1,0.8-0.4,1.1L72.4,36.9
		l0.5,0.5c0.6-0.6,0.8-1.3,0.8-2.1c0-1.1-0.5-2.1-1.3-3c-0.9-0.9-2-1.3-3-1.3c-0.8,0-1.5,0.3-2.1,0.8c-0.6,0.6-0.8,1.3-0.8,2.1
		c0,1.1,0.5,2.1,1.3,3c0.9,0.9,2,1.3,3,1.3c0.8,0,1.5-0.3,2.1-0.8L72.4,36.9z"/>
	<path fill="#7A62A9" d="M55.7,23.7l8.4-8.4c0.3-0.3,0.3-0.7,0-1c-0.3-0.3-0.7-0.3-1,0l-8.4,8.4c-0.3,0.3-0.3,0.7,0,1
		C55,24,55.4,24,55.7,23.7"/>
	<path fill="#7A62A9" d="M62.4,30.3l8.4-8.4c0.3-0.3,0.3-0.7,0-1c-0.3-0.3-0.7-0.3-1,0l-8.4,8.4c-0.3,0.3-0.3,0.7,0,1
		S62.1,30.6,62.4,30.3"/>
	<path fill="#7A62A9" d="M68.9,36.8l8.4-8.4c0.3-0.3,0.3-0.7,0-1c-0.3-0.3-0.7-0.3-1,0l-8.4,8.4c-0.3,0.3-0.3,0.7,0,1
		C68.1,37.1,68.6,37.1,68.9,36.8"/>
	<path fill="#7A62A9" d="M73.9,73.5c0,0,0,0.1,0,2.6c0,3.2,1.7,5,3.4,5.8c1.7,0.8,3.2,0.8,3.3,0.8h2c0.4,0,0.7-0.3,0.7-0.7
		c0-0.4-0.3-0.7-0.7-0.7l-2,0l-0.2,0c-0.5,0-1.8-0.2-2.9-0.9c-1.1-0.7-2.1-1.9-2.1-4.3c0-2.5,0-2.6,0-2.6c0-0.4-0.3-0.7-0.7-0.7
		C74.3,72.8,73.9,73.1,73.9,73.5L73.9,73.5z"/>
	<path fill="#7A62A9" d="M83.9,81v1.8c0,0.4,0.3,0.7,0.7,0.7c0.4,0,0.7-0.3,0.7-0.7V81c0-0.4-0.3-0.7-0.7-0.7
		C84.2,80.3,83.9,80.6,83.9,81"/>
	<path fill="#7A62A9" d="M86,80.6v2.7c0,0.4,0.3,0.7,0.7,0.7c0.4,0,0.7-0.3,0.7-0.7v-2.7c0-0.4-0.3-0.7-0.7-0.7
		C86.3,79.9,86,80.2,86,80.6"/>
	<polygon fill="#7A62A9" points="95.8,78.8 95.1,78.8 95.1,85.6 104.6,85.6 104.6,84.2 112.6,84.2 112.6,82.3 112.6,80.2 
		112.6,79.5 104.6,79.5 104.6,78.8 104.6,78.1 95.1,78.1 95.1,78.8 95.8,78.8 95.8,79.5 103.2,79.5 103.2,80.2 103.2,80.9 
		111.1,80.9 111.1,82.3 111.1,82.8 103.2,82.8 103.2,84.2 96.5,84.2 96.5,78.8 95.8,78.8 95.8,79.5 	"/>
	<path fill="#7A62A9" d="M112.1,82.6h1.5c0.4,0,0.7-0.3,0.7-0.7c0-0.4-0.3-0.7-0.7-0.7h-1.5c-0.4,0-0.7,0.3-0.7,0.7
		C111.4,82.3,111.7,82.6,112.1,82.6"/>
	<polygon fill="#7A62A9" points="89,80.2 89.1,80.9 94.9,80.3 94.9,83.5 89.7,82.9 89.7,80.2 89,80.2 89.1,80.9 89,80.2 88.3,80.2 
		88.3,83.5 88.3,84.1 96.3,85.1 96.3,78.8 88.3,79.6 88.3,80.2 	"/>
</g>
</svg>
