<?xml version="1.0" encoding="utf-8"?>
<!-- Generator: Adobe Illustrator 18.0.0, SVG Export Plug-In . SVG Version: 6.00 Build 0)  -->
<!DOCTYPE svg PUBLIC "-//W3C//DTD SVG 1.1//EN" "http://www.w3.org/Graphics/SVG/1.1/DTD/svg11.dtd">
<svg version="1.1" id="Layer_1" xmlns="http://www.w3.org/2000/svg" xmlns:xlink="http://www.w3.org/1999/xlink" x="0px" y="0px"
	 viewBox="0 0 117.8 92.8" enable-background="new 0 0 117.8 92.8" xml:space="preserve">
<g>
	<path fill="#6C54A3" d="M47.6,31.8c0-4.2,0.4-8.9,1.3-12.5c0.7-2.8-13.4-0.7-13.4,11.3c0,3.5,0.9,8.6,5,14.2c0,0,0,0,0,0.1
		c0.3,0.4,0.7,0.9,1,1.3c3,3.7,6.4,6.2,9.4,7.8c0.2-1.6,0.9-3.1,2-4.2C50.6,45.4,47.7,39.3,47.6,31.8"/>
	<path fill="#6C54A3" d="M40.5,47.9c-1.1-1.1-3-3.6-4.9-8c-1-2.3-7.8-0.7-6,8.1c0.8,3.8,5.2,7.2,7.5,8.6c1.3,0.8,2.9,1.5,4.7,2.1
		c2.7,0.9,5.3,1.2,7.6,1.2c1,0,1.9-0.1,2.7-0.2l0.1-0.1c-0.7-1.1-1.2-2.5-1.2-3.9C47.6,54.1,44.1,51.4,40.5,47.9"/>
	<path fill="#6C54A3" d="M76.3,46.2c0.3-0.4,0.7-0.8,1-1.3c0,0,0,0,0-0.1c4.1-5.6,5-10.7,5-14.2c0-12-14.1-14.1-13.4-11.3
		c0.9,3.6,1.3,8.3,1.3,12.5c-0.1,7.5-2.9,13.6-5.2,18c1,1.2,1.7,2.6,2,4.2C69.9,52.4,73.3,49.9,76.3,46.2"/>
	<path fill="#6C54A3" d="M59,47.1c1.9,0,3.7,0.7,5.1,1.9c2-4,3.8-9.4,4.1-16c0-0.6,0-1.1,0-1.7v0c0-8.1-2.4-13.8-4.8-17.4
		c-1.2-1.8-1.7-3.3-4.5-3.3c-2.7,0-3.3,1.5-4.5,3.3c-2.4,3.6-4.9,9.3-4.9,17.4v0c0,0.6,0,1.1,0,1.7c0.3,6.6,2.1,12,4.1,16
		c1.4-1.1,3.2-1.8,5.1-1.9H59z"/>
	<path fill="#6C54A3" d="M82.2,39.9c-1.9,4.4-3.8,6.9-4.9,8c-3.6,3.6-7.1,6.2-10.3,7.8c-0.1,1.4-0.5,2.8-1.2,3.9l0.1,0.1
		c0.8,0.1,1.7,0.2,2.7,0.2c2.3,0,4.9-0.3,7.6-1.2c1.8-0.6,3.3-1.3,4.7-2.1c2.2-1.3,6.7-4.8,7.5-8.6C90,39.2,83.2,37.6,82.2,39.9"/>
	<path fill="#F37155" d="M65.7,54.7c-0.1-1.4-0.6-2.6-1.4-3.6c-0.2-0.3-0.5-0.6-0.8-0.9c-1-0.9-2.3-1.6-3.8-1.7
		c-0.3,0-0.5-0.1-0.8-0.1c-0.3,0-0.5,0-0.8,0.1c-1.5,0.2-2.8,0.8-3.8,1.7c-0.3,0.3-0.6,0.6-0.8,0.9c-0.8,1-1.3,2.3-1.4,3.6
		c0,0.2,0,0.4,0,0.6c0,0.4,0,0.8,0.1,1.1c0.1,0.7,0.3,1.3,0.6,1.9c1.1,2.3,3.5,3.8,6.1,3.8c2.7,0,5-1.6,6.1-3.8
		c0.3-0.6,0.5-1.2,0.6-1.9c0.1-0.4,0.1-0.7,0.1-1.1C65.8,55.1,65.8,54.9,65.7,54.7"/>
</g>
<g>
	<path fill="#6C54A3" d="M13.6,82.9c0,0.6-0.3,0.9-0.9,0.9c-0.8,0-1.3,0.1-1.7,0.1c-1.8,0-3.3-0.6-4.6-1.8c-1.3-1.2-1.9-2.7-1.9-4.5
		v-8.8c0-0.2,0.1-0.4,0.3-0.6C5,68.1,5.2,68,5.4,68c0.2,0,0.5,0.1,0.6,0.3c0.2,0.2,0.3,0.4,0.3,0.7v2.2h6.2c0.6,0,0.9,0.3,0.9,0.9
		c0,0.3-0.1,0.5-0.3,0.7C13,72.9,12.8,73,12.5,73H6.4v4.5c0,1.3,0.5,2.3,1.4,3.2c0.9,0.9,2,1.3,3.3,1.3h0.8h0.8
		c0.2,0,0.5,0.1,0.7,0.3C13.5,82.5,13.6,82.7,13.6,82.9"/>
	<path fill="#6C54A3" d="M26.7,76.5c-0.2-1.1-0.7-2-1.4-2.6c-0.8-0.7-1.7-1.1-2.8-1.1c-1.1,0-2.1,0.3-2.9,1
		c-0.8,0.7-1.4,1.6-1.6,2.6H26.7z M28.8,78.4H18c0.2,1,0.8,1.9,1.6,2.5c0.8,0.6,1.8,1,2.9,1h0.8h0.8c0.6,0,1,0.4,1,1
		c0,0.6-0.3,0.9-0.9,0.9c-0.3,0-0.9,0-1.7,0c-1.8,0-3.3-0.6-4.6-1.9c-1.3-1.3-1.9-2.8-1.9-4.6c0-1.8,0.6-3.3,1.9-4.5
		c1.3-1.3,2.8-1.9,4.6-1.9c1.3,0,2.5,0.4,3.6,1.1c1.1,0.7,1.9,1.7,2.4,2.9c0.3,0.7,0.4,1.2,0.4,1.6V78.4z"/>
	<path fill="#6C54A3" d="M33,82.9c0,0.2-0.1,0.5-0.3,0.6c-0.2,0.2-0.4,0.2-0.7,0.2c-0.3,0-0.5-0.1-0.6-0.3c-0.2-0.2-0.3-0.4-0.3-0.7
		V67.9c0-0.2,0.1-0.4,0.3-0.6c0.2-0.2,0.4-0.3,0.6-0.3c0.2,0,0.5,0.1,0.7,0.3c0.2,0.2,0.3,0.4,0.3,0.7V82.9z"/>
	<path fill="#6C54A3" d="M44.6,71.8c0,0.2-0.1,0.5-0.3,0.6c-0.2,0.2-0.4,0.3-0.6,0.3h-0.8H42c-1.3,0-2.4,0.4-3.3,1.3
		c-0.9,0.9-1.3,2-1.3,3.2c0,1.3,0.5,2.3,1.3,3.2c0.9,0.9,2,1.3,3.2,1.3h0.8h0.8c0.3,0,0.5,0.1,0.7,0.3c0.2,0.2,0.3,0.4,0.3,0.6
		c0,0.6-0.3,0.9-0.9,0.9c-0.5,0-1,0.1-1.7,0.1c-1.8,0-3.3-0.6-4.5-1.9c-1.3-1.3-1.9-2.8-1.9-4.5c0-1.8,0.6-3.3,1.9-4.6
		c1.3-1.3,2.8-1.9,4.5-1.9h1.6c0.2,0,0.5,0.1,0.7,0.3C44.5,71.3,44.6,71.6,44.6,71.8"/>
	<path fill="#6C54A3" d="M58.1,77.4c0-1.3-0.4-2.3-1.3-3.2c-0.9-0.9-2-1.3-3.2-1.3c-1.3,0-2.4,0.4-3.2,1.3c-0.9,0.9-1.3,2-1.3,3.2
		c0,1.3,0.4,2.3,1.3,3.2c0.9,0.9,2,1.3,3.2,1.3c1.3,0,2.3-0.4,3.2-1.3C57.7,79.7,58.1,78.6,58.1,77.4 M60,77.4
		c0,1.8-0.6,3.3-1.9,4.6c-1.3,1.3-2.8,1.9-4.5,1.9c-1.8,0-3.3-0.6-4.5-1.9c-1.3-1.3-1.9-2.8-1.9-4.6c0-1.8,0.6-3.3,1.9-4.5
		c1.3-1.3,2.8-1.9,4.5-1.9c1.8,0,3.3,0.6,4.5,1.9C59.3,74.1,60,75.6,60,77.4"/>
	<path fill="#6C54A3" d="M71.6,82.9c0,0.6-0.3,0.9-0.9,0.9c-0.8,0-1.3,0.1-1.7,0.1c-1.8,0-3.3-0.6-4.6-1.8c-1.3-1.2-1.9-2.7-1.9-4.5
		v-8.8c0-0.2,0.1-0.4,0.3-0.6c0.2-0.2,0.4-0.3,0.6-0.3c0.2,0,0.5,0.1,0.6,0.3c0.2,0.2,0.3,0.4,0.3,0.7v2.2h6.2
		c0.6,0,0.9,0.3,0.9,0.9c0,0.3-0.1,0.5-0.3,0.7C71,72.9,70.8,73,70.5,73h-6.1v4.5c0,1.3,0.5,2.3,1.4,3.2c0.9,0.9,2,1.3,3.3,1.3h0.8
		h0.8c0.3,0,0.5,0.1,0.7,0.3C71.5,82.5,71.6,82.7,71.6,82.9"/>
	<path fill="#6C54A3" d="M84.7,76.5c-0.2-1.1-0.7-2-1.4-2.6c-0.8-0.7-1.7-1.1-2.8-1.1c-1.1,0-2.1,0.3-2.9,1
		c-0.8,0.7-1.4,1.6-1.6,2.6H84.7z M86.8,78.4H76c0.2,1,0.8,1.9,1.6,2.5c0.8,0.7,1.8,1,2.9,1h0.8h0.8c0.6,0,1,0.4,1,1
		c0,0.6-0.3,0.9-0.9,0.9c-0.3,0-0.9,0-1.7,0c-1.8,0-3.3-0.6-4.6-1.9c-1.3-1.3-1.9-2.8-1.9-4.6c0-1.8,0.6-3.3,1.9-4.5
		c1.3-1.3,2.8-1.9,4.6-1.9c1.3,0,2.5,0.4,3.6,1.1c1.1,0.7,1.9,1.7,2.4,2.9c0.3,0.7,0.4,1.2,0.4,1.6V78.4z"/>
	<path fill="#6C54A3" d="M97.7,71.8c0,0.2-0.1,0.5-0.3,0.6c-0.2,0.2-0.4,0.3-0.6,0.3H96h-0.8c-1.3,0-2.4,0.4-3.3,1.3
		c-0.9,0.9-1.3,2-1.3,3.2c0,1.3,0.5,2.3,1.4,3.2c0.9,0.9,2,1.3,3.2,1.3H96h0.8c0.3,0,0.5,0.1,0.7,0.3c0.2,0.2,0.3,0.4,0.3,0.6
		c0,0.6-0.3,0.9-0.9,0.9c-0.5,0-1,0.1-1.7,0.1c-1.8,0-3.3-0.6-4.5-1.9c-1.3-1.3-1.9-2.8-1.9-4.5c0-1.8,0.6-3.3,1.9-4.6
		c1.3-1.3,2.8-1.9,4.5-1.9h1.6c0.3,0,0.5,0.1,0.7,0.3C97.6,71.3,97.7,71.6,97.7,71.8"/>
	<path fill="#6C54A3" d="M113.3,82.8c0,0.3-0.1,0.5-0.3,0.7c-0.2,0.2-0.4,0.3-0.7,0.3c-0.3,0-0.5-0.1-0.7-0.3
		c-0.2-0.2-0.3-0.4-0.3-0.7v-5.4c0-1.3-0.4-2.3-1.3-3.2c-0.9-0.9-1.9-1.3-3.2-1.3c-1.3,0-2.3,0.4-3.2,1.3c-0.9,0.9-1.3,2-1.3,3.2
		l0,5.6c0,0.6-0.3,0.9-0.9,0.9c-0.3,0-0.5-0.1-0.7-0.3c-0.2-0.2-0.3-0.4-0.3-0.7V67.9c0-0.2,0.1-0.4,0.3-0.6
		c0.2-0.2,0.4-0.3,0.7-0.3c0.2,0,0.5,0.1,0.7,0.3c0.2,0.2,0.3,0.4,0.3,0.7v5c1.3-1.4,2.8-2.1,4.5-2.1c1.8,0,3.3,0.6,4.5,1.9
		c1.3,1.3,1.9,2.8,1.9,4.5V82.8z"/>
</g>
</svg>
